G04 (created by PCBNEW (2013-07-07 BZR 4022)-stable) date 26/11/2014 23:59:09*
%MOIN*%
G04 Gerber Fmt 3.4, Leading zero omitted, Abs format*
%FSLAX34Y34*%
G01*
G70*
G90*
G04 APERTURE LIST*
%ADD10C,0.00590551*%
%ADD11C,0.012*%
%ADD12C,0.015*%
%ADD13C,0.0059*%
%ADD14C,0.01*%
%ADD15C,0.00787402*%
%ADD16C,0.0025*%
%ADD17C,0.005*%
%ADD18C,0.0001*%
%ADD19C,0.00625*%
%ADD20C,0.0063*%
G04 APERTURE END LIST*
G54D10*
G54D11*
X90638Y-28197D02*
X89838Y-28197D01*
X89838Y-27968D01*
X89876Y-27911D01*
X89914Y-27883D01*
X89991Y-27854D01*
X90105Y-27854D01*
X90181Y-27883D01*
X90219Y-27911D01*
X90257Y-27968D01*
X90257Y-28197D01*
X90105Y-27654D02*
X90638Y-27540D01*
X90257Y-27425D01*
X90638Y-27311D01*
X90105Y-27197D01*
X90638Y-26968D02*
X90105Y-26968D01*
X90257Y-26968D02*
X90181Y-26940D01*
X90143Y-26911D01*
X90105Y-26854D01*
X90105Y-26797D01*
X90638Y-26597D02*
X89838Y-26597D01*
X90105Y-26311D02*
X90638Y-26311D01*
X90181Y-26311D02*
X90143Y-26283D01*
X90105Y-26225D01*
X90105Y-26140D01*
X90143Y-26083D01*
X90219Y-26054D01*
X90638Y-26054D01*
X68367Y-31780D02*
X68024Y-31780D01*
X68195Y-31780D02*
X68195Y-30980D01*
X68138Y-31094D01*
X68081Y-31170D01*
X68024Y-31209D01*
X68595Y-31056D02*
X68624Y-31018D01*
X68681Y-30980D01*
X68824Y-30980D01*
X68881Y-31018D01*
X68910Y-31056D01*
X68938Y-31132D01*
X68938Y-31209D01*
X68910Y-31323D01*
X68567Y-31780D01*
X68938Y-31780D01*
X69110Y-30980D02*
X69310Y-31780D01*
X69510Y-30980D01*
X70281Y-30980D02*
X70395Y-30980D01*
X70452Y-31018D01*
X70510Y-31094D01*
X70538Y-31247D01*
X70538Y-31513D01*
X70510Y-31666D01*
X70452Y-31742D01*
X70395Y-31780D01*
X70281Y-31780D01*
X70224Y-31742D01*
X70167Y-31666D01*
X70138Y-31513D01*
X70138Y-31247D01*
X70167Y-31094D01*
X70224Y-31018D01*
X70281Y-30980D01*
X71052Y-31247D02*
X71052Y-31780D01*
X70795Y-31247D02*
X70795Y-31666D01*
X70824Y-31742D01*
X70881Y-31780D01*
X70967Y-31780D01*
X71024Y-31742D01*
X71052Y-31704D01*
X71252Y-31247D02*
X71481Y-31247D01*
X71338Y-30980D02*
X71338Y-31666D01*
X71367Y-31742D01*
X71424Y-31780D01*
X71481Y-31780D01*
X68106Y-26060D02*
X68106Y-26346D01*
X68487Y-26374D01*
X68449Y-26346D01*
X68411Y-26289D01*
X68411Y-26146D01*
X68449Y-26089D01*
X68487Y-26060D01*
X68563Y-26032D01*
X68754Y-26032D01*
X68830Y-26060D01*
X68868Y-26089D01*
X68906Y-26146D01*
X68906Y-26289D01*
X68868Y-26346D01*
X68830Y-26374D01*
X68106Y-25860D02*
X68906Y-25660D01*
X68106Y-25460D01*
X68106Y-24689D02*
X68106Y-24574D01*
X68144Y-24517D01*
X68220Y-24460D01*
X68373Y-24432D01*
X68639Y-24432D01*
X68792Y-24460D01*
X68868Y-24517D01*
X68906Y-24574D01*
X68906Y-24689D01*
X68868Y-24746D01*
X68792Y-24803D01*
X68639Y-24832D01*
X68373Y-24832D01*
X68220Y-24803D01*
X68144Y-24746D01*
X68106Y-24689D01*
X68373Y-23917D02*
X68906Y-23917D01*
X68373Y-24174D02*
X68792Y-24174D01*
X68868Y-24146D01*
X68906Y-24089D01*
X68906Y-24003D01*
X68868Y-23946D01*
X68830Y-23917D01*
X68373Y-23717D02*
X68373Y-23489D01*
X68106Y-23632D02*
X68792Y-23632D01*
X68868Y-23603D01*
X68906Y-23546D01*
X68906Y-23489D01*
G54D12*
X93149Y-47716D02*
X94724Y-47716D01*
X93149Y-45393D02*
X93149Y-47716D01*
G54D11*
X89927Y-36571D02*
X90041Y-36571D01*
X90098Y-36609D01*
X90156Y-36685D01*
X90184Y-36837D01*
X90184Y-37104D01*
X90156Y-37256D01*
X90098Y-37332D01*
X90041Y-37371D01*
X89927Y-37371D01*
X89870Y-37332D01*
X89813Y-37256D01*
X89784Y-37104D01*
X89784Y-36837D01*
X89813Y-36685D01*
X89870Y-36609D01*
X89927Y-36571D01*
X90698Y-36837D02*
X90698Y-37371D01*
X90441Y-36837D02*
X90441Y-37256D01*
X90470Y-37332D01*
X90527Y-37371D01*
X90613Y-37371D01*
X90670Y-37332D01*
X90698Y-37294D01*
X90898Y-36837D02*
X91127Y-36837D01*
X90984Y-36571D02*
X90984Y-37256D01*
X91013Y-37332D01*
X91070Y-37371D01*
X91127Y-37371D01*
X91327Y-36837D02*
X91327Y-37637D01*
X91327Y-36875D02*
X91384Y-36837D01*
X91498Y-36837D01*
X91556Y-36875D01*
X91584Y-36913D01*
X91613Y-36990D01*
X91613Y-37218D01*
X91584Y-37294D01*
X91556Y-37332D01*
X91498Y-37371D01*
X91384Y-37371D01*
X91327Y-37332D01*
X92127Y-36837D02*
X92127Y-37371D01*
X91870Y-36837D02*
X91870Y-37256D01*
X91898Y-37332D01*
X91956Y-37371D01*
X92041Y-37371D01*
X92098Y-37332D01*
X92127Y-37294D01*
X92327Y-36837D02*
X92556Y-36837D01*
X92413Y-36571D02*
X92413Y-37256D01*
X92441Y-37332D01*
X92498Y-37371D01*
X92556Y-37371D01*
X90481Y-45277D02*
X89681Y-45277D01*
X89947Y-44991D02*
X90481Y-44991D01*
X90024Y-44991D02*
X89986Y-44962D01*
X89947Y-44905D01*
X89947Y-44819D01*
X89986Y-44762D01*
X90062Y-44734D01*
X90481Y-44734D01*
X89947Y-44448D02*
X90747Y-44448D01*
X89986Y-44448D02*
X89947Y-44391D01*
X89947Y-44277D01*
X89986Y-44219D01*
X90024Y-44191D01*
X90100Y-44162D01*
X90328Y-44162D01*
X90405Y-44191D01*
X90443Y-44219D01*
X90481Y-44277D01*
X90481Y-44391D01*
X90443Y-44448D01*
X89947Y-43648D02*
X90481Y-43648D01*
X89947Y-43905D02*
X90367Y-43905D01*
X90443Y-43877D01*
X90481Y-43819D01*
X90481Y-43734D01*
X90443Y-43677D01*
X90405Y-43648D01*
X89947Y-43448D02*
X89947Y-43219D01*
X89681Y-43362D02*
X90367Y-43362D01*
X90443Y-43334D01*
X90481Y-43277D01*
X90481Y-43219D01*
X91496Y-47172D02*
X91496Y-45598D01*
X91383Y-45823D02*
X91608Y-45823D01*
X91777Y-45898D01*
X91889Y-46047D01*
X91946Y-46197D01*
X91946Y-46497D01*
X91889Y-46647D01*
X91777Y-46797D01*
X91608Y-46872D01*
X91383Y-46872D01*
X91214Y-46797D01*
X91102Y-46647D01*
X91046Y-46497D01*
X91046Y-46197D01*
X91102Y-46047D01*
X91214Y-45898D01*
X91383Y-45823D01*
X91557Y-39023D02*
X91670Y-39023D01*
X91782Y-39098D01*
X91839Y-39173D01*
X91895Y-39323D01*
X91951Y-39623D01*
X91951Y-39998D01*
X91895Y-40298D01*
X91839Y-40448D01*
X91782Y-40523D01*
X91670Y-40598D01*
X91557Y-40598D01*
X91445Y-40523D01*
X91389Y-40448D01*
X91332Y-40298D01*
X91276Y-39998D01*
X91276Y-39623D01*
X91332Y-39323D01*
X91389Y-39173D01*
X91445Y-39098D01*
X91557Y-39023D01*
X90196Y-36188D02*
X90196Y-34613D01*
X90084Y-34838D02*
X90309Y-34838D01*
X90478Y-34913D01*
X90590Y-35063D01*
X90646Y-35213D01*
X90646Y-35513D01*
X90590Y-35663D01*
X90478Y-35813D01*
X90309Y-35888D01*
X90084Y-35888D01*
X89915Y-35813D01*
X89803Y-35663D01*
X89746Y-35513D01*
X89746Y-35213D01*
X89803Y-35063D01*
X89915Y-34913D01*
X90084Y-34838D01*
X90121Y-32525D02*
X90271Y-32525D01*
X90421Y-32581D01*
X90496Y-32637D01*
X90571Y-32750D01*
X90646Y-32975D01*
X90646Y-33256D01*
X90571Y-33481D01*
X90496Y-33593D01*
X90421Y-33650D01*
X90271Y-33706D01*
X90121Y-33706D01*
X89971Y-33650D01*
X89896Y-33593D01*
X89821Y-33481D01*
X89746Y-33256D01*
X89746Y-32975D01*
X89821Y-32750D01*
X89896Y-32637D01*
X89971Y-32581D01*
X90121Y-32525D01*
X65796Y-34590D02*
X64996Y-34590D01*
X64996Y-34362D01*
X65034Y-34304D01*
X65072Y-34276D01*
X65148Y-34247D01*
X65262Y-34247D01*
X65339Y-34276D01*
X65377Y-34304D01*
X65415Y-34362D01*
X65415Y-34590D01*
X65796Y-33990D02*
X65262Y-33990D01*
X64996Y-33990D02*
X65034Y-34019D01*
X65072Y-33990D01*
X65034Y-33962D01*
X64996Y-33990D01*
X65072Y-33990D01*
X65796Y-33619D02*
X65758Y-33676D01*
X65681Y-33704D01*
X64996Y-33704D01*
X65796Y-33304D02*
X65758Y-33362D01*
X65681Y-33390D01*
X64996Y-33390D01*
X91874Y-48851D02*
X91902Y-48813D01*
X91959Y-48775D01*
X92102Y-48775D01*
X92159Y-48813D01*
X92188Y-48851D01*
X92216Y-48928D01*
X92216Y-49004D01*
X92188Y-49118D01*
X91845Y-49575D01*
X92216Y-49575D01*
X92445Y-48851D02*
X92474Y-48813D01*
X92531Y-48775D01*
X92674Y-48775D01*
X92731Y-48813D01*
X92759Y-48851D01*
X92788Y-48928D01*
X92788Y-49004D01*
X92759Y-49118D01*
X92416Y-49575D01*
X92788Y-49575D01*
X93159Y-48775D02*
X93216Y-48775D01*
X93274Y-48813D01*
X93302Y-48851D01*
X93331Y-48928D01*
X93359Y-49080D01*
X93359Y-49271D01*
X93331Y-49423D01*
X93302Y-49499D01*
X93274Y-49537D01*
X93216Y-49575D01*
X93159Y-49575D01*
X93102Y-49537D01*
X93074Y-49499D01*
X93045Y-49423D01*
X93016Y-49271D01*
X93016Y-49080D01*
X93045Y-48928D01*
X93074Y-48851D01*
X93102Y-48813D01*
X93159Y-48775D01*
X93531Y-48775D02*
X93731Y-49575D01*
X93931Y-48775D01*
G54D12*
X89448Y-46377D02*
X91259Y-50393D01*
X89448Y-31220D02*
X89448Y-46377D01*
X92677Y-31220D02*
X89448Y-31220D01*
G54D13*
X94881Y-40669D02*
X93149Y-40669D01*
X93149Y-40669D02*
X93149Y-36495D01*
X93149Y-36495D02*
X94881Y-36495D01*
X94881Y-36495D02*
X94881Y-40669D01*
G54D10*
X89271Y-26496D02*
X89271Y-33188D01*
X89271Y-33188D02*
X86318Y-33188D01*
X86318Y-33188D02*
X86318Y-26496D01*
X86318Y-26496D02*
X89271Y-26496D01*
G54D13*
X68700Y-46535D02*
X68700Y-43582D01*
X68700Y-43582D02*
X61889Y-43582D01*
X61889Y-43582D02*
X61889Y-49488D01*
X61889Y-49488D02*
X68700Y-49488D01*
X68700Y-49488D02*
X68700Y-46535D01*
X68700Y-40236D02*
X68700Y-37283D01*
X68700Y-37283D02*
X61889Y-37283D01*
X61889Y-37283D02*
X61889Y-43189D01*
X61889Y-43189D02*
X68700Y-43189D01*
X68700Y-43189D02*
X68700Y-40236D01*
G54D14*
X94764Y-46890D02*
X94764Y-46102D01*
X94764Y-46102D02*
X94567Y-45905D01*
X94567Y-47087D02*
X94764Y-46890D01*
X93779Y-45905D02*
X93582Y-46102D01*
X93582Y-46102D02*
X93582Y-46890D01*
X93582Y-46890D02*
X93779Y-47087D01*
G54D13*
X88031Y-39566D02*
X87520Y-40078D01*
X89960Y-42874D02*
X87520Y-42874D01*
X87520Y-42874D02*
X87520Y-39566D01*
X87520Y-39566D02*
X89960Y-39566D01*
X89960Y-39566D02*
X89960Y-42874D01*
G54D15*
X69240Y-36645D02*
X69240Y-36745D01*
X69240Y-36745D02*
X68240Y-36745D01*
X68240Y-36745D02*
X68240Y-36645D01*
X68240Y-36645D02*
X68240Y-36695D01*
X68240Y-36695D02*
X69240Y-36695D01*
X68240Y-35645D02*
X69240Y-35645D01*
X68240Y-36645D02*
X68240Y-32645D01*
X68240Y-32645D02*
X69240Y-32645D01*
X69240Y-32645D02*
X69240Y-36645D01*
X69240Y-36645D02*
X68240Y-36645D01*
X87511Y-23122D02*
X87611Y-23122D01*
X87611Y-23122D02*
X87611Y-24122D01*
X87611Y-24122D02*
X87511Y-24122D01*
X87511Y-24122D02*
X87561Y-24122D01*
X87561Y-24122D02*
X87561Y-23122D01*
X86511Y-24122D02*
X86511Y-23122D01*
X87511Y-24122D02*
X83511Y-24122D01*
X83511Y-24122D02*
X83511Y-23122D01*
X83511Y-23122D02*
X87511Y-23122D01*
X87511Y-23122D02*
X87511Y-24122D01*
X70814Y-35723D02*
X70814Y-35673D01*
X69814Y-35673D02*
X69814Y-35773D01*
X69814Y-35773D02*
X70814Y-35773D01*
X70814Y-35773D02*
X70814Y-35723D01*
X70814Y-35723D02*
X69864Y-35723D01*
X70814Y-32673D02*
X70814Y-35673D01*
X69814Y-35673D02*
X69814Y-32673D01*
X69814Y-34673D02*
X70814Y-34673D01*
X69814Y-32673D02*
X70814Y-32673D01*
X70814Y-35673D02*
X69814Y-35673D01*
G54D12*
X82913Y-40708D02*
X82913Y-26141D01*
X71889Y-40708D02*
X71889Y-26141D01*
X71496Y-40708D02*
X86062Y-40708D01*
X71496Y-26141D02*
X71496Y-40708D01*
X86062Y-26141D02*
X71496Y-26141D01*
X88464Y-35196D02*
X86062Y-35196D01*
X86062Y-35196D02*
X86062Y-26141D01*
X86062Y-37559D02*
X86062Y-35196D01*
X86062Y-37559D02*
X86062Y-40708D01*
X89212Y-37559D02*
X86062Y-37559D01*
X89212Y-35196D02*
X89212Y-37559D01*
X88464Y-35196D02*
X89212Y-35196D01*
G54D13*
X87531Y-36627D02*
X87531Y-36127D01*
X87531Y-36127D02*
X88531Y-36127D01*
X88531Y-36127D02*
X88531Y-36627D01*
X88531Y-36627D02*
X87531Y-36627D01*
X88781Y-37127D02*
X87281Y-37127D01*
X87281Y-37127D02*
X87281Y-35627D01*
X87281Y-35627D02*
X88781Y-35627D01*
X88781Y-35627D02*
X88781Y-37127D01*
X88031Y-37377D02*
X87031Y-37377D01*
X87031Y-37377D02*
X87031Y-35377D01*
X87031Y-35377D02*
X89031Y-35377D01*
X89031Y-35377D02*
X89031Y-37377D01*
X89031Y-37377D02*
X88031Y-37377D01*
G54D16*
X70629Y-44980D02*
X71613Y-44980D01*
X71613Y-44980D02*
X71613Y-44113D01*
X70629Y-44980D02*
X69645Y-44980D01*
X69645Y-44980D02*
X69645Y-44094D01*
X72499Y-42519D02*
G75*
G03X72499Y-42519I-1870J0D01*
G74*
G01*
G54D17*
X74951Y-42125D02*
G75*
G03X74951Y-42125I-700J0D01*
G74*
G01*
X75451Y-43325D02*
X75451Y-40925D01*
X75451Y-40925D02*
X73051Y-40925D01*
X73051Y-40925D02*
X73051Y-43325D01*
X73051Y-43325D02*
X75451Y-43325D01*
X81251Y-42125D02*
G75*
G03X81251Y-42125I-700J0D01*
G74*
G01*
X81751Y-43325D02*
X81751Y-40925D01*
X81751Y-40925D02*
X79351Y-40925D01*
X79351Y-40925D02*
X79351Y-43325D01*
X79351Y-43325D02*
X81751Y-43325D01*
X74951Y-24566D02*
G75*
G03X74951Y-24566I-700J0D01*
G74*
G01*
X73051Y-23366D02*
X73051Y-25766D01*
X73051Y-25766D02*
X75451Y-25766D01*
X75451Y-25766D02*
X75451Y-23366D01*
X75451Y-23366D02*
X73051Y-23366D01*
X81251Y-24566D02*
G75*
G03X81251Y-24566I-700J0D01*
G74*
G01*
X79351Y-23366D02*
X79351Y-25766D01*
X79351Y-25766D02*
X81751Y-25766D01*
X81751Y-25766D02*
X81751Y-23366D01*
X81751Y-23366D02*
X79351Y-23366D01*
G54D15*
X66377Y-32598D02*
X63070Y-32598D01*
X63070Y-32598D02*
X63070Y-36850D01*
X63070Y-36850D02*
X66377Y-36850D01*
X67007Y-35826D02*
X67007Y-35669D01*
X67007Y-34645D02*
X67007Y-34803D01*
X67007Y-33622D02*
X67007Y-33779D01*
X67007Y-32598D02*
X67007Y-32834D01*
X67007Y-32598D02*
X66377Y-32598D01*
X66377Y-32598D02*
X66377Y-36850D01*
X66377Y-36850D02*
X67007Y-36850D01*
X67007Y-36850D02*
X67007Y-36614D01*
X95708Y-24960D02*
X94921Y-24370D01*
X94921Y-24370D02*
X95708Y-23779D01*
X95708Y-26929D02*
X94921Y-26338D01*
X94921Y-26338D02*
X95708Y-25748D01*
X90787Y-23188D02*
X95708Y-23188D01*
X90787Y-27519D02*
X95708Y-27519D01*
X95708Y-27519D02*
X95708Y-22992D01*
X95708Y-22992D02*
X90787Y-22992D01*
X90787Y-22992D02*
X90787Y-27519D01*
X63031Y-30393D02*
X63818Y-30984D01*
X63818Y-30984D02*
X63031Y-31574D01*
X63031Y-28425D02*
X63818Y-29015D01*
X63818Y-29015D02*
X63031Y-29606D01*
X67952Y-32165D02*
X63031Y-32165D01*
X67952Y-27834D02*
X63031Y-27834D01*
X63031Y-27834D02*
X63031Y-32362D01*
X63031Y-32362D02*
X67952Y-32362D01*
X67952Y-32362D02*
X67952Y-27834D01*
X95748Y-42795D02*
X94960Y-42204D01*
X94960Y-42204D02*
X95748Y-41614D01*
X95748Y-44763D02*
X94960Y-44173D01*
X94960Y-44173D02*
X95748Y-43582D01*
X90826Y-41023D02*
X95748Y-41023D01*
X90826Y-45354D02*
X95748Y-45354D01*
X95748Y-45354D02*
X95748Y-40826D01*
X95748Y-40826D02*
X90826Y-40826D01*
X90826Y-40826D02*
X90826Y-45354D01*
X95748Y-33779D02*
X94960Y-33188D01*
X94960Y-33188D02*
X95748Y-32598D01*
X95748Y-35748D02*
X94960Y-35157D01*
X94960Y-35157D02*
X95748Y-34566D01*
X90826Y-32007D02*
X95748Y-32007D01*
X90826Y-36338D02*
X95748Y-36338D01*
X95748Y-36338D02*
X95748Y-31811D01*
X95748Y-31811D02*
X90826Y-31811D01*
X90826Y-31811D02*
X90826Y-36338D01*
X63031Y-25669D02*
X63818Y-26259D01*
X63818Y-26259D02*
X63031Y-26850D01*
X63031Y-23700D02*
X63818Y-24291D01*
X63818Y-24291D02*
X63031Y-24881D01*
X67952Y-27440D02*
X63031Y-27440D01*
X67952Y-23110D02*
X63031Y-23110D01*
X63031Y-23110D02*
X63031Y-27637D01*
X63031Y-27637D02*
X67952Y-27637D01*
X67952Y-27637D02*
X67952Y-23110D01*
G54D13*
X92733Y-39904D02*
X92924Y-39904D01*
X92947Y-39892D01*
X92958Y-39881D01*
X92969Y-39859D01*
X92969Y-39814D01*
X92958Y-39791D01*
X92947Y-39780D01*
X92924Y-39769D01*
X92733Y-39769D01*
X92756Y-39668D02*
X92744Y-39656D01*
X92733Y-39634D01*
X92733Y-39578D01*
X92744Y-39555D01*
X92756Y-39544D01*
X92778Y-39533D01*
X92800Y-39533D01*
X92834Y-39544D01*
X92969Y-39679D01*
X92969Y-39533D01*
X92845Y-39149D02*
X92856Y-39116D01*
X92868Y-39104D01*
X92890Y-39093D01*
X92924Y-39093D01*
X92946Y-39104D01*
X92958Y-39116D01*
X92969Y-39138D01*
X92969Y-39228D01*
X92733Y-39228D01*
X92733Y-39149D01*
X92744Y-39127D01*
X92755Y-39116D01*
X92778Y-39104D01*
X92800Y-39104D01*
X92823Y-39116D01*
X92834Y-39127D01*
X92845Y-39149D01*
X92845Y-39228D01*
X92733Y-39026D02*
X92733Y-38891D01*
X92969Y-38958D02*
X92733Y-38958D01*
X92845Y-38734D02*
X92856Y-38700D01*
X92868Y-38689D01*
X92890Y-38677D01*
X92924Y-38677D01*
X92946Y-38689D01*
X92958Y-38700D01*
X92969Y-38722D01*
X92969Y-38812D01*
X92733Y-38812D01*
X92733Y-38734D01*
X92744Y-38711D01*
X92755Y-38700D01*
X92778Y-38689D01*
X92800Y-38689D01*
X92823Y-38700D01*
X92834Y-38711D01*
X92845Y-38734D01*
X92845Y-38812D01*
X92733Y-38475D02*
X92733Y-38520D01*
X92744Y-38543D01*
X92755Y-38554D01*
X92789Y-38576D01*
X92834Y-38587D01*
X92924Y-38587D01*
X92946Y-38576D01*
X92958Y-38565D01*
X92969Y-38543D01*
X92969Y-38498D01*
X92958Y-38475D01*
X92946Y-38464D01*
X92924Y-38453D01*
X92868Y-38453D01*
X92845Y-38464D01*
X92834Y-38475D01*
X92823Y-38498D01*
X92823Y-38543D01*
X92834Y-38565D01*
X92845Y-38576D01*
X92868Y-38587D01*
X92733Y-38307D02*
X92733Y-38284D01*
X92744Y-38262D01*
X92755Y-38250D01*
X92778Y-38239D01*
X92823Y-38228D01*
X92879Y-38228D01*
X92924Y-38239D01*
X92946Y-38250D01*
X92958Y-38262D01*
X92969Y-38284D01*
X92969Y-38307D01*
X92958Y-38329D01*
X92946Y-38340D01*
X92924Y-38351D01*
X92879Y-38363D01*
X92823Y-38363D01*
X92778Y-38351D01*
X92755Y-38340D01*
X92744Y-38329D01*
X92733Y-38307D01*
X92733Y-38082D02*
X92733Y-38059D01*
X92744Y-38037D01*
X92755Y-38026D01*
X92778Y-38014D01*
X92823Y-38003D01*
X92879Y-38003D01*
X92924Y-38014D01*
X92946Y-38026D01*
X92958Y-38037D01*
X92969Y-38059D01*
X92969Y-38082D01*
X92958Y-38104D01*
X92946Y-38115D01*
X92924Y-38127D01*
X92879Y-38138D01*
X92823Y-38138D01*
X92778Y-38127D01*
X92755Y-38115D01*
X92744Y-38104D01*
X92733Y-38082D01*
G54D10*
X88863Y-30157D02*
X88875Y-30123D01*
X88875Y-30067D01*
X88863Y-30044D01*
X88852Y-30033D01*
X88830Y-30022D01*
X88807Y-30022D01*
X88785Y-30033D01*
X88773Y-30044D01*
X88762Y-30067D01*
X88751Y-30112D01*
X88740Y-30134D01*
X88728Y-30146D01*
X88706Y-30157D01*
X88683Y-30157D01*
X88661Y-30146D01*
X88650Y-30134D01*
X88638Y-30112D01*
X88638Y-30056D01*
X88650Y-30022D01*
X88638Y-29943D02*
X88875Y-29887D01*
X88706Y-29842D01*
X88875Y-29797D01*
X88638Y-29741D01*
X88638Y-29538D02*
X88638Y-29651D01*
X88751Y-29662D01*
X88740Y-29651D01*
X88728Y-29628D01*
X88728Y-29572D01*
X88740Y-29550D01*
X88751Y-29538D01*
X88773Y-29527D01*
X88830Y-29527D01*
X88852Y-29538D01*
X88863Y-29550D01*
X88875Y-29572D01*
X88875Y-29628D01*
X88863Y-29651D01*
X88852Y-29662D01*
X86796Y-30745D02*
X86808Y-30711D01*
X86808Y-30655D01*
X86796Y-30632D01*
X86785Y-30621D01*
X86763Y-30610D01*
X86740Y-30610D01*
X86718Y-30621D01*
X86706Y-30632D01*
X86695Y-30655D01*
X86684Y-30700D01*
X86673Y-30722D01*
X86661Y-30733D01*
X86639Y-30745D01*
X86616Y-30745D01*
X86594Y-30733D01*
X86583Y-30722D01*
X86571Y-30700D01*
X86571Y-30643D01*
X86583Y-30610D01*
X86571Y-30531D02*
X86808Y-30475D01*
X86639Y-30430D01*
X86808Y-30385D01*
X86571Y-30329D01*
X86808Y-30239D02*
X86571Y-30239D01*
X86571Y-30160D02*
X86571Y-30025D01*
X86808Y-30092D02*
X86571Y-30092D01*
X86785Y-29811D02*
X86796Y-29822D01*
X86808Y-29856D01*
X86808Y-29879D01*
X86796Y-29912D01*
X86774Y-29935D01*
X86751Y-29946D01*
X86706Y-29957D01*
X86673Y-29957D01*
X86628Y-29946D01*
X86605Y-29935D01*
X86583Y-29912D01*
X86571Y-29879D01*
X86571Y-29856D01*
X86583Y-29822D01*
X86594Y-29811D01*
X86808Y-29710D02*
X86571Y-29710D01*
X86684Y-29710D02*
X86684Y-29575D01*
X86808Y-29575D02*
X86571Y-29575D01*
X86830Y-29519D02*
X86830Y-29339D01*
X86808Y-29282D02*
X86571Y-29282D01*
X86684Y-29282D02*
X86684Y-29147D01*
X86808Y-29147D02*
X86571Y-29147D01*
G54D13*
X66642Y-44371D02*
X66799Y-44765D01*
X66799Y-44371D02*
X66642Y-44765D01*
X67002Y-44765D02*
X66889Y-44765D01*
X66889Y-44371D01*
X67114Y-44540D02*
X67092Y-44521D01*
X67080Y-44503D01*
X67069Y-44465D01*
X67069Y-44446D01*
X67080Y-44409D01*
X67092Y-44390D01*
X67114Y-44371D01*
X67159Y-44371D01*
X67181Y-44390D01*
X67193Y-44409D01*
X67204Y-44446D01*
X67204Y-44465D01*
X67193Y-44503D01*
X67181Y-44521D01*
X67159Y-44540D01*
X67114Y-44540D01*
X67092Y-44559D01*
X67080Y-44578D01*
X67069Y-44615D01*
X67069Y-44690D01*
X67080Y-44728D01*
X67092Y-44747D01*
X67114Y-44765D01*
X67159Y-44765D01*
X67181Y-44747D01*
X67193Y-44728D01*
X67204Y-44690D01*
X67204Y-44615D01*
X67193Y-44578D01*
X67181Y-44559D01*
X67159Y-44540D01*
X66563Y-38111D02*
X66721Y-38505D01*
X66721Y-38111D02*
X66563Y-38505D01*
X66923Y-38505D02*
X66811Y-38505D01*
X66811Y-38111D01*
X66979Y-38111D02*
X67136Y-38111D01*
X67035Y-38505D01*
G54D18*
X88891Y-23720D02*
X88891Y-23670D01*
X88891Y-23694D02*
X88920Y-23694D01*
X88920Y-23720D02*
X88920Y-23670D01*
X88953Y-23670D02*
X88962Y-23670D01*
X88967Y-23673D01*
X88972Y-23678D01*
X88974Y-23687D01*
X88974Y-23704D01*
X88972Y-23713D01*
X88967Y-23718D01*
X88962Y-23720D01*
X88953Y-23720D01*
X88948Y-23718D01*
X88943Y-23713D01*
X88941Y-23704D01*
X88941Y-23687D01*
X88943Y-23678D01*
X88948Y-23673D01*
X88953Y-23670D01*
X89020Y-23720D02*
X88996Y-23720D01*
X88996Y-23670D01*
X89036Y-23694D02*
X89053Y-23694D01*
X89060Y-23720D02*
X89036Y-23720D01*
X89036Y-23670D01*
X89060Y-23670D01*
X89070Y-23725D02*
X89108Y-23725D01*
X89120Y-23720D02*
X89120Y-23670D01*
X89136Y-23706D01*
X89153Y-23670D01*
X89153Y-23720D01*
X89177Y-23694D02*
X89193Y-23694D01*
X89200Y-23720D02*
X89177Y-23720D01*
X89177Y-23670D01*
X89200Y-23670D01*
X89215Y-23670D02*
X89243Y-23670D01*
X89229Y-23720D02*
X89229Y-23670D01*
X89258Y-23706D02*
X89281Y-23706D01*
X89253Y-23720D02*
X89270Y-23670D01*
X89286Y-23720D01*
X89327Y-23720D02*
X89303Y-23720D01*
X89303Y-23670D01*
X89367Y-23720D02*
X89343Y-23720D01*
X89343Y-23670D01*
X89384Y-23694D02*
X89400Y-23694D01*
X89408Y-23720D02*
X89384Y-23720D01*
X89384Y-23670D01*
X89408Y-23670D01*
X89429Y-23720D02*
X89429Y-23670D01*
X89441Y-23670D01*
X89448Y-23673D01*
X89453Y-23678D01*
X89455Y-23682D01*
X89458Y-23692D01*
X89458Y-23699D01*
X89455Y-23708D01*
X89453Y-23713D01*
X89448Y-23718D01*
X89441Y-23720D01*
X89429Y-23720D01*
X70544Y-23720D02*
X70544Y-23670D01*
X70544Y-23694D02*
X70573Y-23694D01*
X70573Y-23720D02*
X70573Y-23670D01*
X70606Y-23670D02*
X70616Y-23670D01*
X70621Y-23673D01*
X70625Y-23678D01*
X70628Y-23687D01*
X70628Y-23704D01*
X70625Y-23713D01*
X70621Y-23718D01*
X70616Y-23720D01*
X70606Y-23720D01*
X70602Y-23718D01*
X70597Y-23713D01*
X70594Y-23704D01*
X70594Y-23687D01*
X70597Y-23678D01*
X70602Y-23673D01*
X70606Y-23670D01*
X70673Y-23720D02*
X70649Y-23720D01*
X70649Y-23670D01*
X70690Y-23694D02*
X70706Y-23694D01*
X70714Y-23720D02*
X70690Y-23720D01*
X70690Y-23670D01*
X70714Y-23670D01*
X70723Y-23725D02*
X70761Y-23725D01*
X70773Y-23720D02*
X70773Y-23670D01*
X70790Y-23706D01*
X70806Y-23670D01*
X70806Y-23720D01*
X70830Y-23694D02*
X70847Y-23694D01*
X70854Y-23720D02*
X70830Y-23720D01*
X70830Y-23670D01*
X70854Y-23670D01*
X70868Y-23670D02*
X70897Y-23670D01*
X70883Y-23720D02*
X70883Y-23670D01*
X70911Y-23706D02*
X70935Y-23706D01*
X70906Y-23720D02*
X70923Y-23670D01*
X70940Y-23720D01*
X70980Y-23720D02*
X70956Y-23720D01*
X70956Y-23670D01*
X71021Y-23720D02*
X70997Y-23720D01*
X70997Y-23670D01*
X71037Y-23694D02*
X71054Y-23694D01*
X71061Y-23720D02*
X71037Y-23720D01*
X71037Y-23670D01*
X71061Y-23670D01*
X71083Y-23720D02*
X71083Y-23670D01*
X71094Y-23670D01*
X71102Y-23673D01*
X71106Y-23678D01*
X71109Y-23682D01*
X71111Y-23692D01*
X71111Y-23699D01*
X71109Y-23708D01*
X71106Y-23713D01*
X71102Y-23718D01*
X71094Y-23720D01*
X71083Y-23720D01*
G54D13*
X88363Y-41754D02*
X88554Y-41754D01*
X88576Y-41743D01*
X88588Y-41732D01*
X88599Y-41709D01*
X88599Y-41664D01*
X88588Y-41642D01*
X88576Y-41630D01*
X88554Y-41619D01*
X88363Y-41619D01*
X88599Y-41383D02*
X88599Y-41518D01*
X88599Y-41451D02*
X88363Y-41451D01*
X88397Y-41473D01*
X88419Y-41496D01*
X88430Y-41518D01*
X88008Y-42164D02*
X87772Y-42164D01*
X87941Y-42085D01*
X87772Y-42006D01*
X88008Y-42006D01*
X87772Y-41849D02*
X87772Y-41804D01*
X87783Y-41782D01*
X87806Y-41759D01*
X87851Y-41748D01*
X87930Y-41748D01*
X87974Y-41759D01*
X87997Y-41782D01*
X88008Y-41804D01*
X88008Y-41849D01*
X87997Y-41871D01*
X87974Y-41894D01*
X87930Y-41905D01*
X87851Y-41905D01*
X87806Y-41894D01*
X87783Y-41871D01*
X87772Y-41849D01*
X87986Y-41512D02*
X87997Y-41523D01*
X88008Y-41557D01*
X88008Y-41579D01*
X87997Y-41613D01*
X87974Y-41635D01*
X87952Y-41647D01*
X87907Y-41658D01*
X87873Y-41658D01*
X87828Y-41647D01*
X87806Y-41635D01*
X87783Y-41613D01*
X87772Y-41579D01*
X87772Y-41557D01*
X87783Y-41523D01*
X87795Y-41512D01*
X87772Y-41433D02*
X87772Y-41287D01*
X87862Y-41366D01*
X87862Y-41332D01*
X87873Y-41310D01*
X87885Y-41298D01*
X87907Y-41287D01*
X87963Y-41287D01*
X87986Y-41298D01*
X87997Y-41310D01*
X88008Y-41332D01*
X88008Y-41399D01*
X87997Y-41422D01*
X87986Y-41433D01*
X87772Y-41141D02*
X87772Y-41118D01*
X87783Y-41096D01*
X87795Y-41085D01*
X87817Y-41074D01*
X87862Y-41062D01*
X87918Y-41062D01*
X87963Y-41074D01*
X87986Y-41085D01*
X87997Y-41096D01*
X88008Y-41118D01*
X88008Y-41141D01*
X87997Y-41163D01*
X87986Y-41175D01*
X87963Y-41186D01*
X87918Y-41197D01*
X87862Y-41197D01*
X87817Y-41186D01*
X87795Y-41175D01*
X87783Y-41163D01*
X87772Y-41141D01*
X87772Y-40860D02*
X87772Y-40905D01*
X87783Y-40927D01*
X87795Y-40939D01*
X87828Y-40961D01*
X87873Y-40972D01*
X87963Y-40972D01*
X87986Y-40961D01*
X87997Y-40950D01*
X88008Y-40927D01*
X88008Y-40882D01*
X87997Y-40860D01*
X87986Y-40849D01*
X87963Y-40838D01*
X87907Y-40838D01*
X87885Y-40849D01*
X87873Y-40860D01*
X87862Y-40882D01*
X87862Y-40927D01*
X87873Y-40950D01*
X87885Y-40961D01*
X87907Y-40972D01*
X88008Y-40613D02*
X88008Y-40748D01*
X88008Y-40680D02*
X87772Y-40680D01*
X87806Y-40703D01*
X87828Y-40725D01*
X87840Y-40748D01*
X88008Y-40512D02*
X87772Y-40512D01*
X87941Y-40433D01*
X87772Y-40354D01*
X88008Y-40354D01*
G54D10*
X67871Y-36408D02*
X68107Y-36251D01*
X67871Y-36251D02*
X68107Y-36408D01*
X68107Y-36048D02*
X68107Y-36161D01*
X67871Y-36161D01*
X68107Y-35846D02*
X68107Y-35981D01*
X68107Y-35913D02*
X67871Y-35913D01*
X67905Y-35936D01*
X67927Y-35958D01*
X67939Y-35981D01*
X86700Y-24209D02*
X86858Y-24445D01*
X86858Y-24209D02*
X86700Y-24445D01*
X87060Y-24445D02*
X86948Y-24445D01*
X86948Y-24209D01*
X87117Y-24209D02*
X87263Y-24209D01*
X87184Y-24299D01*
X87218Y-24299D01*
X87240Y-24310D01*
X87252Y-24321D01*
X87263Y-24344D01*
X87263Y-24400D01*
X87252Y-24423D01*
X87240Y-24434D01*
X87218Y-24445D01*
X87150Y-24445D01*
X87128Y-24434D01*
X87117Y-24423D01*
X69474Y-35510D02*
X69710Y-35352D01*
X69474Y-35352D02*
X69710Y-35510D01*
X69710Y-35150D02*
X69710Y-35262D01*
X69474Y-35262D01*
X69496Y-35082D02*
X69485Y-35071D01*
X69474Y-35048D01*
X69474Y-34992D01*
X69485Y-34970D01*
X69496Y-34958D01*
X69519Y-34947D01*
X69541Y-34947D01*
X69575Y-34958D01*
X69710Y-35093D01*
X69710Y-34947D01*
G54D13*
X86642Y-34623D02*
X86799Y-34859D01*
X86799Y-34623D02*
X86642Y-34859D01*
X87002Y-34859D02*
X86889Y-34859D01*
X86889Y-34623D01*
X87193Y-34623D02*
X87080Y-34623D01*
X87069Y-34735D01*
X87080Y-34724D01*
X87103Y-34713D01*
X87159Y-34713D01*
X87181Y-34724D01*
X87193Y-34735D01*
X87204Y-34758D01*
X87204Y-34814D01*
X87193Y-34836D01*
X87181Y-34848D01*
X87159Y-34859D01*
X87103Y-34859D01*
X87080Y-34848D01*
X87069Y-34836D01*
X86199Y-34403D02*
X86188Y-34414D01*
X86154Y-34426D01*
X86132Y-34426D01*
X86098Y-34414D01*
X86075Y-34392D01*
X86064Y-34370D01*
X86053Y-34325D01*
X86053Y-34291D01*
X86064Y-34246D01*
X86075Y-34223D01*
X86098Y-34201D01*
X86132Y-34190D01*
X86154Y-34190D01*
X86188Y-34201D01*
X86199Y-34212D01*
X86345Y-34190D02*
X86390Y-34190D01*
X86412Y-34201D01*
X86435Y-34223D01*
X86446Y-34268D01*
X86446Y-34347D01*
X86435Y-34392D01*
X86412Y-34414D01*
X86390Y-34426D01*
X86345Y-34426D01*
X86323Y-34414D01*
X86300Y-34392D01*
X86289Y-34347D01*
X86289Y-34268D01*
X86300Y-34223D01*
X86323Y-34201D01*
X86345Y-34190D01*
X86547Y-34426D02*
X86547Y-34190D01*
X86682Y-34426D01*
X86682Y-34190D01*
X86795Y-34426D02*
X86795Y-34190D01*
X86929Y-34426D01*
X86929Y-34190D01*
X86986Y-34448D02*
X87165Y-34448D01*
X87222Y-34426D02*
X87222Y-34190D01*
X87356Y-34426D01*
X87356Y-34190D01*
X87514Y-34190D02*
X87559Y-34190D01*
X87581Y-34201D01*
X87604Y-34223D01*
X87615Y-34268D01*
X87615Y-34347D01*
X87604Y-34392D01*
X87581Y-34414D01*
X87559Y-34426D01*
X87514Y-34426D01*
X87491Y-34414D01*
X87469Y-34392D01*
X87458Y-34347D01*
X87458Y-34268D01*
X87469Y-34223D01*
X87491Y-34201D01*
X87514Y-34190D01*
X87716Y-34426D02*
X87716Y-34190D01*
X87851Y-34426D02*
X87750Y-34291D01*
X87851Y-34190D02*
X87716Y-34325D01*
X87952Y-34426D02*
X87952Y-34190D01*
X88053Y-34358D02*
X88166Y-34358D01*
X88031Y-34426D02*
X88109Y-34190D01*
X88188Y-34426D01*
X88211Y-34448D02*
X88390Y-34448D01*
X88559Y-34426D02*
X88447Y-34426D01*
X88447Y-34190D01*
X88772Y-34403D02*
X88761Y-34414D01*
X88728Y-34426D01*
X88705Y-34426D01*
X88671Y-34414D01*
X88649Y-34392D01*
X88638Y-34370D01*
X88626Y-34325D01*
X88626Y-34291D01*
X88638Y-34246D01*
X88649Y-34223D01*
X88671Y-34201D01*
X88705Y-34190D01*
X88728Y-34190D01*
X88761Y-34201D01*
X88772Y-34212D01*
X88874Y-34426D02*
X88874Y-34190D01*
X88930Y-34190D01*
X88964Y-34201D01*
X88986Y-34223D01*
X88997Y-34246D01*
X89008Y-34291D01*
X89008Y-34325D01*
X88997Y-34370D01*
X88986Y-34392D01*
X88964Y-34414D01*
X88930Y-34426D01*
X88874Y-34426D01*
X89233Y-34426D02*
X89098Y-34426D01*
X89166Y-34426D02*
X89166Y-34190D01*
X89143Y-34223D01*
X89121Y-34246D01*
X89098Y-34257D01*
X89379Y-34190D02*
X89402Y-34190D01*
X89424Y-34201D01*
X89436Y-34212D01*
X89447Y-34235D01*
X89458Y-34280D01*
X89458Y-34336D01*
X89447Y-34381D01*
X89436Y-34403D01*
X89424Y-34414D01*
X89402Y-34426D01*
X89379Y-34426D01*
X89357Y-34414D01*
X89346Y-34403D01*
X89334Y-34381D01*
X89323Y-34336D01*
X89323Y-34280D01*
X89334Y-34235D01*
X89346Y-34212D01*
X89357Y-34201D01*
X89379Y-34190D01*
X71310Y-42747D02*
X71322Y-42713D01*
X71333Y-42702D01*
X71355Y-42691D01*
X71389Y-42691D01*
X71411Y-42702D01*
X71423Y-42713D01*
X71434Y-42736D01*
X71434Y-42826D01*
X71198Y-42826D01*
X71198Y-42747D01*
X71209Y-42725D01*
X71220Y-42713D01*
X71243Y-42702D01*
X71265Y-42702D01*
X71288Y-42713D01*
X71299Y-42725D01*
X71310Y-42747D01*
X71310Y-42826D01*
X71198Y-42612D02*
X71198Y-42455D01*
X71434Y-42612D01*
X71434Y-42455D01*
X71434Y-42241D02*
X71434Y-42376D01*
X71434Y-42309D02*
X71198Y-42309D01*
X71232Y-42331D01*
X71254Y-42354D01*
X71265Y-42376D01*
X69774Y-43114D02*
X69786Y-43081D01*
X69797Y-43070D01*
X69819Y-43058D01*
X69853Y-43058D01*
X69875Y-43070D01*
X69887Y-43081D01*
X69898Y-43103D01*
X69898Y-43193D01*
X69662Y-43193D01*
X69662Y-43114D01*
X69673Y-43092D01*
X69684Y-43081D01*
X69707Y-43070D01*
X69729Y-43070D01*
X69752Y-43081D01*
X69763Y-43092D01*
X69774Y-43114D01*
X69774Y-43193D01*
X69662Y-42957D02*
X69853Y-42957D01*
X69875Y-42946D01*
X69887Y-42935D01*
X69898Y-42912D01*
X69898Y-42867D01*
X69887Y-42845D01*
X69875Y-42834D01*
X69853Y-42822D01*
X69662Y-42822D01*
X69662Y-42732D02*
X69662Y-42575D01*
X69898Y-42732D01*
X69898Y-42575D01*
X69662Y-42508D02*
X69662Y-42350D01*
X69898Y-42508D01*
X69898Y-42350D01*
X69774Y-42260D02*
X69774Y-42182D01*
X69898Y-42148D02*
X69898Y-42260D01*
X69662Y-42260D01*
X69662Y-42148D01*
X69898Y-41912D02*
X69786Y-41991D01*
X69898Y-42047D02*
X69662Y-42047D01*
X69662Y-41957D01*
X69673Y-41934D01*
X69684Y-41923D01*
X69707Y-41912D01*
X69741Y-41912D01*
X69763Y-41923D01*
X69774Y-41934D01*
X69786Y-41957D01*
X69786Y-42047D01*
G54D19*
X76320Y-41742D02*
X76355Y-41754D01*
X76415Y-41754D01*
X76439Y-41742D01*
X76451Y-41730D01*
X76463Y-41707D01*
X76463Y-41683D01*
X76451Y-41659D01*
X76439Y-41647D01*
X76415Y-41635D01*
X76367Y-41623D01*
X76344Y-41611D01*
X76332Y-41599D01*
X76320Y-41576D01*
X76320Y-41552D01*
X76332Y-41528D01*
X76344Y-41516D01*
X76367Y-41504D01*
X76427Y-41504D01*
X76463Y-41516D01*
X76546Y-41504D02*
X76605Y-41754D01*
X76653Y-41576D01*
X76701Y-41754D01*
X76760Y-41504D01*
X76832Y-41504D02*
X76986Y-41504D01*
X76903Y-41599D01*
X76939Y-41599D01*
X76963Y-41611D01*
X76974Y-41623D01*
X76986Y-41647D01*
X76986Y-41707D01*
X76974Y-41730D01*
X76963Y-41742D01*
X76939Y-41754D01*
X76867Y-41754D01*
X76844Y-41742D01*
X76832Y-41730D01*
G54D20*
G54D19*
X82580Y-42805D02*
X82615Y-42817D01*
X82675Y-42817D01*
X82699Y-42805D01*
X82711Y-42793D01*
X82722Y-42770D01*
X82722Y-42746D01*
X82711Y-42722D01*
X82699Y-42710D01*
X82675Y-42698D01*
X82627Y-42686D01*
X82603Y-42674D01*
X82591Y-42662D01*
X82580Y-42639D01*
X82580Y-42615D01*
X82591Y-42591D01*
X82603Y-42579D01*
X82627Y-42567D01*
X82687Y-42567D01*
X82722Y-42579D01*
X82806Y-42567D02*
X82865Y-42817D01*
X82913Y-42639D01*
X82961Y-42817D01*
X83020Y-42567D01*
X83222Y-42651D02*
X83222Y-42817D01*
X83163Y-42555D02*
X83103Y-42734D01*
X83258Y-42734D01*
G54D20*
G54D19*
X75965Y-24656D02*
X76001Y-24668D01*
X76061Y-24668D01*
X76084Y-24656D01*
X76096Y-24644D01*
X76108Y-24620D01*
X76108Y-24596D01*
X76096Y-24572D01*
X76084Y-24560D01*
X76061Y-24549D01*
X76013Y-24537D01*
X75989Y-24525D01*
X75977Y-24513D01*
X75965Y-24489D01*
X75965Y-24465D01*
X75977Y-24441D01*
X75989Y-24430D01*
X76013Y-24418D01*
X76073Y-24418D01*
X76108Y-24430D01*
X76192Y-24418D02*
X76251Y-24668D01*
X76299Y-24489D01*
X76346Y-24668D01*
X76406Y-24418D01*
X76632Y-24668D02*
X76489Y-24668D01*
X76561Y-24668D02*
X76561Y-24418D01*
X76537Y-24453D01*
X76513Y-24477D01*
X76489Y-24489D01*
G54D20*
G54D19*
X77816Y-24695D02*
X77851Y-24707D01*
X77911Y-24707D01*
X77935Y-24695D01*
X77947Y-24683D01*
X77959Y-24659D01*
X77959Y-24636D01*
X77947Y-24612D01*
X77935Y-24600D01*
X77911Y-24588D01*
X77863Y-24576D01*
X77840Y-24564D01*
X77828Y-24552D01*
X77816Y-24528D01*
X77816Y-24505D01*
X77828Y-24481D01*
X77840Y-24469D01*
X77863Y-24457D01*
X77923Y-24457D01*
X77959Y-24469D01*
X78042Y-24457D02*
X78101Y-24707D01*
X78149Y-24528D01*
X78197Y-24707D01*
X78256Y-24457D01*
X78340Y-24481D02*
X78351Y-24469D01*
X78375Y-24457D01*
X78435Y-24457D01*
X78459Y-24469D01*
X78471Y-24481D01*
X78482Y-24505D01*
X78482Y-24528D01*
X78471Y-24564D01*
X78328Y-24707D01*
X78482Y-24707D01*
G54D20*
G54D13*
X64623Y-35483D02*
X64859Y-35326D01*
X64623Y-35326D02*
X64859Y-35483D01*
X64859Y-35123D02*
X64859Y-35236D01*
X64623Y-35236D01*
X64701Y-34943D02*
X64859Y-34943D01*
X64612Y-35000D02*
X64780Y-35056D01*
X64780Y-34910D01*
X64443Y-35539D02*
X64454Y-35550D01*
X64465Y-35584D01*
X64465Y-35606D01*
X64454Y-35640D01*
X64431Y-35663D01*
X64409Y-35674D01*
X64364Y-35685D01*
X64330Y-35685D01*
X64285Y-35674D01*
X64263Y-35663D01*
X64240Y-35640D01*
X64229Y-35606D01*
X64229Y-35584D01*
X64240Y-35550D01*
X64252Y-35539D01*
X64229Y-35393D02*
X64229Y-35348D01*
X64240Y-35325D01*
X64263Y-35303D01*
X64308Y-35292D01*
X64386Y-35292D01*
X64431Y-35303D01*
X64454Y-35325D01*
X64465Y-35348D01*
X64465Y-35393D01*
X64454Y-35415D01*
X64431Y-35438D01*
X64386Y-35449D01*
X64308Y-35449D01*
X64263Y-35438D01*
X64240Y-35415D01*
X64229Y-35393D01*
X64465Y-35191D02*
X64229Y-35191D01*
X64465Y-35056D01*
X64229Y-35056D01*
X64465Y-34943D02*
X64229Y-34943D01*
X64465Y-34808D01*
X64229Y-34808D01*
X64488Y-34752D02*
X64488Y-34572D01*
X64308Y-34415D02*
X64465Y-34415D01*
X64218Y-34471D02*
X64386Y-34528D01*
X64386Y-34381D01*
G54D10*
X90883Y-23830D02*
X91119Y-23672D01*
X90883Y-23672D02*
X91119Y-23830D01*
X91119Y-23470D02*
X91119Y-23582D01*
X90883Y-23582D01*
X91119Y-23380D02*
X91119Y-23335D01*
X91107Y-23312D01*
X91096Y-23301D01*
X91062Y-23278D01*
X91017Y-23267D01*
X90928Y-23267D01*
X90905Y-23278D01*
X90894Y-23290D01*
X90883Y-23312D01*
X90883Y-23357D01*
X90894Y-23380D01*
X90905Y-23391D01*
X90928Y-23402D01*
X90984Y-23402D01*
X91006Y-23391D01*
X91017Y-23380D01*
X91029Y-23357D01*
X91029Y-23312D01*
X91017Y-23290D01*
X91006Y-23278D01*
X90984Y-23267D01*
X91096Y-27272D02*
X91107Y-27283D01*
X91119Y-27317D01*
X91119Y-27339D01*
X91107Y-27373D01*
X91085Y-27395D01*
X91062Y-27407D01*
X91017Y-27418D01*
X90984Y-27418D01*
X90939Y-27407D01*
X90916Y-27395D01*
X90894Y-27373D01*
X90883Y-27339D01*
X90883Y-27317D01*
X90894Y-27283D01*
X90905Y-27272D01*
X90883Y-27125D02*
X90883Y-27080D01*
X90894Y-27058D01*
X90916Y-27035D01*
X90961Y-27024D01*
X91040Y-27024D01*
X91085Y-27035D01*
X91107Y-27058D01*
X91119Y-27080D01*
X91119Y-27125D01*
X91107Y-27148D01*
X91085Y-27170D01*
X91040Y-27182D01*
X90961Y-27182D01*
X90916Y-27170D01*
X90894Y-27148D01*
X90883Y-27125D01*
X91119Y-26923D02*
X90883Y-26923D01*
X91119Y-26788D01*
X90883Y-26788D01*
X91119Y-26676D02*
X90883Y-26676D01*
X91119Y-26541D01*
X90883Y-26541D01*
X91141Y-26484D02*
X91141Y-26304D01*
X90905Y-26259D02*
X90894Y-26248D01*
X90883Y-26226D01*
X90883Y-26169D01*
X90894Y-26147D01*
X90905Y-26136D01*
X90928Y-26124D01*
X90950Y-26124D01*
X90984Y-26136D01*
X91119Y-26271D01*
X91119Y-26124D01*
X67615Y-30281D02*
X67851Y-30123D01*
X67615Y-30123D02*
X67851Y-30281D01*
X67851Y-29921D02*
X67851Y-30033D01*
X67615Y-30033D01*
X67851Y-29718D02*
X67851Y-29853D01*
X67851Y-29786D02*
X67615Y-29786D01*
X67649Y-29808D01*
X67671Y-29831D01*
X67682Y-29853D01*
X67615Y-29572D02*
X67615Y-29550D01*
X67626Y-29527D01*
X67637Y-29516D01*
X67660Y-29505D01*
X67705Y-29493D01*
X67761Y-29493D01*
X67806Y-29505D01*
X67829Y-29516D01*
X67840Y-29527D01*
X67851Y-29550D01*
X67851Y-29572D01*
X67840Y-29595D01*
X67829Y-29606D01*
X67806Y-29617D01*
X67761Y-29628D01*
X67705Y-29628D01*
X67660Y-29617D01*
X67637Y-29606D01*
X67626Y-29595D01*
X67615Y-29572D01*
X67435Y-30421D02*
X67446Y-30433D01*
X67457Y-30466D01*
X67457Y-30489D01*
X67446Y-30523D01*
X67424Y-30545D01*
X67401Y-30556D01*
X67356Y-30568D01*
X67322Y-30568D01*
X67277Y-30556D01*
X67255Y-30545D01*
X67232Y-30523D01*
X67221Y-30489D01*
X67221Y-30466D01*
X67232Y-30433D01*
X67244Y-30421D01*
X67221Y-30275D02*
X67221Y-30230D01*
X67232Y-30208D01*
X67255Y-30185D01*
X67300Y-30174D01*
X67379Y-30174D01*
X67424Y-30185D01*
X67446Y-30208D01*
X67457Y-30230D01*
X67457Y-30275D01*
X67446Y-30298D01*
X67424Y-30320D01*
X67379Y-30331D01*
X67300Y-30331D01*
X67255Y-30320D01*
X67232Y-30298D01*
X67221Y-30275D01*
X67457Y-30073D02*
X67221Y-30073D01*
X67457Y-29938D01*
X67221Y-29938D01*
X67457Y-29825D02*
X67221Y-29825D01*
X67457Y-29690D01*
X67221Y-29690D01*
X67480Y-29634D02*
X67480Y-29454D01*
X67244Y-29409D02*
X67232Y-29398D01*
X67221Y-29375D01*
X67221Y-29319D01*
X67232Y-29296D01*
X67244Y-29285D01*
X67266Y-29274D01*
X67289Y-29274D01*
X67322Y-29285D01*
X67457Y-29420D01*
X67457Y-29274D01*
X93087Y-43588D02*
X93323Y-43430D01*
X93087Y-43430D02*
X93323Y-43588D01*
X93323Y-43228D02*
X93323Y-43340D01*
X93087Y-43340D01*
X93323Y-43025D02*
X93323Y-43160D01*
X93323Y-43093D02*
X93087Y-43093D01*
X93121Y-43115D01*
X93143Y-43138D01*
X93155Y-43160D01*
X93323Y-42800D02*
X93323Y-42935D01*
X93323Y-42868D02*
X93087Y-42868D01*
X93121Y-42890D01*
X93143Y-42913D01*
X93155Y-42935D01*
X93301Y-45067D02*
X93312Y-45078D01*
X93323Y-45112D01*
X93323Y-45134D01*
X93312Y-45168D01*
X93290Y-45191D01*
X93267Y-45202D01*
X93222Y-45213D01*
X93188Y-45213D01*
X93143Y-45202D01*
X93121Y-45191D01*
X93098Y-45168D01*
X93087Y-45134D01*
X93087Y-45112D01*
X93098Y-45078D01*
X93110Y-45067D01*
X93087Y-44921D02*
X93087Y-44876D01*
X93098Y-44853D01*
X93121Y-44831D01*
X93166Y-44820D01*
X93245Y-44820D01*
X93290Y-44831D01*
X93312Y-44853D01*
X93323Y-44876D01*
X93323Y-44921D01*
X93312Y-44943D01*
X93290Y-44966D01*
X93245Y-44977D01*
X93166Y-44977D01*
X93121Y-44966D01*
X93098Y-44943D01*
X93087Y-44921D01*
X93323Y-44718D02*
X93087Y-44718D01*
X93323Y-44583D01*
X93087Y-44583D01*
X93323Y-44471D02*
X93087Y-44471D01*
X93323Y-44336D01*
X93087Y-44336D01*
X93346Y-44280D02*
X93346Y-44100D01*
X93110Y-44055D02*
X93098Y-44043D01*
X93087Y-44021D01*
X93087Y-43965D01*
X93098Y-43942D01*
X93110Y-43931D01*
X93132Y-43920D01*
X93155Y-43920D01*
X93188Y-43931D01*
X93323Y-44066D01*
X93323Y-43920D01*
X93205Y-33942D02*
X93442Y-33785D01*
X93205Y-33785D02*
X93442Y-33942D01*
X93442Y-33582D02*
X93442Y-33695D01*
X93205Y-33695D01*
X93442Y-33380D02*
X93442Y-33515D01*
X93442Y-33447D02*
X93205Y-33447D01*
X93239Y-33470D01*
X93262Y-33492D01*
X93273Y-33515D01*
X93228Y-33290D02*
X93217Y-33278D01*
X93205Y-33256D01*
X93205Y-33200D01*
X93217Y-33177D01*
X93228Y-33166D01*
X93250Y-33155D01*
X93273Y-33155D01*
X93307Y-33166D01*
X93442Y-33301D01*
X93442Y-33155D01*
X93419Y-35776D02*
X93430Y-35787D01*
X93442Y-35821D01*
X93442Y-35843D01*
X93430Y-35877D01*
X93408Y-35899D01*
X93385Y-35911D01*
X93340Y-35922D01*
X93307Y-35922D01*
X93262Y-35911D01*
X93239Y-35899D01*
X93217Y-35877D01*
X93205Y-35843D01*
X93205Y-35821D01*
X93217Y-35787D01*
X93228Y-35776D01*
X93205Y-35629D02*
X93205Y-35584D01*
X93217Y-35562D01*
X93239Y-35539D01*
X93284Y-35528D01*
X93363Y-35528D01*
X93408Y-35539D01*
X93430Y-35562D01*
X93442Y-35584D01*
X93442Y-35629D01*
X93430Y-35652D01*
X93408Y-35674D01*
X93363Y-35686D01*
X93284Y-35686D01*
X93239Y-35674D01*
X93217Y-35652D01*
X93205Y-35629D01*
X93442Y-35427D02*
X93205Y-35427D01*
X93442Y-35292D01*
X93205Y-35292D01*
X93442Y-35179D02*
X93205Y-35179D01*
X93442Y-35044D01*
X93205Y-35044D01*
X93464Y-34988D02*
X93464Y-34808D01*
X93228Y-34763D02*
X93217Y-34752D01*
X93205Y-34730D01*
X93205Y-34673D01*
X93217Y-34651D01*
X93228Y-34640D01*
X93250Y-34628D01*
X93273Y-34628D01*
X93307Y-34640D01*
X93442Y-34775D01*
X93442Y-34628D01*
X67615Y-25674D02*
X67851Y-25517D01*
X67615Y-25517D02*
X67851Y-25674D01*
X67851Y-25314D02*
X67851Y-25427D01*
X67615Y-25427D01*
X67851Y-25112D02*
X67851Y-25247D01*
X67851Y-25179D02*
X67615Y-25179D01*
X67649Y-25202D01*
X67671Y-25224D01*
X67682Y-25247D01*
X67615Y-25033D02*
X67615Y-24887D01*
X67705Y-24966D01*
X67705Y-24932D01*
X67716Y-24910D01*
X67727Y-24898D01*
X67750Y-24887D01*
X67806Y-24887D01*
X67829Y-24898D01*
X67840Y-24910D01*
X67851Y-24932D01*
X67851Y-24999D01*
X67840Y-25022D01*
X67829Y-25033D01*
X67474Y-25815D02*
X67485Y-25826D01*
X67497Y-25860D01*
X67497Y-25883D01*
X67485Y-25916D01*
X67463Y-25939D01*
X67440Y-25950D01*
X67395Y-25961D01*
X67362Y-25961D01*
X67317Y-25950D01*
X67294Y-25939D01*
X67272Y-25916D01*
X67260Y-25883D01*
X67260Y-25860D01*
X67272Y-25826D01*
X67283Y-25815D01*
X67260Y-25669D02*
X67260Y-25624D01*
X67272Y-25601D01*
X67294Y-25579D01*
X67339Y-25568D01*
X67418Y-25568D01*
X67463Y-25579D01*
X67485Y-25601D01*
X67497Y-25624D01*
X67497Y-25669D01*
X67485Y-25691D01*
X67463Y-25714D01*
X67418Y-25725D01*
X67339Y-25725D01*
X67294Y-25714D01*
X67272Y-25691D01*
X67260Y-25669D01*
X67497Y-25466D02*
X67260Y-25466D01*
X67497Y-25331D01*
X67260Y-25331D01*
X67497Y-25219D02*
X67260Y-25219D01*
X67497Y-25084D01*
X67260Y-25084D01*
X67519Y-25028D02*
X67519Y-24848D01*
X67283Y-24803D02*
X67272Y-24791D01*
X67260Y-24769D01*
X67260Y-24713D01*
X67272Y-24690D01*
X67283Y-24679D01*
X67305Y-24668D01*
X67328Y-24668D01*
X67362Y-24679D01*
X67497Y-24814D01*
X67497Y-24668D01*
M02*
