M48
;DRILL file {Pcbnew (2013-07-07 BZR 4022)-stable} date 26/11/2014 23:59:20
;FORMAT={-:-/ absolute / metric / decimal}
FMAT,2
METRIC,TZ
T1C0.400
T2C0.500
T3C0.800
T4C0.813
T5C0.899
T6C0.900
T7C1.001
T8C1.200
T9C2.200
T10C3.099
T11C3.500
%
G90
G05
M71
T1
X163.6Y-83.8
X163.6Y-87.
X163.6Y-91.6
X164.4Y-104.
X164.8Y-100.
X166.6Y-64.2
X166.8Y-59.8
X167.2Y-89.4
X167.2Y-106.4
X167.2Y-109.8
X167.6Y-102.4
X167.8Y-96.2
X168.4Y-99.2
X170.4Y-109.8
X171.6Y-71.4
X171.6Y-95.8
X173.2Y-59.8
X173.8Y-63.4
X174.Y-80.4
X174.8Y-109.8
X175.4Y-94.8
X175.4Y-106.4
X175.8Y-98.
X176.2Y-102.
X177.2Y-59.8
X178.Y-107.6
X178.8Y-95.
X178.809Y-77.998
X179.6Y-98.4
X179.8Y-71.6
X180.627Y-103.846
X182.2Y-88.8
X182.6Y-104.2
X182.673Y-107.114
X182.8Y-109.8
X183.337Y-91.997
X183.4Y-78.6
X183.974Y-83.173
X184.2Y-68.
X185.Y-97.6
X185.8Y-81.8
X186.4Y-76.4
X186.4Y-90.8
X186.475Y-100.489
X187.Y-106.4
X187.Y-109.8
X188.Y-94.
X188.18Y-70.944
X188.4Y-102.4
X188.6Y-86.
X188.797Y-75.64
X189.225Y-91.099
X189.4Y-81.8
X189.4Y-96.4
X190.059Y-90.381
X190.2Y-100.6
X190.4Y-107.4
X190.513Y-72.727
X190.8Y-109.8
X190.934Y-80.454
X191.404Y-67.928
X191.759Y-73.511
X191.8Y-85.8
X191.8Y-93.8
X192.349Y-77.462
X192.63Y-88.977
X193.Y-98.6
X193.Y-102.
X193.321Y-84.677
X193.764Y-88.248
X194.213Y-81.096
X194.742Y-90.979
X195.373Y-78.844
X195.6Y-104.6
X195.8Y-107.2
X195.8Y-109.8
X196.Y-96.4
X196.112Y-93.632
X196.237Y-61.242
X196.6Y-101.2
X196.881Y-86.62
X197.029Y-82.959
X197.697Y-85.883
X198.058Y-77.579
X198.33Y-100.252
X198.4Y-94.
X198.495Y-85.122
X199.Y-107.2
X199.Y-109.8
X199.896Y-88.502
X200.Y-96.6
X200.043Y-80.791
X200.622Y-86.446
X200.642Y-106.089
X200.654Y-107.442
X201.09Y-100.43
X201.244Y-88.297
X202.018Y-93.98
X202.4Y-109.8
X202.43Y-88.367
X202.757Y-87.304
X202.775Y-70.827
X202.915Y-82.175
X202.938Y-63.486
X202.957Y-93.406
X203.485Y-85.932
X203.676Y-97.71
X203.683Y-91.875
X203.805Y-101.859
X203.805Y-102.959
X203.865Y-87.392
X204.802Y-90.698
X204.905Y-101.859
X204.905Y-102.959
X205.076Y-63.312
X205.824Y-108.345
X205.902Y-93.192
X205.966Y-80.656
X205.991Y-105.346
X206.034Y-81.755
X206.249Y-88.373
X206.447Y-74.543
X206.673Y-95.514
X206.963Y-109.987
X207.454Y-96.906
X207.676Y-87.893
X207.791Y-82.675
X208.065Y-98.371
X208.2Y-73.4
X208.427Y-76.516
X208.6Y-80.8
X209.Y-62.4
X209.538Y-100.431
X209.558Y-102.98
X209.661Y-95.573
X209.754Y-97.297
X209.8Y-78.2
X209.992Y-104.457
X210.Y-109.8
X210.054Y-101.968
X210.465Y-83.477
X210.665Y-90.181
X210.837Y-94.285
X211.532Y-84.035
X211.6Y-62.4
X211.6Y-65.
X211.6Y-74.2
X211.79Y-85.115
X211.8Y-71.
X212.2Y-98.2
X212.302Y-86.093
X212.366Y-91.435
X212.6Y-67.4
X212.636Y-87.16
X213.Y-109.8
X213.8Y-106.
X214.Y-62.4
X214.Y-65.
X214.2Y-103.
X214.4Y-99.
X214.593Y-81.832
X214.644Y-92.85
X214.8Y-86.4
X214.993Y-75.686
X215.041Y-74.087
X215.8Y-101.
X216.Y-104.2
X216.Y-107.
X216.Y-109.8
X216.275Y-92.32
X216.395Y-78.678
X217.Y-82.6
X217.Y-85.8
X217.4Y-94.8
X217.43Y-98.584
X217.8Y-90.4
X218.339Y-92.708
X219.Y-101.
X219.Y-104.2
X219.Y-107.
X219.Y-109.8
X219.8Y-85.8
X219.8Y-91.2
X220.Y-72.8
X220.2Y-76.8
X220.6Y-81.6
X220.8Y-98.
X221.Y-62.6
X221.601Y-95.239
X222.Y-109.8
X222.525Y-87.87
X223.095Y-96.45
X224.8Y-98.6
X224.8Y-101.2
X224.8Y-104.2
X224.8Y-107.
X224.8Y-109.8
X225.6Y-80.2
X226.Y-70.4
X228.2Y-68.6
X228.6Y-74.8
X228.8Y-78.
X231.25Y-73.37
X231.253Y-78.791
X234.15Y-73.25
X234.996Y-101.469
T2
X173.8Y-74.5
X173.8Y-75.6
X173.8Y-76.7
X174.9Y-74.5
X174.9Y-75.6
X174.9Y-76.7
X176.Y-74.5
X176.Y-75.6
X176.Y-76.7
X177.1Y-74.5
X177.1Y-75.6
X177.1Y-76.7
X178.2Y-74.5
X178.2Y-75.6
X178.2Y-76.7
X203.35Y-66.05
X203.35Y-67.15
X204.45Y-66.05
X204.45Y-67.15
X205.55Y-66.05
X205.55Y-67.15
X206.65Y-66.05
X206.65Y-67.15
T3
X179.4Y-106.001
X179.4Y-109.999
X221.59Y-102.16
X221.59Y-104.7
X221.59Y-107.24
X229.21Y-102.16
X229.21Y-104.7
X229.21Y-107.24
T4
X239.2Y-116.83
X239.2Y-119.37
T5
X170.85Y-100.295
X170.85Y-102.835
X170.85Y-116.295
X170.85Y-118.835
X170.852Y-105.375
X170.852Y-121.375
X173.39Y-101.565
X173.39Y-104.105
X173.39Y-117.565
X173.39Y-120.105
X173.392Y-99.025
X173.392Y-115.025
T6
X170.2Y-84.39
X170.2Y-86.93
X170.2Y-89.47
X170.2Y-92.01
X174.6Y-84.19
X174.6Y-86.73
X174.6Y-89.27
X174.6Y-91.81
X178.6Y-84.26
X178.6Y-86.8
X178.6Y-89.34
X213.39Y-60.
X215.93Y-60.
X218.47Y-60.
X221.01Y-60.
T7
X238.8Y-95.46
X238.8Y-98.
X238.8Y-100.54
T8
X164.1Y-61.7
X164.1Y-66.7
X164.1Y-73.7
X164.1Y-78.7
X169.1Y-61.7
X169.1Y-66.7
X169.1Y-73.7
X169.1Y-78.7
X223.Y-71.8
X223.Y-75.8
X223.Y-79.8
X234.1Y-61.9
X234.1Y-66.9
X234.2Y-84.3
X234.2Y-89.3
X234.2Y-107.2
X234.2Y-112.2
X239.1Y-61.9
X239.1Y-66.9
X239.2Y-84.3
X239.2Y-89.3
X239.2Y-107.2
X239.2Y-112.2
T9
X223.Y-67.55
X223.Y-84.05
T10
X164.5Y-96.201
X164.5Y-108.199
X164.5Y-112.201
X164.5Y-124.199
T11
X180.Y-63.4
X226.6Y-63.4
T0
M30
