G04 (created by PCBNEW (2013-07-07 BZR 4022)-stable) date 26/11/2014 23:59:09*
%MOIN*%
G04 Gerber Fmt 3.4, Leading zero omitted, Abs format*
%FSLAX34Y34*%
G01*
G70*
G90*
G04 APERTURE LIST*
%ADD10C,0.00590551*%
%ADD11C,0.015*%
%ADD12C,0.012*%
%ADD13C,0.005*%
%ADD14C,0.0079*%
%ADD15C,0.0059*%
%ADD16C,0.00787402*%
%ADD17C,0.00625*%
%ADD18C,0.0063*%
G04 APERTURE END LIST*
G54D10*
G54D11*
X90236Y-23149D02*
X90236Y-24133D01*
X86535Y-24291D02*
X88070Y-24291D01*
G54D10*
X89949Y-23284D02*
X89904Y-23284D01*
X89881Y-23295D01*
X89859Y-23318D01*
X89848Y-23363D01*
X89848Y-23442D01*
X89859Y-23487D01*
X89881Y-23509D01*
X89904Y-23520D01*
X89949Y-23520D01*
X89971Y-23509D01*
X89994Y-23487D01*
X90005Y-23442D01*
X90005Y-23363D01*
X89994Y-23318D01*
X89971Y-23295D01*
X89949Y-23284D01*
X89746Y-23363D02*
X89746Y-23599D01*
X89746Y-23374D02*
X89724Y-23363D01*
X89679Y-23363D01*
X89656Y-23374D01*
X89645Y-23385D01*
X89634Y-23408D01*
X89634Y-23475D01*
X89645Y-23498D01*
X89656Y-23509D01*
X89679Y-23520D01*
X89724Y-23520D01*
X89746Y-23509D01*
X89566Y-23363D02*
X89476Y-23363D01*
X89533Y-23284D02*
X89533Y-23487D01*
X89521Y-23509D01*
X89499Y-23520D01*
X89476Y-23520D01*
X89398Y-23520D02*
X89398Y-23363D01*
X89398Y-23284D02*
X89409Y-23295D01*
X89398Y-23307D01*
X89386Y-23295D01*
X89398Y-23284D01*
X89398Y-23307D01*
X89251Y-23520D02*
X89274Y-23509D01*
X89285Y-23498D01*
X89296Y-23475D01*
X89296Y-23408D01*
X89285Y-23385D01*
X89274Y-23374D01*
X89251Y-23363D01*
X89218Y-23363D01*
X89195Y-23374D01*
X89184Y-23385D01*
X89173Y-23408D01*
X89173Y-23475D01*
X89184Y-23498D01*
X89195Y-23509D01*
X89218Y-23520D01*
X89251Y-23520D01*
X89071Y-23363D02*
X89071Y-23520D01*
X89071Y-23385D02*
X89060Y-23374D01*
X89038Y-23363D01*
X89004Y-23363D01*
X88982Y-23374D01*
X88970Y-23397D01*
X88970Y-23520D01*
X88757Y-23520D02*
X88757Y-23397D01*
X88768Y-23374D01*
X88790Y-23363D01*
X88835Y-23363D01*
X88858Y-23374D01*
X88757Y-23509D02*
X88779Y-23520D01*
X88835Y-23520D01*
X88858Y-23509D01*
X88869Y-23487D01*
X88869Y-23464D01*
X88858Y-23442D01*
X88835Y-23430D01*
X88779Y-23430D01*
X88757Y-23419D01*
X88610Y-23520D02*
X88633Y-23509D01*
X88644Y-23487D01*
X88644Y-23284D01*
X88340Y-23363D02*
X88340Y-23599D01*
X88340Y-23374D02*
X88318Y-23363D01*
X88273Y-23363D01*
X88250Y-23374D01*
X88239Y-23385D01*
X88228Y-23408D01*
X88228Y-23475D01*
X88239Y-23498D01*
X88250Y-23509D01*
X88273Y-23520D01*
X88318Y-23520D01*
X88340Y-23509D01*
X88127Y-23520D02*
X88127Y-23363D01*
X88127Y-23284D02*
X88138Y-23295D01*
X88127Y-23307D01*
X88115Y-23295D01*
X88127Y-23284D01*
X88127Y-23307D01*
X88014Y-23363D02*
X88014Y-23520D01*
X88014Y-23385D02*
X88003Y-23374D01*
X87980Y-23363D01*
X87947Y-23363D01*
X87924Y-23374D01*
X87913Y-23397D01*
X87913Y-23520D01*
X87812Y-23509D02*
X87789Y-23520D01*
X87744Y-23520D01*
X87722Y-23509D01*
X87710Y-23487D01*
X87710Y-23475D01*
X87722Y-23453D01*
X87744Y-23442D01*
X87778Y-23442D01*
X87800Y-23430D01*
X87812Y-23408D01*
X87812Y-23397D01*
X87800Y-23374D01*
X87778Y-23363D01*
X87744Y-23363D01*
X87722Y-23374D01*
G54D11*
X83267Y-38149D02*
X83267Y-38307D01*
X83031Y-37440D02*
X83267Y-37637D01*
X84685Y-39094D02*
X85944Y-39094D01*
X85944Y-33070D02*
X83976Y-33070D01*
X85944Y-35275D02*
X85944Y-33070D01*
G54D10*
X84966Y-33464D02*
X84988Y-33453D01*
X85011Y-33430D01*
X85044Y-33397D01*
X85067Y-33385D01*
X85089Y-33385D01*
X85078Y-33442D02*
X85101Y-33430D01*
X85123Y-33408D01*
X85134Y-33363D01*
X85134Y-33284D01*
X85123Y-33239D01*
X85101Y-33217D01*
X85078Y-33205D01*
X85033Y-33205D01*
X85011Y-33217D01*
X84988Y-33239D01*
X84977Y-33284D01*
X84977Y-33363D01*
X84988Y-33408D01*
X85011Y-33430D01*
X85033Y-33442D01*
X85078Y-33442D01*
X84775Y-33284D02*
X84775Y-33442D01*
X84876Y-33284D02*
X84876Y-33408D01*
X84865Y-33430D01*
X84842Y-33442D01*
X84808Y-33442D01*
X84786Y-33430D01*
X84775Y-33419D01*
X84561Y-33442D02*
X84561Y-33318D01*
X84572Y-33295D01*
X84595Y-33284D01*
X84640Y-33284D01*
X84662Y-33295D01*
X84561Y-33430D02*
X84583Y-33442D01*
X84640Y-33442D01*
X84662Y-33430D01*
X84673Y-33408D01*
X84673Y-33385D01*
X84662Y-33363D01*
X84640Y-33352D01*
X84583Y-33352D01*
X84561Y-33340D01*
X84448Y-33442D02*
X84448Y-33284D01*
X84448Y-33329D02*
X84437Y-33307D01*
X84426Y-33295D01*
X84403Y-33284D01*
X84381Y-33284D01*
X84336Y-33284D02*
X84246Y-33284D01*
X84302Y-33205D02*
X84302Y-33408D01*
X84291Y-33430D01*
X84268Y-33442D01*
X84246Y-33442D01*
X84190Y-33284D02*
X84066Y-33284D01*
X84190Y-33442D01*
X84066Y-33442D01*
X85168Y-33831D02*
X85168Y-33674D01*
X85168Y-33719D02*
X85157Y-33696D01*
X85146Y-33685D01*
X85123Y-33674D01*
X85101Y-33674D01*
X84932Y-33820D02*
X84955Y-33831D01*
X85000Y-33831D01*
X85022Y-33820D01*
X85033Y-33798D01*
X85033Y-33708D01*
X85022Y-33685D01*
X85000Y-33674D01*
X84955Y-33674D01*
X84932Y-33685D01*
X84921Y-33708D01*
X84921Y-33730D01*
X85033Y-33753D01*
X84786Y-33831D02*
X84808Y-33820D01*
X84820Y-33798D01*
X84820Y-33595D01*
X84595Y-33831D02*
X84595Y-33708D01*
X84606Y-33685D01*
X84628Y-33674D01*
X84673Y-33674D01*
X84696Y-33685D01*
X84595Y-33820D02*
X84617Y-33831D01*
X84673Y-33831D01*
X84696Y-33820D01*
X84707Y-33798D01*
X84707Y-33775D01*
X84696Y-33753D01*
X84673Y-33741D01*
X84617Y-33741D01*
X84595Y-33730D01*
X84516Y-33674D02*
X84426Y-33674D01*
X84482Y-33595D02*
X84482Y-33798D01*
X84471Y-33820D01*
X84448Y-33831D01*
X84426Y-33831D01*
X84257Y-33820D02*
X84280Y-33831D01*
X84325Y-33831D01*
X84347Y-33820D01*
X84358Y-33798D01*
X84358Y-33708D01*
X84347Y-33685D01*
X84325Y-33674D01*
X84280Y-33674D01*
X84257Y-33685D01*
X84246Y-33708D01*
X84246Y-33730D01*
X84358Y-33753D01*
X84043Y-33831D02*
X84043Y-33595D01*
X84043Y-33820D02*
X84066Y-33831D01*
X84111Y-33831D01*
X84133Y-33820D01*
X84145Y-33809D01*
X84156Y-33786D01*
X84156Y-33719D01*
X84145Y-33696D01*
X84133Y-33685D01*
X84111Y-33674D01*
X84066Y-33674D01*
X84043Y-33685D01*
G54D11*
X82874Y-34094D02*
X83976Y-33070D01*
X82874Y-36220D02*
X82874Y-34094D01*
X83031Y-36417D02*
X82874Y-36220D01*
X83031Y-37440D02*
X83031Y-36417D01*
X83267Y-38149D02*
X83267Y-37637D01*
X84685Y-43503D02*
X84685Y-43346D01*
X81732Y-43503D02*
X84685Y-43503D01*
X76771Y-43503D02*
X79527Y-43503D01*
G54D10*
X87851Y-36411D02*
X87851Y-36299D01*
X87615Y-36299D01*
X87829Y-36625D02*
X87840Y-36614D01*
X87851Y-36580D01*
X87851Y-36557D01*
X87840Y-36524D01*
X87817Y-36501D01*
X87795Y-36490D01*
X87750Y-36479D01*
X87716Y-36479D01*
X87671Y-36490D01*
X87649Y-36501D01*
X87626Y-36524D01*
X87615Y-36557D01*
X87615Y-36580D01*
X87626Y-36614D01*
X87637Y-36625D01*
X87851Y-36726D02*
X87615Y-36726D01*
X87615Y-36782D01*
X87626Y-36816D01*
X87649Y-36839D01*
X87671Y-36850D01*
X87716Y-36861D01*
X87750Y-36861D01*
X87795Y-36850D01*
X87817Y-36839D01*
X87840Y-36816D01*
X87851Y-36782D01*
X87851Y-36726D01*
X88117Y-35888D02*
X88128Y-35922D01*
X88140Y-35933D01*
X88162Y-35944D01*
X88196Y-35944D01*
X88218Y-35933D01*
X88230Y-35922D01*
X88241Y-35899D01*
X88241Y-35809D01*
X88005Y-35809D01*
X88005Y-35888D01*
X88016Y-35911D01*
X88027Y-35922D01*
X88050Y-35933D01*
X88072Y-35933D01*
X88095Y-35922D01*
X88106Y-35911D01*
X88117Y-35888D01*
X88117Y-35809D01*
X88241Y-36147D02*
X88117Y-36147D01*
X88095Y-36136D01*
X88083Y-36113D01*
X88083Y-36068D01*
X88095Y-36046D01*
X88230Y-36147D02*
X88241Y-36124D01*
X88241Y-36068D01*
X88230Y-36046D01*
X88207Y-36034D01*
X88185Y-36034D01*
X88162Y-36046D01*
X88151Y-36068D01*
X88151Y-36124D01*
X88140Y-36147D01*
X88230Y-36361D02*
X88241Y-36338D01*
X88241Y-36293D01*
X88230Y-36271D01*
X88218Y-36259D01*
X88196Y-36248D01*
X88128Y-36248D01*
X88106Y-36259D01*
X88095Y-36271D01*
X88083Y-36293D01*
X88083Y-36338D01*
X88095Y-36361D01*
X88241Y-36462D02*
X88005Y-36462D01*
X88151Y-36484D02*
X88241Y-36552D01*
X88083Y-36552D02*
X88173Y-36462D01*
X88241Y-36687D02*
X88230Y-36664D01*
X88207Y-36653D01*
X88005Y-36653D01*
X88241Y-36777D02*
X88083Y-36777D01*
X88005Y-36777D02*
X88016Y-36766D01*
X88027Y-36777D01*
X88016Y-36788D01*
X88005Y-36777D01*
X88027Y-36777D01*
X88083Y-36991D02*
X88275Y-36991D01*
X88297Y-36979D01*
X88308Y-36968D01*
X88320Y-36946D01*
X88320Y-36912D01*
X88308Y-36889D01*
X88230Y-36991D02*
X88241Y-36968D01*
X88241Y-36923D01*
X88230Y-36901D01*
X88218Y-36889D01*
X88196Y-36878D01*
X88128Y-36878D01*
X88106Y-36889D01*
X88095Y-36901D01*
X88083Y-36923D01*
X88083Y-36968D01*
X88095Y-36991D01*
X88241Y-37103D02*
X88005Y-37103D01*
X88241Y-37204D02*
X88117Y-37204D01*
X88095Y-37193D01*
X88083Y-37170D01*
X88083Y-37137D01*
X88095Y-37114D01*
X88106Y-37103D01*
X88083Y-37283D02*
X88083Y-37373D01*
X88005Y-37317D02*
X88207Y-37317D01*
X88230Y-37328D01*
X88241Y-37350D01*
X88241Y-37373D01*
G54D11*
X85944Y-35275D02*
X88779Y-35275D01*
X85944Y-38346D02*
X85944Y-35275D01*
G54D10*
X87913Y-39364D02*
X87902Y-39375D01*
X87890Y-39398D01*
X87890Y-39454D01*
X87902Y-39476D01*
X87913Y-39488D01*
X87935Y-39499D01*
X87958Y-39499D01*
X87992Y-39488D01*
X88127Y-39353D01*
X88127Y-39499D01*
X87913Y-39589D02*
X87902Y-39600D01*
X87890Y-39623D01*
X87890Y-39679D01*
X87902Y-39701D01*
X87913Y-39713D01*
X87935Y-39724D01*
X87958Y-39724D01*
X87992Y-39713D01*
X88127Y-39578D01*
X88127Y-39724D01*
X87890Y-39870D02*
X87890Y-39893D01*
X87902Y-39915D01*
X87913Y-39926D01*
X87935Y-39938D01*
X87980Y-39949D01*
X88037Y-39949D01*
X88082Y-39938D01*
X88104Y-39926D01*
X88115Y-39915D01*
X88127Y-39893D01*
X88127Y-39870D01*
X88115Y-39848D01*
X88104Y-39836D01*
X88082Y-39825D01*
X88037Y-39814D01*
X87980Y-39814D01*
X87935Y-39825D01*
X87913Y-39836D01*
X87902Y-39848D01*
X87890Y-39870D01*
X87890Y-40016D02*
X88127Y-40095D01*
X87890Y-40174D01*
X88115Y-40534D02*
X88127Y-40511D01*
X88127Y-40466D01*
X88115Y-40444D01*
X88104Y-40433D01*
X88082Y-40421D01*
X88014Y-40421D01*
X87992Y-40433D01*
X87980Y-40444D01*
X87969Y-40466D01*
X87969Y-40511D01*
X87980Y-40534D01*
X88127Y-40669D02*
X88115Y-40646D01*
X88104Y-40635D01*
X88082Y-40624D01*
X88014Y-40624D01*
X87992Y-40635D01*
X87980Y-40646D01*
X87969Y-40669D01*
X87969Y-40703D01*
X87980Y-40725D01*
X87992Y-40736D01*
X88014Y-40748D01*
X88082Y-40748D01*
X88104Y-40736D01*
X88115Y-40725D01*
X88127Y-40703D01*
X88127Y-40669D01*
X87969Y-40849D02*
X88127Y-40849D01*
X87992Y-40849D02*
X87980Y-40860D01*
X87969Y-40883D01*
X87969Y-40916D01*
X87980Y-40939D01*
X88003Y-40950D01*
X88127Y-40950D01*
X87969Y-41029D02*
X87969Y-41119D01*
X87890Y-41062D02*
X88093Y-41062D01*
X88115Y-41074D01*
X88127Y-41096D01*
X88127Y-41119D01*
X88127Y-41197D02*
X87969Y-41197D01*
X88014Y-41197D02*
X87992Y-41209D01*
X87980Y-41220D01*
X87969Y-41242D01*
X87969Y-41265D01*
X88127Y-41377D02*
X88115Y-41355D01*
X88104Y-41344D01*
X88082Y-41332D01*
X88014Y-41332D01*
X87992Y-41344D01*
X87980Y-41355D01*
X87969Y-41377D01*
X87969Y-41411D01*
X87980Y-41434D01*
X87992Y-41445D01*
X88014Y-41456D01*
X88082Y-41456D01*
X88104Y-41445D01*
X88115Y-41434D01*
X88127Y-41411D01*
X88127Y-41377D01*
X88127Y-41591D02*
X88115Y-41569D01*
X88093Y-41557D01*
X87890Y-41557D01*
G54D11*
X85944Y-43307D02*
X88818Y-43307D01*
X85944Y-38346D02*
X85944Y-43307D01*
X88779Y-38346D02*
X85944Y-38346D01*
G54D12*
X78881Y-38709D02*
X79081Y-38328D01*
X79224Y-38709D02*
X79224Y-37909D01*
X78995Y-37909D01*
X78938Y-37947D01*
X78910Y-37985D01*
X78881Y-38062D01*
X78881Y-38176D01*
X78910Y-38252D01*
X78938Y-38290D01*
X78995Y-38328D01*
X79224Y-38328D01*
X78367Y-38709D02*
X78367Y-38290D01*
X78395Y-38214D01*
X78453Y-38176D01*
X78567Y-38176D01*
X78624Y-38214D01*
X78367Y-38671D02*
X78424Y-38709D01*
X78567Y-38709D01*
X78624Y-38671D01*
X78653Y-38595D01*
X78653Y-38519D01*
X78624Y-38442D01*
X78567Y-38404D01*
X78424Y-38404D01*
X78367Y-38366D01*
X77824Y-38709D02*
X77824Y-37909D01*
X77824Y-38671D02*
X77881Y-38709D01*
X77995Y-38709D01*
X78053Y-38671D01*
X78081Y-38633D01*
X78110Y-38557D01*
X78110Y-38328D01*
X78081Y-38252D01*
X78053Y-38214D01*
X77995Y-38176D01*
X77881Y-38176D01*
X77824Y-38214D01*
X77538Y-38709D02*
X77538Y-38176D01*
X77538Y-37909D02*
X77567Y-37947D01*
X77538Y-37985D01*
X77510Y-37947D01*
X77538Y-37909D01*
X77538Y-37985D01*
X77167Y-38709D02*
X77224Y-38671D01*
X77253Y-38633D01*
X77281Y-38557D01*
X77281Y-38328D01*
X77253Y-38252D01*
X77224Y-38214D01*
X77167Y-38176D01*
X77081Y-38176D01*
X77024Y-38214D01*
X76995Y-38252D01*
X76967Y-38328D01*
X76967Y-38557D01*
X76995Y-38633D01*
X77024Y-38671D01*
X77081Y-38709D01*
X77167Y-38709D01*
G54D11*
X84685Y-39055D02*
X84685Y-43346D01*
X82244Y-37755D02*
X84685Y-39055D01*
X81732Y-37677D02*
X82007Y-37874D01*
X76771Y-37677D02*
X81732Y-37677D01*
X76771Y-43503D02*
X76771Y-37677D01*
X94685Y-45118D02*
X88897Y-45118D01*
G54D10*
X90157Y-45314D02*
X90146Y-45326D01*
X90134Y-45348D01*
X90134Y-45404D01*
X90146Y-45427D01*
X90157Y-45438D01*
X90179Y-45449D01*
X90202Y-45449D01*
X90236Y-45438D01*
X90371Y-45303D01*
X90371Y-45449D01*
X90157Y-45539D02*
X90146Y-45551D01*
X90134Y-45573D01*
X90134Y-45629D01*
X90146Y-45652D01*
X90157Y-45663D01*
X90179Y-45674D01*
X90202Y-45674D01*
X90236Y-45663D01*
X90371Y-45528D01*
X90371Y-45674D01*
X90134Y-45821D02*
X90134Y-45843D01*
X90146Y-45866D01*
X90157Y-45877D01*
X90179Y-45888D01*
X90224Y-45899D01*
X90281Y-45899D01*
X90326Y-45888D01*
X90348Y-45877D01*
X90359Y-45866D01*
X90371Y-45843D01*
X90371Y-45821D01*
X90359Y-45798D01*
X90348Y-45787D01*
X90326Y-45776D01*
X90281Y-45764D01*
X90224Y-45764D01*
X90179Y-45776D01*
X90157Y-45787D01*
X90146Y-45798D01*
X90134Y-45821D01*
X90134Y-45967D02*
X90371Y-46046D01*
X90134Y-46124D01*
X90134Y-46428D02*
X90134Y-46473D01*
X90146Y-46496D01*
X90168Y-46518D01*
X90213Y-46529D01*
X90292Y-46529D01*
X90337Y-46518D01*
X90359Y-46496D01*
X90371Y-46473D01*
X90371Y-46428D01*
X90359Y-46406D01*
X90337Y-46383D01*
X90292Y-46372D01*
X90213Y-46372D01*
X90168Y-46383D01*
X90146Y-46406D01*
X90134Y-46428D01*
X90213Y-46732D02*
X90371Y-46732D01*
X90213Y-46631D02*
X90337Y-46631D01*
X90359Y-46642D01*
X90371Y-46664D01*
X90371Y-46698D01*
X90359Y-46721D01*
X90348Y-46732D01*
X90213Y-46811D02*
X90213Y-46901D01*
X90134Y-46844D02*
X90337Y-46844D01*
X90359Y-46856D01*
X90371Y-46878D01*
X90371Y-46901D01*
X90213Y-46979D02*
X90449Y-46979D01*
X90224Y-46979D02*
X90213Y-47002D01*
X90213Y-47047D01*
X90224Y-47069D01*
X90236Y-47080D01*
X90258Y-47092D01*
X90326Y-47092D01*
X90348Y-47080D01*
X90359Y-47069D01*
X90371Y-47047D01*
X90371Y-47002D01*
X90359Y-46979D01*
X90213Y-47294D02*
X90371Y-47294D01*
X90213Y-47193D02*
X90337Y-47193D01*
X90359Y-47204D01*
X90371Y-47227D01*
X90371Y-47260D01*
X90359Y-47283D01*
X90348Y-47294D01*
X90213Y-47373D02*
X90213Y-47463D01*
X90134Y-47407D02*
X90337Y-47407D01*
X90359Y-47418D01*
X90371Y-47440D01*
X90371Y-47463D01*
X90760Y-45562D02*
X90603Y-45562D01*
X90524Y-45562D02*
X90535Y-45551D01*
X90547Y-45562D01*
X90535Y-45573D01*
X90524Y-45562D01*
X90547Y-45562D01*
X90603Y-45674D02*
X90760Y-45674D01*
X90625Y-45674D02*
X90614Y-45686D01*
X90603Y-45708D01*
X90603Y-45742D01*
X90614Y-45764D01*
X90637Y-45776D01*
X90760Y-45776D01*
X90760Y-45989D02*
X90524Y-45989D01*
X90749Y-45989D02*
X90760Y-45967D01*
X90760Y-45922D01*
X90749Y-45899D01*
X90738Y-45888D01*
X90715Y-45877D01*
X90648Y-45877D01*
X90625Y-45888D01*
X90614Y-45899D01*
X90603Y-45922D01*
X90603Y-45967D01*
X90614Y-45989D01*
X90760Y-46102D02*
X90603Y-46102D01*
X90524Y-46102D02*
X90535Y-46091D01*
X90547Y-46102D01*
X90535Y-46113D01*
X90524Y-46102D01*
X90547Y-46102D01*
X90749Y-46316D02*
X90760Y-46293D01*
X90760Y-46248D01*
X90749Y-46226D01*
X90738Y-46214D01*
X90715Y-46203D01*
X90648Y-46203D01*
X90625Y-46214D01*
X90614Y-46226D01*
X90603Y-46248D01*
X90603Y-46293D01*
X90614Y-46316D01*
X90760Y-46518D02*
X90637Y-46518D01*
X90614Y-46507D01*
X90603Y-46484D01*
X90603Y-46439D01*
X90614Y-46417D01*
X90749Y-46518D02*
X90760Y-46496D01*
X90760Y-46439D01*
X90749Y-46417D01*
X90727Y-46406D01*
X90704Y-46406D01*
X90682Y-46417D01*
X90670Y-46439D01*
X90670Y-46496D01*
X90659Y-46518D01*
X90603Y-46597D02*
X90603Y-46687D01*
X90524Y-46631D02*
X90727Y-46631D01*
X90749Y-46642D01*
X90760Y-46664D01*
X90760Y-46687D01*
X90760Y-46766D02*
X90603Y-46766D01*
X90524Y-46766D02*
X90535Y-46754D01*
X90547Y-46766D01*
X90535Y-46777D01*
X90524Y-46766D01*
X90547Y-46766D01*
X90760Y-46912D02*
X90749Y-46889D01*
X90738Y-46878D01*
X90715Y-46867D01*
X90648Y-46867D01*
X90625Y-46878D01*
X90614Y-46889D01*
X90603Y-46912D01*
X90603Y-46946D01*
X90614Y-46968D01*
X90625Y-46979D01*
X90648Y-46991D01*
X90715Y-46991D01*
X90738Y-46979D01*
X90749Y-46968D01*
X90760Y-46946D01*
X90760Y-46912D01*
X90603Y-47092D02*
X90760Y-47092D01*
X90625Y-47092D02*
X90614Y-47103D01*
X90603Y-47125D01*
X90603Y-47159D01*
X90614Y-47182D01*
X90637Y-47193D01*
X90760Y-47193D01*
G54D12*
X89048Y-32536D02*
X89010Y-32565D01*
X88972Y-32622D01*
X88972Y-32765D01*
X89010Y-32822D01*
X89048Y-32850D01*
X89125Y-32879D01*
X89201Y-32879D01*
X89315Y-32850D01*
X89772Y-32507D01*
X89772Y-32879D01*
X89048Y-33107D02*
X89010Y-33136D01*
X88972Y-33193D01*
X88972Y-33336D01*
X89010Y-33393D01*
X89048Y-33422D01*
X89125Y-33450D01*
X89201Y-33450D01*
X89315Y-33422D01*
X89772Y-33079D01*
X89772Y-33450D01*
X88972Y-33822D02*
X88972Y-33879D01*
X89010Y-33936D01*
X89048Y-33965D01*
X89125Y-33993D01*
X89277Y-34022D01*
X89467Y-34022D01*
X89620Y-33993D01*
X89696Y-33965D01*
X89734Y-33936D01*
X89772Y-33879D01*
X89772Y-33822D01*
X89734Y-33765D01*
X89696Y-33736D01*
X89620Y-33707D01*
X89467Y-33679D01*
X89277Y-33679D01*
X89125Y-33707D01*
X89048Y-33736D01*
X89010Y-33765D01*
X88972Y-33822D01*
X88972Y-34193D02*
X89772Y-34393D01*
X88972Y-34593D01*
X89772Y-35507D02*
X88972Y-35507D01*
X89734Y-35507D02*
X89772Y-35450D01*
X89772Y-35336D01*
X89734Y-35279D01*
X89696Y-35250D01*
X89620Y-35222D01*
X89391Y-35222D01*
X89315Y-35250D01*
X89277Y-35279D01*
X89239Y-35336D01*
X89239Y-35450D01*
X89277Y-35507D01*
X89772Y-35879D02*
X89734Y-35822D01*
X89696Y-35793D01*
X89620Y-35765D01*
X89391Y-35765D01*
X89315Y-35793D01*
X89277Y-35822D01*
X89239Y-35879D01*
X89239Y-35965D01*
X89277Y-36022D01*
X89315Y-36050D01*
X89391Y-36079D01*
X89620Y-36079D01*
X89696Y-36050D01*
X89734Y-36022D01*
X89772Y-35965D01*
X89772Y-35879D01*
X89772Y-36336D02*
X89239Y-36336D01*
X89315Y-36336D02*
X89277Y-36365D01*
X89239Y-36422D01*
X89239Y-36507D01*
X89277Y-36565D01*
X89353Y-36593D01*
X89772Y-36593D01*
X89353Y-36593D02*
X89277Y-36622D01*
X89239Y-36679D01*
X89239Y-36765D01*
X89277Y-36822D01*
X89353Y-36850D01*
X89772Y-36850D01*
X89772Y-37393D02*
X89353Y-37393D01*
X89277Y-37365D01*
X89239Y-37307D01*
X89239Y-37193D01*
X89277Y-37136D01*
X89734Y-37393D02*
X89772Y-37336D01*
X89772Y-37193D01*
X89734Y-37136D01*
X89658Y-37107D01*
X89582Y-37107D01*
X89505Y-37136D01*
X89467Y-37193D01*
X89467Y-37336D01*
X89429Y-37393D01*
X89772Y-37679D02*
X89239Y-37679D01*
X88972Y-37679D02*
X89010Y-37650D01*
X89048Y-37679D01*
X89010Y-37707D01*
X88972Y-37679D01*
X89048Y-37679D01*
X89239Y-37965D02*
X89772Y-37965D01*
X89315Y-37965D02*
X89277Y-37993D01*
X89239Y-38050D01*
X89239Y-38136D01*
X89277Y-38193D01*
X89353Y-38222D01*
X89772Y-38222D01*
G54D11*
X88779Y-45748D02*
X91496Y-50354D01*
X88779Y-32204D02*
X88779Y-45748D01*
X94803Y-32204D02*
X88779Y-32204D01*
G54D12*
X71741Y-32695D02*
X70941Y-32695D01*
X70941Y-32923D01*
X70979Y-32980D01*
X71017Y-33009D01*
X71093Y-33038D01*
X71207Y-33038D01*
X71283Y-33009D01*
X71322Y-32980D01*
X71360Y-32923D01*
X71360Y-32695D01*
X71741Y-33295D02*
X71207Y-33295D01*
X71360Y-33295D02*
X71283Y-33323D01*
X71245Y-33352D01*
X71207Y-33409D01*
X71207Y-33466D01*
X71741Y-33752D02*
X71703Y-33695D01*
X71664Y-33666D01*
X71588Y-33638D01*
X71360Y-33638D01*
X71283Y-33666D01*
X71245Y-33695D01*
X71207Y-33752D01*
X71207Y-33838D01*
X71245Y-33895D01*
X71283Y-33923D01*
X71360Y-33952D01*
X71588Y-33952D01*
X71664Y-33923D01*
X71703Y-33895D01*
X71741Y-33838D01*
X71741Y-33752D01*
X71207Y-34466D02*
X71855Y-34466D01*
X71931Y-34438D01*
X71969Y-34409D01*
X72007Y-34352D01*
X72007Y-34266D01*
X71969Y-34209D01*
X71703Y-34466D02*
X71741Y-34409D01*
X71741Y-34295D01*
X71703Y-34238D01*
X71664Y-34209D01*
X71588Y-34180D01*
X71360Y-34180D01*
X71283Y-34209D01*
X71245Y-34238D01*
X71207Y-34295D01*
X71207Y-34409D01*
X71245Y-34466D01*
X71741Y-35695D02*
X71741Y-35666D01*
X71703Y-35609D01*
X71588Y-35523D01*
X71360Y-35380D01*
X71245Y-35323D01*
X71131Y-35295D01*
X71055Y-35295D01*
X70979Y-35323D01*
X70941Y-35380D01*
X70941Y-35409D01*
X70979Y-35466D01*
X71055Y-35495D01*
X71093Y-35495D01*
X71169Y-35466D01*
X71207Y-35438D01*
X71360Y-35266D01*
X71398Y-35238D01*
X71474Y-35209D01*
X71588Y-35209D01*
X71664Y-35238D01*
X71703Y-35266D01*
X71741Y-35323D01*
X71741Y-35409D01*
X71703Y-35466D01*
X71664Y-35495D01*
X71512Y-35580D01*
X71398Y-35609D01*
X71322Y-35609D01*
X72981Y-33466D02*
X72181Y-33466D01*
X72943Y-33466D02*
X72981Y-33409D01*
X72981Y-33295D01*
X72943Y-33238D01*
X72904Y-33209D01*
X72828Y-33180D01*
X72600Y-33180D01*
X72523Y-33209D01*
X72485Y-33238D01*
X72447Y-33295D01*
X72447Y-33409D01*
X72485Y-33466D01*
X72943Y-33980D02*
X72981Y-33923D01*
X72981Y-33809D01*
X72943Y-33752D01*
X72866Y-33723D01*
X72562Y-33723D01*
X72485Y-33752D01*
X72447Y-33809D01*
X72447Y-33923D01*
X72485Y-33980D01*
X72562Y-34009D01*
X72638Y-34009D01*
X72714Y-33723D01*
X72981Y-34266D02*
X72181Y-34266D01*
X72485Y-34266D02*
X72447Y-34323D01*
X72447Y-34438D01*
X72485Y-34495D01*
X72523Y-34523D01*
X72600Y-34552D01*
X72828Y-34552D01*
X72904Y-34523D01*
X72943Y-34495D01*
X72981Y-34438D01*
X72981Y-34323D01*
X72943Y-34266D01*
X72447Y-35066D02*
X72981Y-35066D01*
X72447Y-34809D02*
X72866Y-34809D01*
X72943Y-34838D01*
X72981Y-34895D01*
X72981Y-34980D01*
X72943Y-35038D01*
X72904Y-35066D01*
X72447Y-35609D02*
X73095Y-35609D01*
X73171Y-35580D01*
X73209Y-35552D01*
X73247Y-35495D01*
X73247Y-35409D01*
X73209Y-35352D01*
X72943Y-35609D02*
X72981Y-35552D01*
X72981Y-35438D01*
X72943Y-35380D01*
X72904Y-35352D01*
X72828Y-35323D01*
X72600Y-35323D01*
X72523Y-35352D01*
X72485Y-35380D01*
X72447Y-35438D01*
X72447Y-35552D01*
X72485Y-35609D01*
G54D11*
X73425Y-36850D02*
X73425Y-32244D01*
X67716Y-36850D02*
X73425Y-36850D01*
G54D10*
X83869Y-27142D02*
X83880Y-27176D01*
X83892Y-27187D01*
X83914Y-27199D01*
X83948Y-27199D01*
X83970Y-27187D01*
X83982Y-27176D01*
X83993Y-27154D01*
X83993Y-27064D01*
X83757Y-27064D01*
X83757Y-27142D01*
X83768Y-27165D01*
X83779Y-27176D01*
X83802Y-27187D01*
X83824Y-27187D01*
X83847Y-27176D01*
X83858Y-27165D01*
X83869Y-27142D01*
X83869Y-27064D01*
X83993Y-27401D02*
X83869Y-27401D01*
X83847Y-27390D01*
X83835Y-27367D01*
X83835Y-27322D01*
X83847Y-27300D01*
X83982Y-27401D02*
X83993Y-27379D01*
X83993Y-27322D01*
X83982Y-27300D01*
X83959Y-27289D01*
X83937Y-27289D01*
X83914Y-27300D01*
X83903Y-27322D01*
X83903Y-27379D01*
X83892Y-27401D01*
X83835Y-27480D02*
X83835Y-27570D01*
X83757Y-27514D02*
X83959Y-27514D01*
X83982Y-27525D01*
X83993Y-27547D01*
X83993Y-27570D01*
X83835Y-27615D02*
X83835Y-27705D01*
X83757Y-27649D02*
X83959Y-27649D01*
X83982Y-27660D01*
X83993Y-27682D01*
X83993Y-27705D01*
X83982Y-27874D02*
X83993Y-27851D01*
X83993Y-27806D01*
X83982Y-27784D01*
X83959Y-27772D01*
X83869Y-27772D01*
X83847Y-27784D01*
X83835Y-27806D01*
X83835Y-27851D01*
X83847Y-27874D01*
X83869Y-27885D01*
X83892Y-27885D01*
X83914Y-27772D01*
X83993Y-27986D02*
X83835Y-27986D01*
X83880Y-27986D02*
X83858Y-27997D01*
X83847Y-28008D01*
X83835Y-28031D01*
X83835Y-28053D01*
X83835Y-28110D02*
X83993Y-28166D01*
X83835Y-28222D02*
X83993Y-28166D01*
X84049Y-28143D01*
X84060Y-28132D01*
X84071Y-28110D01*
X83993Y-28492D02*
X83835Y-28492D01*
X83858Y-28492D02*
X83847Y-28503D01*
X83835Y-28526D01*
X83835Y-28560D01*
X83847Y-28582D01*
X83869Y-28593D01*
X83993Y-28593D01*
X83869Y-28593D02*
X83847Y-28605D01*
X83835Y-28627D01*
X83835Y-28661D01*
X83847Y-28683D01*
X83869Y-28695D01*
X83993Y-28695D01*
X83982Y-28897D02*
X83993Y-28875D01*
X83993Y-28830D01*
X83982Y-28807D01*
X83959Y-28796D01*
X83869Y-28796D01*
X83847Y-28807D01*
X83835Y-28830D01*
X83835Y-28875D01*
X83847Y-28897D01*
X83869Y-28908D01*
X83892Y-28908D01*
X83914Y-28796D01*
X83993Y-29111D02*
X83869Y-29111D01*
X83847Y-29100D01*
X83835Y-29077D01*
X83835Y-29032D01*
X83847Y-29010D01*
X83982Y-29111D02*
X83993Y-29088D01*
X83993Y-29032D01*
X83982Y-29010D01*
X83959Y-28998D01*
X83937Y-28998D01*
X83914Y-29010D01*
X83903Y-29032D01*
X83903Y-29088D01*
X83892Y-29111D01*
X83982Y-29212D02*
X83993Y-29235D01*
X83993Y-29280D01*
X83982Y-29302D01*
X83959Y-29313D01*
X83948Y-29313D01*
X83925Y-29302D01*
X83914Y-29280D01*
X83914Y-29246D01*
X83903Y-29223D01*
X83880Y-29212D01*
X83869Y-29212D01*
X83847Y-29223D01*
X83835Y-29246D01*
X83835Y-29280D01*
X83847Y-29302D01*
X83835Y-29516D02*
X83993Y-29516D01*
X83835Y-29415D02*
X83959Y-29415D01*
X83982Y-29426D01*
X83993Y-29448D01*
X83993Y-29482D01*
X83982Y-29505D01*
X83970Y-29516D01*
X83993Y-29628D02*
X83835Y-29628D01*
X83880Y-29628D02*
X83858Y-29640D01*
X83847Y-29651D01*
X83835Y-29673D01*
X83835Y-29696D01*
X83982Y-29865D02*
X83993Y-29842D01*
X83993Y-29797D01*
X83982Y-29775D01*
X83959Y-29763D01*
X83869Y-29763D01*
X83847Y-29775D01*
X83835Y-29797D01*
X83835Y-29842D01*
X83847Y-29865D01*
X83869Y-29876D01*
X83892Y-29876D01*
X83914Y-29763D01*
X83993Y-29977D02*
X83835Y-29977D01*
X83858Y-29977D02*
X83847Y-29988D01*
X83835Y-30011D01*
X83835Y-30044D01*
X83847Y-30067D01*
X83869Y-30078D01*
X83993Y-30078D01*
X83869Y-30078D02*
X83847Y-30089D01*
X83835Y-30112D01*
X83835Y-30146D01*
X83847Y-30168D01*
X83869Y-30179D01*
X83993Y-30179D01*
X83982Y-30382D02*
X83993Y-30359D01*
X83993Y-30314D01*
X83982Y-30292D01*
X83959Y-30281D01*
X83869Y-30281D01*
X83847Y-30292D01*
X83835Y-30314D01*
X83835Y-30359D01*
X83847Y-30382D01*
X83869Y-30393D01*
X83892Y-30393D01*
X83914Y-30281D01*
X83835Y-30494D02*
X83993Y-30494D01*
X83858Y-30494D02*
X83847Y-30506D01*
X83835Y-30528D01*
X83835Y-30562D01*
X83847Y-30584D01*
X83869Y-30596D01*
X83993Y-30596D01*
X83835Y-30674D02*
X83835Y-30764D01*
X83757Y-30708D02*
X83959Y-30708D01*
X83982Y-30719D01*
X83993Y-30742D01*
X83993Y-30764D01*
G54D11*
X86535Y-24291D02*
X83503Y-24291D01*
X86535Y-31259D02*
X86535Y-24291D01*
X83503Y-31259D02*
X86535Y-31259D01*
G54D10*
X80731Y-30528D02*
X80731Y-30719D01*
X80719Y-30742D01*
X80708Y-30753D01*
X80686Y-30764D01*
X80641Y-30764D01*
X80618Y-30753D01*
X80607Y-30742D01*
X80596Y-30719D01*
X80596Y-30528D01*
X80494Y-30753D02*
X80461Y-30764D01*
X80404Y-30764D01*
X80382Y-30753D01*
X80371Y-30742D01*
X80359Y-30719D01*
X80359Y-30697D01*
X80371Y-30674D01*
X80382Y-30663D01*
X80404Y-30652D01*
X80449Y-30641D01*
X80472Y-30629D01*
X80483Y-30618D01*
X80494Y-30596D01*
X80494Y-30573D01*
X80483Y-30551D01*
X80472Y-30539D01*
X80449Y-30528D01*
X80393Y-30528D01*
X80359Y-30539D01*
X80179Y-30641D02*
X80146Y-30652D01*
X80134Y-30663D01*
X80123Y-30686D01*
X80123Y-30719D01*
X80134Y-30742D01*
X80146Y-30753D01*
X80168Y-30764D01*
X80258Y-30764D01*
X80258Y-30528D01*
X80179Y-30528D01*
X80157Y-30539D01*
X80146Y-30551D01*
X80134Y-30573D01*
X80134Y-30596D01*
X80146Y-30618D01*
X80157Y-30629D01*
X80179Y-30641D01*
X80258Y-30641D01*
X78588Y-30528D02*
X78700Y-30528D01*
X78712Y-30641D01*
X78700Y-30629D01*
X78678Y-30618D01*
X78622Y-30618D01*
X78599Y-30629D01*
X78588Y-30641D01*
X78577Y-30663D01*
X78577Y-30719D01*
X78588Y-30742D01*
X78599Y-30753D01*
X78622Y-30764D01*
X78678Y-30764D01*
X78700Y-30753D01*
X78712Y-30742D01*
X78509Y-30528D02*
X78430Y-30764D01*
X78352Y-30528D01*
G54D12*
X83262Y-29011D02*
X82891Y-29011D01*
X83091Y-29316D01*
X83005Y-29316D01*
X82948Y-29354D01*
X82919Y-29392D01*
X82891Y-29469D01*
X82891Y-29659D01*
X82919Y-29735D01*
X82948Y-29773D01*
X83005Y-29811D01*
X83176Y-29811D01*
X83233Y-29773D01*
X83262Y-29735D01*
X82719Y-29011D02*
X82519Y-29811D01*
X82319Y-29011D01*
X82176Y-29011D02*
X81805Y-29011D01*
X82005Y-29316D01*
X81919Y-29316D01*
X81862Y-29354D01*
X81833Y-29392D01*
X81805Y-29469D01*
X81805Y-29659D01*
X81833Y-29735D01*
X81862Y-29773D01*
X81919Y-29811D01*
X82091Y-29811D01*
X82148Y-29773D01*
X82176Y-29735D01*
X83176Y-31051D02*
X83176Y-30251D01*
X82948Y-30251D01*
X82891Y-30290D01*
X82862Y-30328D01*
X82833Y-30404D01*
X82833Y-30518D01*
X82862Y-30594D01*
X82891Y-30632D01*
X82948Y-30671D01*
X83176Y-30671D01*
X82633Y-30518D02*
X82519Y-31051D01*
X82405Y-30671D01*
X82291Y-31051D01*
X82176Y-30518D01*
X81948Y-31051D02*
X81948Y-30518D01*
X81948Y-30671D02*
X81919Y-30594D01*
X81891Y-30556D01*
X81833Y-30518D01*
X81776Y-30518D01*
G54D11*
X83503Y-31259D02*
X73425Y-31259D01*
X83503Y-29015D02*
X83503Y-31259D01*
G54D12*
X83276Y-24623D02*
X83276Y-24280D01*
X83276Y-24452D02*
X82476Y-24452D01*
X82590Y-24395D01*
X82667Y-24337D01*
X82705Y-24280D01*
X82552Y-24852D02*
X82514Y-24880D01*
X82476Y-24937D01*
X82476Y-25080D01*
X82514Y-25137D01*
X82552Y-25166D01*
X82628Y-25195D01*
X82705Y-25195D01*
X82819Y-25166D01*
X83276Y-24823D01*
X83276Y-25195D01*
X82476Y-25366D02*
X83276Y-25566D01*
X82476Y-25766D01*
X83276Y-26423D02*
X82476Y-26423D01*
X82476Y-26652D01*
X82514Y-26709D01*
X82552Y-26737D01*
X82628Y-26766D01*
X82743Y-26766D01*
X82819Y-26737D01*
X82857Y-26709D01*
X82895Y-26652D01*
X82895Y-26423D01*
X82743Y-26966D02*
X83276Y-27080D01*
X82895Y-27195D01*
X83276Y-27309D01*
X82743Y-27423D01*
X83276Y-27652D02*
X82743Y-27652D01*
X82895Y-27652D02*
X82819Y-27680D01*
X82781Y-27709D01*
X82743Y-27766D01*
X82743Y-27823D01*
G54D11*
X73425Y-28700D02*
X83503Y-28700D01*
X83503Y-23149D02*
X83503Y-29015D01*
X79212Y-24921D02*
X79409Y-24606D01*
X79212Y-24921D02*
X79015Y-24606D01*
X79212Y-24133D02*
X79212Y-24921D01*
X78661Y-24133D02*
X79724Y-24133D01*
G54D10*
X81306Y-23458D02*
X81261Y-23473D01*
X81186Y-23473D01*
X81156Y-23458D01*
X81141Y-23443D01*
X81126Y-23413D01*
X81126Y-23383D01*
X81141Y-23353D01*
X81156Y-23338D01*
X81186Y-23323D01*
X81246Y-23308D01*
X81276Y-23293D01*
X81291Y-23278D01*
X81306Y-23248D01*
X81306Y-23218D01*
X81291Y-23188D01*
X81276Y-23173D01*
X81246Y-23158D01*
X81171Y-23158D01*
X81126Y-23173D01*
X80946Y-23473D02*
X80976Y-23458D01*
X80991Y-23443D01*
X81006Y-23413D01*
X81006Y-23323D01*
X80991Y-23293D01*
X80976Y-23278D01*
X80946Y-23263D01*
X80901Y-23263D01*
X80871Y-23278D01*
X80856Y-23293D01*
X80841Y-23323D01*
X80841Y-23413D01*
X80856Y-23443D01*
X80871Y-23458D01*
X80901Y-23473D01*
X80946Y-23473D01*
X80661Y-23473D02*
X80691Y-23458D01*
X80706Y-23428D01*
X80706Y-23158D01*
X80406Y-23473D02*
X80406Y-23158D01*
X80406Y-23458D02*
X80436Y-23473D01*
X80496Y-23473D01*
X80526Y-23458D01*
X80541Y-23443D01*
X80556Y-23413D01*
X80556Y-23323D01*
X80541Y-23293D01*
X80526Y-23278D01*
X80496Y-23263D01*
X80436Y-23263D01*
X80406Y-23278D01*
X80136Y-23458D02*
X80166Y-23473D01*
X80226Y-23473D01*
X80256Y-23458D01*
X80271Y-23428D01*
X80271Y-23308D01*
X80256Y-23278D01*
X80226Y-23263D01*
X80166Y-23263D01*
X80136Y-23278D01*
X80121Y-23308D01*
X80121Y-23338D01*
X80271Y-23368D01*
X79986Y-23473D02*
X79986Y-23263D01*
X79986Y-23323D02*
X79971Y-23293D01*
X79956Y-23278D01*
X79926Y-23263D01*
X79896Y-23263D01*
X79596Y-23263D02*
X79476Y-23263D01*
X79551Y-23158D02*
X79551Y-23428D01*
X79536Y-23458D01*
X79506Y-23473D01*
X79476Y-23473D01*
X79371Y-23473D02*
X79371Y-23158D01*
X79236Y-23473D02*
X79236Y-23308D01*
X79251Y-23278D01*
X79281Y-23263D01*
X79326Y-23263D01*
X79356Y-23278D01*
X79371Y-23293D01*
X78967Y-23458D02*
X78997Y-23473D01*
X79056Y-23473D01*
X79086Y-23458D01*
X79101Y-23428D01*
X79101Y-23308D01*
X79086Y-23278D01*
X79056Y-23263D01*
X78997Y-23263D01*
X78967Y-23278D01*
X78952Y-23308D01*
X78952Y-23338D01*
X79101Y-23368D01*
X78622Y-23263D02*
X78502Y-23263D01*
X78577Y-23473D02*
X78577Y-23203D01*
X78562Y-23173D01*
X78532Y-23158D01*
X78502Y-23158D01*
X78262Y-23263D02*
X78262Y-23473D01*
X78397Y-23263D02*
X78397Y-23428D01*
X78382Y-23458D01*
X78352Y-23473D01*
X78307Y-23473D01*
X78277Y-23458D01*
X78262Y-23443D01*
X78127Y-23458D02*
X78097Y-23473D01*
X78037Y-23473D01*
X78007Y-23458D01*
X77992Y-23428D01*
X77992Y-23413D01*
X78007Y-23383D01*
X78037Y-23368D01*
X78082Y-23368D01*
X78112Y-23353D01*
X78127Y-23323D01*
X78127Y-23308D01*
X78112Y-23278D01*
X78082Y-23263D01*
X78037Y-23263D01*
X78007Y-23278D01*
X77737Y-23458D02*
X77767Y-23473D01*
X77827Y-23473D01*
X77857Y-23458D01*
X77872Y-23428D01*
X77872Y-23308D01*
X77857Y-23278D01*
X77827Y-23263D01*
X77767Y-23263D01*
X77737Y-23278D01*
X77722Y-23308D01*
X77722Y-23338D01*
X77872Y-23368D01*
X77347Y-23473D02*
X77347Y-23263D01*
X77347Y-23158D02*
X77362Y-23173D01*
X77347Y-23188D01*
X77332Y-23173D01*
X77347Y-23158D01*
X77347Y-23188D01*
X77242Y-23263D02*
X77122Y-23263D01*
X77197Y-23473D02*
X77197Y-23203D01*
X77182Y-23173D01*
X77152Y-23158D01*
X77122Y-23158D01*
X76612Y-23473D02*
X76792Y-23473D01*
X76702Y-23473D02*
X76702Y-23158D01*
X76732Y-23203D01*
X76762Y-23233D01*
X76792Y-23248D01*
X76492Y-23188D02*
X76477Y-23173D01*
X76447Y-23158D01*
X76372Y-23158D01*
X76342Y-23173D01*
X76327Y-23188D01*
X76312Y-23218D01*
X76312Y-23248D01*
X76327Y-23293D01*
X76507Y-23473D01*
X76312Y-23473D01*
X76222Y-23158D02*
X76117Y-23473D01*
X76012Y-23158D01*
X75667Y-23263D02*
X75667Y-23578D01*
X75667Y-23278D02*
X75637Y-23263D01*
X75577Y-23263D01*
X75547Y-23278D01*
X75532Y-23293D01*
X75517Y-23323D01*
X75517Y-23413D01*
X75532Y-23443D01*
X75547Y-23458D01*
X75577Y-23473D01*
X75637Y-23473D01*
X75667Y-23458D01*
X75412Y-23263D02*
X75352Y-23473D01*
X75292Y-23323D01*
X75232Y-23473D01*
X75172Y-23263D01*
X75052Y-23473D02*
X75052Y-23263D01*
X75052Y-23323D02*
X75037Y-23293D01*
X75022Y-23278D01*
X74992Y-23263D01*
X74962Y-23263D01*
X79859Y-23973D02*
X79859Y-23763D01*
X79859Y-23658D02*
X79874Y-23673D01*
X79859Y-23688D01*
X79844Y-23673D01*
X79859Y-23658D01*
X79859Y-23688D01*
X79724Y-23958D02*
X79694Y-23973D01*
X79634Y-23973D01*
X79604Y-23958D01*
X79589Y-23928D01*
X79589Y-23913D01*
X79604Y-23883D01*
X79634Y-23868D01*
X79679Y-23868D01*
X79709Y-23853D01*
X79724Y-23823D01*
X79724Y-23808D01*
X79709Y-23778D01*
X79679Y-23763D01*
X79634Y-23763D01*
X79604Y-23778D01*
X79214Y-23763D02*
X79214Y-23973D01*
X79214Y-23793D02*
X79199Y-23778D01*
X79169Y-23763D01*
X79124Y-23763D01*
X79094Y-23778D01*
X79079Y-23808D01*
X79079Y-23973D01*
X78884Y-23973D02*
X78914Y-23958D01*
X78929Y-23943D01*
X78944Y-23913D01*
X78944Y-23823D01*
X78929Y-23793D01*
X78914Y-23778D01*
X78884Y-23763D01*
X78839Y-23763D01*
X78809Y-23778D01*
X78794Y-23793D01*
X78779Y-23823D01*
X78779Y-23913D01*
X78794Y-23943D01*
X78809Y-23958D01*
X78839Y-23973D01*
X78884Y-23973D01*
X78689Y-23763D02*
X78569Y-23763D01*
X78644Y-23658D02*
X78644Y-23928D01*
X78629Y-23958D01*
X78599Y-23973D01*
X78569Y-23973D01*
X78224Y-23973D02*
X78224Y-23763D01*
X78224Y-23823D02*
X78209Y-23793D01*
X78194Y-23778D01*
X78164Y-23763D01*
X78134Y-23763D01*
X77909Y-23958D02*
X77939Y-23973D01*
X77999Y-23973D01*
X78029Y-23958D01*
X78044Y-23928D01*
X78044Y-23808D01*
X78029Y-23778D01*
X77999Y-23763D01*
X77939Y-23763D01*
X77909Y-23778D01*
X77894Y-23808D01*
X77894Y-23838D01*
X78044Y-23868D01*
X77624Y-23763D02*
X77624Y-24078D01*
X77624Y-23958D02*
X77654Y-23973D01*
X77714Y-23973D01*
X77744Y-23958D01*
X77759Y-23943D01*
X77774Y-23913D01*
X77774Y-23823D01*
X77759Y-23793D01*
X77744Y-23778D01*
X77714Y-23763D01*
X77654Y-23763D01*
X77624Y-23778D01*
X77339Y-23763D02*
X77339Y-23973D01*
X77474Y-23763D02*
X77474Y-23928D01*
X77459Y-23958D01*
X77429Y-23973D01*
X77384Y-23973D01*
X77354Y-23958D01*
X77339Y-23943D01*
X77189Y-23973D02*
X77189Y-23763D01*
X77189Y-23658D02*
X77204Y-23673D01*
X77189Y-23688D01*
X77174Y-23673D01*
X77189Y-23658D01*
X77189Y-23688D01*
X77039Y-23973D02*
X77039Y-23763D01*
X77039Y-23823D02*
X77024Y-23793D01*
X77009Y-23778D01*
X76979Y-23763D01*
X76949Y-23763D01*
X76724Y-23958D02*
X76754Y-23973D01*
X76814Y-23973D01*
X76844Y-23958D01*
X76859Y-23928D01*
X76859Y-23808D01*
X76844Y-23778D01*
X76814Y-23763D01*
X76754Y-23763D01*
X76724Y-23778D01*
X76709Y-23808D01*
X76709Y-23838D01*
X76859Y-23868D01*
X76439Y-23973D02*
X76439Y-23658D01*
X76439Y-23958D02*
X76469Y-23973D01*
X76529Y-23973D01*
X76559Y-23958D01*
X76574Y-23943D01*
X76589Y-23913D01*
X76589Y-23823D01*
X76574Y-23793D01*
X76559Y-23778D01*
X76529Y-23763D01*
X76469Y-23763D01*
X76439Y-23778D01*
G54D11*
X73070Y-43661D02*
X73070Y-43543D01*
X69606Y-43661D02*
X73070Y-43661D01*
X69606Y-38188D02*
X69606Y-43661D01*
X73070Y-38188D02*
X69606Y-38188D01*
X73070Y-43543D02*
X73070Y-38188D01*
G54D12*
X72306Y-40850D02*
X72344Y-40936D01*
X72382Y-40965D01*
X72458Y-40993D01*
X72573Y-40993D01*
X72649Y-40965D01*
X72687Y-40936D01*
X72725Y-40879D01*
X72725Y-40650D01*
X71925Y-40650D01*
X71925Y-40850D01*
X71963Y-40907D01*
X72001Y-40936D01*
X72077Y-40965D01*
X72153Y-40965D01*
X72230Y-40936D01*
X72268Y-40907D01*
X72306Y-40850D01*
X72306Y-40650D01*
X72192Y-41507D02*
X72725Y-41507D01*
X72192Y-41250D02*
X72611Y-41250D01*
X72687Y-41279D01*
X72725Y-41336D01*
X72725Y-41422D01*
X72687Y-41479D01*
X72649Y-41507D01*
X72192Y-41736D02*
X72192Y-42050D01*
X72725Y-41736D01*
X72725Y-42050D01*
X72192Y-42222D02*
X72192Y-42536D01*
X72725Y-42222D01*
X72725Y-42536D01*
X72687Y-42993D02*
X72725Y-42936D01*
X72725Y-42822D01*
X72687Y-42765D01*
X72611Y-42736D01*
X72306Y-42736D01*
X72230Y-42765D01*
X72192Y-42822D01*
X72192Y-42936D01*
X72230Y-42993D01*
X72306Y-43022D01*
X72382Y-43022D01*
X72458Y-42736D01*
X72725Y-43279D02*
X72192Y-43279D01*
X72344Y-43279D02*
X72268Y-43307D01*
X72230Y-43336D01*
X72192Y-43393D01*
X72192Y-43450D01*
X64890Y-34582D02*
X64090Y-34582D01*
X64090Y-34811D01*
X64128Y-34868D01*
X64166Y-34896D01*
X64243Y-34925D01*
X64357Y-34925D01*
X64433Y-34896D01*
X64471Y-34868D01*
X64509Y-34811D01*
X64509Y-34582D01*
X64890Y-35182D02*
X64357Y-35182D01*
X64090Y-35182D02*
X64128Y-35153D01*
X64166Y-35182D01*
X64128Y-35211D01*
X64090Y-35182D01*
X64166Y-35182D01*
X64890Y-35553D02*
X64852Y-35496D01*
X64776Y-35468D01*
X64090Y-35468D01*
X64890Y-35868D02*
X64852Y-35811D01*
X64776Y-35782D01*
X64090Y-35782D01*
G54D11*
X67716Y-36850D02*
X64094Y-36850D01*
X67716Y-32283D02*
X67716Y-36850D01*
G54D12*
X73119Y-28760D02*
X73119Y-28418D01*
X73119Y-28589D02*
X72319Y-28589D01*
X72433Y-28532D01*
X72509Y-28475D01*
X72547Y-28418D01*
X72395Y-28989D02*
X72357Y-29018D01*
X72319Y-29075D01*
X72319Y-29218D01*
X72357Y-29275D01*
X72395Y-29303D01*
X72471Y-29332D01*
X72547Y-29332D01*
X72661Y-29303D01*
X73119Y-28960D01*
X73119Y-29332D01*
X72319Y-29503D02*
X73119Y-29703D01*
X72319Y-29903D01*
X72319Y-30675D02*
X72319Y-30789D01*
X72357Y-30846D01*
X72433Y-30903D01*
X72585Y-30932D01*
X72852Y-30932D01*
X73004Y-30903D01*
X73080Y-30846D01*
X73119Y-30789D01*
X73119Y-30675D01*
X73080Y-30618D01*
X73004Y-30560D01*
X72852Y-30532D01*
X72585Y-30532D01*
X72433Y-30560D01*
X72357Y-30618D01*
X72319Y-30675D01*
X72585Y-31446D02*
X73119Y-31446D01*
X72585Y-31189D02*
X73004Y-31189D01*
X73080Y-31218D01*
X73119Y-31275D01*
X73119Y-31360D01*
X73080Y-31418D01*
X73042Y-31446D01*
X72585Y-31646D02*
X72585Y-31875D01*
X72319Y-31732D02*
X73004Y-31732D01*
X73080Y-31760D01*
X73119Y-31818D01*
X73119Y-31875D01*
G54D11*
X72283Y-28070D02*
X73425Y-28070D01*
X73425Y-32283D02*
X64094Y-32283D01*
X73425Y-23188D02*
X73425Y-32283D01*
G54D12*
X72319Y-24569D02*
X72319Y-24283D01*
X72700Y-24255D01*
X72661Y-24283D01*
X72623Y-24340D01*
X72623Y-24483D01*
X72661Y-24540D01*
X72700Y-24569D01*
X72776Y-24597D01*
X72966Y-24597D01*
X73042Y-24569D01*
X73080Y-24540D01*
X73119Y-24483D01*
X73119Y-24340D01*
X73080Y-24283D01*
X73042Y-24255D01*
X72319Y-24769D02*
X73119Y-24969D01*
X72319Y-25169D01*
X72319Y-25940D02*
X72319Y-26055D01*
X72357Y-26112D01*
X72433Y-26169D01*
X72585Y-26197D01*
X72852Y-26197D01*
X73004Y-26169D01*
X73080Y-26112D01*
X73119Y-26055D01*
X73119Y-25940D01*
X73080Y-25883D01*
X73004Y-25826D01*
X72852Y-25797D01*
X72585Y-25797D01*
X72433Y-25826D01*
X72357Y-25883D01*
X72319Y-25940D01*
X72585Y-26712D02*
X73119Y-26712D01*
X72585Y-26455D02*
X73004Y-26455D01*
X73080Y-26483D01*
X73119Y-26540D01*
X73119Y-26626D01*
X73080Y-26683D01*
X73042Y-26712D01*
X72585Y-26912D02*
X72585Y-27140D01*
X72319Y-26997D02*
X73004Y-26997D01*
X73080Y-27026D01*
X73119Y-27083D01*
X73119Y-27140D01*
G54D11*
X72086Y-28070D02*
X72283Y-28070D01*
X64015Y-28070D02*
X72086Y-28070D01*
G54D10*
X94881Y-28149D02*
X94881Y-27244D01*
X94881Y-27244D02*
X91850Y-27244D01*
X91850Y-27244D02*
X91181Y-28228D01*
X91181Y-28228D02*
X91181Y-31141D01*
X91181Y-31141D02*
X91850Y-32125D01*
X91850Y-32125D02*
X94881Y-32125D01*
X94881Y-32125D02*
X94881Y-31220D01*
X94881Y-28149D02*
X92677Y-28149D01*
X92677Y-28149D02*
X92677Y-31220D01*
X92677Y-31220D02*
X94881Y-31220D01*
G54D13*
X69441Y-27529D02*
X69441Y-26329D01*
X69441Y-26329D02*
X69141Y-26329D01*
X69141Y-26329D02*
X69141Y-27529D01*
X69141Y-27529D02*
X69441Y-27529D01*
X84518Y-30307D02*
X85718Y-30307D01*
X85718Y-30307D02*
X85718Y-30007D01*
X85718Y-30007D02*
X84518Y-30007D01*
X84518Y-30007D02*
X84518Y-30307D01*
X71173Y-40521D02*
X71173Y-39321D01*
X71173Y-39321D02*
X70873Y-39321D01*
X70873Y-39321D02*
X70873Y-40521D01*
X70873Y-40521D02*
X71173Y-40521D01*
X78848Y-30228D02*
X80048Y-30228D01*
X80048Y-30228D02*
X80048Y-29928D01*
X80048Y-29928D02*
X78848Y-29928D01*
X78848Y-29928D02*
X78848Y-30228D01*
X70341Y-30463D02*
X70341Y-30513D01*
X70341Y-30513D02*
X68241Y-30513D01*
X68241Y-29013D02*
X70341Y-29013D01*
X70341Y-29013D02*
X70341Y-30463D01*
X70341Y-29563D02*
X70141Y-29563D01*
X70141Y-29563D02*
X70141Y-29963D01*
X70141Y-29963D02*
X70341Y-29963D01*
X68241Y-29013D02*
X68241Y-30513D01*
X78526Y-25604D02*
X79426Y-25604D01*
X79426Y-25604D02*
X79426Y-25104D01*
X79426Y-25104D02*
X78526Y-25104D01*
X78526Y-25104D02*
X78526Y-25604D01*
X78832Y-30371D02*
X78832Y-29471D01*
X78832Y-29471D02*
X78332Y-29471D01*
X78332Y-29471D02*
X78332Y-30371D01*
X78332Y-30371D02*
X78832Y-30371D01*
G54D14*
X76889Y-30275D02*
X77027Y-30275D01*
X77027Y-30275D02*
X76987Y-30314D01*
X76377Y-30334D02*
X76810Y-30334D01*
X76810Y-30334D02*
X76810Y-29822D01*
X76810Y-29822D02*
X75944Y-29822D01*
X75944Y-29822D02*
X75944Y-30334D01*
X75944Y-30334D02*
X76377Y-30334D01*
G54D10*
X91259Y-48622D02*
X91259Y-49094D01*
X91259Y-49094D02*
X93307Y-49094D01*
X93307Y-49094D02*
X93307Y-48149D01*
X93307Y-48149D02*
X91259Y-48149D01*
X91259Y-48149D02*
X91259Y-48661D01*
X92598Y-39606D02*
X93070Y-39606D01*
X93070Y-39606D02*
X93070Y-37559D01*
X93070Y-37559D02*
X92125Y-37559D01*
X92125Y-37559D02*
X92125Y-39606D01*
X92125Y-39606D02*
X92637Y-39606D01*
X91732Y-45629D02*
X91259Y-45629D01*
X91259Y-45629D02*
X91259Y-47677D01*
X91259Y-47677D02*
X92204Y-47677D01*
X92204Y-47677D02*
X92204Y-45629D01*
X92204Y-45629D02*
X91692Y-45629D01*
X92007Y-38070D02*
X92007Y-37598D01*
X92007Y-37598D02*
X89960Y-37598D01*
X89960Y-37598D02*
X89960Y-38543D01*
X89960Y-38543D02*
X92007Y-38543D01*
X92007Y-38543D02*
X92007Y-38031D01*
X89960Y-39133D02*
X89960Y-39606D01*
X89960Y-39606D02*
X92007Y-39606D01*
X92007Y-39606D02*
X92007Y-38661D01*
X92007Y-38661D02*
X89960Y-38661D01*
X89960Y-38661D02*
X89960Y-39173D01*
X72362Y-40511D02*
X72677Y-40511D01*
X72677Y-40511D02*
X72677Y-39330D01*
X72677Y-39330D02*
X72047Y-39330D01*
X72047Y-39330D02*
X72047Y-40511D01*
X72047Y-40511D02*
X72362Y-40511D01*
X76889Y-25275D02*
X76889Y-25590D01*
X76889Y-25590D02*
X78070Y-25590D01*
X78070Y-25590D02*
X78070Y-24960D01*
X78070Y-24960D02*
X76889Y-24960D01*
X76889Y-24960D02*
X76889Y-25275D01*
X70944Y-27598D02*
X71259Y-27598D01*
X71259Y-27598D02*
X71259Y-26417D01*
X71259Y-26417D02*
X70629Y-26417D01*
X70629Y-26417D02*
X70629Y-27598D01*
X70629Y-27598D02*
X70944Y-27598D01*
X78070Y-24566D02*
X78070Y-24251D01*
X78070Y-24251D02*
X76889Y-24251D01*
X76889Y-24251D02*
X76889Y-24881D01*
X76889Y-24881D02*
X78070Y-24881D01*
X78070Y-24881D02*
X78070Y-24566D01*
X71771Y-31574D02*
X71771Y-31259D01*
X71771Y-31259D02*
X70590Y-31259D01*
X70590Y-31259D02*
X70590Y-31889D01*
X70590Y-31889D02*
X71771Y-31889D01*
X71771Y-31889D02*
X71771Y-31574D01*
X66141Y-33228D02*
X66141Y-32913D01*
X66141Y-32913D02*
X64960Y-32913D01*
X64960Y-32913D02*
X64960Y-33543D01*
X64960Y-33543D02*
X66141Y-33543D01*
X66141Y-33543D02*
X66141Y-33228D01*
X66141Y-34212D02*
X66141Y-33897D01*
X66141Y-33897D02*
X64960Y-33897D01*
X64960Y-33897D02*
X64960Y-34527D01*
X64960Y-34527D02*
X66141Y-34527D01*
X66141Y-34527D02*
X66141Y-34212D01*
X66141Y-36259D02*
X66141Y-35944D01*
X66141Y-35944D02*
X64960Y-35944D01*
X64960Y-35944D02*
X64960Y-36574D01*
X64960Y-36574D02*
X66141Y-36574D01*
X66141Y-36574D02*
X66141Y-36259D01*
X79094Y-40551D02*
X79094Y-40236D01*
X79094Y-40236D02*
X77913Y-40236D01*
X77913Y-40236D02*
X77913Y-40866D01*
X77913Y-40866D02*
X79094Y-40866D01*
X79094Y-40866D02*
X79094Y-40551D01*
X86338Y-39212D02*
X86338Y-39527D01*
X86338Y-39527D02*
X87519Y-39527D01*
X87519Y-39527D02*
X87519Y-38897D01*
X87519Y-38897D02*
X86338Y-38897D01*
X86338Y-38897D02*
X86338Y-39212D01*
X86692Y-37913D02*
X87007Y-37913D01*
X87007Y-37913D02*
X87007Y-36732D01*
X87007Y-36732D02*
X86377Y-36732D01*
X86377Y-36732D02*
X86377Y-37913D01*
X86377Y-37913D02*
X86692Y-37913D01*
X85118Y-28307D02*
X84803Y-28307D01*
X84803Y-28307D02*
X84803Y-29488D01*
X84803Y-29488D02*
X85433Y-29488D01*
X85433Y-29488D02*
X85433Y-28307D01*
X85433Y-28307D02*
X85118Y-28307D01*
X85118Y-28228D02*
X85433Y-28228D01*
X85433Y-28228D02*
X85433Y-27047D01*
X85433Y-27047D02*
X84803Y-27047D01*
X84803Y-27047D02*
X84803Y-28228D01*
X84803Y-28228D02*
X85118Y-28228D01*
X83464Y-36338D02*
X83149Y-36338D01*
X83149Y-36338D02*
X83149Y-37519D01*
X83149Y-37519D02*
X83779Y-37519D01*
X83779Y-37519D02*
X83779Y-36338D01*
X83779Y-36338D02*
X83464Y-36338D01*
X79903Y-39511D02*
X79647Y-39767D01*
X79647Y-39511D02*
X79647Y-41125D01*
X79647Y-41125D02*
X81261Y-41125D01*
X81261Y-41125D02*
X81261Y-39511D01*
X81261Y-39511D02*
X79647Y-39511D01*
G54D13*
X78185Y-34626D02*
X80105Y-36547D01*
X80105Y-36547D02*
X81901Y-34752D01*
X81886Y-34737D02*
X81886Y-34487D01*
X81886Y-34487D02*
X80091Y-32692D01*
X80091Y-32692D02*
X78184Y-34599D01*
X81680Y-34612D02*
G75*
G03X81680Y-34612I-196J0D01*
G74*
G01*
X76988Y-25994D02*
X76988Y-28494D01*
X76988Y-28494D02*
X79388Y-28494D01*
X79388Y-28494D02*
X79388Y-25994D01*
X79388Y-25994D02*
X76988Y-25994D01*
G54D10*
X80433Y-43149D02*
X80433Y-42716D01*
X80433Y-42716D02*
X79960Y-42716D01*
X79960Y-42716D02*
X79960Y-43582D01*
X79960Y-43582D02*
X80433Y-43582D01*
X80433Y-43582D02*
X80433Y-43149D01*
G54D15*
X92539Y-46043D02*
X92539Y-47263D01*
X93523Y-47263D02*
X93523Y-46043D01*
G54D14*
X93267Y-46889D02*
X92795Y-46889D01*
X93031Y-46417D02*
X93267Y-46417D01*
X93267Y-46417D02*
X93031Y-46889D01*
X93031Y-46889D02*
X92795Y-46417D01*
X92795Y-46417D02*
X93031Y-46417D01*
G54D15*
X85065Y-35459D02*
X85164Y-35557D01*
X83904Y-37427D02*
X85164Y-37427D01*
X85164Y-37427D02*
X85164Y-35459D01*
X85164Y-35459D02*
X83904Y-35459D01*
X83904Y-35459D02*
X83904Y-37427D01*
X82972Y-41181D02*
X83956Y-41181D01*
X83956Y-41181D02*
X83956Y-39921D01*
X83956Y-39921D02*
X82972Y-39921D01*
X82972Y-39921D02*
X82972Y-41181D01*
G54D10*
X89960Y-36968D02*
X89960Y-37440D01*
X89960Y-37440D02*
X92007Y-37440D01*
X92007Y-37440D02*
X92007Y-36496D01*
X92007Y-36496D02*
X89960Y-36496D01*
X89960Y-36496D02*
X89960Y-36988D01*
X76377Y-27007D02*
X76377Y-26535D01*
X76377Y-26535D02*
X74330Y-26535D01*
X74330Y-26535D02*
X74330Y-27480D01*
X74330Y-27480D02*
X76377Y-27480D01*
X76377Y-27480D02*
X76377Y-26988D01*
X76377Y-25984D02*
X76377Y-25511D01*
X76377Y-25511D02*
X74330Y-25511D01*
X74330Y-25511D02*
X74330Y-26456D01*
X74330Y-26456D02*
X76377Y-26456D01*
X76377Y-26456D02*
X76377Y-25964D01*
X76377Y-24960D02*
X76377Y-24488D01*
X76377Y-24488D02*
X74330Y-24488D01*
X74330Y-24488D02*
X74330Y-25433D01*
X74330Y-25433D02*
X76377Y-25433D01*
X76377Y-25433D02*
X76377Y-24940D01*
X76377Y-28031D02*
X76377Y-27559D01*
X76377Y-27559D02*
X74330Y-27559D01*
X74330Y-27559D02*
X74330Y-28503D01*
X74330Y-28503D02*
X76377Y-28503D01*
X76377Y-28503D02*
X76377Y-28011D01*
X77434Y-32060D02*
X75938Y-32060D01*
X75938Y-32060D02*
X75938Y-32847D01*
X75938Y-32847D02*
X77434Y-32847D01*
X77434Y-32847D02*
X77434Y-32060D01*
X70551Y-29015D02*
X70551Y-30511D01*
X70551Y-30511D02*
X71338Y-30511D01*
X71338Y-30511D02*
X71338Y-29015D01*
X71338Y-29015D02*
X70551Y-29015D01*
X81456Y-27716D02*
X79960Y-27716D01*
X79960Y-27716D02*
X79960Y-28503D01*
X79960Y-28503D02*
X81456Y-28503D01*
X81456Y-28503D02*
X81456Y-27716D01*
X85124Y-34947D02*
X85124Y-34632D01*
X85124Y-34632D02*
X83943Y-34632D01*
X83943Y-34632D02*
X83943Y-35262D01*
X83943Y-35262D02*
X85124Y-35262D01*
X85124Y-35262D02*
X85124Y-34947D01*
X81865Y-37661D02*
X82088Y-37884D01*
X82088Y-37884D02*
X82923Y-37049D01*
X82923Y-37049D02*
X82478Y-36603D01*
X82478Y-36603D02*
X81643Y-37438D01*
X81643Y-37438D02*
X81865Y-37661D01*
X83943Y-37939D02*
X83943Y-38254D01*
X83943Y-38254D02*
X85124Y-38254D01*
X85124Y-38254D02*
X85124Y-37624D01*
X85124Y-37624D02*
X83943Y-37624D01*
X83943Y-37624D02*
X83943Y-37939D01*
X81416Y-37212D02*
X81639Y-37435D01*
X81639Y-37435D02*
X82474Y-36599D01*
X82474Y-36599D02*
X82029Y-36154D01*
X82029Y-36154D02*
X81193Y-36989D01*
X81193Y-36989D02*
X81416Y-37212D01*
X81181Y-30669D02*
X81496Y-30669D01*
X81496Y-30669D02*
X81496Y-29488D01*
X81496Y-29488D02*
X80866Y-29488D01*
X80866Y-29488D02*
X80866Y-30669D01*
X80866Y-30669D02*
X81181Y-30669D01*
X83976Y-39370D02*
X83976Y-39055D01*
X83976Y-39055D02*
X82795Y-39055D01*
X82795Y-39055D02*
X82795Y-39685D01*
X82795Y-39685D02*
X83976Y-39685D01*
X83976Y-39685D02*
X83976Y-39370D01*
X82937Y-33567D02*
X83159Y-33344D01*
X83159Y-33344D02*
X82324Y-32509D01*
X82324Y-32509D02*
X81879Y-32954D01*
X81879Y-32954D02*
X82714Y-33789D01*
X82714Y-33789D02*
X82937Y-33567D01*
X76747Y-35251D02*
X76525Y-35474D01*
X76525Y-35474D02*
X77360Y-36309D01*
X77360Y-36309D02*
X77805Y-35864D01*
X77805Y-35864D02*
X76970Y-35028D01*
X76970Y-35028D02*
X76747Y-35251D01*
X80039Y-24251D02*
X80039Y-24566D01*
X80039Y-24566D02*
X81220Y-24566D01*
X81220Y-24566D02*
X81220Y-23937D01*
X81220Y-23937D02*
X80039Y-23937D01*
X80039Y-23937D02*
X80039Y-24251D01*
X82795Y-41732D02*
X82795Y-42047D01*
X82795Y-42047D02*
X83976Y-42047D01*
X83976Y-42047D02*
X83976Y-41417D01*
X83976Y-41417D02*
X82795Y-41417D01*
X82795Y-41417D02*
X82795Y-41732D01*
X77480Y-29488D02*
X77165Y-29488D01*
X77165Y-29488D02*
X77165Y-30669D01*
X77165Y-30669D02*
X77795Y-30669D01*
X77795Y-30669D02*
X77795Y-29488D01*
X77795Y-29488D02*
X77480Y-29488D01*
X75275Y-29488D02*
X74960Y-29488D01*
X74960Y-29488D02*
X74960Y-30669D01*
X74960Y-30669D02*
X75590Y-30669D01*
X75590Y-30669D02*
X75590Y-29488D01*
X75590Y-29488D02*
X75275Y-29488D01*
X71732Y-29173D02*
X71417Y-29173D01*
X71417Y-29173D02*
X71417Y-30354D01*
X71417Y-30354D02*
X72047Y-30354D01*
X72047Y-30354D02*
X72047Y-29173D01*
X72047Y-29173D02*
X71732Y-29173D01*
X81259Y-39015D02*
X81574Y-39015D01*
X81574Y-39015D02*
X81574Y-37834D01*
X81574Y-37834D02*
X80944Y-37834D01*
X80944Y-37834D02*
X80944Y-39015D01*
X80944Y-39015D02*
X81259Y-39015D01*
X79094Y-41181D02*
X79094Y-40866D01*
X79094Y-40866D02*
X77913Y-40866D01*
X77913Y-40866D02*
X77913Y-41496D01*
X77913Y-41496D02*
X79094Y-41496D01*
X79094Y-41496D02*
X79094Y-41181D01*
X79448Y-41535D02*
X79133Y-41535D01*
X79133Y-41535D02*
X79133Y-42716D01*
X79133Y-42716D02*
X79763Y-42716D01*
X79763Y-42716D02*
X79763Y-41535D01*
X79763Y-41535D02*
X79448Y-41535D01*
X81653Y-41062D02*
X81338Y-41062D01*
X81338Y-41062D02*
X81338Y-42244D01*
X81338Y-42244D02*
X81968Y-42244D01*
X81968Y-42244D02*
X81968Y-41062D01*
X81968Y-41062D02*
X81653Y-41062D01*
X80629Y-39015D02*
X80944Y-39015D01*
X80944Y-39015D02*
X80944Y-37834D01*
X80944Y-37834D02*
X80314Y-37834D01*
X80314Y-37834D02*
X80314Y-39015D01*
X80314Y-39015D02*
X80629Y-39015D01*
X82047Y-40669D02*
X82362Y-40669D01*
X82362Y-40669D02*
X82362Y-39488D01*
X82362Y-39488D02*
X81732Y-39488D01*
X81732Y-39488D02*
X81732Y-40669D01*
X81732Y-40669D02*
X82047Y-40669D01*
X79094Y-39921D02*
X79094Y-39606D01*
X79094Y-39606D02*
X77913Y-39606D01*
X77913Y-39606D02*
X77913Y-40236D01*
X77913Y-40236D02*
X79094Y-40236D01*
X79094Y-40236D02*
X79094Y-39921D01*
X79675Y-31533D02*
X79453Y-31311D01*
X79453Y-31311D02*
X78617Y-32146D01*
X78617Y-32146D02*
X79063Y-32591D01*
X79063Y-32591D02*
X79898Y-31756D01*
X79898Y-31756D02*
X79675Y-31533D01*
X80866Y-43582D02*
X81299Y-43582D01*
X81299Y-43582D02*
X81299Y-43110D01*
X81299Y-43110D02*
X80433Y-43110D01*
X80433Y-43110D02*
X80433Y-43582D01*
X80433Y-43582D02*
X80866Y-43582D01*
X80275Y-42559D02*
X80196Y-42637D01*
X80196Y-42637D02*
X80433Y-42637D01*
X80314Y-41692D02*
X80314Y-42480D01*
X80314Y-42480D02*
X80787Y-42480D01*
X80787Y-42480D02*
X80787Y-41692D01*
X80787Y-41692D02*
X80314Y-41692D01*
G54D16*
X79665Y-25452D02*
X79783Y-25590D01*
X79783Y-25590D02*
X79783Y-25196D01*
X79921Y-27007D02*
X81496Y-27007D01*
X81496Y-27007D02*
X81496Y-25433D01*
X81496Y-25433D02*
X79921Y-25433D01*
X79921Y-25433D02*
X79921Y-27007D01*
G54D13*
X80064Y-29471D02*
X80064Y-30371D01*
X80064Y-30371D02*
X80564Y-30371D01*
X80564Y-30371D02*
X80564Y-29471D01*
X80564Y-29471D02*
X80064Y-29471D01*
G54D10*
X90371Y-29398D02*
X90607Y-29555D01*
X90371Y-29555D02*
X90607Y-29398D01*
X90607Y-29758D02*
X90607Y-29645D01*
X90371Y-29645D01*
X90371Y-29938D02*
X90371Y-29893D01*
X90382Y-29870D01*
X90393Y-29859D01*
X90427Y-29836D01*
X90472Y-29825D01*
X90562Y-29825D01*
X90584Y-29836D01*
X90596Y-29848D01*
X90607Y-29870D01*
X90607Y-29915D01*
X90596Y-29938D01*
X90584Y-29949D01*
X90562Y-29960D01*
X90506Y-29960D01*
X90483Y-29949D01*
X90472Y-29938D01*
X90461Y-29915D01*
X90461Y-29870D01*
X90472Y-29848D01*
X90483Y-29836D01*
X90506Y-29825D01*
X90764Y-28537D02*
X90956Y-28537D01*
X90978Y-28548D01*
X90989Y-28560D01*
X91001Y-28582D01*
X91001Y-28627D01*
X90989Y-28650D01*
X90978Y-28661D01*
X90956Y-28672D01*
X90764Y-28672D01*
X90989Y-28773D02*
X91001Y-28807D01*
X91001Y-28863D01*
X90989Y-28886D01*
X90978Y-28897D01*
X90956Y-28908D01*
X90933Y-28908D01*
X90911Y-28897D01*
X90899Y-28886D01*
X90888Y-28863D01*
X90877Y-28818D01*
X90866Y-28796D01*
X90854Y-28785D01*
X90832Y-28773D01*
X90809Y-28773D01*
X90787Y-28785D01*
X90776Y-28796D01*
X90764Y-28818D01*
X90764Y-28875D01*
X90776Y-28908D01*
X90877Y-29088D02*
X90888Y-29122D01*
X90899Y-29133D01*
X90922Y-29145D01*
X90956Y-29145D01*
X90978Y-29133D01*
X90989Y-29122D01*
X91001Y-29100D01*
X91001Y-29010D01*
X90764Y-29010D01*
X90764Y-29088D01*
X90776Y-29111D01*
X90787Y-29122D01*
X90809Y-29133D01*
X90832Y-29133D01*
X90854Y-29122D01*
X90866Y-29111D01*
X90877Y-29088D01*
X90877Y-29010D01*
X91023Y-29190D02*
X91023Y-29370D01*
X91001Y-29426D02*
X90764Y-29426D01*
X90933Y-29505D01*
X90764Y-29583D01*
X91001Y-29583D01*
X91001Y-29696D02*
X90764Y-29696D01*
X90978Y-29943D02*
X90989Y-29932D01*
X91001Y-29898D01*
X91001Y-29876D01*
X90989Y-29842D01*
X90967Y-29820D01*
X90944Y-29808D01*
X90899Y-29797D01*
X90866Y-29797D01*
X90821Y-29808D01*
X90798Y-29820D01*
X90776Y-29842D01*
X90764Y-29876D01*
X90764Y-29898D01*
X90776Y-29932D01*
X90787Y-29943D01*
X91001Y-30179D02*
X90888Y-30101D01*
X91001Y-30044D02*
X90764Y-30044D01*
X90764Y-30134D01*
X90776Y-30157D01*
X90787Y-30168D01*
X90809Y-30179D01*
X90843Y-30179D01*
X90866Y-30168D01*
X90877Y-30157D01*
X90888Y-30134D01*
X90888Y-30044D01*
X90764Y-30326D02*
X90764Y-30371D01*
X90776Y-30393D01*
X90798Y-30416D01*
X90843Y-30427D01*
X90922Y-30427D01*
X90967Y-30416D01*
X90989Y-30393D01*
X91001Y-30371D01*
X91001Y-30326D01*
X90989Y-30303D01*
X90967Y-30281D01*
X90922Y-30269D01*
X90843Y-30269D01*
X90798Y-30281D01*
X90776Y-30303D01*
X90764Y-30326D01*
X91023Y-30472D02*
X91023Y-30652D01*
X90877Y-30787D02*
X90888Y-30821D01*
X90899Y-30832D01*
X90922Y-30843D01*
X90956Y-30843D01*
X90978Y-30832D01*
X90989Y-30821D01*
X91001Y-30798D01*
X91001Y-30708D01*
X90764Y-30708D01*
X90764Y-30787D01*
X90776Y-30809D01*
X90787Y-30821D01*
X90809Y-30832D01*
X90832Y-30832D01*
X90854Y-30821D01*
X90866Y-30809D01*
X90877Y-30787D01*
X90877Y-30708D01*
G54D17*
X79418Y-37991D02*
X79418Y-38134D01*
X79668Y-38063D02*
X79418Y-38063D01*
X79668Y-38217D02*
X79418Y-38217D01*
X79418Y-38313D01*
X79430Y-38336D01*
X79441Y-38348D01*
X79465Y-38360D01*
X79501Y-38360D01*
X79525Y-38348D01*
X79537Y-38336D01*
X79549Y-38313D01*
X79549Y-38217D01*
X79441Y-38455D02*
X79430Y-38467D01*
X79418Y-38491D01*
X79418Y-38551D01*
X79430Y-38574D01*
X79441Y-38586D01*
X79465Y-38598D01*
X79489Y-38598D01*
X79525Y-38586D01*
X79668Y-38443D01*
X79668Y-38598D01*
G54D18*
G54D17*
X82795Y-38473D02*
X82652Y-38473D01*
X82724Y-38723D02*
X82724Y-38473D01*
X82569Y-38723D02*
X82569Y-38473D01*
X82474Y-38473D01*
X82450Y-38485D01*
X82438Y-38497D01*
X82426Y-38520D01*
X82426Y-38556D01*
X82438Y-38580D01*
X82450Y-38592D01*
X82474Y-38604D01*
X82569Y-38604D01*
X82188Y-38723D02*
X82331Y-38723D01*
X82260Y-38723D02*
X82260Y-38473D01*
X82283Y-38508D01*
X82307Y-38532D01*
X82331Y-38544D01*
G54D18*
G54D15*
X69448Y-26040D02*
X69437Y-26018D01*
X69414Y-25995D01*
X69381Y-25961D01*
X69370Y-25939D01*
X69370Y-25916D01*
X69426Y-25928D02*
X69414Y-25905D01*
X69392Y-25883D01*
X69347Y-25871D01*
X69268Y-25871D01*
X69223Y-25883D01*
X69201Y-25905D01*
X69190Y-25928D01*
X69190Y-25973D01*
X69201Y-25995D01*
X69223Y-26018D01*
X69268Y-26029D01*
X69347Y-26029D01*
X69392Y-26018D01*
X69414Y-25995D01*
X69426Y-25973D01*
X69426Y-25928D01*
X69190Y-26107D02*
X69190Y-26254D01*
X69280Y-26175D01*
X69280Y-26209D01*
X69291Y-26231D01*
X69302Y-26242D01*
X69325Y-26254D01*
X69381Y-26254D01*
X69403Y-26242D01*
X69414Y-26231D01*
X69426Y-26209D01*
X69426Y-26141D01*
X69414Y-26119D01*
X69403Y-26107D01*
X68559Y-26018D02*
X68323Y-26018D01*
X68559Y-26266D02*
X68447Y-26187D01*
X68559Y-26131D02*
X68323Y-26131D01*
X68323Y-26221D01*
X68335Y-26243D01*
X68346Y-26254D01*
X68368Y-26266D01*
X68402Y-26266D01*
X68425Y-26254D01*
X68436Y-26243D01*
X68447Y-26221D01*
X68447Y-26131D01*
X68559Y-26479D02*
X68559Y-26367D01*
X68323Y-26367D01*
X68559Y-26558D02*
X68323Y-26558D01*
X68492Y-26636D01*
X68323Y-26715D01*
X68559Y-26715D01*
X68548Y-26816D02*
X68559Y-26850D01*
X68559Y-26906D01*
X68548Y-26929D01*
X68537Y-26940D01*
X68514Y-26951D01*
X68492Y-26951D01*
X68469Y-26940D01*
X68458Y-26929D01*
X68447Y-26906D01*
X68436Y-26861D01*
X68425Y-26839D01*
X68413Y-26827D01*
X68391Y-26816D01*
X68368Y-26816D01*
X68346Y-26827D01*
X68335Y-26839D01*
X68323Y-26861D01*
X68323Y-26917D01*
X68335Y-26951D01*
X68559Y-27063D02*
X68559Y-27108D01*
X68548Y-27131D01*
X68537Y-27142D01*
X68503Y-27165D01*
X68458Y-27176D01*
X68368Y-27176D01*
X68346Y-27165D01*
X68335Y-27153D01*
X68323Y-27131D01*
X68323Y-27086D01*
X68335Y-27063D01*
X68346Y-27052D01*
X68368Y-27041D01*
X68425Y-27041D01*
X68447Y-27052D01*
X68458Y-27063D01*
X68469Y-27086D01*
X68469Y-27131D01*
X68458Y-27153D01*
X68447Y-27165D01*
X68425Y-27176D01*
X68323Y-27255D02*
X68323Y-27401D01*
X68413Y-27322D01*
X68413Y-27356D01*
X68425Y-27378D01*
X68436Y-27389D01*
X68458Y-27401D01*
X68514Y-27401D01*
X68537Y-27389D01*
X68548Y-27378D01*
X68559Y-27356D01*
X68559Y-27288D01*
X68548Y-27266D01*
X68537Y-27255D01*
X68323Y-27547D02*
X68323Y-27569D01*
X68335Y-27592D01*
X68346Y-27603D01*
X68368Y-27614D01*
X68413Y-27625D01*
X68469Y-27625D01*
X68514Y-27614D01*
X68537Y-27603D01*
X68548Y-27592D01*
X68559Y-27569D01*
X68559Y-27547D01*
X68548Y-27524D01*
X68537Y-27513D01*
X68514Y-27502D01*
X68469Y-27491D01*
X68413Y-27491D01*
X68368Y-27502D01*
X68346Y-27513D01*
X68335Y-27524D01*
X68323Y-27547D01*
X68323Y-27704D02*
X68323Y-27850D01*
X68413Y-27771D01*
X68413Y-27805D01*
X68425Y-27828D01*
X68436Y-27839D01*
X68458Y-27850D01*
X68514Y-27850D01*
X68537Y-27839D01*
X68548Y-27828D01*
X68559Y-27805D01*
X68559Y-27738D01*
X68548Y-27715D01*
X68537Y-27704D01*
X85140Y-31125D02*
X85163Y-31114D01*
X85185Y-31091D01*
X85219Y-31058D01*
X85241Y-31046D01*
X85264Y-31046D01*
X85252Y-31103D02*
X85275Y-31091D01*
X85297Y-31069D01*
X85309Y-31024D01*
X85309Y-30945D01*
X85297Y-30900D01*
X85275Y-30878D01*
X85252Y-30867D01*
X85208Y-30867D01*
X85185Y-30878D01*
X85163Y-30900D01*
X85151Y-30945D01*
X85151Y-31024D01*
X85163Y-31069D01*
X85185Y-31091D01*
X85208Y-31103D01*
X85252Y-31103D01*
X84927Y-31103D02*
X85061Y-31103D01*
X84994Y-31103D02*
X84994Y-30867D01*
X85016Y-30900D01*
X85039Y-30923D01*
X85061Y-30934D01*
X85758Y-29212D02*
X85747Y-29201D01*
X85724Y-29190D01*
X85668Y-29190D01*
X85646Y-29201D01*
X85635Y-29212D01*
X85623Y-29234D01*
X85623Y-29257D01*
X85635Y-29291D01*
X85769Y-29426D01*
X85623Y-29426D01*
X85522Y-29426D02*
X85522Y-29190D01*
X85387Y-29426D01*
X85387Y-29190D01*
X85297Y-29190D02*
X85140Y-29190D01*
X85241Y-29426D01*
X85005Y-29190D02*
X84983Y-29190D01*
X84960Y-29201D01*
X84949Y-29212D01*
X84938Y-29234D01*
X84927Y-29279D01*
X84927Y-29336D01*
X84938Y-29381D01*
X84949Y-29403D01*
X84960Y-29414D01*
X84983Y-29426D01*
X85005Y-29426D01*
X85028Y-29414D01*
X85039Y-29403D01*
X85050Y-29381D01*
X85061Y-29336D01*
X85061Y-29279D01*
X85050Y-29234D01*
X85039Y-29212D01*
X85028Y-29201D01*
X85005Y-29190D01*
X84780Y-29190D02*
X84758Y-29190D01*
X84736Y-29201D01*
X84724Y-29212D01*
X84713Y-29234D01*
X84702Y-29279D01*
X84702Y-29336D01*
X84713Y-29381D01*
X84724Y-29403D01*
X84736Y-29414D01*
X84758Y-29426D01*
X84780Y-29426D01*
X84803Y-29414D01*
X84814Y-29403D01*
X84825Y-29381D01*
X84837Y-29336D01*
X84837Y-29279D01*
X84825Y-29234D01*
X84814Y-29212D01*
X84803Y-29201D01*
X84780Y-29190D01*
X84612Y-29212D02*
X84601Y-29201D01*
X84578Y-29190D01*
X84522Y-29190D01*
X84500Y-29201D01*
X84488Y-29212D01*
X84477Y-29234D01*
X84477Y-29257D01*
X84488Y-29291D01*
X84623Y-29426D01*
X84477Y-29426D01*
X71180Y-38993D02*
X71169Y-38970D01*
X71147Y-38948D01*
X71113Y-38914D01*
X71102Y-38892D01*
X71102Y-38869D01*
X71158Y-38880D02*
X71147Y-38858D01*
X71124Y-38835D01*
X71079Y-38824D01*
X71001Y-38824D01*
X70956Y-38835D01*
X70933Y-38858D01*
X70922Y-38880D01*
X70922Y-38925D01*
X70933Y-38948D01*
X70956Y-38970D01*
X71001Y-38982D01*
X71079Y-38982D01*
X71124Y-38970D01*
X71147Y-38948D01*
X71158Y-38925D01*
X71158Y-38880D01*
X70944Y-39071D02*
X70933Y-39083D01*
X70922Y-39105D01*
X70922Y-39161D01*
X70933Y-39184D01*
X70944Y-39195D01*
X70967Y-39206D01*
X70989Y-39206D01*
X71023Y-39195D01*
X71158Y-39060D01*
X71158Y-39206D01*
X70292Y-39050D02*
X70056Y-39050D01*
X70224Y-39128D01*
X70056Y-39207D01*
X70292Y-39207D01*
X70292Y-39320D02*
X70056Y-39320D01*
X70224Y-39398D01*
X70056Y-39477D01*
X70292Y-39477D01*
X70168Y-39668D02*
X70179Y-39702D01*
X70191Y-39713D01*
X70213Y-39724D01*
X70247Y-39724D01*
X70269Y-39713D01*
X70280Y-39702D01*
X70292Y-39679D01*
X70292Y-39589D01*
X70056Y-39589D01*
X70056Y-39668D01*
X70067Y-39690D01*
X70078Y-39702D01*
X70101Y-39713D01*
X70123Y-39713D01*
X70146Y-39702D01*
X70157Y-39690D01*
X70168Y-39668D01*
X70168Y-39589D01*
X70056Y-39792D02*
X70056Y-39926D01*
X70292Y-39859D02*
X70056Y-39859D01*
X70078Y-39994D02*
X70067Y-40005D01*
X70056Y-40028D01*
X70056Y-40084D01*
X70067Y-40106D01*
X70078Y-40117D01*
X70101Y-40129D01*
X70123Y-40129D01*
X70157Y-40117D01*
X70292Y-39983D01*
X70292Y-40129D01*
X70078Y-40219D02*
X70067Y-40230D01*
X70056Y-40252D01*
X70056Y-40308D01*
X70067Y-40331D01*
X70078Y-40342D01*
X70101Y-40353D01*
X70123Y-40353D01*
X70157Y-40342D01*
X70292Y-40207D01*
X70292Y-40353D01*
X70078Y-40443D02*
X70067Y-40455D01*
X70056Y-40477D01*
X70056Y-40533D01*
X70067Y-40556D01*
X70078Y-40567D01*
X70101Y-40578D01*
X70123Y-40578D01*
X70157Y-40567D01*
X70292Y-40432D01*
X70292Y-40578D01*
X70078Y-40668D02*
X70067Y-40679D01*
X70056Y-40702D01*
X70056Y-40758D01*
X70067Y-40780D01*
X70078Y-40792D01*
X70101Y-40803D01*
X70123Y-40803D01*
X70157Y-40792D01*
X70292Y-40657D01*
X70292Y-40803D01*
X79623Y-31024D02*
X79623Y-30788D01*
X79566Y-30788D01*
X79533Y-30799D01*
X79510Y-30821D01*
X79499Y-30844D01*
X79488Y-30889D01*
X79488Y-30923D01*
X79499Y-30968D01*
X79510Y-30990D01*
X79533Y-31013D01*
X79566Y-31024D01*
X79623Y-31024D01*
X79263Y-31024D02*
X79398Y-31024D01*
X79330Y-31024D02*
X79330Y-30788D01*
X79353Y-30821D01*
X79375Y-30844D01*
X79398Y-30855D01*
X79988Y-29223D02*
X79954Y-29234D01*
X79943Y-29246D01*
X79932Y-29268D01*
X79932Y-29302D01*
X79943Y-29324D01*
X79954Y-29336D01*
X79977Y-29347D01*
X80066Y-29347D01*
X80066Y-29111D01*
X79988Y-29111D01*
X79965Y-29122D01*
X79954Y-29133D01*
X79943Y-29156D01*
X79943Y-29178D01*
X79954Y-29201D01*
X79965Y-29212D01*
X79988Y-29223D01*
X80066Y-29223D01*
X79842Y-29279D02*
X79729Y-29279D01*
X79864Y-29347D02*
X79785Y-29111D01*
X79707Y-29347D01*
X79651Y-29111D02*
X79493Y-29347D01*
X79493Y-29111D02*
X79651Y-29347D01*
X79426Y-29111D02*
X79269Y-29347D01*
X79269Y-29111D02*
X79426Y-29347D01*
X79201Y-29111D02*
X79044Y-29347D01*
X79044Y-29111D02*
X79201Y-29347D01*
X78819Y-29324D02*
X78830Y-29336D01*
X78864Y-29347D01*
X78886Y-29347D01*
X78920Y-29336D01*
X78943Y-29313D01*
X78954Y-29291D01*
X78965Y-29246D01*
X78965Y-29212D01*
X78954Y-29167D01*
X78943Y-29144D01*
X78920Y-29122D01*
X78886Y-29111D01*
X78864Y-29111D01*
X78830Y-29122D01*
X78819Y-29133D01*
G54D10*
X67930Y-28464D02*
X67694Y-28464D01*
X67694Y-28520D01*
X67705Y-28554D01*
X67727Y-28577D01*
X67750Y-28588D01*
X67795Y-28599D01*
X67829Y-28599D01*
X67874Y-28588D01*
X67896Y-28577D01*
X67919Y-28554D01*
X67930Y-28520D01*
X67930Y-28464D01*
X67862Y-28689D02*
X67862Y-28802D01*
X67930Y-28667D02*
X67694Y-28745D01*
X67930Y-28824D01*
X67930Y-29026D02*
X67930Y-28892D01*
X67930Y-28959D02*
X67694Y-28959D01*
X67727Y-28937D01*
X67750Y-28914D01*
X67761Y-28892D01*
X67969Y-29870D02*
X67733Y-29870D01*
X67969Y-29983D02*
X67733Y-29983D01*
X67733Y-30073D01*
X67744Y-30095D01*
X67755Y-30106D01*
X67778Y-30118D01*
X67812Y-30118D01*
X67834Y-30106D01*
X67845Y-30095D01*
X67857Y-30073D01*
X67857Y-29983D01*
X67958Y-30208D02*
X67969Y-30241D01*
X67969Y-30298D01*
X67958Y-30320D01*
X67947Y-30331D01*
X67924Y-30343D01*
X67902Y-30343D01*
X67879Y-30331D01*
X67868Y-30320D01*
X67857Y-30298D01*
X67845Y-30253D01*
X67834Y-30230D01*
X67823Y-30219D01*
X67800Y-30208D01*
X67778Y-30208D01*
X67755Y-30219D01*
X67744Y-30230D01*
X67733Y-30253D01*
X67733Y-30309D01*
X67744Y-30343D01*
X67733Y-30545D02*
X67733Y-30500D01*
X67744Y-30478D01*
X67755Y-30466D01*
X67789Y-30444D01*
X67834Y-30433D01*
X67924Y-30433D01*
X67947Y-30444D01*
X67958Y-30455D01*
X67969Y-30478D01*
X67969Y-30523D01*
X67958Y-30545D01*
X67947Y-30556D01*
X67924Y-30568D01*
X67868Y-30568D01*
X67845Y-30556D01*
X67834Y-30545D01*
X67823Y-30523D01*
X67823Y-30478D01*
X67834Y-30455D01*
X67845Y-30444D01*
X67868Y-30433D01*
X67733Y-30714D02*
X67733Y-30736D01*
X67744Y-30759D01*
X67755Y-30770D01*
X67778Y-30781D01*
X67823Y-30793D01*
X67879Y-30793D01*
X67924Y-30781D01*
X67947Y-30770D01*
X67958Y-30759D01*
X67969Y-30736D01*
X67969Y-30714D01*
X67958Y-30691D01*
X67947Y-30680D01*
X67924Y-30669D01*
X67879Y-30658D01*
X67823Y-30658D01*
X67778Y-30669D01*
X67755Y-30680D01*
X67744Y-30691D01*
X67733Y-30714D01*
X67812Y-30995D02*
X67969Y-30995D01*
X67722Y-30939D02*
X67890Y-30883D01*
X67890Y-31029D01*
X67969Y-31242D02*
X67969Y-31107D01*
X67969Y-31175D02*
X67733Y-31175D01*
X67767Y-31152D01*
X67789Y-31130D01*
X67800Y-31107D01*
X78700Y-24893D02*
X78779Y-24893D01*
X78779Y-25016D02*
X78779Y-24780D01*
X78667Y-24780D01*
X78453Y-25016D02*
X78588Y-25016D01*
X78520Y-25016D02*
X78520Y-24780D01*
X78543Y-24814D01*
X78565Y-24836D01*
X78588Y-24848D01*
X78554Y-29055D02*
X78554Y-28976D01*
X78678Y-28976D02*
X78442Y-28976D01*
X78442Y-29088D01*
X78464Y-29167D02*
X78453Y-29178D01*
X78442Y-29201D01*
X78442Y-29257D01*
X78453Y-29280D01*
X78464Y-29291D01*
X78487Y-29302D01*
X78509Y-29302D01*
X78543Y-29291D01*
X78678Y-29156D01*
X78678Y-29302D01*
G54D15*
X76653Y-29386D02*
X76653Y-29150D01*
X76597Y-29150D01*
X76563Y-29162D01*
X76540Y-29184D01*
X76529Y-29207D01*
X76518Y-29252D01*
X76518Y-29285D01*
X76529Y-29330D01*
X76540Y-29353D01*
X76563Y-29375D01*
X76597Y-29386D01*
X76653Y-29386D01*
X76428Y-29319D02*
X76316Y-29319D01*
X76451Y-29386D02*
X76372Y-29150D01*
X76293Y-29386D01*
X76237Y-29150D02*
X76091Y-29150D01*
X76170Y-29240D01*
X76136Y-29240D01*
X76113Y-29252D01*
X76102Y-29263D01*
X76091Y-29285D01*
X76091Y-29341D01*
X76102Y-29364D01*
X76113Y-29375D01*
X76136Y-29386D01*
X76203Y-29386D01*
X76226Y-29375D01*
X76237Y-29364D01*
X77490Y-29071D02*
X77490Y-28835D01*
X77355Y-29071D01*
X77355Y-28835D01*
X77108Y-29049D02*
X77119Y-29060D01*
X77153Y-29071D01*
X77176Y-29071D01*
X77209Y-29060D01*
X77232Y-29038D01*
X77243Y-29015D01*
X77254Y-28970D01*
X77254Y-28937D01*
X77243Y-28892D01*
X77232Y-28869D01*
X77209Y-28847D01*
X77176Y-28835D01*
X77153Y-28835D01*
X77119Y-28847D01*
X77108Y-28858D01*
X77007Y-29071D02*
X77007Y-28835D01*
X76917Y-28835D01*
X76895Y-28847D01*
X76883Y-28858D01*
X76872Y-28880D01*
X76872Y-28914D01*
X76883Y-28937D01*
X76895Y-28948D01*
X76917Y-28959D01*
X77007Y-28959D01*
X76659Y-28835D02*
X76771Y-28835D01*
X76782Y-28948D01*
X76771Y-28937D01*
X76749Y-28925D01*
X76692Y-28925D01*
X76670Y-28937D01*
X76659Y-28948D01*
X76647Y-28970D01*
X76647Y-29026D01*
X76659Y-29049D01*
X76670Y-29060D01*
X76692Y-29071D01*
X76749Y-29071D01*
X76771Y-29060D01*
X76782Y-29049D01*
X76513Y-28937D02*
X76535Y-28925D01*
X76546Y-28914D01*
X76557Y-28892D01*
X76557Y-28880D01*
X76546Y-28858D01*
X76535Y-28847D01*
X76513Y-28835D01*
X76468Y-28835D01*
X76445Y-28847D01*
X76434Y-28858D01*
X76423Y-28880D01*
X76423Y-28892D01*
X76434Y-28914D01*
X76445Y-28925D01*
X76468Y-28937D01*
X76513Y-28937D01*
X76535Y-28948D01*
X76546Y-28959D01*
X76557Y-28981D01*
X76557Y-29026D01*
X76546Y-29049D01*
X76535Y-29060D01*
X76513Y-29071D01*
X76468Y-29071D01*
X76445Y-29060D01*
X76434Y-29049D01*
X76423Y-29026D01*
X76423Y-28981D01*
X76434Y-28959D01*
X76445Y-28948D01*
X76468Y-28937D01*
X76344Y-28835D02*
X76198Y-28835D01*
X76277Y-28925D01*
X76243Y-28925D01*
X76220Y-28937D01*
X76209Y-28948D01*
X76198Y-28970D01*
X76198Y-29026D01*
X76209Y-29049D01*
X76220Y-29060D01*
X76243Y-29071D01*
X76310Y-29071D01*
X76333Y-29060D01*
X76344Y-29049D01*
X76108Y-29060D02*
X76074Y-29071D01*
X76018Y-29071D01*
X75996Y-29060D01*
X75984Y-29049D01*
X75973Y-29026D01*
X75973Y-29004D01*
X75984Y-28981D01*
X75996Y-28970D01*
X76018Y-28959D01*
X76063Y-28948D01*
X76085Y-28937D01*
X76097Y-28925D01*
X76108Y-28903D01*
X76108Y-28880D01*
X76097Y-28858D01*
X76085Y-28847D01*
X76063Y-28835D01*
X76007Y-28835D01*
X75973Y-28847D01*
X75715Y-29094D02*
X75737Y-29083D01*
X75760Y-29060D01*
X75793Y-29026D01*
X75816Y-29015D01*
X75838Y-29015D01*
X75827Y-29071D02*
X75849Y-29060D01*
X75872Y-29038D01*
X75883Y-28993D01*
X75883Y-28914D01*
X75872Y-28869D01*
X75849Y-28847D01*
X75827Y-28835D01*
X75782Y-28835D01*
X75760Y-28847D01*
X75737Y-28869D01*
X75726Y-28914D01*
X75726Y-28993D01*
X75737Y-29038D01*
X75760Y-29060D01*
X75782Y-29071D01*
X75827Y-29071D01*
G54D10*
X92418Y-48470D02*
X92305Y-48391D01*
X92418Y-48335D02*
X92182Y-48335D01*
X92182Y-48425D01*
X92193Y-48447D01*
X92204Y-48458D01*
X92227Y-48470D01*
X92260Y-48470D01*
X92283Y-48458D01*
X92294Y-48447D01*
X92305Y-48425D01*
X92305Y-48335D01*
X92418Y-48695D02*
X92418Y-48560D01*
X92418Y-48627D02*
X92182Y-48627D01*
X92215Y-48605D01*
X92238Y-48582D01*
X92249Y-48560D01*
X92283Y-48830D02*
X92272Y-48807D01*
X92260Y-48796D01*
X92238Y-48785D01*
X92227Y-48785D01*
X92204Y-48796D01*
X92193Y-48807D01*
X92182Y-48830D01*
X92182Y-48875D01*
X92193Y-48897D01*
X92204Y-48908D01*
X92227Y-48920D01*
X92238Y-48920D01*
X92260Y-48908D01*
X92272Y-48897D01*
X92283Y-48875D01*
X92283Y-48830D01*
X92294Y-48807D01*
X92305Y-48796D01*
X92328Y-48785D01*
X92373Y-48785D01*
X92395Y-48796D01*
X92407Y-48807D01*
X92418Y-48830D01*
X92418Y-48875D01*
X92407Y-48897D01*
X92395Y-48908D01*
X92373Y-48920D01*
X92328Y-48920D01*
X92305Y-48908D01*
X92294Y-48897D01*
X92283Y-48875D01*
X92474Y-49190D02*
X92587Y-49190D01*
X92598Y-49302D01*
X92587Y-49291D01*
X92564Y-49280D01*
X92508Y-49280D01*
X92485Y-49291D01*
X92474Y-49302D01*
X92463Y-49325D01*
X92463Y-49381D01*
X92474Y-49403D01*
X92485Y-49415D01*
X92508Y-49426D01*
X92564Y-49426D01*
X92587Y-49415D01*
X92598Y-49403D01*
X92238Y-49426D02*
X92373Y-49426D01*
X92305Y-49426D02*
X92305Y-49190D01*
X92328Y-49223D01*
X92350Y-49246D01*
X92373Y-49257D01*
X92137Y-49426D02*
X92137Y-49190D01*
X92114Y-49336D02*
X92047Y-49426D01*
X92047Y-49268D02*
X92137Y-49358D01*
X92750Y-38717D02*
X92829Y-38605D01*
X92885Y-38717D02*
X92885Y-38481D01*
X92795Y-38481D01*
X92772Y-38492D01*
X92761Y-38503D01*
X92750Y-38526D01*
X92750Y-38560D01*
X92761Y-38582D01*
X92772Y-38593D01*
X92795Y-38605D01*
X92885Y-38605D01*
X92525Y-38717D02*
X92660Y-38717D01*
X92592Y-38717D02*
X92592Y-38481D01*
X92615Y-38515D01*
X92637Y-38537D01*
X92660Y-38548D01*
X92322Y-38560D02*
X92322Y-38717D01*
X92379Y-38470D02*
X92435Y-38638D01*
X92289Y-38638D01*
X92795Y-36698D02*
X92784Y-36709D01*
X92772Y-36732D01*
X92772Y-36788D01*
X92784Y-36811D01*
X92795Y-36822D01*
X92817Y-36833D01*
X92840Y-36833D01*
X92874Y-36822D01*
X93008Y-36687D01*
X93008Y-36833D01*
X92772Y-36979D02*
X92772Y-37002D01*
X92784Y-37024D01*
X92795Y-37035D01*
X92817Y-37047D01*
X92862Y-37058D01*
X92919Y-37058D01*
X92964Y-37047D01*
X92986Y-37035D01*
X92997Y-37024D01*
X93008Y-37002D01*
X93008Y-36979D01*
X92997Y-36957D01*
X92986Y-36946D01*
X92964Y-36934D01*
X92919Y-36923D01*
X92862Y-36923D01*
X92817Y-36934D01*
X92795Y-36946D01*
X92784Y-36957D01*
X92772Y-36979D01*
X92772Y-37204D02*
X92772Y-37227D01*
X92784Y-37249D01*
X92795Y-37260D01*
X92817Y-37272D01*
X92862Y-37283D01*
X92919Y-37283D01*
X92964Y-37272D01*
X92986Y-37260D01*
X92997Y-37249D01*
X93008Y-37227D01*
X93008Y-37204D01*
X92997Y-37182D01*
X92986Y-37170D01*
X92964Y-37159D01*
X92919Y-37148D01*
X92862Y-37148D01*
X92817Y-37159D01*
X92795Y-37170D01*
X92784Y-37182D01*
X92772Y-37204D01*
X93008Y-37384D02*
X92772Y-37384D01*
X92919Y-37407D02*
X93008Y-37474D01*
X92851Y-37474D02*
X92941Y-37384D01*
X91844Y-46788D02*
X91923Y-46676D01*
X91979Y-46788D02*
X91979Y-46552D01*
X91889Y-46552D01*
X91867Y-46563D01*
X91856Y-46574D01*
X91844Y-46597D01*
X91844Y-46631D01*
X91856Y-46653D01*
X91867Y-46664D01*
X91889Y-46676D01*
X91979Y-46676D01*
X91619Y-46788D02*
X91754Y-46788D01*
X91687Y-46788D02*
X91687Y-46552D01*
X91709Y-46586D01*
X91732Y-46608D01*
X91754Y-46619D01*
X91541Y-46552D02*
X91383Y-46552D01*
X91484Y-46788D01*
X90922Y-47289D02*
X90922Y-47176D01*
X91034Y-47165D01*
X91023Y-47176D01*
X91012Y-47199D01*
X91012Y-47255D01*
X91023Y-47277D01*
X91034Y-47289D01*
X91057Y-47300D01*
X91113Y-47300D01*
X91136Y-47289D01*
X91147Y-47277D01*
X91158Y-47255D01*
X91158Y-47199D01*
X91147Y-47176D01*
X91136Y-47165D01*
X91158Y-47525D02*
X91158Y-47390D01*
X91158Y-47457D02*
X90922Y-47457D01*
X90956Y-47435D01*
X90978Y-47412D01*
X90989Y-47390D01*
X91158Y-47626D02*
X90922Y-47626D01*
X91068Y-47649D02*
X91158Y-47716D01*
X91001Y-47716D02*
X91091Y-47626D01*
X91119Y-37879D02*
X91006Y-37800D01*
X91119Y-37744D02*
X90883Y-37744D01*
X90883Y-37834D01*
X90894Y-37857D01*
X90905Y-37868D01*
X90928Y-37879D01*
X90961Y-37879D01*
X90984Y-37868D01*
X90995Y-37857D01*
X91006Y-37834D01*
X91006Y-37744D01*
X91119Y-38104D02*
X91119Y-37969D01*
X91119Y-38037D02*
X90883Y-38037D01*
X90916Y-38014D01*
X90939Y-37992D01*
X90950Y-37969D01*
X90883Y-38307D02*
X90883Y-38262D01*
X90894Y-38239D01*
X90905Y-38228D01*
X90939Y-38205D01*
X90984Y-38194D01*
X91074Y-38194D01*
X91096Y-38205D01*
X91107Y-38217D01*
X91119Y-38239D01*
X91119Y-38284D01*
X91107Y-38307D01*
X91096Y-38318D01*
X91074Y-38329D01*
X91017Y-38329D01*
X90995Y-38318D01*
X90984Y-38307D01*
X90973Y-38284D01*
X90973Y-38239D01*
X90984Y-38217D01*
X90995Y-38205D01*
X91017Y-38194D01*
X89836Y-38363D02*
X89690Y-38363D01*
X89769Y-38453D01*
X89735Y-38453D01*
X89713Y-38464D01*
X89701Y-38475D01*
X89690Y-38498D01*
X89690Y-38554D01*
X89701Y-38577D01*
X89713Y-38588D01*
X89735Y-38599D01*
X89803Y-38599D01*
X89825Y-38588D01*
X89836Y-38577D01*
X89578Y-38599D02*
X89533Y-38599D01*
X89510Y-38588D01*
X89499Y-38577D01*
X89476Y-38543D01*
X89465Y-38498D01*
X89465Y-38408D01*
X89476Y-38385D01*
X89488Y-38374D01*
X89510Y-38363D01*
X89555Y-38363D01*
X89578Y-38374D01*
X89589Y-38385D01*
X89600Y-38408D01*
X89600Y-38464D01*
X89589Y-38487D01*
X89578Y-38498D01*
X89555Y-38509D01*
X89510Y-38509D01*
X89488Y-38498D01*
X89476Y-38487D01*
X89465Y-38464D01*
X89229Y-38599D02*
X89308Y-38487D01*
X89364Y-38599D02*
X89364Y-38363D01*
X89274Y-38363D01*
X89251Y-38374D01*
X89240Y-38385D01*
X89229Y-38408D01*
X89229Y-38442D01*
X89240Y-38464D01*
X89251Y-38475D01*
X89274Y-38487D01*
X89364Y-38487D01*
X91079Y-39021D02*
X90967Y-38942D01*
X91079Y-38886D02*
X90843Y-38886D01*
X90843Y-38976D01*
X90854Y-38998D01*
X90866Y-39010D01*
X90888Y-39021D01*
X90922Y-39021D01*
X90944Y-39010D01*
X90956Y-38998D01*
X90967Y-38976D01*
X90967Y-38886D01*
X91079Y-39246D02*
X91079Y-39111D01*
X91079Y-39178D02*
X90843Y-39178D01*
X90877Y-39156D01*
X90899Y-39133D01*
X90911Y-39111D01*
X90843Y-39460D02*
X90843Y-39347D01*
X90956Y-39336D01*
X90944Y-39347D01*
X90933Y-39370D01*
X90933Y-39426D01*
X90944Y-39448D01*
X90956Y-39460D01*
X90978Y-39471D01*
X91034Y-39471D01*
X91057Y-39460D01*
X91068Y-39448D01*
X91079Y-39426D01*
X91079Y-39370D01*
X91068Y-39347D01*
X91057Y-39336D01*
X91788Y-39724D02*
X91777Y-39713D01*
X91754Y-39701D01*
X91698Y-39701D01*
X91676Y-39713D01*
X91664Y-39724D01*
X91653Y-39746D01*
X91653Y-39769D01*
X91664Y-39803D01*
X91799Y-39938D01*
X91653Y-39938D01*
X91507Y-39701D02*
X91484Y-39701D01*
X91462Y-39713D01*
X91451Y-39724D01*
X91439Y-39746D01*
X91428Y-39791D01*
X91428Y-39848D01*
X91439Y-39893D01*
X91451Y-39915D01*
X91462Y-39926D01*
X91484Y-39938D01*
X91507Y-39938D01*
X91529Y-39926D01*
X91541Y-39915D01*
X91552Y-39893D01*
X91563Y-39848D01*
X91563Y-39791D01*
X91552Y-39746D01*
X91541Y-39724D01*
X91529Y-39713D01*
X91507Y-39701D01*
X91282Y-39701D02*
X91259Y-39701D01*
X91237Y-39713D01*
X91226Y-39724D01*
X91214Y-39746D01*
X91203Y-39791D01*
X91203Y-39848D01*
X91214Y-39893D01*
X91226Y-39915D01*
X91237Y-39926D01*
X91259Y-39938D01*
X91282Y-39938D01*
X91304Y-39926D01*
X91316Y-39915D01*
X91327Y-39893D01*
X91338Y-39848D01*
X91338Y-39791D01*
X91327Y-39746D01*
X91316Y-39724D01*
X91304Y-39713D01*
X91282Y-39701D01*
X90967Y-39938D02*
X91046Y-39825D01*
X91102Y-39938D02*
X91102Y-39701D01*
X91012Y-39701D01*
X90989Y-39713D01*
X90978Y-39724D01*
X90967Y-39746D01*
X90967Y-39780D01*
X90978Y-39803D01*
X90989Y-39814D01*
X91012Y-39825D01*
X91102Y-39825D01*
X72300Y-38976D02*
X72187Y-38897D01*
X72300Y-38841D02*
X72064Y-38841D01*
X72064Y-38931D01*
X72075Y-38953D01*
X72086Y-38965D01*
X72109Y-38976D01*
X72142Y-38976D01*
X72165Y-38965D01*
X72176Y-38953D01*
X72187Y-38931D01*
X72187Y-38841D01*
X72142Y-39178D02*
X72300Y-39178D01*
X72052Y-39122D02*
X72221Y-39066D01*
X72221Y-39212D01*
X72694Y-38987D02*
X72694Y-38852D01*
X72694Y-38920D02*
X72457Y-38920D01*
X72491Y-38897D01*
X72514Y-38875D01*
X72525Y-38852D01*
X72694Y-39088D02*
X72457Y-39088D01*
X72604Y-39111D02*
X72694Y-39178D01*
X72536Y-39178D02*
X72626Y-39088D01*
X77632Y-25883D02*
X77710Y-25770D01*
X77767Y-25883D02*
X77767Y-25646D01*
X77677Y-25646D01*
X77654Y-25658D01*
X77643Y-25669D01*
X77632Y-25691D01*
X77632Y-25725D01*
X77643Y-25748D01*
X77654Y-25759D01*
X77677Y-25770D01*
X77767Y-25770D01*
X77407Y-25883D02*
X77542Y-25883D01*
X77474Y-25883D02*
X77474Y-25646D01*
X77497Y-25680D01*
X77519Y-25703D01*
X77542Y-25714D01*
X77182Y-25883D02*
X77317Y-25883D01*
X77249Y-25883D02*
X77249Y-25646D01*
X77272Y-25680D01*
X77294Y-25703D01*
X77317Y-25714D01*
X76827Y-25174D02*
X76827Y-25039D01*
X76827Y-25106D02*
X76591Y-25106D01*
X76625Y-25084D01*
X76647Y-25061D01*
X76659Y-25039D01*
X76591Y-25320D02*
X76591Y-25343D01*
X76602Y-25365D01*
X76614Y-25376D01*
X76636Y-25388D01*
X76681Y-25399D01*
X76737Y-25399D01*
X76782Y-25388D01*
X76805Y-25376D01*
X76816Y-25365D01*
X76827Y-25343D01*
X76827Y-25320D01*
X76816Y-25298D01*
X76805Y-25286D01*
X76782Y-25275D01*
X76737Y-25264D01*
X76681Y-25264D01*
X76636Y-25275D01*
X76614Y-25286D01*
X76602Y-25298D01*
X76591Y-25320D01*
X76827Y-25500D02*
X76591Y-25500D01*
X76737Y-25523D02*
X76827Y-25590D01*
X76670Y-25590D02*
X76760Y-25500D01*
X71540Y-26881D02*
X71428Y-26802D01*
X71540Y-26746D02*
X71304Y-26746D01*
X71304Y-26836D01*
X71315Y-26858D01*
X71326Y-26869D01*
X71349Y-26881D01*
X71383Y-26881D01*
X71405Y-26869D01*
X71416Y-26858D01*
X71428Y-26836D01*
X71428Y-26746D01*
X71540Y-27105D02*
X71540Y-26971D01*
X71540Y-27038D02*
X71304Y-27038D01*
X71338Y-27016D01*
X71360Y-26993D01*
X71371Y-26971D01*
X71540Y-27218D02*
X71540Y-27263D01*
X71529Y-27285D01*
X71517Y-27297D01*
X71484Y-27319D01*
X71439Y-27330D01*
X71349Y-27330D01*
X71326Y-27319D01*
X71315Y-27308D01*
X71304Y-27285D01*
X71304Y-27240D01*
X71315Y-27218D01*
X71326Y-27207D01*
X71349Y-27195D01*
X71405Y-27195D01*
X71428Y-27207D01*
X71439Y-27218D01*
X71450Y-27240D01*
X71450Y-27285D01*
X71439Y-27308D01*
X71428Y-27319D01*
X71405Y-27330D01*
X70489Y-26940D02*
X70489Y-26805D01*
X70489Y-26873D02*
X70253Y-26873D01*
X70287Y-26850D01*
X70309Y-26828D01*
X70320Y-26805D01*
X70489Y-27041D02*
X70253Y-27041D01*
X70399Y-27064D02*
X70489Y-27131D01*
X70332Y-27131D02*
X70422Y-27041D01*
X78363Y-24375D02*
X78250Y-24296D01*
X78363Y-24240D02*
X78127Y-24240D01*
X78127Y-24330D01*
X78138Y-24353D01*
X78149Y-24364D01*
X78172Y-24375D01*
X78205Y-24375D01*
X78228Y-24364D01*
X78239Y-24353D01*
X78250Y-24330D01*
X78250Y-24240D01*
X78363Y-24600D02*
X78363Y-24465D01*
X78363Y-24533D02*
X78127Y-24533D01*
X78160Y-24510D01*
X78183Y-24488D01*
X78194Y-24465D01*
X78149Y-24690D02*
X78138Y-24701D01*
X78127Y-24724D01*
X78127Y-24780D01*
X78138Y-24803D01*
X78149Y-24814D01*
X78172Y-24825D01*
X78194Y-24825D01*
X78228Y-24814D01*
X78363Y-24679D01*
X78363Y-24825D01*
X76614Y-24364D02*
X76602Y-24375D01*
X76591Y-24398D01*
X76591Y-24454D01*
X76602Y-24476D01*
X76614Y-24488D01*
X76636Y-24499D01*
X76659Y-24499D01*
X76692Y-24488D01*
X76827Y-24353D01*
X76827Y-24499D01*
X76827Y-24600D02*
X76591Y-24600D01*
X76737Y-24623D02*
X76827Y-24690D01*
X76670Y-24690D02*
X76760Y-24600D01*
X71245Y-31170D02*
X71324Y-31057D01*
X71380Y-31170D02*
X71380Y-30934D01*
X71290Y-30934D01*
X71267Y-30945D01*
X71256Y-30956D01*
X71245Y-30979D01*
X71245Y-31012D01*
X71256Y-31035D01*
X71267Y-31046D01*
X71290Y-31057D01*
X71380Y-31057D01*
X71166Y-30934D02*
X71020Y-30934D01*
X71099Y-31024D01*
X71065Y-31024D01*
X71042Y-31035D01*
X71031Y-31046D01*
X71020Y-31069D01*
X71020Y-31125D01*
X71031Y-31147D01*
X71042Y-31159D01*
X71065Y-31170D01*
X71132Y-31170D01*
X71155Y-31159D01*
X71166Y-31147D01*
X71282Y-32221D02*
X71417Y-32221D01*
X71350Y-32221D02*
X71350Y-31985D01*
X71372Y-32018D01*
X71395Y-32041D01*
X71417Y-32052D01*
X71136Y-31985D02*
X71113Y-31985D01*
X71091Y-31996D01*
X71080Y-32007D01*
X71068Y-32030D01*
X71057Y-32075D01*
X71057Y-32131D01*
X71068Y-32176D01*
X71080Y-32198D01*
X71091Y-32210D01*
X71113Y-32221D01*
X71136Y-32221D01*
X71158Y-32210D01*
X71170Y-32198D01*
X71181Y-32176D01*
X71192Y-32131D01*
X71192Y-32075D01*
X71181Y-32030D01*
X71170Y-32007D01*
X71158Y-31996D01*
X71136Y-31985D01*
X70956Y-32221D02*
X70956Y-31985D01*
X70934Y-32131D02*
X70866Y-32221D01*
X70866Y-32063D02*
X70956Y-32153D01*
X65615Y-32823D02*
X65694Y-32711D01*
X65750Y-32823D02*
X65750Y-32587D01*
X65660Y-32587D01*
X65638Y-32598D01*
X65626Y-32610D01*
X65615Y-32632D01*
X65615Y-32666D01*
X65626Y-32688D01*
X65638Y-32700D01*
X65660Y-32711D01*
X65750Y-32711D01*
X65536Y-32587D02*
X65379Y-32587D01*
X65480Y-32823D01*
X65669Y-33874D02*
X65804Y-33874D01*
X65737Y-33874D02*
X65737Y-33638D01*
X65759Y-33672D01*
X65782Y-33694D01*
X65804Y-33706D01*
X65455Y-33638D02*
X65568Y-33638D01*
X65579Y-33751D01*
X65568Y-33739D01*
X65545Y-33728D01*
X65489Y-33728D01*
X65467Y-33739D01*
X65455Y-33751D01*
X65444Y-33773D01*
X65444Y-33829D01*
X65455Y-33852D01*
X65467Y-33863D01*
X65489Y-33874D01*
X65545Y-33874D01*
X65568Y-33863D01*
X65579Y-33852D01*
X65298Y-33638D02*
X65275Y-33638D01*
X65253Y-33649D01*
X65242Y-33661D01*
X65230Y-33683D01*
X65219Y-33728D01*
X65219Y-33784D01*
X65230Y-33829D01*
X65242Y-33852D01*
X65253Y-33863D01*
X65275Y-33874D01*
X65298Y-33874D01*
X65320Y-33863D01*
X65332Y-33852D01*
X65343Y-33829D01*
X65354Y-33784D01*
X65354Y-33728D01*
X65343Y-33683D01*
X65332Y-33661D01*
X65320Y-33649D01*
X65298Y-33638D01*
X65615Y-33808D02*
X65694Y-33695D01*
X65750Y-33808D02*
X65750Y-33571D01*
X65660Y-33571D01*
X65638Y-33583D01*
X65626Y-33594D01*
X65615Y-33616D01*
X65615Y-33650D01*
X65626Y-33673D01*
X65638Y-33684D01*
X65660Y-33695D01*
X65750Y-33695D01*
X65401Y-33571D02*
X65514Y-33571D01*
X65525Y-33684D01*
X65514Y-33673D01*
X65491Y-33661D01*
X65435Y-33661D01*
X65413Y-33673D01*
X65401Y-33684D01*
X65390Y-33706D01*
X65390Y-33763D01*
X65401Y-33785D01*
X65413Y-33796D01*
X65435Y-33808D01*
X65491Y-33808D01*
X65514Y-33796D01*
X65525Y-33785D01*
X65697Y-34701D02*
X65697Y-34859D01*
X65754Y-34611D02*
X65810Y-34780D01*
X65664Y-34780D01*
X65574Y-34859D02*
X65574Y-34622D01*
X65439Y-34859D02*
X65540Y-34724D01*
X65439Y-34622D02*
X65574Y-34757D01*
X65360Y-34622D02*
X65202Y-34622D01*
X65304Y-34859D01*
X65615Y-35855D02*
X65694Y-35742D01*
X65750Y-35855D02*
X65750Y-35619D01*
X65660Y-35619D01*
X65638Y-35630D01*
X65626Y-35641D01*
X65615Y-35664D01*
X65615Y-35697D01*
X65626Y-35720D01*
X65638Y-35731D01*
X65660Y-35742D01*
X65750Y-35742D01*
X65413Y-35619D02*
X65458Y-35619D01*
X65480Y-35630D01*
X65491Y-35641D01*
X65514Y-35675D01*
X65525Y-35720D01*
X65525Y-35810D01*
X65514Y-35832D01*
X65503Y-35844D01*
X65480Y-35855D01*
X65435Y-35855D01*
X65413Y-35844D01*
X65401Y-35832D01*
X65390Y-35810D01*
X65390Y-35754D01*
X65401Y-35731D01*
X65413Y-35720D01*
X65435Y-35709D01*
X65480Y-35709D01*
X65503Y-35720D01*
X65514Y-35731D01*
X65525Y-35754D01*
X65697Y-36748D02*
X65697Y-36906D01*
X65754Y-36658D02*
X65810Y-36827D01*
X65664Y-36827D01*
X65574Y-36906D02*
X65574Y-36670D01*
X65439Y-36906D02*
X65540Y-36771D01*
X65439Y-36670D02*
X65574Y-36805D01*
X65360Y-36670D02*
X65202Y-36670D01*
X65304Y-36906D01*
X77103Y-40551D02*
X76991Y-40472D01*
X77103Y-40416D02*
X76867Y-40416D01*
X76867Y-40506D01*
X76878Y-40528D01*
X76889Y-40539D01*
X76912Y-40551D01*
X76946Y-40551D01*
X76968Y-40539D01*
X76979Y-40528D01*
X76991Y-40506D01*
X76991Y-40416D01*
X76889Y-40641D02*
X76878Y-40652D01*
X76867Y-40674D01*
X76867Y-40731D01*
X76878Y-40753D01*
X76889Y-40764D01*
X76912Y-40776D01*
X76934Y-40776D01*
X76968Y-40764D01*
X77103Y-40629D01*
X77103Y-40776D01*
X77671Y-40449D02*
X77784Y-40449D01*
X77795Y-40562D01*
X77784Y-40551D01*
X77761Y-40539D01*
X77705Y-40539D01*
X77682Y-40551D01*
X77671Y-40562D01*
X77660Y-40584D01*
X77660Y-40641D01*
X77671Y-40663D01*
X77682Y-40674D01*
X77705Y-40686D01*
X77761Y-40686D01*
X77784Y-40674D01*
X77795Y-40663D01*
X77457Y-40449D02*
X77502Y-40449D01*
X77525Y-40461D01*
X77536Y-40472D01*
X77559Y-40506D01*
X77570Y-40551D01*
X77570Y-40641D01*
X77559Y-40663D01*
X77547Y-40674D01*
X77525Y-40686D01*
X77480Y-40686D01*
X77457Y-40674D01*
X77446Y-40663D01*
X77435Y-40641D01*
X77435Y-40584D01*
X77446Y-40562D01*
X77457Y-40551D01*
X77480Y-40539D01*
X77525Y-40539D01*
X77547Y-40551D01*
X77559Y-40562D01*
X77570Y-40584D01*
X77334Y-40686D02*
X77334Y-40449D01*
X77311Y-40596D02*
X77244Y-40686D01*
X77244Y-40528D02*
X77334Y-40618D01*
X86569Y-38796D02*
X86647Y-38683D01*
X86704Y-38796D02*
X86704Y-38560D01*
X86614Y-38560D01*
X86591Y-38571D01*
X86580Y-38582D01*
X86569Y-38605D01*
X86569Y-38638D01*
X86580Y-38661D01*
X86591Y-38672D01*
X86614Y-38683D01*
X86704Y-38683D01*
X86344Y-38796D02*
X86479Y-38796D01*
X86411Y-38796D02*
X86411Y-38560D01*
X86434Y-38593D01*
X86456Y-38616D01*
X86479Y-38627D01*
X86265Y-38560D02*
X86119Y-38560D01*
X86197Y-38650D01*
X86164Y-38650D01*
X86141Y-38661D01*
X86130Y-38672D01*
X86119Y-38695D01*
X86119Y-38751D01*
X86130Y-38773D01*
X86141Y-38785D01*
X86164Y-38796D01*
X86231Y-38796D01*
X86254Y-38785D01*
X86265Y-38773D01*
X87952Y-38796D02*
X88087Y-38796D01*
X88020Y-38796D02*
X88020Y-38560D01*
X88042Y-38593D01*
X88065Y-38616D01*
X88087Y-38627D01*
X87739Y-38560D02*
X87851Y-38560D01*
X87862Y-38672D01*
X87851Y-38661D01*
X87829Y-38650D01*
X87772Y-38650D01*
X87750Y-38661D01*
X87739Y-38672D01*
X87727Y-38695D01*
X87727Y-38751D01*
X87739Y-38773D01*
X87750Y-38785D01*
X87772Y-38796D01*
X87829Y-38796D01*
X87851Y-38785D01*
X87862Y-38773D01*
X87581Y-38560D02*
X87559Y-38560D01*
X87536Y-38571D01*
X87525Y-38582D01*
X87514Y-38605D01*
X87502Y-38650D01*
X87502Y-38706D01*
X87514Y-38751D01*
X87525Y-38773D01*
X87536Y-38785D01*
X87559Y-38796D01*
X87581Y-38796D01*
X87604Y-38785D01*
X87615Y-38773D01*
X87626Y-38751D01*
X87637Y-38706D01*
X87637Y-38650D01*
X87626Y-38605D01*
X87615Y-38582D01*
X87604Y-38571D01*
X87581Y-38560D01*
X87266Y-38796D02*
X87345Y-38683D01*
X87401Y-38796D02*
X87401Y-38560D01*
X87311Y-38560D01*
X87289Y-38571D01*
X87277Y-38582D01*
X87266Y-38605D01*
X87266Y-38638D01*
X87277Y-38661D01*
X87289Y-38672D01*
X87311Y-38683D01*
X87401Y-38683D01*
X86631Y-36417D02*
X86518Y-36338D01*
X86631Y-36282D02*
X86394Y-36282D01*
X86394Y-36372D01*
X86406Y-36394D01*
X86417Y-36406D01*
X86439Y-36417D01*
X86473Y-36417D01*
X86496Y-36406D01*
X86507Y-36394D01*
X86518Y-36372D01*
X86518Y-36282D01*
X86631Y-36642D02*
X86631Y-36507D01*
X86631Y-36574D02*
X86394Y-36574D01*
X86428Y-36552D01*
X86451Y-36529D01*
X86462Y-36507D01*
X86788Y-36164D02*
X86788Y-36051D01*
X86901Y-36040D01*
X86889Y-36051D01*
X86878Y-36074D01*
X86878Y-36130D01*
X86889Y-36152D01*
X86901Y-36164D01*
X86923Y-36175D01*
X86979Y-36175D01*
X87002Y-36164D01*
X87013Y-36152D01*
X87024Y-36130D01*
X87024Y-36074D01*
X87013Y-36051D01*
X87002Y-36040D01*
X87024Y-36400D02*
X87024Y-36265D01*
X87024Y-36332D02*
X86788Y-36332D01*
X86822Y-36310D01*
X86844Y-36287D01*
X86856Y-36265D01*
X87024Y-36636D02*
X86912Y-36557D01*
X87024Y-36501D02*
X86788Y-36501D01*
X86788Y-36591D01*
X86799Y-36614D01*
X86811Y-36625D01*
X86833Y-36636D01*
X86867Y-36636D01*
X86889Y-36625D01*
X86901Y-36614D01*
X86912Y-36591D01*
X86912Y-36501D01*
X84713Y-28720D02*
X84601Y-28642D01*
X84713Y-28585D02*
X84477Y-28585D01*
X84477Y-28675D01*
X84488Y-28698D01*
X84500Y-28709D01*
X84522Y-28720D01*
X84556Y-28720D01*
X84578Y-28709D01*
X84589Y-28698D01*
X84601Y-28675D01*
X84601Y-28585D01*
X84713Y-28945D02*
X84713Y-28810D01*
X84713Y-28878D02*
X84477Y-28878D01*
X84511Y-28855D01*
X84533Y-28833D01*
X84544Y-28810D01*
X84477Y-29091D02*
X84477Y-29114D01*
X84488Y-29136D01*
X84500Y-29148D01*
X84522Y-29159D01*
X84567Y-29170D01*
X84623Y-29170D01*
X84668Y-29159D01*
X84691Y-29148D01*
X84702Y-29136D01*
X84713Y-29114D01*
X84713Y-29091D01*
X84702Y-29069D01*
X84691Y-29058D01*
X84668Y-29046D01*
X84623Y-29035D01*
X84567Y-29035D01*
X84522Y-29046D01*
X84500Y-29058D01*
X84488Y-29069D01*
X84477Y-29091D01*
X85764Y-28796D02*
X85764Y-28661D01*
X85764Y-28728D02*
X85528Y-28728D01*
X85562Y-28706D01*
X85584Y-28683D01*
X85595Y-28661D01*
X85528Y-28942D02*
X85528Y-28964D01*
X85539Y-28987D01*
X85551Y-28998D01*
X85573Y-29009D01*
X85618Y-29021D01*
X85674Y-29021D01*
X85719Y-29009D01*
X85742Y-28998D01*
X85753Y-28987D01*
X85764Y-28964D01*
X85764Y-28942D01*
X85753Y-28919D01*
X85742Y-28908D01*
X85719Y-28897D01*
X85674Y-28886D01*
X85618Y-28886D01*
X85573Y-28897D01*
X85551Y-28908D01*
X85539Y-28919D01*
X85528Y-28942D01*
X85764Y-29122D02*
X85528Y-29122D01*
X85674Y-29144D02*
X85764Y-29212D01*
X85607Y-29212D02*
X85697Y-29122D01*
X85713Y-27623D02*
X85601Y-27544D01*
X85713Y-27488D02*
X85477Y-27488D01*
X85477Y-27578D01*
X85488Y-27600D01*
X85500Y-27612D01*
X85522Y-27623D01*
X85556Y-27623D01*
X85578Y-27612D01*
X85589Y-27600D01*
X85601Y-27578D01*
X85601Y-27488D01*
X85713Y-27735D02*
X85713Y-27780D01*
X85702Y-27803D01*
X85691Y-27814D01*
X85657Y-27837D01*
X85612Y-27848D01*
X85522Y-27848D01*
X85500Y-27837D01*
X85488Y-27825D01*
X85477Y-27803D01*
X85477Y-27758D01*
X85488Y-27735D01*
X85500Y-27724D01*
X85522Y-27713D01*
X85578Y-27713D01*
X85601Y-27724D01*
X85612Y-27735D01*
X85623Y-27758D01*
X85623Y-27803D01*
X85612Y-27825D01*
X85601Y-27837D01*
X85578Y-27848D01*
X84505Y-27435D02*
X84662Y-27435D01*
X84415Y-27379D02*
X84583Y-27323D01*
X84583Y-27469D01*
X84426Y-27536D02*
X84426Y-27683D01*
X84516Y-27604D01*
X84516Y-27638D01*
X84527Y-27660D01*
X84538Y-27671D01*
X84561Y-27683D01*
X84617Y-27683D01*
X84640Y-27671D01*
X84651Y-27660D01*
X84662Y-27638D01*
X84662Y-27570D01*
X84651Y-27548D01*
X84640Y-27536D01*
X84662Y-27784D02*
X84426Y-27784D01*
X84572Y-27806D02*
X84662Y-27874D01*
X84505Y-27874D02*
X84595Y-27784D01*
X83284Y-36062D02*
X83172Y-35984D01*
X83284Y-35928D02*
X83048Y-35928D01*
X83048Y-36017D01*
X83059Y-36040D01*
X83070Y-36051D01*
X83093Y-36062D01*
X83127Y-36062D01*
X83149Y-36051D01*
X83160Y-36040D01*
X83172Y-36017D01*
X83172Y-35928D01*
X83149Y-36197D02*
X83138Y-36175D01*
X83127Y-36164D01*
X83104Y-36152D01*
X83093Y-36152D01*
X83070Y-36164D01*
X83059Y-36175D01*
X83048Y-36197D01*
X83048Y-36242D01*
X83059Y-36265D01*
X83070Y-36276D01*
X83093Y-36287D01*
X83104Y-36287D01*
X83127Y-36276D01*
X83138Y-36265D01*
X83149Y-36242D01*
X83149Y-36197D01*
X83160Y-36175D01*
X83172Y-36164D01*
X83194Y-36152D01*
X83239Y-36152D01*
X83262Y-36164D01*
X83273Y-36175D01*
X83284Y-36197D01*
X83284Y-36242D01*
X83273Y-36265D01*
X83262Y-36276D01*
X83239Y-36287D01*
X83194Y-36287D01*
X83172Y-36276D01*
X83160Y-36265D01*
X83149Y-36242D01*
X83346Y-34983D02*
X83335Y-34994D01*
X83323Y-35016D01*
X83323Y-35073D01*
X83335Y-35095D01*
X83346Y-35106D01*
X83368Y-35118D01*
X83391Y-35118D01*
X83425Y-35106D01*
X83560Y-34971D01*
X83560Y-35118D01*
X83346Y-35208D02*
X83335Y-35219D01*
X83323Y-35241D01*
X83323Y-35298D01*
X83335Y-35320D01*
X83346Y-35331D01*
X83368Y-35343D01*
X83391Y-35343D01*
X83425Y-35331D01*
X83560Y-35196D01*
X83560Y-35343D01*
X83323Y-35489D02*
X83323Y-35511D01*
X83335Y-35534D01*
X83346Y-35545D01*
X83368Y-35556D01*
X83413Y-35568D01*
X83470Y-35568D01*
X83515Y-35556D01*
X83537Y-35545D01*
X83548Y-35534D01*
X83560Y-35511D01*
X83560Y-35489D01*
X83548Y-35466D01*
X83537Y-35455D01*
X83515Y-35444D01*
X83470Y-35433D01*
X83413Y-35433D01*
X83368Y-35444D01*
X83346Y-35455D01*
X83335Y-35466D01*
X83323Y-35489D01*
X83560Y-35804D02*
X83447Y-35725D01*
X83560Y-35669D02*
X83323Y-35669D01*
X83323Y-35759D01*
X83335Y-35781D01*
X83346Y-35793D01*
X83368Y-35804D01*
X83402Y-35804D01*
X83425Y-35793D01*
X83436Y-35781D01*
X83447Y-35759D01*
X83447Y-35669D01*
X77182Y-42424D02*
X76946Y-42424D01*
X76946Y-42480D01*
X76957Y-42514D01*
X76979Y-42536D01*
X77002Y-42547D01*
X77047Y-42559D01*
X77080Y-42559D01*
X77125Y-42547D01*
X77148Y-42536D01*
X77170Y-42514D01*
X77182Y-42480D01*
X77182Y-42424D01*
X77182Y-42660D02*
X76946Y-42660D01*
X76946Y-42716D01*
X76957Y-42750D01*
X76979Y-42772D01*
X77002Y-42784D01*
X77047Y-42795D01*
X77080Y-42795D01*
X77125Y-42784D01*
X77148Y-42772D01*
X77170Y-42750D01*
X77182Y-42716D01*
X77182Y-42660D01*
X76968Y-42885D02*
X76957Y-42896D01*
X76946Y-42919D01*
X76946Y-42975D01*
X76957Y-42997D01*
X76968Y-43008D01*
X76991Y-43020D01*
X77013Y-43020D01*
X77047Y-43008D01*
X77182Y-42874D01*
X77182Y-43020D01*
X77474Y-42221D02*
X77485Y-42210D01*
X77497Y-42176D01*
X77497Y-42154D01*
X77485Y-42120D01*
X77463Y-42097D01*
X77440Y-42086D01*
X77395Y-42075D01*
X77362Y-42075D01*
X77317Y-42086D01*
X77294Y-42097D01*
X77272Y-42120D01*
X77260Y-42154D01*
X77260Y-42176D01*
X77272Y-42210D01*
X77283Y-42221D01*
X77474Y-42457D02*
X77485Y-42446D01*
X77497Y-42412D01*
X77497Y-42390D01*
X77485Y-42356D01*
X77463Y-42334D01*
X77440Y-42322D01*
X77395Y-42311D01*
X77362Y-42311D01*
X77317Y-42322D01*
X77294Y-42334D01*
X77272Y-42356D01*
X77260Y-42390D01*
X77260Y-42412D01*
X77272Y-42446D01*
X77283Y-42457D01*
X77497Y-42682D02*
X77497Y-42547D01*
X77497Y-42615D02*
X77260Y-42615D01*
X77294Y-42592D01*
X77317Y-42570D01*
X77328Y-42547D01*
X77497Y-42907D02*
X77497Y-42772D01*
X77497Y-42840D02*
X77260Y-42840D01*
X77294Y-42817D01*
X77317Y-42795D01*
X77328Y-42772D01*
X77260Y-43053D02*
X77260Y-43076D01*
X77272Y-43098D01*
X77283Y-43110D01*
X77305Y-43121D01*
X77350Y-43132D01*
X77407Y-43132D01*
X77452Y-43121D01*
X77474Y-43110D01*
X77485Y-43098D01*
X77497Y-43076D01*
X77497Y-43053D01*
X77485Y-43031D01*
X77474Y-43020D01*
X77452Y-43008D01*
X77407Y-42997D01*
X77350Y-42997D01*
X77305Y-43008D01*
X77283Y-43020D01*
X77272Y-43031D01*
X77260Y-43053D01*
X77497Y-43357D02*
X77497Y-43222D01*
X77497Y-43290D02*
X77260Y-43290D01*
X77294Y-43267D01*
X77317Y-43245D01*
X77328Y-43222D01*
G54D15*
X80815Y-34080D02*
X80982Y-33913D01*
X80942Y-33873D01*
X80910Y-33857D01*
X80878Y-33857D01*
X80855Y-33865D01*
X80815Y-33889D01*
X80791Y-33913D01*
X80767Y-33952D01*
X80759Y-33976D01*
X80759Y-34008D01*
X80775Y-34040D01*
X80815Y-34080D01*
X80648Y-33913D02*
X80815Y-33746D01*
X80775Y-33706D01*
X80743Y-33690D01*
X80712Y-33690D01*
X80688Y-33698D01*
X80648Y-33722D01*
X80624Y-33746D01*
X80600Y-33786D01*
X80592Y-33809D01*
X80592Y-33841D01*
X80608Y-33873D01*
X80648Y-33913D01*
X80394Y-33658D02*
X80489Y-33754D01*
X80441Y-33706D02*
X80608Y-33539D01*
X80600Y-33579D01*
X80600Y-33611D01*
X80608Y-33635D01*
X80957Y-35525D02*
X80925Y-35509D01*
X80885Y-35469D01*
X80877Y-35445D01*
X80877Y-35429D01*
X80885Y-35406D01*
X80901Y-35390D01*
X80925Y-35382D01*
X80941Y-35382D01*
X80965Y-35390D01*
X81004Y-35413D01*
X81028Y-35421D01*
X81044Y-35421D01*
X81068Y-35413D01*
X81084Y-35398D01*
X81092Y-35374D01*
X81092Y-35358D01*
X81084Y-35334D01*
X81044Y-35294D01*
X81012Y-35278D01*
X80973Y-35223D02*
X80877Y-35127D01*
X80758Y-35342D02*
X80925Y-35175D01*
X80655Y-35239D02*
X80822Y-35072D01*
X80647Y-35135D01*
X80710Y-34961D01*
X80543Y-35127D01*
X80647Y-34897D02*
X80543Y-34794D01*
X80536Y-34913D01*
X80512Y-34889D01*
X80488Y-34881D01*
X80472Y-34881D01*
X80448Y-34889D01*
X80408Y-34929D01*
X80400Y-34953D01*
X80400Y-34968D01*
X80408Y-34992D01*
X80456Y-35040D01*
X80480Y-35048D01*
X80496Y-35048D01*
X80464Y-34746D02*
X80464Y-34730D01*
X80456Y-34706D01*
X80416Y-34666D01*
X80392Y-34659D01*
X80377Y-34659D01*
X80353Y-34666D01*
X80337Y-34682D01*
X80321Y-34714D01*
X80321Y-34905D01*
X80218Y-34802D01*
X80067Y-34651D02*
X80146Y-34730D01*
X80313Y-34563D01*
X79924Y-34508D02*
X80019Y-34603D01*
X79971Y-34555D02*
X80138Y-34388D01*
X80130Y-34428D01*
X80130Y-34460D01*
X80138Y-34484D01*
X79940Y-34190D02*
X80019Y-34269D01*
X79947Y-34357D01*
X79947Y-34341D01*
X79940Y-34317D01*
X79900Y-34277D01*
X79876Y-34269D01*
X79860Y-34269D01*
X79836Y-34277D01*
X79797Y-34317D01*
X79789Y-34341D01*
X79789Y-34357D01*
X79797Y-34380D01*
X79836Y-34420D01*
X79860Y-34428D01*
X79876Y-34428D01*
X79606Y-34190D02*
X79701Y-34285D01*
X79653Y-34237D02*
X79820Y-34070D01*
X79812Y-34110D01*
X79812Y-34142D01*
X79820Y-34166D01*
X79455Y-34007D02*
X79455Y-34023D01*
X79471Y-34055D01*
X79487Y-34070D01*
X79518Y-34086D01*
X79550Y-34086D01*
X79574Y-34078D01*
X79614Y-34055D01*
X79638Y-34031D01*
X79661Y-33991D01*
X79669Y-33967D01*
X79669Y-33935D01*
X79653Y-33904D01*
X79638Y-33888D01*
X79606Y-33872D01*
X79590Y-33872D01*
X79550Y-33800D02*
X79272Y-33856D01*
X79439Y-33689D02*
X79383Y-33967D01*
X79399Y-33649D02*
X79304Y-33554D01*
X79185Y-33769D02*
X79351Y-33602D01*
X79264Y-33514D02*
X78986Y-33570D01*
X79153Y-33403D02*
X79097Y-33681D01*
X78976Y-27378D02*
X79088Y-27378D01*
X79088Y-27142D01*
X78908Y-27165D02*
X78897Y-27154D01*
X78875Y-27142D01*
X78819Y-27142D01*
X78796Y-27154D01*
X78785Y-27165D01*
X78774Y-27187D01*
X78774Y-27210D01*
X78785Y-27244D01*
X78920Y-27378D01*
X78774Y-27378D01*
G54D17*
X77850Y-27384D02*
X77993Y-27384D01*
X77922Y-27384D02*
X77922Y-27134D01*
X77945Y-27170D01*
X77969Y-27194D01*
X77993Y-27206D01*
X77695Y-27134D02*
X77672Y-27134D01*
X77648Y-27146D01*
X77636Y-27158D01*
X77624Y-27182D01*
X77612Y-27229D01*
X77612Y-27289D01*
X77624Y-27337D01*
X77636Y-27360D01*
X77648Y-27372D01*
X77672Y-27384D01*
X77695Y-27384D01*
X77719Y-27372D01*
X77731Y-27360D01*
X77743Y-27337D01*
X77755Y-27289D01*
X77755Y-27229D01*
X77743Y-27182D01*
X77731Y-27158D01*
X77719Y-27146D01*
X77695Y-27134D01*
X77398Y-27217D02*
X77398Y-27384D01*
X77505Y-27217D02*
X77505Y-27348D01*
X77493Y-27372D01*
X77469Y-27384D01*
X77434Y-27384D01*
X77410Y-27372D01*
X77398Y-27360D01*
X77279Y-27384D02*
X77279Y-27134D01*
X77279Y-27253D02*
X77136Y-27253D01*
X77136Y-27384D02*
X77136Y-27134D01*
G54D18*
G54D10*
X79763Y-43048D02*
X79876Y-43048D01*
X79876Y-42812D01*
X79561Y-43048D02*
X79696Y-43048D01*
X79628Y-43048D02*
X79628Y-42812D01*
X79651Y-42845D01*
X79673Y-42868D01*
X79696Y-42879D01*
X79358Y-43127D02*
X79471Y-43127D01*
X79482Y-43239D01*
X79471Y-43228D01*
X79448Y-43217D01*
X79392Y-43217D01*
X79370Y-43228D01*
X79358Y-43239D01*
X79347Y-43262D01*
X79347Y-43318D01*
X79358Y-43340D01*
X79370Y-43352D01*
X79392Y-43363D01*
X79448Y-43363D01*
X79471Y-43352D01*
X79482Y-43340D01*
X79246Y-43340D02*
X79235Y-43352D01*
X79246Y-43363D01*
X79257Y-43352D01*
X79246Y-43340D01*
X79246Y-43363D01*
X79032Y-43127D02*
X79077Y-43127D01*
X79100Y-43138D01*
X79111Y-43149D01*
X79133Y-43183D01*
X79145Y-43228D01*
X79145Y-43318D01*
X79133Y-43340D01*
X79122Y-43352D01*
X79100Y-43363D01*
X79055Y-43363D01*
X79032Y-43352D01*
X79021Y-43340D01*
X79010Y-43318D01*
X79010Y-43262D01*
X79021Y-43239D01*
X79032Y-43228D01*
X79055Y-43217D01*
X79100Y-43217D01*
X79122Y-43228D01*
X79133Y-43239D01*
X79145Y-43262D01*
X78908Y-43205D02*
X78908Y-43363D01*
X78908Y-43228D02*
X78897Y-43217D01*
X78875Y-43205D01*
X78841Y-43205D01*
X78818Y-43217D01*
X78807Y-43239D01*
X78807Y-43363D01*
X78695Y-43363D02*
X78695Y-43127D01*
X78695Y-43239D02*
X78560Y-43239D01*
X78560Y-43363D02*
X78560Y-43127D01*
G54D15*
X93914Y-49195D02*
X93678Y-49195D01*
X93678Y-49252D01*
X93689Y-49285D01*
X93712Y-49308D01*
X93734Y-49319D01*
X93779Y-49330D01*
X93813Y-49330D01*
X93858Y-49319D01*
X93880Y-49308D01*
X93903Y-49285D01*
X93914Y-49252D01*
X93914Y-49195D01*
X93700Y-49420D02*
X93689Y-49431D01*
X93678Y-49454D01*
X93678Y-49510D01*
X93689Y-49533D01*
X93700Y-49544D01*
X93723Y-49555D01*
X93745Y-49555D01*
X93779Y-49544D01*
X93914Y-49409D01*
X93914Y-49555D01*
X93942Y-47615D02*
X93953Y-47649D01*
X93953Y-47705D01*
X93942Y-47728D01*
X93931Y-47739D01*
X93908Y-47750D01*
X93886Y-47750D01*
X93863Y-47739D01*
X93852Y-47728D01*
X93841Y-47705D01*
X93830Y-47660D01*
X93818Y-47638D01*
X93807Y-47627D01*
X93785Y-47615D01*
X93762Y-47615D01*
X93740Y-47627D01*
X93729Y-47638D01*
X93717Y-47660D01*
X93717Y-47717D01*
X93729Y-47750D01*
X93953Y-47851D02*
X93717Y-47851D01*
X93886Y-47930D01*
X93717Y-48009D01*
X93953Y-48009D01*
X93796Y-48222D02*
X93953Y-48222D01*
X93706Y-48166D02*
X93875Y-48110D01*
X93875Y-48256D01*
X93717Y-48391D02*
X93717Y-48413D01*
X93729Y-48436D01*
X93740Y-48447D01*
X93762Y-48458D01*
X93807Y-48470D01*
X93863Y-48470D01*
X93908Y-48458D01*
X93931Y-48447D01*
X93942Y-48436D01*
X93953Y-48413D01*
X93953Y-48391D01*
X93942Y-48368D01*
X93931Y-48357D01*
X93908Y-48346D01*
X93863Y-48335D01*
X93807Y-48335D01*
X93762Y-48346D01*
X93740Y-48357D01*
X93729Y-48368D01*
X93717Y-48391D01*
X93717Y-48616D02*
X93717Y-48638D01*
X93729Y-48661D01*
X93740Y-48672D01*
X93762Y-48683D01*
X93807Y-48694D01*
X93863Y-48694D01*
X93908Y-48683D01*
X93931Y-48672D01*
X93942Y-48661D01*
X93953Y-48638D01*
X93953Y-48616D01*
X93942Y-48593D01*
X93931Y-48582D01*
X93908Y-48571D01*
X93863Y-48559D01*
X93807Y-48559D01*
X93762Y-48571D01*
X93740Y-48582D01*
X93729Y-48593D01*
X93717Y-48616D01*
X93717Y-48773D02*
X93717Y-48930D01*
X93953Y-48829D01*
X85710Y-35028D02*
X85710Y-34885D01*
X85710Y-34957D02*
X85316Y-34957D01*
X85372Y-34933D01*
X85410Y-34909D01*
X85429Y-34885D01*
X85354Y-35123D02*
X85335Y-35135D01*
X85316Y-35159D01*
X85316Y-35219D01*
X85335Y-35243D01*
X85354Y-35254D01*
X85391Y-35266D01*
X85429Y-35266D01*
X85485Y-35254D01*
X85710Y-35112D01*
X85710Y-35266D01*
X85673Y-35373D02*
X85691Y-35385D01*
X85710Y-35373D01*
X85691Y-35362D01*
X85673Y-35373D01*
X85710Y-35373D01*
X85316Y-35540D02*
X85316Y-35564D01*
X85335Y-35588D01*
X85354Y-35600D01*
X85391Y-35612D01*
X85466Y-35623D01*
X85560Y-35623D01*
X85635Y-35612D01*
X85673Y-35600D01*
X85691Y-35588D01*
X85710Y-35564D01*
X85710Y-35540D01*
X85691Y-35516D01*
X85673Y-35504D01*
X85635Y-35493D01*
X85560Y-35481D01*
X85466Y-35481D01*
X85391Y-35493D01*
X85354Y-35504D01*
X85335Y-35516D01*
X85316Y-35540D01*
X85710Y-35731D02*
X85316Y-35731D01*
X85598Y-35814D01*
X85316Y-35897D01*
X85710Y-35897D01*
X85710Y-36016D02*
X85316Y-36016D01*
X85504Y-36016D02*
X85504Y-36159D01*
X85710Y-36159D02*
X85316Y-36159D01*
X85447Y-36254D02*
X85447Y-36385D01*
X85710Y-36254D01*
X85710Y-36385D01*
X84347Y-42238D02*
X84583Y-42396D01*
X84347Y-42396D02*
X84583Y-42238D01*
X84347Y-42452D02*
X84347Y-42587D01*
X84583Y-42519D02*
X84347Y-42519D01*
X84516Y-42654D02*
X84516Y-42767D01*
X84583Y-42632D02*
X84347Y-42710D01*
X84583Y-42789D01*
X84583Y-42980D02*
X84583Y-42868D01*
X84347Y-42868D01*
X84583Y-43182D02*
X84583Y-43048D01*
X84583Y-43115D02*
X84347Y-43115D01*
X84381Y-43093D01*
X84403Y-43070D01*
X84415Y-43048D01*
X84330Y-40765D02*
X84319Y-40776D01*
X84308Y-40799D01*
X84308Y-40855D01*
X84319Y-40877D01*
X84330Y-40889D01*
X84353Y-40900D01*
X84375Y-40900D01*
X84409Y-40889D01*
X84544Y-40754D01*
X84544Y-40900D01*
X84308Y-40978D02*
X84308Y-41136D01*
X84544Y-41035D01*
X84544Y-41226D02*
X84308Y-41226D01*
X84476Y-41304D01*
X84308Y-41383D01*
X84544Y-41383D01*
X84544Y-41495D02*
X84308Y-41495D01*
X84420Y-41495D02*
X84420Y-41630D01*
X84544Y-41630D02*
X84308Y-41630D01*
X84387Y-41720D02*
X84387Y-41844D01*
X84544Y-41720D01*
X84544Y-41844D01*
G54D10*
X91096Y-36816D02*
X91107Y-36805D01*
X91119Y-36771D01*
X91119Y-36749D01*
X91107Y-36715D01*
X91085Y-36692D01*
X91062Y-36681D01*
X91017Y-36670D01*
X90984Y-36670D01*
X90939Y-36681D01*
X90916Y-36692D01*
X90894Y-36715D01*
X90883Y-36749D01*
X90883Y-36771D01*
X90894Y-36805D01*
X90905Y-36816D01*
X90883Y-36895D02*
X90883Y-37041D01*
X90973Y-36962D01*
X90973Y-36996D01*
X90984Y-37019D01*
X90995Y-37030D01*
X91017Y-37041D01*
X91074Y-37041D01*
X91096Y-37030D01*
X91107Y-37019D01*
X91119Y-36996D01*
X91119Y-36929D01*
X91107Y-36906D01*
X91096Y-36895D01*
X90883Y-37187D02*
X90883Y-37210D01*
X90894Y-37232D01*
X90905Y-37244D01*
X90928Y-37255D01*
X90973Y-37266D01*
X91029Y-37266D01*
X91074Y-37255D01*
X91096Y-37244D01*
X91107Y-37232D01*
X91119Y-37210D01*
X91119Y-37187D01*
X91107Y-37165D01*
X91096Y-37154D01*
X91074Y-37142D01*
X91029Y-37131D01*
X90973Y-37131D01*
X90928Y-37142D01*
X90905Y-37154D01*
X90894Y-37165D01*
X90883Y-37187D01*
X91383Y-36158D02*
X91361Y-36158D01*
X91338Y-36169D01*
X91327Y-36181D01*
X91316Y-36203D01*
X91304Y-36248D01*
X91304Y-36304D01*
X91316Y-36349D01*
X91327Y-36372D01*
X91338Y-36383D01*
X91361Y-36394D01*
X91383Y-36394D01*
X91406Y-36383D01*
X91417Y-36372D01*
X91428Y-36349D01*
X91439Y-36304D01*
X91439Y-36248D01*
X91428Y-36203D01*
X91417Y-36181D01*
X91406Y-36169D01*
X91383Y-36158D01*
X91203Y-36372D02*
X91192Y-36383D01*
X91203Y-36394D01*
X91214Y-36383D01*
X91203Y-36372D01*
X91203Y-36394D01*
X91046Y-36158D02*
X91023Y-36158D01*
X91001Y-36169D01*
X90989Y-36181D01*
X90978Y-36203D01*
X90967Y-36248D01*
X90967Y-36304D01*
X90978Y-36349D01*
X90989Y-36372D01*
X91001Y-36383D01*
X91023Y-36394D01*
X91046Y-36394D01*
X91068Y-36383D01*
X91079Y-36372D01*
X91091Y-36349D01*
X91102Y-36304D01*
X91102Y-36248D01*
X91091Y-36203D01*
X91079Y-36181D01*
X91068Y-36169D01*
X91046Y-36158D01*
X90742Y-36394D02*
X90877Y-36394D01*
X90809Y-36394D02*
X90809Y-36158D01*
X90832Y-36192D01*
X90854Y-36214D01*
X90877Y-36226D01*
X90539Y-36237D02*
X90539Y-36394D01*
X90641Y-36237D02*
X90641Y-36361D01*
X90629Y-36383D01*
X90607Y-36394D01*
X90573Y-36394D01*
X90551Y-36383D01*
X90539Y-36372D01*
X75466Y-26895D02*
X75478Y-26884D01*
X75489Y-26850D01*
X75489Y-26827D01*
X75478Y-26794D01*
X75455Y-26771D01*
X75433Y-26760D01*
X75388Y-26749D01*
X75354Y-26749D01*
X75309Y-26760D01*
X75286Y-26771D01*
X75264Y-26794D01*
X75253Y-26827D01*
X75253Y-26850D01*
X75264Y-26884D01*
X75275Y-26895D01*
X75275Y-26985D02*
X75264Y-26996D01*
X75253Y-27019D01*
X75253Y-27075D01*
X75264Y-27097D01*
X75275Y-27109D01*
X75298Y-27120D01*
X75320Y-27120D01*
X75354Y-27109D01*
X75489Y-26974D01*
X75489Y-27120D01*
X75253Y-27199D02*
X75253Y-27356D01*
X75489Y-27255D01*
X74015Y-26721D02*
X74004Y-26732D01*
X73993Y-26754D01*
X73993Y-26811D01*
X74004Y-26833D01*
X74015Y-26844D01*
X74038Y-26856D01*
X74060Y-26856D01*
X74094Y-26844D01*
X74229Y-26709D01*
X74229Y-26856D01*
X74015Y-26946D02*
X74004Y-26957D01*
X73993Y-26979D01*
X73993Y-27035D01*
X74004Y-27058D01*
X74015Y-27069D01*
X74038Y-27080D01*
X74060Y-27080D01*
X74094Y-27069D01*
X74229Y-26934D01*
X74229Y-27080D01*
X74071Y-27283D02*
X74229Y-27283D01*
X74071Y-27182D02*
X74195Y-27182D01*
X74218Y-27193D01*
X74229Y-27215D01*
X74229Y-27249D01*
X74218Y-27272D01*
X74206Y-27283D01*
X75427Y-25832D02*
X75438Y-25821D01*
X75449Y-25787D01*
X75449Y-25764D01*
X75438Y-25731D01*
X75416Y-25708D01*
X75393Y-25697D01*
X75348Y-25686D01*
X75314Y-25686D01*
X75269Y-25697D01*
X75247Y-25708D01*
X75224Y-25731D01*
X75213Y-25764D01*
X75213Y-25787D01*
X75224Y-25821D01*
X75236Y-25832D01*
X75236Y-25922D02*
X75224Y-25933D01*
X75213Y-25956D01*
X75213Y-26012D01*
X75224Y-26034D01*
X75236Y-26046D01*
X75258Y-26057D01*
X75281Y-26057D01*
X75314Y-26046D01*
X75449Y-25911D01*
X75449Y-26057D01*
X75314Y-26192D02*
X75303Y-26169D01*
X75292Y-26158D01*
X75269Y-26147D01*
X75258Y-26147D01*
X75236Y-26158D01*
X75224Y-26169D01*
X75213Y-26192D01*
X75213Y-26237D01*
X75224Y-26259D01*
X75236Y-26271D01*
X75258Y-26282D01*
X75269Y-26282D01*
X75292Y-26271D01*
X75303Y-26259D01*
X75314Y-26237D01*
X75314Y-26192D01*
X75326Y-26169D01*
X75337Y-26158D01*
X75359Y-26147D01*
X75404Y-26147D01*
X75427Y-26158D01*
X75438Y-26169D01*
X75449Y-26192D01*
X75449Y-26237D01*
X75438Y-26259D01*
X75427Y-26271D01*
X75404Y-26282D01*
X75359Y-26282D01*
X75337Y-26271D01*
X75326Y-26259D01*
X75314Y-26237D01*
X74015Y-25697D02*
X74004Y-25708D01*
X73993Y-25731D01*
X73993Y-25787D01*
X74004Y-25809D01*
X74015Y-25821D01*
X74038Y-25832D01*
X74060Y-25832D01*
X74094Y-25821D01*
X74229Y-25686D01*
X74229Y-25832D01*
X74015Y-25922D02*
X74004Y-25933D01*
X73993Y-25956D01*
X73993Y-26012D01*
X74004Y-26034D01*
X74015Y-26046D01*
X74038Y-26057D01*
X74060Y-26057D01*
X74094Y-26046D01*
X74229Y-25911D01*
X74229Y-26057D01*
X74071Y-26259D02*
X74229Y-26259D01*
X74071Y-26158D02*
X74195Y-26158D01*
X74218Y-26169D01*
X74229Y-26192D01*
X74229Y-26226D01*
X74218Y-26248D01*
X74206Y-26259D01*
X75427Y-24848D02*
X75438Y-24836D01*
X75449Y-24803D01*
X75449Y-24780D01*
X75438Y-24746D01*
X75416Y-24724D01*
X75393Y-24713D01*
X75348Y-24701D01*
X75314Y-24701D01*
X75269Y-24713D01*
X75247Y-24724D01*
X75224Y-24746D01*
X75213Y-24780D01*
X75213Y-24803D01*
X75224Y-24836D01*
X75236Y-24848D01*
X75236Y-24938D02*
X75224Y-24949D01*
X75213Y-24971D01*
X75213Y-25028D01*
X75224Y-25050D01*
X75236Y-25061D01*
X75258Y-25073D01*
X75281Y-25073D01*
X75314Y-25061D01*
X75449Y-24926D01*
X75449Y-25073D01*
X75213Y-25275D02*
X75213Y-25230D01*
X75224Y-25208D01*
X75236Y-25196D01*
X75269Y-25174D01*
X75314Y-25163D01*
X75404Y-25163D01*
X75427Y-25174D01*
X75438Y-25185D01*
X75449Y-25208D01*
X75449Y-25253D01*
X75438Y-25275D01*
X75427Y-25286D01*
X75404Y-25298D01*
X75348Y-25298D01*
X75326Y-25286D01*
X75314Y-25275D01*
X75303Y-25253D01*
X75303Y-25208D01*
X75314Y-25185D01*
X75326Y-25174D01*
X75348Y-25163D01*
X74015Y-24673D02*
X74004Y-24685D01*
X73993Y-24707D01*
X73993Y-24763D01*
X74004Y-24786D01*
X74015Y-24797D01*
X74038Y-24808D01*
X74060Y-24808D01*
X74094Y-24797D01*
X74229Y-24662D01*
X74229Y-24808D01*
X74015Y-24898D02*
X74004Y-24910D01*
X73993Y-24932D01*
X73993Y-24988D01*
X74004Y-25011D01*
X74015Y-25022D01*
X74038Y-25033D01*
X74060Y-25033D01*
X74094Y-25022D01*
X74229Y-24887D01*
X74229Y-25033D01*
X74071Y-25236D02*
X74229Y-25236D01*
X74071Y-25134D02*
X74195Y-25134D01*
X74218Y-25146D01*
X74229Y-25168D01*
X74229Y-25202D01*
X74218Y-25224D01*
X74206Y-25236D01*
X75466Y-27879D02*
X75478Y-27868D01*
X75489Y-27834D01*
X75489Y-27812D01*
X75478Y-27778D01*
X75455Y-27755D01*
X75433Y-27744D01*
X75388Y-27733D01*
X75354Y-27733D01*
X75309Y-27744D01*
X75286Y-27755D01*
X75264Y-27778D01*
X75253Y-27812D01*
X75253Y-27834D01*
X75264Y-27868D01*
X75275Y-27879D01*
X75275Y-27969D02*
X75264Y-27980D01*
X75253Y-28003D01*
X75253Y-28059D01*
X75264Y-28082D01*
X75275Y-28093D01*
X75298Y-28104D01*
X75320Y-28104D01*
X75354Y-28093D01*
X75489Y-27958D01*
X75489Y-28104D01*
X75253Y-28318D02*
X75253Y-28205D01*
X75365Y-28194D01*
X75354Y-28205D01*
X75343Y-28228D01*
X75343Y-28284D01*
X75354Y-28307D01*
X75365Y-28318D01*
X75388Y-28329D01*
X75444Y-28329D01*
X75466Y-28318D01*
X75478Y-28307D01*
X75489Y-28284D01*
X75489Y-28228D01*
X75478Y-28205D01*
X75466Y-28194D01*
X74015Y-27784D02*
X74004Y-27795D01*
X73993Y-27817D01*
X73993Y-27874D01*
X74004Y-27896D01*
X74015Y-27907D01*
X74038Y-27919D01*
X74060Y-27919D01*
X74094Y-27907D01*
X74229Y-27772D01*
X74229Y-27919D01*
X74015Y-28008D02*
X74004Y-28020D01*
X73993Y-28042D01*
X73993Y-28098D01*
X74004Y-28121D01*
X74015Y-28132D01*
X74038Y-28143D01*
X74060Y-28143D01*
X74094Y-28132D01*
X74229Y-27997D01*
X74229Y-28143D01*
X74071Y-28346D02*
X74229Y-28346D01*
X74071Y-28245D02*
X74195Y-28245D01*
X74218Y-28256D01*
X74229Y-28278D01*
X74229Y-28312D01*
X74218Y-28335D01*
X74206Y-28346D01*
X75663Y-32277D02*
X75674Y-32289D01*
X75708Y-32300D01*
X75731Y-32300D01*
X75764Y-32289D01*
X75787Y-32266D01*
X75798Y-32244D01*
X75809Y-32199D01*
X75809Y-32165D01*
X75798Y-32120D01*
X75787Y-32097D01*
X75764Y-32075D01*
X75731Y-32064D01*
X75708Y-32064D01*
X75674Y-32075D01*
X75663Y-32086D01*
X75438Y-32300D02*
X75573Y-32300D01*
X75506Y-32300D02*
X75506Y-32064D01*
X75528Y-32097D01*
X75551Y-32120D01*
X75573Y-32131D01*
X75348Y-32086D02*
X75337Y-32075D01*
X75314Y-32064D01*
X75258Y-32064D01*
X75236Y-32075D01*
X75224Y-32086D01*
X75213Y-32109D01*
X75213Y-32131D01*
X75224Y-32165D01*
X75359Y-32300D01*
X75213Y-32300D01*
X75624Y-32694D02*
X75759Y-32694D01*
X75691Y-32694D02*
X75691Y-32457D01*
X75714Y-32491D01*
X75736Y-32514D01*
X75759Y-32525D01*
X75478Y-32457D02*
X75455Y-32457D01*
X75433Y-32469D01*
X75421Y-32480D01*
X75410Y-32502D01*
X75399Y-32547D01*
X75399Y-32604D01*
X75410Y-32649D01*
X75421Y-32671D01*
X75433Y-32682D01*
X75455Y-32694D01*
X75478Y-32694D01*
X75500Y-32682D01*
X75511Y-32671D01*
X75523Y-32649D01*
X75534Y-32604D01*
X75534Y-32547D01*
X75523Y-32502D01*
X75511Y-32480D01*
X75500Y-32469D01*
X75478Y-32457D01*
X75196Y-32536D02*
X75196Y-32694D01*
X75298Y-32536D02*
X75298Y-32660D01*
X75286Y-32682D01*
X75264Y-32694D01*
X75230Y-32694D01*
X75208Y-32682D01*
X75196Y-32671D01*
X70407Y-29611D02*
X70419Y-29600D01*
X70430Y-29566D01*
X70430Y-29544D01*
X70419Y-29510D01*
X70396Y-29488D01*
X70374Y-29476D01*
X70329Y-29465D01*
X70295Y-29465D01*
X70250Y-29476D01*
X70227Y-29488D01*
X70205Y-29510D01*
X70194Y-29544D01*
X70194Y-29566D01*
X70205Y-29600D01*
X70216Y-29611D01*
X70430Y-29836D02*
X70430Y-29701D01*
X70430Y-29769D02*
X70194Y-29769D01*
X70227Y-29746D01*
X70250Y-29724D01*
X70261Y-29701D01*
X70430Y-29949D02*
X70430Y-29994D01*
X70419Y-30016D01*
X70407Y-30028D01*
X70374Y-30050D01*
X70329Y-30061D01*
X70239Y-30061D01*
X70216Y-30050D01*
X70205Y-30039D01*
X70194Y-30016D01*
X70194Y-29971D01*
X70205Y-29949D01*
X70216Y-29938D01*
X70239Y-29926D01*
X70295Y-29926D01*
X70317Y-29938D01*
X70329Y-29949D01*
X70340Y-29971D01*
X70340Y-30016D01*
X70329Y-30039D01*
X70317Y-30050D01*
X70295Y-30061D01*
X71709Y-29611D02*
X71709Y-29476D01*
X71709Y-29544D02*
X71473Y-29544D01*
X71507Y-29521D01*
X71529Y-29499D01*
X71540Y-29476D01*
X71473Y-29758D02*
X71473Y-29780D01*
X71484Y-29803D01*
X71495Y-29814D01*
X71518Y-29825D01*
X71563Y-29836D01*
X71619Y-29836D01*
X71664Y-29825D01*
X71686Y-29814D01*
X71698Y-29803D01*
X71709Y-29780D01*
X71709Y-29758D01*
X71698Y-29735D01*
X71686Y-29724D01*
X71664Y-29713D01*
X71619Y-29701D01*
X71563Y-29701D01*
X71518Y-29713D01*
X71495Y-29724D01*
X71484Y-29735D01*
X71473Y-29758D01*
X71552Y-30039D02*
X71709Y-30039D01*
X71552Y-29938D02*
X71675Y-29938D01*
X71698Y-29949D01*
X71709Y-29971D01*
X71709Y-30005D01*
X71698Y-30028D01*
X71686Y-30039D01*
X82002Y-27947D02*
X82013Y-27958D01*
X82047Y-27969D01*
X82069Y-27969D01*
X82103Y-27958D01*
X82125Y-27935D01*
X82137Y-27913D01*
X82148Y-27868D01*
X82148Y-27834D01*
X82137Y-27789D01*
X82125Y-27767D01*
X82103Y-27744D01*
X82069Y-27733D01*
X82047Y-27733D01*
X82013Y-27744D01*
X82002Y-27755D01*
X81912Y-27755D02*
X81901Y-27744D01*
X81878Y-27733D01*
X81822Y-27733D01*
X81799Y-27744D01*
X81788Y-27755D01*
X81777Y-27778D01*
X81777Y-27800D01*
X81788Y-27834D01*
X81923Y-27969D01*
X81777Y-27969D01*
X81552Y-27969D02*
X81687Y-27969D01*
X81619Y-27969D02*
X81619Y-27733D01*
X81642Y-27767D01*
X81664Y-27789D01*
X81687Y-27800D01*
X82002Y-28323D02*
X82137Y-28323D01*
X82069Y-28323D02*
X82069Y-28087D01*
X82092Y-28121D01*
X82114Y-28143D01*
X82137Y-28155D01*
X81856Y-28087D02*
X81833Y-28087D01*
X81811Y-28098D01*
X81799Y-28110D01*
X81788Y-28132D01*
X81777Y-28177D01*
X81777Y-28233D01*
X81788Y-28278D01*
X81799Y-28301D01*
X81811Y-28312D01*
X81833Y-28323D01*
X81856Y-28323D01*
X81878Y-28312D01*
X81889Y-28301D01*
X81901Y-28278D01*
X81912Y-28233D01*
X81912Y-28177D01*
X81901Y-28132D01*
X81889Y-28110D01*
X81878Y-28098D01*
X81856Y-28087D01*
X81574Y-28166D02*
X81574Y-28323D01*
X81676Y-28166D02*
X81676Y-28290D01*
X81664Y-28312D01*
X81642Y-28323D01*
X81608Y-28323D01*
X81586Y-28312D01*
X81574Y-28301D01*
X85506Y-34482D02*
X85517Y-34493D01*
X85551Y-34505D01*
X85573Y-34505D01*
X85607Y-34493D01*
X85629Y-34471D01*
X85641Y-34448D01*
X85652Y-34403D01*
X85652Y-34370D01*
X85641Y-34325D01*
X85629Y-34302D01*
X85607Y-34280D01*
X85573Y-34268D01*
X85551Y-34268D01*
X85517Y-34280D01*
X85506Y-34291D01*
X85416Y-34291D02*
X85404Y-34280D01*
X85382Y-34268D01*
X85326Y-34268D01*
X85303Y-34280D01*
X85292Y-34291D01*
X85281Y-34313D01*
X85281Y-34336D01*
X85292Y-34370D01*
X85427Y-34505D01*
X85281Y-34505D01*
X85078Y-34347D02*
X85078Y-34505D01*
X85134Y-34257D02*
X85191Y-34426D01*
X85044Y-34426D01*
X84758Y-34291D02*
X84746Y-34280D01*
X84724Y-34268D01*
X84668Y-34268D01*
X84645Y-34280D01*
X84634Y-34291D01*
X84623Y-34313D01*
X84623Y-34336D01*
X84634Y-34370D01*
X84769Y-34505D01*
X84623Y-34505D01*
X84476Y-34268D02*
X84454Y-34268D01*
X84431Y-34280D01*
X84420Y-34291D01*
X84409Y-34313D01*
X84398Y-34358D01*
X84398Y-34415D01*
X84409Y-34460D01*
X84420Y-34482D01*
X84431Y-34493D01*
X84454Y-34505D01*
X84476Y-34505D01*
X84499Y-34493D01*
X84510Y-34482D01*
X84521Y-34460D01*
X84533Y-34415D01*
X84533Y-34358D01*
X84521Y-34313D01*
X84510Y-34291D01*
X84499Y-34280D01*
X84476Y-34268D01*
X84296Y-34347D02*
X84296Y-34583D01*
X84296Y-34358D02*
X84274Y-34347D01*
X84229Y-34347D01*
X84206Y-34358D01*
X84195Y-34370D01*
X84184Y-34392D01*
X84184Y-34460D01*
X84195Y-34482D01*
X84206Y-34493D01*
X84229Y-34505D01*
X84274Y-34505D01*
X84296Y-34493D01*
X84004Y-34381D02*
X84083Y-34381D01*
X84083Y-34505D02*
X84083Y-34268D01*
X83970Y-34268D01*
X82890Y-37796D02*
X82890Y-37812D01*
X82906Y-37844D01*
X82922Y-37860D01*
X82953Y-37876D01*
X82985Y-37876D01*
X83009Y-37868D01*
X83049Y-37844D01*
X83073Y-37820D01*
X83097Y-37780D01*
X83105Y-37757D01*
X83105Y-37725D01*
X83089Y-37693D01*
X83073Y-37677D01*
X83041Y-37661D01*
X83025Y-37661D01*
X82715Y-37653D02*
X82810Y-37749D01*
X82763Y-37701D02*
X82930Y-37534D01*
X82922Y-37574D01*
X82922Y-37605D01*
X82930Y-37629D01*
X82739Y-37343D02*
X82771Y-37375D01*
X82778Y-37399D01*
X82778Y-37415D01*
X82771Y-37454D01*
X82747Y-37494D01*
X82683Y-37558D01*
X82659Y-37566D01*
X82643Y-37566D01*
X82619Y-37558D01*
X82588Y-37526D01*
X82580Y-37502D01*
X82580Y-37486D01*
X82588Y-37462D01*
X82627Y-37423D01*
X82651Y-37415D01*
X82667Y-37415D01*
X82691Y-37423D01*
X82723Y-37454D01*
X82731Y-37478D01*
X82731Y-37494D01*
X82723Y-37518D01*
X82851Y-36575D02*
X82946Y-36479D01*
X82899Y-36527D02*
X82732Y-36360D01*
X82771Y-36368D01*
X82803Y-36368D01*
X82827Y-36360D01*
X82596Y-36607D02*
X82708Y-36718D01*
X82668Y-36535D02*
X82755Y-36622D01*
X82763Y-36646D01*
X82755Y-36670D01*
X82732Y-36694D01*
X82708Y-36702D01*
X82692Y-36702D01*
X84660Y-38513D02*
X84672Y-38524D01*
X84705Y-38535D01*
X84728Y-38535D01*
X84762Y-38524D01*
X84784Y-38501D01*
X84795Y-38479D01*
X84807Y-38434D01*
X84807Y-38400D01*
X84795Y-38355D01*
X84784Y-38333D01*
X84762Y-38310D01*
X84728Y-38299D01*
X84705Y-38299D01*
X84672Y-38310D01*
X84660Y-38321D01*
X84570Y-38321D02*
X84559Y-38310D01*
X84537Y-38299D01*
X84480Y-38299D01*
X84458Y-38310D01*
X84447Y-38321D01*
X84435Y-38344D01*
X84435Y-38366D01*
X84447Y-38400D01*
X84582Y-38535D01*
X84435Y-38535D01*
X84357Y-38299D02*
X84210Y-38299D01*
X84289Y-38389D01*
X84255Y-38389D01*
X84233Y-38400D01*
X84222Y-38411D01*
X84210Y-38434D01*
X84210Y-38490D01*
X84222Y-38513D01*
X84233Y-38524D01*
X84255Y-38535D01*
X84323Y-38535D01*
X84345Y-38524D01*
X84357Y-38513D01*
X85348Y-38661D02*
X85337Y-38650D01*
X85314Y-38638D01*
X85258Y-38638D01*
X85236Y-38650D01*
X85224Y-38661D01*
X85213Y-38683D01*
X85213Y-38706D01*
X85224Y-38740D01*
X85359Y-38875D01*
X85213Y-38875D01*
X85067Y-38638D02*
X85044Y-38638D01*
X85022Y-38650D01*
X85011Y-38661D01*
X85000Y-38683D01*
X84988Y-38728D01*
X84988Y-38785D01*
X85000Y-38830D01*
X85011Y-38852D01*
X85022Y-38863D01*
X85044Y-38875D01*
X85067Y-38875D01*
X85089Y-38863D01*
X85101Y-38852D01*
X85112Y-38830D01*
X85123Y-38785D01*
X85123Y-38728D01*
X85112Y-38683D01*
X85101Y-38661D01*
X85089Y-38650D01*
X85067Y-38638D01*
X84887Y-38717D02*
X84887Y-38953D01*
X84887Y-38728D02*
X84865Y-38717D01*
X84820Y-38717D01*
X84797Y-38728D01*
X84786Y-38740D01*
X84775Y-38762D01*
X84775Y-38830D01*
X84786Y-38852D01*
X84797Y-38863D01*
X84820Y-38875D01*
X84865Y-38875D01*
X84887Y-38863D01*
X84595Y-38751D02*
X84673Y-38751D01*
X84673Y-38875D02*
X84673Y-38638D01*
X84561Y-38638D01*
X81143Y-37227D02*
X81159Y-37227D01*
X81191Y-37211D01*
X81206Y-37195D01*
X81222Y-37164D01*
X81222Y-37132D01*
X81214Y-37108D01*
X81191Y-37068D01*
X81167Y-37044D01*
X81127Y-37020D01*
X81103Y-37013D01*
X81071Y-37013D01*
X81039Y-37028D01*
X81024Y-37044D01*
X81008Y-37076D01*
X81008Y-37092D01*
X81000Y-37402D02*
X81095Y-37307D01*
X81047Y-37355D02*
X80880Y-37188D01*
X80920Y-37195D01*
X80952Y-37195D01*
X80976Y-37188D01*
X80682Y-37386D02*
X80761Y-37307D01*
X80849Y-37378D01*
X80833Y-37378D01*
X80809Y-37386D01*
X80769Y-37426D01*
X80761Y-37450D01*
X80761Y-37466D01*
X80769Y-37490D01*
X80809Y-37530D01*
X80833Y-37537D01*
X80849Y-37537D01*
X80872Y-37530D01*
X80912Y-37490D01*
X80920Y-37466D01*
X80920Y-37450D01*
X82615Y-36023D02*
X82711Y-35927D01*
X82663Y-35975D02*
X82496Y-35808D01*
X82536Y-35816D01*
X82568Y-35816D01*
X82592Y-35808D01*
X82345Y-35959D02*
X82329Y-35975D01*
X82321Y-35999D01*
X82321Y-36015D01*
X82329Y-36039D01*
X82353Y-36078D01*
X82393Y-36118D01*
X82432Y-36142D01*
X82456Y-36150D01*
X82472Y-36150D01*
X82496Y-36142D01*
X82512Y-36126D01*
X82520Y-36102D01*
X82520Y-36086D01*
X82512Y-36062D01*
X82488Y-36023D01*
X82448Y-35983D01*
X82409Y-35959D01*
X82385Y-35951D01*
X82369Y-35951D01*
X82345Y-35959D01*
X82273Y-36142D02*
X82385Y-36253D01*
X82289Y-36158D02*
X82273Y-36158D01*
X82250Y-36166D01*
X82226Y-36190D01*
X82218Y-36214D01*
X82226Y-36237D01*
X82313Y-36325D01*
X81754Y-30064D02*
X81765Y-30053D01*
X81776Y-30019D01*
X81776Y-29996D01*
X81765Y-29963D01*
X81742Y-29940D01*
X81720Y-29929D01*
X81675Y-29918D01*
X81641Y-29918D01*
X81596Y-29929D01*
X81574Y-29940D01*
X81551Y-29963D01*
X81540Y-29996D01*
X81540Y-30019D01*
X81551Y-30053D01*
X81562Y-30064D01*
X81776Y-30289D02*
X81776Y-30154D01*
X81776Y-30221D02*
X81540Y-30221D01*
X81574Y-30199D01*
X81596Y-30176D01*
X81607Y-30154D01*
X81467Y-30764D02*
X81445Y-30764D01*
X81422Y-30776D01*
X81411Y-30787D01*
X81400Y-30809D01*
X81389Y-30854D01*
X81389Y-30911D01*
X81400Y-30956D01*
X81411Y-30978D01*
X81422Y-30989D01*
X81445Y-31001D01*
X81467Y-31001D01*
X81490Y-30989D01*
X81501Y-30978D01*
X81512Y-30956D01*
X81524Y-30911D01*
X81524Y-30854D01*
X81512Y-30809D01*
X81501Y-30787D01*
X81490Y-30776D01*
X81467Y-30764D01*
X81287Y-30978D02*
X81276Y-30989D01*
X81287Y-31001D01*
X81299Y-30989D01*
X81287Y-30978D01*
X81287Y-31001D01*
X81051Y-31001D02*
X81186Y-31001D01*
X81119Y-31001D02*
X81119Y-30764D01*
X81141Y-30798D01*
X81164Y-30821D01*
X81186Y-30832D01*
X80849Y-30843D02*
X80849Y-31001D01*
X80950Y-30843D02*
X80950Y-30967D01*
X80939Y-30989D01*
X80916Y-31001D01*
X80883Y-31001D01*
X80860Y-30989D01*
X80849Y-30978D01*
X83450Y-38943D02*
X83461Y-38954D01*
X83495Y-38965D01*
X83517Y-38965D01*
X83551Y-38954D01*
X83573Y-38931D01*
X83585Y-38909D01*
X83596Y-38864D01*
X83596Y-38830D01*
X83585Y-38785D01*
X83573Y-38763D01*
X83551Y-38740D01*
X83517Y-38729D01*
X83495Y-38729D01*
X83461Y-38740D01*
X83450Y-38751D01*
X83337Y-38965D02*
X83292Y-38965D01*
X83270Y-38954D01*
X83258Y-38943D01*
X83236Y-38909D01*
X83225Y-38864D01*
X83225Y-38774D01*
X83236Y-38751D01*
X83247Y-38740D01*
X83270Y-38729D01*
X83315Y-38729D01*
X83337Y-38740D01*
X83348Y-38751D01*
X83360Y-38774D01*
X83360Y-38830D01*
X83348Y-38853D01*
X83337Y-38864D01*
X83315Y-38875D01*
X83270Y-38875D01*
X83247Y-38864D01*
X83236Y-38853D01*
X83225Y-38830D01*
X84308Y-39274D02*
X84308Y-39139D01*
X84308Y-39206D02*
X84071Y-39206D01*
X84105Y-39184D01*
X84128Y-39161D01*
X84139Y-39139D01*
X84071Y-39420D02*
X84071Y-39443D01*
X84083Y-39465D01*
X84094Y-39476D01*
X84116Y-39488D01*
X84161Y-39499D01*
X84218Y-39499D01*
X84263Y-39488D01*
X84285Y-39476D01*
X84296Y-39465D01*
X84308Y-39443D01*
X84308Y-39420D01*
X84296Y-39398D01*
X84285Y-39386D01*
X84263Y-39375D01*
X84218Y-39364D01*
X84161Y-39364D01*
X84116Y-39375D01*
X84094Y-39386D01*
X84083Y-39398D01*
X84071Y-39420D01*
X84150Y-39600D02*
X84386Y-39600D01*
X84161Y-39600D02*
X84150Y-39623D01*
X84150Y-39668D01*
X84161Y-39690D01*
X84173Y-39701D01*
X84195Y-39713D01*
X84263Y-39713D01*
X84285Y-39701D01*
X84296Y-39690D01*
X84308Y-39668D01*
X84308Y-39623D01*
X84296Y-39600D01*
X84184Y-39893D02*
X84184Y-39814D01*
X84308Y-39814D02*
X84071Y-39814D01*
X84071Y-39926D01*
X82811Y-32285D02*
X82811Y-32300D01*
X82827Y-32332D01*
X82843Y-32348D01*
X82875Y-32364D01*
X82907Y-32364D01*
X82930Y-32356D01*
X82970Y-32332D01*
X82994Y-32308D01*
X83018Y-32269D01*
X83026Y-32245D01*
X83026Y-32213D01*
X83010Y-32181D01*
X82994Y-32165D01*
X82962Y-32149D01*
X82946Y-32149D01*
X82636Y-32141D02*
X82732Y-32237D01*
X82684Y-32189D02*
X82851Y-32022D01*
X82843Y-32062D01*
X82843Y-32094D01*
X82851Y-32118D01*
X82604Y-31887D02*
X82493Y-31998D01*
X82708Y-31863D02*
X82628Y-32022D01*
X82525Y-31919D01*
X82782Y-32465D02*
X82766Y-32449D01*
X82742Y-32441D01*
X82726Y-32441D01*
X82703Y-32449D01*
X82663Y-32473D01*
X82623Y-32513D01*
X82599Y-32553D01*
X82591Y-32576D01*
X82591Y-32592D01*
X82599Y-32616D01*
X82615Y-32632D01*
X82639Y-32640D01*
X82655Y-32640D01*
X82679Y-32632D01*
X82718Y-32608D01*
X82758Y-32569D01*
X82782Y-32529D01*
X82790Y-32505D01*
X82790Y-32489D01*
X82782Y-32465D01*
X82504Y-32489D02*
X82488Y-32489D01*
X82488Y-32505D01*
X82504Y-32505D01*
X82504Y-32489D01*
X82488Y-32505D01*
X82321Y-32338D02*
X82416Y-32433D01*
X82368Y-32386D02*
X82535Y-32219D01*
X82528Y-32258D01*
X82528Y-32290D01*
X82535Y-32314D01*
X82289Y-32083D02*
X82178Y-32195D01*
X82361Y-32155D02*
X82273Y-32242D01*
X82249Y-32250D01*
X82225Y-32242D01*
X82201Y-32219D01*
X82193Y-32195D01*
X82193Y-32179D01*
X76849Y-36164D02*
X76849Y-36180D01*
X76865Y-36211D01*
X76881Y-36227D01*
X76913Y-36243D01*
X76945Y-36243D01*
X76969Y-36235D01*
X77008Y-36211D01*
X77032Y-36188D01*
X77056Y-36148D01*
X77064Y-36124D01*
X77064Y-36092D01*
X77048Y-36060D01*
X77032Y-36044D01*
X77000Y-36029D01*
X76985Y-36029D01*
X76674Y-36021D02*
X76770Y-36116D01*
X76722Y-36068D02*
X76889Y-35901D01*
X76881Y-35941D01*
X76881Y-35973D01*
X76889Y-35997D01*
X76786Y-35798D02*
X76682Y-35694D01*
X76674Y-35814D01*
X76650Y-35790D01*
X76627Y-35782D01*
X76611Y-35782D01*
X76587Y-35790D01*
X76547Y-35830D01*
X76539Y-35854D01*
X76539Y-35869D01*
X76547Y-35893D01*
X76595Y-35941D01*
X76619Y-35949D01*
X76635Y-35949D01*
X76522Y-35575D02*
X76506Y-35559D01*
X76482Y-35551D01*
X76467Y-35551D01*
X76443Y-35559D01*
X76403Y-35583D01*
X76363Y-35623D01*
X76339Y-35663D01*
X76331Y-35687D01*
X76331Y-35703D01*
X76339Y-35726D01*
X76355Y-35742D01*
X76379Y-35750D01*
X76395Y-35750D01*
X76419Y-35742D01*
X76459Y-35719D01*
X76498Y-35679D01*
X76522Y-35639D01*
X76530Y-35615D01*
X76530Y-35599D01*
X76522Y-35575D01*
X76244Y-35599D02*
X76228Y-35599D01*
X76228Y-35615D01*
X76244Y-35615D01*
X76244Y-35599D01*
X76228Y-35615D01*
X76061Y-35448D02*
X76156Y-35544D01*
X76109Y-35496D02*
X76276Y-35329D01*
X76268Y-35369D01*
X76268Y-35400D01*
X76276Y-35424D01*
X76029Y-35194D02*
X75918Y-35305D01*
X76101Y-35265D02*
X76013Y-35353D01*
X75989Y-35361D01*
X75965Y-35353D01*
X75942Y-35329D01*
X75934Y-35305D01*
X75934Y-35289D01*
X81726Y-24167D02*
X81737Y-24178D01*
X81771Y-24190D01*
X81794Y-24190D01*
X81827Y-24178D01*
X81850Y-24156D01*
X81861Y-24133D01*
X81872Y-24088D01*
X81872Y-24055D01*
X81861Y-24010D01*
X81850Y-23987D01*
X81827Y-23965D01*
X81794Y-23953D01*
X81771Y-23953D01*
X81737Y-23965D01*
X81726Y-23976D01*
X81636Y-23976D02*
X81625Y-23965D01*
X81602Y-23953D01*
X81546Y-23953D01*
X81524Y-23965D01*
X81512Y-23976D01*
X81501Y-23998D01*
X81501Y-24021D01*
X81512Y-24055D01*
X81647Y-24190D01*
X81501Y-24190D01*
X81411Y-23976D02*
X81400Y-23965D01*
X81377Y-23953D01*
X81321Y-23953D01*
X81299Y-23965D01*
X81287Y-23976D01*
X81276Y-23998D01*
X81276Y-24021D01*
X81287Y-24055D01*
X81422Y-24190D01*
X81276Y-24190D01*
X81496Y-24505D02*
X81631Y-24505D01*
X81563Y-24505D02*
X81563Y-24268D01*
X81586Y-24302D01*
X81608Y-24325D01*
X81631Y-24336D01*
X81293Y-24347D02*
X81293Y-24505D01*
X81394Y-24347D02*
X81394Y-24471D01*
X81383Y-24493D01*
X81361Y-24505D01*
X81327Y-24505D01*
X81304Y-24493D01*
X81293Y-24482D01*
X83512Y-42305D02*
X83523Y-42316D01*
X83557Y-42327D01*
X83580Y-42327D01*
X83613Y-42316D01*
X83636Y-42294D01*
X83647Y-42271D01*
X83658Y-42226D01*
X83658Y-42192D01*
X83647Y-42147D01*
X83636Y-42125D01*
X83613Y-42102D01*
X83580Y-42091D01*
X83557Y-42091D01*
X83523Y-42102D01*
X83512Y-42114D01*
X83287Y-42327D02*
X83422Y-42327D01*
X83355Y-42327D02*
X83355Y-42091D01*
X83377Y-42125D01*
X83400Y-42147D01*
X83422Y-42159D01*
X83141Y-42091D02*
X83118Y-42091D01*
X83096Y-42102D01*
X83085Y-42114D01*
X83073Y-42136D01*
X83062Y-42181D01*
X83062Y-42237D01*
X83073Y-42282D01*
X83085Y-42305D01*
X83096Y-42316D01*
X83118Y-42327D01*
X83141Y-42327D01*
X83163Y-42316D01*
X83175Y-42305D01*
X83186Y-42282D01*
X83197Y-42237D01*
X83197Y-42181D01*
X83186Y-42136D01*
X83175Y-42114D01*
X83163Y-42102D01*
X83141Y-42091D01*
X83717Y-42654D02*
X83852Y-42654D01*
X83785Y-42654D02*
X83785Y-42418D01*
X83807Y-42452D01*
X83830Y-42474D01*
X83852Y-42485D01*
X83571Y-42418D02*
X83548Y-42418D01*
X83526Y-42429D01*
X83515Y-42440D01*
X83503Y-42463D01*
X83492Y-42508D01*
X83492Y-42564D01*
X83503Y-42609D01*
X83515Y-42632D01*
X83526Y-42643D01*
X83548Y-42654D01*
X83571Y-42654D01*
X83593Y-42643D01*
X83605Y-42632D01*
X83616Y-42609D01*
X83627Y-42564D01*
X83627Y-42508D01*
X83616Y-42463D01*
X83605Y-42440D01*
X83593Y-42429D01*
X83571Y-42418D01*
X83391Y-42497D02*
X83391Y-42733D01*
X83391Y-42508D02*
X83368Y-42497D01*
X83323Y-42497D01*
X83301Y-42508D01*
X83290Y-42519D01*
X83278Y-42542D01*
X83278Y-42609D01*
X83290Y-42632D01*
X83301Y-42643D01*
X83323Y-42654D01*
X83368Y-42654D01*
X83391Y-42643D01*
X83098Y-42530D02*
X83177Y-42530D01*
X83177Y-42654D02*
X83177Y-42418D01*
X83065Y-42418D01*
X78065Y-29808D02*
X78076Y-29797D01*
X78087Y-29763D01*
X78087Y-29741D01*
X78076Y-29707D01*
X78053Y-29685D01*
X78031Y-29673D01*
X77986Y-29662D01*
X77952Y-29662D01*
X77907Y-29673D01*
X77885Y-29685D01*
X77862Y-29707D01*
X77851Y-29741D01*
X77851Y-29763D01*
X77862Y-29797D01*
X77874Y-29808D01*
X77874Y-29898D02*
X77862Y-29910D01*
X77851Y-29932D01*
X77851Y-29988D01*
X77862Y-30011D01*
X77874Y-30022D01*
X77896Y-30033D01*
X77919Y-30033D01*
X77952Y-30022D01*
X78087Y-29887D01*
X78087Y-30033D01*
X78087Y-30146D02*
X78087Y-30191D01*
X78076Y-30213D01*
X78065Y-30224D01*
X78031Y-30247D01*
X77986Y-30258D01*
X77896Y-30258D01*
X77874Y-30247D01*
X77862Y-30236D01*
X77851Y-30213D01*
X77851Y-30168D01*
X77862Y-30146D01*
X77874Y-30134D01*
X77896Y-30123D01*
X77952Y-30123D01*
X77975Y-30134D01*
X77986Y-30146D01*
X77997Y-30168D01*
X77997Y-30213D01*
X77986Y-30236D01*
X77975Y-30247D01*
X77952Y-30258D01*
X77519Y-31001D02*
X77654Y-31001D01*
X77587Y-31001D02*
X77587Y-30764D01*
X77609Y-30798D01*
X77632Y-30821D01*
X77654Y-30832D01*
X77317Y-30843D02*
X77317Y-31001D01*
X77418Y-30843D02*
X77418Y-30967D01*
X77407Y-30989D01*
X77384Y-31001D01*
X77350Y-31001D01*
X77328Y-30989D01*
X77317Y-30978D01*
X74848Y-29901D02*
X74859Y-29890D01*
X74871Y-29856D01*
X74871Y-29834D01*
X74859Y-29800D01*
X74837Y-29778D01*
X74814Y-29766D01*
X74769Y-29755D01*
X74736Y-29755D01*
X74691Y-29766D01*
X74668Y-29778D01*
X74646Y-29800D01*
X74634Y-29834D01*
X74634Y-29856D01*
X74646Y-29890D01*
X74657Y-29901D01*
X74634Y-29980D02*
X74634Y-30126D01*
X74724Y-30048D01*
X74724Y-30081D01*
X74736Y-30104D01*
X74747Y-30115D01*
X74769Y-30126D01*
X74826Y-30126D01*
X74848Y-30115D01*
X74859Y-30104D01*
X74871Y-30081D01*
X74871Y-30014D01*
X74859Y-29991D01*
X74848Y-29980D01*
X74871Y-30351D02*
X74871Y-30216D01*
X74871Y-30284D02*
X74634Y-30284D01*
X74668Y-30261D01*
X74691Y-30239D01*
X74702Y-30216D01*
X75314Y-31001D02*
X75449Y-31001D01*
X75382Y-31001D02*
X75382Y-30764D01*
X75404Y-30798D01*
X75427Y-30821D01*
X75449Y-30832D01*
X75112Y-30843D02*
X75112Y-31001D01*
X75213Y-30843D02*
X75213Y-30967D01*
X75202Y-30989D01*
X75179Y-31001D01*
X75146Y-31001D01*
X75123Y-30989D01*
X75112Y-30978D01*
X71305Y-29586D02*
X71316Y-29575D01*
X71327Y-29541D01*
X71327Y-29519D01*
X71316Y-29485D01*
X71294Y-29463D01*
X71271Y-29451D01*
X71226Y-29440D01*
X71192Y-29440D01*
X71147Y-29451D01*
X71125Y-29463D01*
X71102Y-29485D01*
X71091Y-29519D01*
X71091Y-29541D01*
X71102Y-29575D01*
X71114Y-29586D01*
X71114Y-29676D02*
X71102Y-29688D01*
X71091Y-29710D01*
X71091Y-29766D01*
X71102Y-29789D01*
X71114Y-29800D01*
X71136Y-29811D01*
X71159Y-29811D01*
X71192Y-29800D01*
X71327Y-29665D01*
X71327Y-29811D01*
X71091Y-29958D02*
X71091Y-29980D01*
X71102Y-30003D01*
X71114Y-30014D01*
X71136Y-30025D01*
X71181Y-30036D01*
X71237Y-30036D01*
X71282Y-30025D01*
X71305Y-30014D01*
X71316Y-30003D01*
X71327Y-29980D01*
X71327Y-29958D01*
X71316Y-29935D01*
X71305Y-29924D01*
X71282Y-29913D01*
X71237Y-29901D01*
X71181Y-29901D01*
X71136Y-29913D01*
X71114Y-29924D01*
X71102Y-29935D01*
X71091Y-29958D01*
X72142Y-29515D02*
X72142Y-29538D01*
X72153Y-29560D01*
X72165Y-29572D01*
X72187Y-29583D01*
X72232Y-29594D01*
X72288Y-29594D01*
X72333Y-29583D01*
X72356Y-29572D01*
X72367Y-29560D01*
X72378Y-29538D01*
X72378Y-29515D01*
X72367Y-29493D01*
X72356Y-29482D01*
X72333Y-29470D01*
X72288Y-29459D01*
X72232Y-29459D01*
X72187Y-29470D01*
X72165Y-29482D01*
X72153Y-29493D01*
X72142Y-29515D01*
X72356Y-29695D02*
X72367Y-29707D01*
X72378Y-29695D01*
X72367Y-29684D01*
X72356Y-29695D01*
X72378Y-29695D01*
X72378Y-29932D02*
X72378Y-29797D01*
X72378Y-29864D02*
X72142Y-29864D01*
X72176Y-29842D01*
X72198Y-29819D01*
X72210Y-29797D01*
X72221Y-30134D02*
X72378Y-30134D01*
X72221Y-30033D02*
X72345Y-30033D01*
X72367Y-30044D01*
X72378Y-30067D01*
X72378Y-30100D01*
X72367Y-30123D01*
X72356Y-30134D01*
X81451Y-39285D02*
X81462Y-39296D01*
X81496Y-39308D01*
X81518Y-39308D01*
X81552Y-39296D01*
X81574Y-39274D01*
X81586Y-39251D01*
X81597Y-39206D01*
X81597Y-39173D01*
X81586Y-39128D01*
X81574Y-39105D01*
X81552Y-39083D01*
X81518Y-39071D01*
X81496Y-39071D01*
X81462Y-39083D01*
X81451Y-39094D01*
X81226Y-39308D02*
X81361Y-39308D01*
X81293Y-39308D02*
X81293Y-39071D01*
X81316Y-39105D01*
X81338Y-39128D01*
X81361Y-39139D01*
X81001Y-39308D02*
X81136Y-39308D01*
X81068Y-39308D02*
X81068Y-39071D01*
X81091Y-39105D01*
X81113Y-39128D01*
X81136Y-39139D01*
X81591Y-38413D02*
X81591Y-38436D01*
X81602Y-38458D01*
X81614Y-38470D01*
X81636Y-38481D01*
X81681Y-38492D01*
X81737Y-38492D01*
X81782Y-38481D01*
X81805Y-38470D01*
X81816Y-38458D01*
X81827Y-38436D01*
X81827Y-38413D01*
X81816Y-38391D01*
X81805Y-38380D01*
X81782Y-38368D01*
X81737Y-38357D01*
X81681Y-38357D01*
X81636Y-38368D01*
X81614Y-38380D01*
X81602Y-38391D01*
X81591Y-38413D01*
X81805Y-38593D02*
X81816Y-38605D01*
X81827Y-38593D01*
X81816Y-38582D01*
X81805Y-38593D01*
X81827Y-38593D01*
X81827Y-38830D02*
X81827Y-38695D01*
X81827Y-38762D02*
X81591Y-38762D01*
X81625Y-38740D01*
X81647Y-38717D01*
X81659Y-38695D01*
X81670Y-39032D02*
X81827Y-39032D01*
X81670Y-38931D02*
X81794Y-38931D01*
X81816Y-38942D01*
X81827Y-38965D01*
X81827Y-38998D01*
X81816Y-39021D01*
X81805Y-39032D01*
X78267Y-41766D02*
X78278Y-41777D01*
X78312Y-41788D01*
X78335Y-41788D01*
X78368Y-41777D01*
X78391Y-41754D01*
X78402Y-41732D01*
X78413Y-41687D01*
X78413Y-41653D01*
X78402Y-41608D01*
X78391Y-41586D01*
X78368Y-41563D01*
X78335Y-41552D01*
X78312Y-41552D01*
X78278Y-41563D01*
X78267Y-41574D01*
X78188Y-41552D02*
X78042Y-41552D01*
X78121Y-41642D01*
X78087Y-41642D01*
X78065Y-41653D01*
X78053Y-41664D01*
X78042Y-41687D01*
X78042Y-41743D01*
X78053Y-41766D01*
X78065Y-41777D01*
X78087Y-41788D01*
X78155Y-41788D01*
X78177Y-41777D01*
X78188Y-41766D01*
X77862Y-41377D02*
X77851Y-41366D01*
X77829Y-41355D01*
X77772Y-41355D01*
X77750Y-41366D01*
X77739Y-41377D01*
X77727Y-41400D01*
X77727Y-41422D01*
X77739Y-41456D01*
X77874Y-41591D01*
X77727Y-41591D01*
X77637Y-41377D02*
X77626Y-41366D01*
X77604Y-41355D01*
X77547Y-41355D01*
X77525Y-41366D01*
X77514Y-41377D01*
X77502Y-41400D01*
X77502Y-41422D01*
X77514Y-41456D01*
X77649Y-41591D01*
X77502Y-41591D01*
X77356Y-41355D02*
X77334Y-41355D01*
X77311Y-41366D01*
X77300Y-41377D01*
X77289Y-41400D01*
X77277Y-41445D01*
X77277Y-41501D01*
X77289Y-41546D01*
X77300Y-41569D01*
X77311Y-41580D01*
X77334Y-41591D01*
X77356Y-41591D01*
X77379Y-41580D01*
X77390Y-41569D01*
X77401Y-41546D01*
X77412Y-41501D01*
X77412Y-41445D01*
X77401Y-41400D01*
X77390Y-41377D01*
X77379Y-41366D01*
X77356Y-41355D01*
X77176Y-41434D02*
X77176Y-41670D01*
X77176Y-41445D02*
X77154Y-41434D01*
X77109Y-41434D01*
X77086Y-41445D01*
X77075Y-41456D01*
X77064Y-41479D01*
X77064Y-41546D01*
X77075Y-41569D01*
X77086Y-41580D01*
X77109Y-41591D01*
X77154Y-41591D01*
X77176Y-41580D01*
X76884Y-41467D02*
X76962Y-41467D01*
X76962Y-41591D02*
X76962Y-41355D01*
X76850Y-41355D01*
X78779Y-42120D02*
X78790Y-42131D01*
X78824Y-42142D01*
X78847Y-42142D01*
X78880Y-42131D01*
X78903Y-42109D01*
X78914Y-42086D01*
X78925Y-42041D01*
X78925Y-42007D01*
X78914Y-41962D01*
X78903Y-41940D01*
X78880Y-41917D01*
X78847Y-41906D01*
X78824Y-41906D01*
X78790Y-41917D01*
X78779Y-41929D01*
X78577Y-41985D02*
X78577Y-42142D01*
X78633Y-41895D02*
X78689Y-42064D01*
X78543Y-42064D01*
X78892Y-42733D02*
X79026Y-42733D01*
X78959Y-42733D02*
X78959Y-42497D01*
X78982Y-42530D01*
X79004Y-42553D01*
X79026Y-42564D01*
X78745Y-42497D02*
X78723Y-42497D01*
X78700Y-42508D01*
X78689Y-42519D01*
X78678Y-42542D01*
X78667Y-42587D01*
X78667Y-42643D01*
X78678Y-42688D01*
X78689Y-42710D01*
X78700Y-42722D01*
X78723Y-42733D01*
X78745Y-42733D01*
X78768Y-42722D01*
X78779Y-42710D01*
X78790Y-42688D01*
X78802Y-42643D01*
X78802Y-42587D01*
X78790Y-42542D01*
X78779Y-42519D01*
X78768Y-42508D01*
X78745Y-42497D01*
X78565Y-42575D02*
X78565Y-42733D01*
X78565Y-42598D02*
X78554Y-42587D01*
X78532Y-42575D01*
X78498Y-42575D01*
X78475Y-42587D01*
X78464Y-42609D01*
X78464Y-42733D01*
X81732Y-42514D02*
X81743Y-42525D01*
X81777Y-42536D01*
X81799Y-42536D01*
X81833Y-42525D01*
X81856Y-42502D01*
X81867Y-42480D01*
X81878Y-42435D01*
X81878Y-42401D01*
X81867Y-42356D01*
X81856Y-42334D01*
X81833Y-42311D01*
X81799Y-42300D01*
X81777Y-42300D01*
X81743Y-42311D01*
X81732Y-42322D01*
X81518Y-42300D02*
X81631Y-42300D01*
X81642Y-42412D01*
X81631Y-42401D01*
X81608Y-42390D01*
X81552Y-42390D01*
X81529Y-42401D01*
X81518Y-42412D01*
X81507Y-42435D01*
X81507Y-42491D01*
X81518Y-42514D01*
X81529Y-42525D01*
X81552Y-42536D01*
X81608Y-42536D01*
X81631Y-42525D01*
X81642Y-42514D01*
X82063Y-41236D02*
X82063Y-41383D01*
X82153Y-41304D01*
X82153Y-41338D01*
X82165Y-41360D01*
X82176Y-41371D01*
X82198Y-41383D01*
X82255Y-41383D01*
X82277Y-41371D01*
X82288Y-41360D01*
X82300Y-41338D01*
X82300Y-41270D01*
X82288Y-41248D01*
X82277Y-41236D01*
X82277Y-41484D02*
X82288Y-41495D01*
X82300Y-41484D01*
X82288Y-41473D01*
X82277Y-41484D01*
X82300Y-41484D01*
X82063Y-41574D02*
X82063Y-41720D01*
X82153Y-41641D01*
X82153Y-41675D01*
X82165Y-41698D01*
X82176Y-41709D01*
X82198Y-41720D01*
X82255Y-41720D01*
X82277Y-41709D01*
X82288Y-41698D01*
X82300Y-41675D01*
X82300Y-41608D01*
X82288Y-41585D01*
X82277Y-41574D01*
X82142Y-41821D02*
X82378Y-41821D01*
X82153Y-41821D02*
X82142Y-41844D01*
X82142Y-41889D01*
X82153Y-41911D01*
X82165Y-41923D01*
X82187Y-41934D01*
X82255Y-41934D01*
X82277Y-41923D01*
X82288Y-41911D01*
X82300Y-41889D01*
X82300Y-41844D01*
X82288Y-41821D01*
X82176Y-42114D02*
X82176Y-42035D01*
X82300Y-42035D02*
X82063Y-42035D01*
X82063Y-42148D01*
X80309Y-37952D02*
X80320Y-37941D01*
X80331Y-37907D01*
X80331Y-37885D01*
X80320Y-37851D01*
X80298Y-37829D01*
X80275Y-37817D01*
X80230Y-37806D01*
X80196Y-37806D01*
X80151Y-37817D01*
X80129Y-37829D01*
X80106Y-37851D01*
X80095Y-37885D01*
X80095Y-37907D01*
X80106Y-37941D01*
X80118Y-37952D01*
X80095Y-38031D02*
X80095Y-38188D01*
X80331Y-38087D01*
X79780Y-38374D02*
X79780Y-38397D01*
X79791Y-38419D01*
X79803Y-38430D01*
X79825Y-38442D01*
X79870Y-38453D01*
X79926Y-38453D01*
X79971Y-38442D01*
X79994Y-38430D01*
X80005Y-38419D01*
X80016Y-38397D01*
X80016Y-38374D01*
X80005Y-38352D01*
X79994Y-38340D01*
X79971Y-38329D01*
X79926Y-38318D01*
X79870Y-38318D01*
X79825Y-38329D01*
X79803Y-38340D01*
X79791Y-38352D01*
X79780Y-38374D01*
X79994Y-38554D02*
X80005Y-38565D01*
X80016Y-38554D01*
X80005Y-38543D01*
X79994Y-38554D01*
X80016Y-38554D01*
X80016Y-38790D02*
X80016Y-38655D01*
X80016Y-38723D02*
X79780Y-38723D01*
X79814Y-38700D01*
X79836Y-38678D01*
X79848Y-38655D01*
X79859Y-38993D02*
X80016Y-38993D01*
X79859Y-38892D02*
X79983Y-38892D01*
X80005Y-38903D01*
X80016Y-38925D01*
X80016Y-38959D01*
X80005Y-38982D01*
X79994Y-38993D01*
X82632Y-39881D02*
X82643Y-39870D01*
X82654Y-39836D01*
X82654Y-39814D01*
X82643Y-39780D01*
X82620Y-39758D01*
X82598Y-39746D01*
X82553Y-39735D01*
X82519Y-39735D01*
X82474Y-39746D01*
X82452Y-39758D01*
X82429Y-39780D01*
X82418Y-39814D01*
X82418Y-39836D01*
X82429Y-39870D01*
X82440Y-39881D01*
X82418Y-40084D02*
X82418Y-40039D01*
X82429Y-40016D01*
X82440Y-40005D01*
X82474Y-39983D01*
X82519Y-39971D01*
X82609Y-39971D01*
X82632Y-39983D01*
X82643Y-39994D01*
X82654Y-40016D01*
X82654Y-40061D01*
X82643Y-40084D01*
X82632Y-40095D01*
X82609Y-40106D01*
X82553Y-40106D01*
X82530Y-40095D01*
X82519Y-40084D01*
X82508Y-40061D01*
X82508Y-40016D01*
X82519Y-39994D01*
X82530Y-39983D01*
X82553Y-39971D01*
X82199Y-39426D02*
X82334Y-39426D01*
X82266Y-39426D02*
X82266Y-39190D01*
X82289Y-39223D01*
X82311Y-39246D01*
X82334Y-39257D01*
X82052Y-39190D02*
X82030Y-39190D01*
X82007Y-39201D01*
X81996Y-39212D01*
X81985Y-39235D01*
X81974Y-39280D01*
X81974Y-39336D01*
X81985Y-39381D01*
X81996Y-39403D01*
X82007Y-39415D01*
X82030Y-39426D01*
X82052Y-39426D01*
X82075Y-39415D01*
X82086Y-39403D01*
X82097Y-39381D01*
X82109Y-39336D01*
X82109Y-39280D01*
X82097Y-39235D01*
X82086Y-39212D01*
X82075Y-39201D01*
X82052Y-39190D01*
X81872Y-39268D02*
X81872Y-39426D01*
X81872Y-39291D02*
X81861Y-39280D01*
X81839Y-39268D01*
X81805Y-39268D01*
X81782Y-39280D01*
X81771Y-39302D01*
X81771Y-39426D01*
X78568Y-39494D02*
X78579Y-39505D01*
X78613Y-39516D01*
X78635Y-39516D01*
X78669Y-39505D01*
X78692Y-39483D01*
X78703Y-39460D01*
X78714Y-39415D01*
X78714Y-39381D01*
X78703Y-39336D01*
X78692Y-39314D01*
X78669Y-39291D01*
X78635Y-39280D01*
X78613Y-39280D01*
X78579Y-39291D01*
X78568Y-39303D01*
X78433Y-39381D02*
X78455Y-39370D01*
X78467Y-39359D01*
X78478Y-39336D01*
X78478Y-39325D01*
X78467Y-39303D01*
X78455Y-39291D01*
X78433Y-39280D01*
X78388Y-39280D01*
X78365Y-39291D01*
X78354Y-39303D01*
X78343Y-39325D01*
X78343Y-39336D01*
X78354Y-39359D01*
X78365Y-39370D01*
X78388Y-39381D01*
X78433Y-39381D01*
X78455Y-39393D01*
X78467Y-39404D01*
X78478Y-39426D01*
X78478Y-39471D01*
X78467Y-39494D01*
X78455Y-39505D01*
X78433Y-39516D01*
X78388Y-39516D01*
X78365Y-39505D01*
X78354Y-39494D01*
X78343Y-39471D01*
X78343Y-39426D01*
X78354Y-39404D01*
X78365Y-39393D01*
X78388Y-39381D01*
X77862Y-39448D02*
X77851Y-39437D01*
X77829Y-39426D01*
X77772Y-39426D01*
X77750Y-39437D01*
X77739Y-39448D01*
X77727Y-39471D01*
X77727Y-39493D01*
X77739Y-39527D01*
X77874Y-39662D01*
X77727Y-39662D01*
X77637Y-39448D02*
X77626Y-39437D01*
X77604Y-39426D01*
X77547Y-39426D01*
X77525Y-39437D01*
X77514Y-39448D01*
X77502Y-39471D01*
X77502Y-39493D01*
X77514Y-39527D01*
X77649Y-39662D01*
X77502Y-39662D01*
X77356Y-39426D02*
X77334Y-39426D01*
X77311Y-39437D01*
X77300Y-39448D01*
X77289Y-39471D01*
X77277Y-39516D01*
X77277Y-39572D01*
X77289Y-39617D01*
X77300Y-39640D01*
X77311Y-39651D01*
X77334Y-39662D01*
X77356Y-39662D01*
X77379Y-39651D01*
X77390Y-39640D01*
X77401Y-39617D01*
X77412Y-39572D01*
X77412Y-39516D01*
X77401Y-39471D01*
X77390Y-39448D01*
X77379Y-39437D01*
X77356Y-39426D01*
X77176Y-39505D02*
X77176Y-39741D01*
X77176Y-39516D02*
X77154Y-39505D01*
X77109Y-39505D01*
X77086Y-39516D01*
X77075Y-39527D01*
X77064Y-39550D01*
X77064Y-39617D01*
X77075Y-39640D01*
X77086Y-39651D01*
X77109Y-39662D01*
X77154Y-39662D01*
X77176Y-39651D01*
X76884Y-39538D02*
X76962Y-39538D01*
X76962Y-39662D02*
X76962Y-39426D01*
X76850Y-39426D01*
X78387Y-31912D02*
X78403Y-31912D01*
X78435Y-31896D01*
X78451Y-31881D01*
X78466Y-31849D01*
X78466Y-31817D01*
X78459Y-31793D01*
X78435Y-31753D01*
X78411Y-31729D01*
X78371Y-31706D01*
X78347Y-31698D01*
X78315Y-31698D01*
X78284Y-31713D01*
X78268Y-31729D01*
X78252Y-31761D01*
X78252Y-31777D01*
X78244Y-32087D02*
X78339Y-31992D01*
X78291Y-32040D02*
X78124Y-31873D01*
X78164Y-31881D01*
X78196Y-31881D01*
X78220Y-31873D01*
X78053Y-32087D02*
X78061Y-32063D01*
X78061Y-32048D01*
X78053Y-32024D01*
X78045Y-32016D01*
X78021Y-32008D01*
X78005Y-32008D01*
X77981Y-32016D01*
X77949Y-32048D01*
X77942Y-32071D01*
X77942Y-32087D01*
X77949Y-32111D01*
X77957Y-32119D01*
X77981Y-32127D01*
X77997Y-32127D01*
X78021Y-32119D01*
X78053Y-32087D01*
X78077Y-32079D01*
X78093Y-32079D01*
X78116Y-32087D01*
X78148Y-32119D01*
X78156Y-32143D01*
X78156Y-32159D01*
X78148Y-32183D01*
X78116Y-32215D01*
X78093Y-32223D01*
X78077Y-32223D01*
X78053Y-32215D01*
X78021Y-32183D01*
X78013Y-32159D01*
X78013Y-32143D01*
X78021Y-32119D01*
X78410Y-32178D02*
X78394Y-32193D01*
X78386Y-32217D01*
X78386Y-32233D01*
X78394Y-32257D01*
X78418Y-32297D01*
X78458Y-32337D01*
X78497Y-32361D01*
X78521Y-32368D01*
X78537Y-32368D01*
X78561Y-32361D01*
X78577Y-32345D01*
X78585Y-32321D01*
X78585Y-32305D01*
X78577Y-32281D01*
X78553Y-32241D01*
X78513Y-32201D01*
X78474Y-32178D01*
X78450Y-32170D01*
X78434Y-32170D01*
X78410Y-32178D01*
X78434Y-32456D02*
X78434Y-32472D01*
X78450Y-32472D01*
X78450Y-32456D01*
X78434Y-32456D01*
X78450Y-32472D01*
X78283Y-32639D02*
X78378Y-32543D01*
X78330Y-32591D02*
X78163Y-32424D01*
X78203Y-32432D01*
X78235Y-32432D01*
X78259Y-32424D01*
X78028Y-32671D02*
X78140Y-32782D01*
X78100Y-32599D02*
X78187Y-32687D01*
X78195Y-32710D01*
X78187Y-32734D01*
X78163Y-32758D01*
X78140Y-32766D01*
X78124Y-32766D01*
X81338Y-42986D02*
X81349Y-42997D01*
X81383Y-43008D01*
X81406Y-43008D01*
X81439Y-42997D01*
X81462Y-42975D01*
X81473Y-42952D01*
X81484Y-42907D01*
X81484Y-42874D01*
X81473Y-42829D01*
X81462Y-42806D01*
X81439Y-42784D01*
X81406Y-42772D01*
X81383Y-42772D01*
X81349Y-42784D01*
X81338Y-42795D01*
X81248Y-42795D02*
X81237Y-42784D01*
X81214Y-42772D01*
X81158Y-42772D01*
X81136Y-42784D01*
X81124Y-42795D01*
X81113Y-42817D01*
X81113Y-42840D01*
X81124Y-42874D01*
X81259Y-43008D01*
X81113Y-43008D01*
X82356Y-43245D02*
X82491Y-43245D01*
X82424Y-43245D02*
X82424Y-43008D01*
X82446Y-43042D01*
X82469Y-43065D01*
X82491Y-43076D01*
X82255Y-43222D02*
X82244Y-43233D01*
X82255Y-43245D01*
X82266Y-43233D01*
X82255Y-43222D01*
X82255Y-43245D01*
X82109Y-43110D02*
X82131Y-43098D01*
X82142Y-43087D01*
X82154Y-43065D01*
X82154Y-43053D01*
X82142Y-43031D01*
X82131Y-43020D01*
X82109Y-43008D01*
X82064Y-43008D01*
X82041Y-43020D01*
X82030Y-43031D01*
X82019Y-43053D01*
X82019Y-43065D01*
X82030Y-43087D01*
X82041Y-43098D01*
X82064Y-43110D01*
X82109Y-43110D01*
X82131Y-43121D01*
X82142Y-43132D01*
X82154Y-43155D01*
X82154Y-43200D01*
X82142Y-43222D01*
X82131Y-43233D01*
X82109Y-43245D01*
X82064Y-43245D01*
X82041Y-43233D01*
X82030Y-43222D01*
X82019Y-43200D01*
X82019Y-43155D01*
X82030Y-43132D01*
X82041Y-43121D01*
X82064Y-43110D01*
X81917Y-43087D02*
X81917Y-43323D01*
X81917Y-43098D02*
X81895Y-43087D01*
X81850Y-43087D01*
X81827Y-43098D01*
X81816Y-43110D01*
X81805Y-43132D01*
X81805Y-43200D01*
X81816Y-43222D01*
X81827Y-43233D01*
X81850Y-43245D01*
X81895Y-43245D01*
X81917Y-43233D01*
X81625Y-43121D02*
X81704Y-43121D01*
X81704Y-43245D02*
X81704Y-43008D01*
X81591Y-43008D01*
X81985Y-25157D02*
X81749Y-25157D01*
X81749Y-25213D01*
X81760Y-25247D01*
X81782Y-25269D01*
X81805Y-25281D01*
X81850Y-25292D01*
X81884Y-25292D01*
X81929Y-25281D01*
X81951Y-25269D01*
X81974Y-25247D01*
X81985Y-25213D01*
X81985Y-25157D01*
X81917Y-25382D02*
X81917Y-25494D01*
X81985Y-25359D02*
X81749Y-25438D01*
X81985Y-25517D01*
X81771Y-25584D02*
X81760Y-25596D01*
X81749Y-25618D01*
X81749Y-25674D01*
X81760Y-25697D01*
X81771Y-25708D01*
X81794Y-25719D01*
X81816Y-25719D01*
X81850Y-25708D01*
X81985Y-25573D01*
X81985Y-25719D01*
X81974Y-26085D02*
X81985Y-26119D01*
X81985Y-26175D01*
X81974Y-26197D01*
X81962Y-26209D01*
X81940Y-26220D01*
X81917Y-26220D01*
X81895Y-26209D01*
X81884Y-26197D01*
X81872Y-26175D01*
X81861Y-26130D01*
X81850Y-26107D01*
X81839Y-26096D01*
X81816Y-26085D01*
X81794Y-26085D01*
X81771Y-26096D01*
X81760Y-26107D01*
X81749Y-26130D01*
X81749Y-26186D01*
X81760Y-26220D01*
X81749Y-26287D02*
X81749Y-26422D01*
X81985Y-26355D02*
X81749Y-26355D01*
X81985Y-26625D02*
X81985Y-26490D01*
X81985Y-26557D02*
X81749Y-26557D01*
X81782Y-26535D01*
X81805Y-26512D01*
X81816Y-26490D01*
X81974Y-26715D02*
X81985Y-26749D01*
X81985Y-26805D01*
X81974Y-26827D01*
X81962Y-26839D01*
X81940Y-26850D01*
X81917Y-26850D01*
X81895Y-26839D01*
X81884Y-26827D01*
X81872Y-26805D01*
X81861Y-26760D01*
X81850Y-26737D01*
X81839Y-26726D01*
X81816Y-26715D01*
X81794Y-26715D01*
X81771Y-26726D01*
X81760Y-26737D01*
X81749Y-26760D01*
X81749Y-26816D01*
X81760Y-26850D01*
X81985Y-27075D02*
X81985Y-26940D01*
X81985Y-27007D02*
X81749Y-27007D01*
X81782Y-26985D01*
X81805Y-26962D01*
X81816Y-26940D01*
X81749Y-27221D02*
X81749Y-27244D01*
X81760Y-27266D01*
X81771Y-27277D01*
X81794Y-27289D01*
X81839Y-27300D01*
X81895Y-27300D01*
X81940Y-27289D01*
X81962Y-27277D01*
X81974Y-27266D01*
X81985Y-27244D01*
X81985Y-27221D01*
X81974Y-27199D01*
X81962Y-27187D01*
X81940Y-27176D01*
X81895Y-27165D01*
X81839Y-27165D01*
X81794Y-27176D01*
X81771Y-27187D01*
X81760Y-27199D01*
X81749Y-27221D01*
X80365Y-29055D02*
X80365Y-28976D01*
X80489Y-28976D02*
X80253Y-28976D01*
X80253Y-29088D01*
X80253Y-29156D02*
X80253Y-29302D01*
X80343Y-29223D01*
X80343Y-29257D01*
X80354Y-29280D01*
X80365Y-29291D01*
X80388Y-29302D01*
X80444Y-29302D01*
X80466Y-29291D01*
X80478Y-29280D01*
X80489Y-29257D01*
X80489Y-29190D01*
X80478Y-29167D01*
X80466Y-29156D01*
M02*
