G04 (created by PCBNEW (2013-07-07 BZR 4022)-stable) date 26/11/2014 23:59:09*
%MOIN*%
G04 Gerber Fmt 3.4, Leading zero omitted, Abs format*
%FSLAX34Y34*%
G01*
G70*
G90*
G04 APERTURE LIST*
%ADD10C,0.00590551*%
%ADD11R,0.078774X0.078774*%
%ADD12C,0.078774*%
%ADD13C,0.0944882*%
%ADD14C,0.15748*%
%ADD15C,0.153574*%
%ADD16C,0.062974*%
%ADD17R,0.073874X0.073874*%
%ADD18C,0.073874*%
%ADD19C,0.244074*%
%ADD20R,0.066974X0.066974*%
%ADD21C,0.066974*%
%ADD22R,0.0669291X0.0669291*%
%ADD23C,0.0669291*%
%ADD24R,0.017674X0.037874*%
%ADD25R,0.059074X0.059074*%
%ADD26C,0.059074*%
%ADD27R,0.070874X0.055074*%
%ADD28C,0.106299*%
G04 APERTURE END LIST*
G54D10*
G54D11*
X94015Y-37582D03*
G54D12*
X94015Y-38582D03*
X94015Y-39582D03*
G54D13*
X87795Y-28267D03*
X87795Y-29842D03*
X87795Y-31417D03*
G54D14*
X87795Y-26594D03*
X87795Y-33090D03*
G54D15*
X64763Y-44173D03*
X64763Y-48897D03*
G54D16*
X68263Y-46285D03*
X67263Y-46785D03*
X68263Y-47285D03*
X67263Y-45785D03*
X68264Y-45285D03*
X67264Y-47785D03*
G54D15*
X64763Y-37874D03*
X64763Y-42598D03*
G54D16*
X68263Y-39986D03*
X67263Y-40486D03*
X68263Y-40986D03*
X67263Y-39486D03*
X68264Y-38986D03*
X67264Y-41486D03*
G54D17*
X94173Y-46996D03*
G54D18*
X94173Y-45996D03*
G54D19*
X89212Y-24960D03*
X70866Y-24960D03*
G54D20*
X87240Y-40220D03*
G54D21*
X87240Y-41220D03*
X87240Y-42220D03*
X90240Y-42220D03*
X90240Y-41220D03*
X90240Y-40220D03*
G54D22*
X68740Y-36145D03*
G54D23*
X68740Y-35145D03*
X68740Y-34145D03*
X68740Y-33145D03*
G54D22*
X87011Y-23622D03*
G54D23*
X86011Y-23622D03*
X85011Y-23622D03*
X84011Y-23622D03*
G54D22*
X70314Y-35173D03*
G54D23*
X70314Y-34173D03*
X70314Y-33173D03*
G54D24*
X88425Y-35196D03*
X88228Y-35196D03*
X88031Y-35196D03*
X87834Y-35196D03*
X87637Y-35196D03*
X87637Y-37558D03*
X87834Y-37558D03*
X88031Y-37558D03*
X88228Y-37558D03*
X88425Y-37558D03*
G54D25*
X70629Y-43306D03*
G54D26*
X70629Y-41732D03*
G54D27*
X75771Y-41235D03*
X75771Y-43015D03*
X72731Y-41235D03*
X72731Y-43015D03*
X75767Y-42125D03*
X82071Y-41235D03*
X82071Y-43015D03*
X79031Y-41235D03*
X79031Y-43015D03*
X82067Y-42125D03*
X72731Y-25456D03*
X72731Y-23676D03*
X75771Y-25456D03*
X75771Y-23676D03*
X72735Y-24566D03*
X79031Y-25456D03*
X79031Y-23676D03*
X82071Y-25456D03*
X82071Y-23676D03*
X79035Y-24566D03*
G54D22*
X67007Y-33224D03*
G54D23*
X67007Y-34224D03*
X67007Y-35224D03*
X67007Y-36224D03*
G54D28*
X92165Y-26338D03*
X94133Y-26338D03*
X94133Y-24370D03*
X92165Y-24370D03*
X66574Y-29015D03*
X64606Y-29015D03*
X64606Y-30984D03*
X66574Y-30984D03*
X92204Y-44173D03*
X94173Y-44173D03*
X94173Y-42204D03*
X92204Y-42204D03*
X92204Y-35157D03*
X94173Y-35157D03*
X94173Y-33188D03*
X92204Y-33188D03*
X66574Y-24291D03*
X64606Y-24291D03*
X64606Y-26259D03*
X66574Y-26259D03*
M02*
