G04 (created by PCBNEW (2013-07-07 BZR 4022)-stable) date 26/11/2014 23:59:09*
%MOIN*%
G04 Gerber Fmt 3.4, Leading zero omitted, Abs format*
%FSLAX34Y34*%
G01*
G70*
G90*
G04 APERTURE LIST*
%ADD10C,0.00590551*%
%ADD11R,0.0709X0.0709*%
%ADD12C,0.0709*%
%ADD13C,0.0866142*%
%ADD14C,0.149606*%
%ADD15R,0.0433071X0.0433071*%
%ADD16C,0.1457*%
%ADD17C,0.0551*%
%ADD18R,0.066X0.066*%
%ADD19C,0.066*%
%ADD20C,0.2362*%
%ADD21R,0.0591X0.0591*%
%ADD22C,0.0591*%
%ADD23R,0.0590551X0.0590551*%
%ADD24C,0.0590551*%
%ADD25R,0.0098X0.03*%
%ADD26R,0.0512X0.0512*%
%ADD27C,0.0512*%
%ADD28R,0.063X0.0472*%
%ADD29C,0.0984252*%
%ADD30C,0.0354331*%
%ADD31C,0.00787402*%
%ADD32C,0.019685*%
%ADD33C,0.0787402*%
%ADD34C,0.0590551*%
%ADD35C,0.0669291*%
%ADD36C,0.00984252*%
%ADD37C,0.0393701*%
G04 APERTURE END LIST*
G54D10*
G54D11*
X94015Y-37582D03*
G54D12*
X94015Y-38582D03*
X94015Y-39582D03*
G54D13*
X87795Y-28267D03*
X87795Y-29842D03*
X87795Y-31417D03*
G54D14*
X87795Y-26594D03*
X87795Y-33090D03*
G54D15*
X69291Y-29763D03*
X69291Y-29330D03*
X69291Y-30196D03*
X68858Y-29763D03*
X68425Y-29763D03*
X68858Y-29330D03*
X68425Y-29330D03*
X68425Y-30196D03*
X68858Y-30196D03*
X70157Y-29330D03*
X69724Y-29330D03*
X70157Y-29763D03*
X69724Y-29763D03*
X70157Y-30196D03*
X69724Y-30196D03*
G54D16*
X64763Y-44173D03*
X64763Y-48897D03*
G54D17*
X68263Y-46285D03*
X67263Y-46785D03*
X68263Y-47285D03*
X67263Y-45785D03*
X68264Y-45285D03*
X67264Y-47785D03*
G54D16*
X64763Y-37874D03*
X64763Y-42598D03*
G54D17*
X68263Y-39986D03*
X67263Y-40486D03*
X68263Y-40986D03*
X67263Y-39486D03*
X68264Y-38986D03*
X67264Y-41486D03*
G54D15*
X80238Y-40102D03*
X80238Y-40535D03*
X80671Y-40102D03*
X80671Y-40535D03*
G54D18*
X94173Y-46996D03*
G54D19*
X94173Y-45996D03*
G54D20*
X89212Y-24960D03*
X70866Y-24960D03*
G54D21*
X87240Y-40220D03*
G54D22*
X87240Y-41220D03*
X87240Y-42220D03*
X90240Y-42220D03*
X90240Y-41220D03*
X90240Y-40220D03*
G54D23*
X68740Y-36145D03*
G54D24*
X68740Y-35145D03*
X68740Y-34145D03*
X68740Y-33145D03*
G54D23*
X87011Y-23622D03*
G54D24*
X86011Y-23622D03*
X85011Y-23622D03*
X84011Y-23622D03*
G54D23*
X70314Y-35173D03*
G54D24*
X70314Y-34173D03*
X70314Y-33173D03*
G54D25*
X88425Y-35196D03*
X88228Y-35196D03*
X88031Y-35196D03*
X87834Y-35196D03*
X87637Y-35196D03*
X87637Y-37558D03*
X87834Y-37558D03*
X88031Y-37558D03*
X88228Y-37558D03*
X88425Y-37558D03*
G54D26*
X70629Y-43306D03*
G54D27*
X70629Y-41732D03*
G54D28*
X75771Y-41235D03*
X75771Y-43015D03*
X72731Y-41235D03*
X72731Y-43015D03*
X75767Y-42125D03*
X82071Y-41235D03*
X82071Y-43015D03*
X79031Y-41235D03*
X79031Y-43015D03*
X82067Y-42125D03*
X72731Y-25456D03*
X72731Y-23676D03*
X75771Y-25456D03*
X75771Y-23676D03*
X72735Y-24566D03*
X79031Y-25456D03*
X79031Y-23676D03*
X82071Y-25456D03*
X82071Y-23676D03*
X79035Y-24566D03*
G54D15*
X80492Y-26437D03*
X80925Y-26437D03*
X80492Y-26003D03*
X80925Y-26003D03*
X80059Y-26437D03*
X80059Y-26003D03*
X81358Y-26437D03*
X81358Y-26003D03*
G54D23*
X67007Y-33224D03*
G54D24*
X67007Y-34224D03*
X67007Y-35224D03*
X67007Y-36224D03*
G54D29*
X92165Y-26338D03*
X94133Y-26338D03*
X94133Y-24370D03*
X92165Y-24370D03*
X66574Y-29015D03*
X64606Y-29015D03*
X64606Y-30984D03*
X66574Y-30984D03*
X92204Y-44173D03*
X94173Y-44173D03*
X94173Y-42204D03*
X92204Y-42204D03*
X92204Y-35157D03*
X94173Y-35157D03*
X94173Y-33188D03*
X92204Y-33188D03*
X66574Y-24291D03*
X64606Y-24291D03*
X64606Y-26259D03*
X66574Y-26259D03*
G54D30*
X82503Y-40543D03*
X82674Y-41124D03*
X78992Y-41767D03*
X79169Y-39539D03*
X80187Y-38468D03*
X76284Y-34743D03*
X77570Y-32661D03*
X79887Y-32352D03*
X82860Y-32865D03*
X76669Y-35818D03*
X77209Y-36863D03*
X82543Y-37627D03*
X75495Y-28941D03*
X77975Y-30543D03*
X72430Y-32745D03*
X74826Y-35583D03*
X85602Y-38812D03*
X80190Y-36171D03*
X74086Y-27930D03*
X81115Y-32186D03*
X76110Y-33337D03*
X75171Y-31674D03*
X74329Y-29779D03*
X81088Y-31754D03*
X80261Y-34406D03*
X78985Y-34033D03*
X73415Y-39562D03*
X79230Y-34762D03*
X81915Y-38728D03*
X79534Y-37000D03*
X81367Y-37604D03*
X79904Y-36774D03*
X85960Y-36499D03*
X78147Y-33512D03*
X77512Y-34102D03*
X81762Y-34603D03*
X77833Y-33812D03*
X81200Y-34792D03*
X92518Y-39948D03*
X79697Y-34790D03*
X78699Y-34843D03*
X72179Y-36219D03*
X79825Y-34371D03*
X74498Y-35865D03*
X80112Y-33831D03*
X82698Y-40145D03*
X82495Y-39539D03*
X78082Y-39469D03*
X78997Y-42300D03*
X81481Y-43302D03*
X81033Y-42655D03*
X70397Y-30707D03*
X79832Y-27884D03*
X75355Y-26743D03*
X77258Y-24111D03*
X91044Y-31020D03*
X81278Y-29347D03*
X91043Y-28885D03*
X75728Y-30496D03*
X75005Y-28632D03*
X71113Y-40884D03*
X87608Y-34594D03*
X87832Y-37972D03*
X71918Y-42170D03*
X81674Y-38151D03*
X82580Y-38306D03*
X81098Y-41474D03*
X84505Y-36555D03*
X83608Y-35998D03*
X83006Y-37120D03*
X76461Y-31927D03*
X76918Y-31041D03*
X82057Y-30124D03*
X75838Y-35030D03*
X78757Y-31807D03*
X81807Y-32549D03*
X82677Y-43228D03*
X83858Y-43228D03*
X85039Y-43228D03*
X86220Y-43228D03*
X87401Y-43228D03*
X88503Y-43228D03*
X88503Y-42125D03*
X86220Y-42125D03*
X85039Y-42125D03*
X86220Y-41023D03*
X88503Y-41023D03*
X85039Y-41023D03*
X88503Y-39842D03*
X86220Y-39763D03*
X84173Y-41732D03*
X84960Y-39763D03*
X88503Y-38818D03*
X86929Y-38582D03*
X83543Y-38661D03*
X84409Y-38976D03*
X84330Y-40551D03*
X79685Y-43228D03*
X78346Y-43228D03*
X77086Y-43228D03*
X75118Y-43228D03*
X73622Y-43228D03*
X71968Y-43228D03*
X68818Y-43228D03*
X67086Y-43228D03*
X65826Y-43228D03*
X65826Y-41889D03*
X69055Y-41889D03*
X70078Y-42362D03*
X71889Y-41023D03*
X69370Y-40157D03*
X64724Y-40944D03*
X65984Y-40314D03*
X64881Y-39370D03*
X66299Y-39055D03*
X66062Y-37874D03*
X67559Y-37716D03*
X69212Y-38582D03*
X69055Y-37322D03*
X64409Y-36062D03*
X65826Y-35196D03*
X64409Y-34251D03*
X64409Y-32992D03*
X67559Y-28110D03*
X65590Y-25275D03*
X65669Y-23543D03*
X68188Y-23543D03*
X68425Y-24960D03*
X69763Y-23543D03*
X72519Y-26771D03*
X70787Y-28188D03*
X72204Y-30944D03*
X73385Y-30078D03*
X73149Y-32204D03*
X74566Y-32204D03*
X68503Y-31653D03*
X74251Y-33858D03*
X75511Y-33779D03*
X71732Y-34960D03*
X73385Y-35748D03*
X70393Y-37401D03*
X70708Y-38740D03*
X74015Y-37007D03*
X75511Y-36929D03*
X72834Y-38425D03*
X74566Y-37952D03*
X74881Y-39606D03*
X75984Y-38818D03*
X77165Y-37952D03*
X74173Y-40314D03*
X73622Y-41889D03*
X74960Y-42283D03*
X77086Y-42204D03*
X78346Y-42204D03*
X77007Y-41181D03*
X75984Y-40157D03*
X77401Y-39842D03*
X78740Y-38031D03*
X78110Y-37007D03*
X84566Y-34015D03*
X85433Y-33779D03*
X86535Y-35905D03*
X85590Y-37322D03*
X85748Y-35590D03*
X86535Y-33779D03*
X85433Y-32519D03*
X82125Y-31811D03*
X82598Y-30787D03*
X81968Y-28897D03*
X83307Y-29212D03*
X83385Y-27952D03*
X83700Y-26535D03*
X82283Y-24566D03*
X83307Y-24566D03*
X83307Y-25590D03*
X84251Y-24566D03*
X84251Y-25590D03*
X87007Y-24645D03*
X89842Y-27007D03*
X88976Y-27716D03*
X86614Y-28661D03*
X86692Y-30236D03*
X90000Y-29448D03*
X90078Y-30708D03*
X88818Y-31574D03*
X86850Y-32125D03*
X87244Y-37495D03*
X79896Y-24994D03*
X80738Y-24926D03*
X85194Y-30975D03*
X83714Y-34315D03*
X82938Y-35504D03*
X80630Y-35707D03*
X81063Y-36689D03*
X85147Y-36346D03*
X84485Y-32217D03*
X84662Y-29168D03*
X83280Y-33084D03*
X83381Y-33509D03*
X83583Y-33895D03*
X92185Y-28838D03*
X84642Y-29797D03*
G54D31*
X88237Y-37820D02*
X88237Y-37820D01*
X88348Y-37811D02*
X88371Y-37780D01*
X88273Y-37833D02*
X88348Y-37811D01*
X88237Y-37820D02*
X88273Y-37833D01*
X88407Y-37732D02*
X88371Y-37780D01*
X88415Y-37715D02*
X88415Y-37708D01*
X88411Y-37727D02*
X88415Y-37715D01*
X88407Y-37732D02*
X88411Y-37727D01*
X88415Y-37669D02*
X88415Y-37708D01*
X88425Y-37558D02*
X88415Y-37669D01*
G54D32*
X80791Y-32817D02*
X79887Y-32352D01*
X80995Y-32889D02*
X81068Y-32894D01*
X80855Y-32850D02*
X80995Y-32889D01*
X80791Y-32817D02*
X80855Y-32850D01*
X81780Y-32941D02*
X81068Y-32894D01*
X81822Y-32942D02*
X81836Y-32941D01*
X81794Y-32942D02*
X81822Y-32942D01*
X81780Y-32941D02*
X81794Y-32942D01*
X82860Y-32865D02*
X81836Y-32941D01*
X79555Y-40942D02*
X79169Y-39539D01*
X79558Y-40956D02*
X79555Y-40942D01*
X79562Y-40985D02*
X79558Y-40956D01*
X79562Y-41000D02*
X79562Y-40985D01*
X79562Y-41471D02*
X79562Y-41000D01*
X79562Y-41509D02*
X79562Y-41471D01*
X79537Y-41579D02*
X79562Y-41509D01*
X79490Y-41637D02*
X79537Y-41579D01*
X79427Y-41676D02*
X79490Y-41637D01*
X79390Y-41683D02*
X79427Y-41676D01*
X78992Y-41767D02*
X79390Y-41683D01*
X80187Y-38468D02*
X79169Y-39539D01*
X76284Y-34743D02*
X77570Y-32661D01*
X83054Y-40312D02*
X82674Y-41124D01*
X83095Y-40091D02*
X83071Y-40019D01*
X83087Y-40243D02*
X83095Y-40091D01*
X83054Y-40312D02*
X83087Y-40243D01*
X82868Y-39414D02*
X83071Y-40019D01*
X82453Y-39140D02*
X82380Y-39163D01*
X82606Y-39154D02*
X82453Y-39140D01*
X82743Y-39224D02*
X82606Y-39154D01*
X82843Y-39341D02*
X82743Y-39224D01*
X82868Y-39414D02*
X82843Y-39341D01*
X82076Y-39256D02*
X82380Y-39163D01*
X81974Y-39287D02*
X82076Y-39256D01*
X81760Y-39268D02*
X81974Y-39287D01*
X81665Y-39220D02*
X81760Y-39268D01*
X80187Y-38468D02*
X81665Y-39220D01*
X77209Y-36863D02*
X76669Y-35818D01*
X82887Y-37698D02*
X82543Y-37627D01*
X82923Y-37704D02*
X82936Y-37706D01*
X82899Y-37700D02*
X82923Y-37704D01*
X82887Y-37698D02*
X82899Y-37700D01*
X87566Y-38262D02*
X82936Y-37706D01*
X77570Y-32661D02*
X79887Y-32352D01*
G54D31*
X88218Y-37669D02*
X88228Y-37558D01*
X88218Y-37708D02*
X88218Y-37669D01*
X88221Y-37751D02*
X88225Y-37764D01*
X88218Y-37723D02*
X88221Y-37751D01*
X88218Y-37708D02*
X88218Y-37723D01*
X88237Y-37820D02*
X88225Y-37764D01*
X87771Y-38301D02*
X87566Y-38262D01*
X88130Y-38136D02*
X88149Y-38079D01*
X88054Y-38230D02*
X88130Y-38136D01*
X87949Y-38291D02*
X88054Y-38230D01*
X87830Y-38312D02*
X87949Y-38291D01*
X87771Y-38301D02*
X87830Y-38312D01*
X88237Y-37820D02*
X88149Y-38079D01*
G54D32*
X82503Y-40543D02*
X82674Y-41124D01*
G54D31*
X87705Y-38288D02*
X87580Y-38320D01*
X87705Y-38288D02*
X87600Y-38214D01*
G54D32*
X76056Y-30714D02*
X76241Y-30435D01*
X76012Y-30779D02*
X76056Y-30714D01*
X75882Y-30867D02*
X76012Y-30779D01*
X75805Y-30882D02*
X75882Y-30867D01*
X66669Y-32716D02*
X75805Y-30882D01*
X66496Y-32891D02*
X66496Y-32929D01*
X66521Y-32821D02*
X66496Y-32891D01*
X66568Y-32762D02*
X66521Y-32821D01*
X66633Y-32724D02*
X66568Y-32762D01*
X66669Y-32716D02*
X66633Y-32724D01*
X66496Y-36224D02*
X66496Y-32929D01*
X66503Y-36314D02*
X66510Y-36343D01*
X66496Y-36254D02*
X66503Y-36314D01*
X66496Y-36224D02*
X66496Y-36254D01*
X67263Y-39486D02*
X66510Y-36343D01*
X75495Y-28941D02*
X76241Y-30435D01*
X70364Y-43464D02*
X68223Y-43673D01*
X70366Y-43464D02*
X70364Y-43464D01*
X70371Y-43464D02*
X70366Y-43464D01*
X70373Y-43464D02*
X70371Y-43464D01*
X70472Y-43464D02*
X70373Y-43464D01*
X70629Y-43306D02*
X70472Y-43464D01*
X66835Y-40244D02*
X67263Y-39486D01*
X66771Y-40422D02*
X66771Y-40486D01*
X66804Y-40299D02*
X66771Y-40422D01*
X66835Y-40244D02*
X66804Y-40299D01*
X66772Y-41486D02*
X66771Y-40486D01*
X66819Y-41709D02*
X66864Y-41772D01*
X66772Y-41563D02*
X66819Y-41709D01*
X66772Y-41486D02*
X66772Y-41563D01*
X68223Y-43673D02*
X66864Y-41772D01*
X77975Y-30543D02*
X76241Y-30435D01*
X67263Y-45785D02*
X68223Y-43673D01*
G54D31*
X72430Y-32745D02*
X74826Y-35583D01*
X80845Y-36888D02*
X80190Y-36171D01*
X80885Y-36925D02*
X80899Y-36935D01*
X80857Y-36902D02*
X80885Y-36925D01*
X80845Y-36888D02*
X80857Y-36902D01*
X82358Y-37905D02*
X80899Y-36935D01*
X82464Y-37954D02*
X82502Y-37959D01*
X82391Y-37927D02*
X82464Y-37954D01*
X82358Y-37905D02*
X82391Y-37927D01*
X82621Y-37973D02*
X82502Y-37959D01*
X82633Y-37975D02*
X82621Y-37973D01*
X82659Y-37980D02*
X82633Y-37975D01*
X82671Y-37984D02*
X82659Y-37980D01*
X85602Y-38812D02*
X82671Y-37984D01*
X78157Y-30262D02*
X81115Y-32186D01*
X78157Y-30262D02*
X78157Y-30262D01*
X75677Y-28660D02*
X78157Y-30262D01*
X75673Y-28658D02*
X75677Y-28660D01*
X75183Y-28349D02*
X75673Y-28658D01*
X75138Y-28325D02*
X75122Y-28319D01*
X75169Y-28340D02*
X75138Y-28325D01*
X75183Y-28349D02*
X75169Y-28340D01*
X74086Y-27930D02*
X75122Y-28319D01*
X73007Y-25653D02*
X72731Y-25456D01*
X73007Y-25692D02*
X73007Y-25653D01*
X73008Y-25702D02*
X73009Y-25705D01*
X73007Y-25696D02*
X73008Y-25702D01*
X73007Y-25692D02*
X73007Y-25696D01*
X74329Y-29779D02*
X73009Y-25705D01*
X76110Y-33337D02*
X75171Y-31674D01*
X75496Y-25456D02*
X75771Y-25456D01*
X75456Y-25456D02*
X75496Y-25456D01*
X73046Y-25456D02*
X75456Y-25456D01*
X73007Y-25456D02*
X73046Y-25456D01*
X72731Y-25456D02*
X73007Y-25456D01*
X82346Y-25653D02*
X82071Y-25456D01*
X82346Y-25692D02*
X82346Y-25653D01*
X82346Y-25693D02*
X82346Y-25692D01*
X82392Y-30120D02*
X82346Y-25693D01*
X82393Y-30182D02*
X82392Y-30120D01*
X82350Y-30296D02*
X82393Y-30182D01*
X82310Y-30343D02*
X82350Y-30296D01*
X81088Y-31754D02*
X82310Y-30343D01*
X81795Y-25260D02*
X82071Y-25456D01*
X81795Y-25220D02*
X81795Y-25260D01*
X81785Y-25192D02*
X81775Y-25186D01*
X81795Y-25210D02*
X81785Y-25192D01*
X81795Y-25220D02*
X81795Y-25210D01*
X80886Y-24670D02*
X81775Y-25186D01*
X80759Y-24627D02*
X80714Y-24631D01*
X80847Y-24647D02*
X80759Y-24627D01*
X80886Y-24670D02*
X80847Y-24647D01*
X79872Y-24699D02*
X80714Y-24631D01*
X79715Y-24754D02*
X79677Y-24796D01*
X79816Y-24704D02*
X79715Y-24754D01*
X79872Y-24699D02*
X79816Y-24704D01*
X79317Y-25194D02*
X79677Y-24796D01*
X79306Y-25213D02*
X79306Y-25220D01*
X79312Y-25199D02*
X79306Y-25213D01*
X79317Y-25194D02*
X79312Y-25199D01*
X79306Y-25260D02*
X79306Y-25220D01*
X79031Y-25456D02*
X79306Y-25260D01*
X79952Y-34938D02*
X80261Y-34406D01*
X79945Y-34950D02*
X79952Y-34938D01*
X76053Y-40978D02*
X79945Y-34950D01*
X76047Y-40994D02*
X76047Y-41000D01*
X76050Y-40983D02*
X76047Y-40994D01*
X76053Y-40978D02*
X76050Y-40983D01*
X76047Y-41039D02*
X76047Y-41000D01*
X75771Y-41235D02*
X76047Y-41039D01*
X75496Y-41235D02*
X75771Y-41235D01*
X75456Y-41235D02*
X75496Y-41235D01*
X73046Y-41235D02*
X75456Y-41235D01*
X73007Y-41235D02*
X73046Y-41235D01*
X72731Y-41235D02*
X73007Y-41235D01*
X79840Y-34076D02*
X78985Y-34033D01*
X79853Y-34077D02*
X79840Y-34076D01*
X79879Y-34080D02*
X79853Y-34077D01*
X79892Y-34083D02*
X79879Y-34080D01*
X80045Y-34119D02*
X79892Y-34083D01*
X80129Y-34127D02*
X80157Y-34123D01*
X80073Y-34125D02*
X80129Y-34127D01*
X80045Y-34119D02*
X80073Y-34125D01*
X80216Y-34114D02*
X80157Y-34123D01*
X80300Y-34101D02*
X80216Y-34114D01*
X80455Y-34167D02*
X80300Y-34101D01*
X80551Y-34304D02*
X80455Y-34167D01*
X80561Y-34472D02*
X80551Y-34304D01*
X80522Y-34546D02*
X80561Y-34472D01*
X79274Y-36859D02*
X80522Y-34546D01*
X79237Y-37065D02*
X79268Y-37129D01*
X79240Y-36922D02*
X79237Y-37065D01*
X79274Y-36859D02*
X79240Y-36922D01*
X79740Y-38100D02*
X79268Y-37129D01*
X78834Y-41039D02*
X79031Y-41235D01*
X78834Y-41000D02*
X78834Y-41039D01*
X78834Y-39539D02*
X78834Y-41000D01*
X78834Y-39489D02*
X78834Y-39539D01*
X78864Y-39392D02*
X78834Y-39489D01*
X78892Y-39351D02*
X78864Y-39392D01*
X79740Y-38100D02*
X78892Y-39351D01*
X80211Y-38134D02*
X79740Y-38100D01*
X80248Y-38137D02*
X80211Y-38134D01*
X80320Y-38159D02*
X80248Y-38137D01*
X80353Y-38177D02*
X80320Y-38159D01*
X81768Y-38985D02*
X80353Y-38177D01*
X81943Y-39029D02*
X82001Y-39011D01*
X81822Y-39015D02*
X81943Y-39029D01*
X81768Y-38985D02*
X81822Y-39015D01*
X82305Y-38918D02*
X82001Y-39011D01*
X82386Y-38893D02*
X82305Y-38918D01*
X82553Y-38887D02*
X82386Y-38893D01*
X82717Y-38923D02*
X82553Y-38887D01*
X82867Y-39000D02*
X82717Y-38923D01*
X82991Y-39113D02*
X82867Y-39000D01*
X83084Y-39253D02*
X82991Y-39113D01*
X83110Y-39333D02*
X83084Y-39253D01*
X83314Y-39938D02*
X83110Y-39333D01*
X83349Y-40043D02*
X83314Y-39938D01*
X83346Y-40265D02*
X83349Y-40043D01*
X83307Y-40369D02*
X83346Y-40265D01*
X82992Y-41223D02*
X83307Y-40369D01*
X82979Y-41256D02*
X82992Y-41223D01*
X82979Y-41256D02*
X82979Y-41256D01*
X82958Y-41305D02*
X82979Y-41256D01*
X82889Y-41384D02*
X82958Y-41305D01*
X82798Y-41437D02*
X82889Y-41384D01*
X82696Y-41460D02*
X82798Y-41437D01*
X82643Y-41456D02*
X82696Y-41460D01*
X82389Y-41432D02*
X82643Y-41456D01*
X82386Y-41432D02*
X82389Y-41432D01*
X82346Y-41432D02*
X82386Y-41432D01*
X82071Y-41235D02*
X82346Y-41432D01*
X77475Y-37065D02*
X79230Y-34762D01*
X77456Y-37090D02*
X77475Y-37065D01*
X77409Y-37132D02*
X77456Y-37090D01*
X77383Y-37148D02*
X77409Y-37132D01*
X73415Y-39562D02*
X77383Y-37148D01*
X81477Y-38421D02*
X79534Y-37000D01*
X81477Y-38421D02*
X81482Y-38425D01*
X81915Y-38728D02*
X81482Y-38425D01*
X81367Y-37604D02*
X79904Y-36774D01*
G54D33*
X94173Y-44173D02*
X92204Y-44173D01*
G54D34*
X93565Y-38865D02*
X94015Y-38582D01*
X93164Y-39516D02*
X93170Y-39630D01*
X93211Y-39295D02*
X93164Y-39516D01*
X93315Y-39093D02*
X93211Y-39295D01*
X93469Y-38925D02*
X93315Y-39093D01*
X93565Y-38865D02*
X93469Y-38925D01*
X93186Y-39910D02*
X93170Y-39630D01*
X93187Y-39947D02*
X93186Y-39910D01*
X93188Y-42204D02*
X93187Y-39947D01*
X93188Y-42204D02*
X93188Y-42204D01*
X93256Y-42584D02*
X93320Y-42696D01*
X93188Y-42334D02*
X93256Y-42584D01*
X93188Y-42204D02*
X93188Y-42334D01*
X94173Y-44173D02*
X93320Y-42696D01*
G54D31*
X80115Y-33536D02*
X78147Y-33512D01*
X80193Y-33537D02*
X80115Y-33536D01*
X80329Y-33616D02*
X80193Y-33537D01*
X80368Y-33683D02*
X80329Y-33616D01*
X80654Y-34179D02*
X80368Y-33683D01*
X80664Y-34196D02*
X80654Y-34179D01*
X80680Y-34232D02*
X80664Y-34196D01*
X80687Y-34250D02*
X80680Y-34232D01*
X80923Y-34894D02*
X80687Y-34250D01*
X81058Y-35062D02*
X81131Y-35079D01*
X80948Y-34963D02*
X81058Y-35062D01*
X80923Y-34894D02*
X80948Y-34963D01*
X81619Y-35197D02*
X81131Y-35079D01*
X81728Y-35214D02*
X81765Y-35214D01*
X81655Y-35206D02*
X81728Y-35214D01*
X81619Y-35197D02*
X81655Y-35206D01*
X82937Y-35209D02*
X81765Y-35214D01*
X82965Y-35208D02*
X82937Y-35209D01*
X83018Y-35218D02*
X82965Y-35208D01*
X83044Y-35228D02*
X83018Y-35218D01*
X85252Y-36070D02*
X83044Y-35228D01*
X85265Y-36075D02*
X85252Y-36070D01*
X85290Y-36087D02*
X85265Y-36075D01*
X85302Y-36094D02*
X85290Y-36087D01*
X85960Y-36499D02*
X85302Y-36094D01*
X77538Y-33786D02*
X77512Y-34102D01*
X77541Y-33761D02*
X77538Y-33786D01*
X77554Y-33710D02*
X77541Y-33761D01*
X77565Y-33686D02*
X77554Y-33710D01*
X77737Y-33320D02*
X77565Y-33686D01*
X77766Y-33257D02*
X77737Y-33320D01*
X77860Y-33155D02*
X77766Y-33257D01*
X77980Y-33085D02*
X77860Y-33155D01*
X78115Y-33055D02*
X77980Y-33085D01*
X78184Y-33060D02*
X78115Y-33055D01*
X80162Y-33222D02*
X78184Y-33060D01*
X80208Y-33226D02*
X80162Y-33222D01*
X80299Y-33248D02*
X80208Y-33226D01*
X80341Y-33265D02*
X80299Y-33248D01*
X83603Y-34588D02*
X80341Y-33265D01*
X83715Y-34613D02*
X83753Y-34608D01*
X83639Y-34603D02*
X83715Y-34613D01*
X83603Y-34588D02*
X83639Y-34603D01*
X87543Y-34106D02*
X83753Y-34608D01*
X87607Y-34097D02*
X87543Y-34106D01*
X87735Y-34114D02*
X87607Y-34097D01*
X87854Y-34163D02*
X87735Y-34114D01*
X87957Y-34241D02*
X87854Y-34163D01*
X87996Y-34292D02*
X87957Y-34241D01*
X88282Y-34659D02*
X87996Y-34292D01*
X88347Y-34742D02*
X88282Y-34659D01*
X88415Y-34941D02*
X88347Y-34742D01*
X88415Y-35046D02*
X88415Y-34941D01*
X88415Y-35086D02*
X88415Y-35046D01*
X88425Y-35196D02*
X88415Y-35086D01*
X83676Y-34766D02*
X81762Y-34603D01*
X83750Y-34767D02*
X83774Y-34764D01*
X83700Y-34768D02*
X83750Y-34767D01*
X83676Y-34766D02*
X83700Y-34768D01*
X87564Y-34262D02*
X83774Y-34764D01*
X87611Y-34256D02*
X87564Y-34262D01*
X87704Y-34270D02*
X87611Y-34256D01*
X87790Y-34310D02*
X87704Y-34270D01*
X87862Y-34371D02*
X87790Y-34310D01*
X87888Y-34411D02*
X87862Y-34371D01*
X88148Y-34810D02*
X87888Y-34411D01*
X88183Y-34863D02*
X88148Y-34810D01*
X88218Y-34983D02*
X88183Y-34863D01*
X88218Y-35046D02*
X88218Y-34983D01*
X88218Y-35086D02*
X88218Y-35046D01*
X88228Y-35196D02*
X88218Y-35086D01*
X77852Y-33494D02*
X77833Y-33812D01*
X77856Y-33435D02*
X77852Y-33494D01*
X77909Y-33328D02*
X77856Y-33435D01*
X77999Y-33250D02*
X77909Y-33328D01*
X78112Y-33213D02*
X77999Y-33250D01*
X78171Y-33217D02*
X78112Y-33213D01*
X80149Y-33379D02*
X78171Y-33217D01*
X80235Y-33387D02*
X80149Y-33379D01*
X80389Y-33463D02*
X80235Y-33387D01*
X80447Y-33526D02*
X80389Y-33463D01*
X81418Y-34593D02*
X80447Y-33526D01*
X81435Y-34612D02*
X81418Y-34593D01*
X81462Y-34653D02*
X81435Y-34612D01*
X81472Y-34676D02*
X81462Y-34653D01*
X81490Y-34719D02*
X81472Y-34676D01*
X81720Y-34899D02*
X81763Y-34899D01*
X81636Y-34874D02*
X81720Y-34899D01*
X81563Y-34826D02*
X81636Y-34874D01*
X81507Y-34759D02*
X81563Y-34826D01*
X81490Y-34719D02*
X81507Y-34759D01*
X82936Y-34893D02*
X81763Y-34899D01*
X82965Y-34894D02*
X82936Y-34893D01*
X83688Y-34925D02*
X82965Y-34894D01*
X83688Y-34925D02*
X83714Y-34925D01*
X87588Y-34928D02*
X83714Y-34925D01*
X87593Y-34928D02*
X87588Y-34928D01*
X87594Y-34928D02*
X87593Y-34928D01*
X87594Y-34928D02*
X87610Y-34929D01*
X87685Y-34928D02*
X87610Y-34929D01*
X87713Y-34928D02*
X87685Y-34928D01*
X87763Y-34953D02*
X87713Y-34928D01*
X87780Y-34975D02*
X87763Y-34953D01*
X87816Y-35023D02*
X87780Y-34975D01*
X87820Y-35028D02*
X87816Y-35023D01*
X87824Y-35040D02*
X87820Y-35028D01*
X87824Y-35046D02*
X87824Y-35040D01*
X87824Y-35086D02*
X87824Y-35046D01*
X87834Y-35196D02*
X87824Y-35086D01*
X81527Y-34990D02*
X81200Y-34792D01*
X81701Y-35056D02*
X81764Y-35056D01*
X81580Y-35023D02*
X81701Y-35056D01*
X81527Y-34990D02*
X81580Y-35023D01*
X82936Y-35051D02*
X81764Y-35056D01*
X82958Y-35051D02*
X82936Y-35051D01*
X83681Y-35082D02*
X82958Y-35051D01*
X83681Y-35082D02*
X83714Y-35083D01*
X87588Y-35086D02*
X83714Y-35083D01*
X87588Y-35086D02*
X87588Y-35086D01*
X87627Y-35086D02*
X87588Y-35086D01*
X87637Y-35196D02*
X87627Y-35086D01*
G54D35*
X94036Y-37205D02*
X94173Y-35157D01*
X94036Y-37205D02*
X94035Y-37228D01*
X94035Y-37562D02*
X94035Y-37228D01*
X94015Y-37582D02*
X94035Y-37562D01*
G54D36*
X93710Y-37602D02*
X94015Y-37582D01*
X93661Y-37602D02*
X93710Y-37602D01*
X93494Y-37756D02*
X93661Y-37602D01*
X93458Y-37796D02*
X93449Y-37812D01*
X93481Y-37768D02*
X93458Y-37796D01*
X93494Y-37756D02*
X93481Y-37768D01*
X92820Y-38877D02*
X93449Y-37812D01*
X92681Y-39183D02*
X92658Y-39292D01*
X92763Y-38973D02*
X92681Y-39183D01*
X92820Y-38877D02*
X92763Y-38973D01*
X92518Y-39948D02*
X92658Y-39292D01*
G54D31*
X79429Y-34544D02*
X79697Y-34790D01*
X79251Y-34460D02*
X79185Y-34470D01*
X79380Y-34499D02*
X79251Y-34460D01*
X79429Y-34544D02*
X79380Y-34499D01*
X78654Y-34551D02*
X79185Y-34470D01*
X78609Y-34561D02*
X78595Y-34566D01*
X78639Y-34553D02*
X78609Y-34561D01*
X78654Y-34551D02*
X78639Y-34553D01*
X76514Y-35351D02*
X78595Y-34566D01*
X76504Y-35355D02*
X76514Y-35351D01*
X76376Y-35420D02*
X76340Y-35452D01*
X76458Y-35371D02*
X76376Y-35420D01*
X76504Y-35355D02*
X76458Y-35371D01*
X76273Y-35513D02*
X76340Y-35452D01*
X76240Y-35542D02*
X76273Y-35513D01*
X76169Y-35591D02*
X76240Y-35542D01*
X76130Y-35610D02*
X76169Y-35591D01*
X75101Y-36128D02*
X76130Y-35610D01*
X75083Y-36137D02*
X75101Y-36128D01*
X75047Y-36153D02*
X75083Y-36137D01*
X75028Y-36159D02*
X75047Y-36153D01*
X74648Y-36293D02*
X75028Y-36159D01*
X74621Y-36302D02*
X74648Y-36293D01*
X74564Y-36314D02*
X74621Y-36302D01*
X74536Y-36317D02*
X74564Y-36314D01*
X72204Y-36513D02*
X74536Y-36317D01*
X72187Y-36514D02*
X72204Y-36513D01*
X69039Y-36598D02*
X72187Y-36514D01*
X69035Y-36598D02*
X69039Y-36598D01*
X68444Y-36598D02*
X69035Y-36598D01*
X68402Y-36598D02*
X68444Y-36598D01*
X68328Y-36555D02*
X68402Y-36598D01*
X68307Y-36518D02*
X68328Y-36555D01*
X67007Y-34224D02*
X68307Y-36518D01*
X76571Y-35498D02*
X78699Y-34843D01*
X76473Y-35545D02*
X76446Y-35569D01*
X76536Y-35509D02*
X76473Y-35545D01*
X76571Y-35498D02*
X76536Y-35509D01*
X76378Y-35630D02*
X76446Y-35569D01*
X76337Y-35667D02*
X76378Y-35630D01*
X76249Y-35727D02*
X76337Y-35667D01*
X76201Y-35751D02*
X76249Y-35727D01*
X75171Y-36269D02*
X76201Y-35751D01*
X75149Y-36280D02*
X75171Y-36269D01*
X75103Y-36300D02*
X75149Y-36280D01*
X75081Y-36308D02*
X75103Y-36300D01*
X74700Y-36441D02*
X75081Y-36308D01*
X74663Y-36454D02*
X74700Y-36441D01*
X74587Y-36471D02*
X74663Y-36454D01*
X74549Y-36474D02*
X74587Y-36471D01*
X72217Y-36670D02*
X74549Y-36474D01*
X72191Y-36672D02*
X72217Y-36670D01*
X69043Y-36755D02*
X72191Y-36672D01*
X69035Y-36756D02*
X69043Y-36755D01*
X68444Y-36756D02*
X69035Y-36756D01*
X68415Y-36756D02*
X68444Y-36756D01*
X68358Y-36745D02*
X68415Y-36756D01*
X68331Y-36735D02*
X68358Y-36745D01*
X67007Y-36224D02*
X68331Y-36735D01*
X79279Y-34312D02*
X79825Y-34371D01*
X79191Y-34310D02*
X79161Y-34314D01*
X79250Y-34309D02*
X79191Y-34310D01*
X79279Y-34312D02*
X79250Y-34309D01*
X78631Y-34395D02*
X79161Y-34314D01*
X78561Y-34411D02*
X78539Y-34419D01*
X78607Y-34399D02*
X78561Y-34411D01*
X78631Y-34395D02*
X78607Y-34399D01*
X76458Y-35203D02*
X78539Y-34419D01*
X76450Y-35206D02*
X76458Y-35203D01*
X76282Y-35292D02*
X76235Y-35335D01*
X76390Y-35228D02*
X76282Y-35292D01*
X76450Y-35206D02*
X76390Y-35228D01*
X76167Y-35396D02*
X76235Y-35335D01*
X76142Y-35418D02*
X76167Y-35396D01*
X76088Y-35455D02*
X76142Y-35418D01*
X76059Y-35469D02*
X76088Y-35455D01*
X75030Y-35987D02*
X76059Y-35469D01*
X75017Y-35994D02*
X75030Y-35987D01*
X74990Y-36005D02*
X75017Y-35994D01*
X74976Y-36010D02*
X74990Y-36005D01*
X74595Y-36144D02*
X74976Y-36010D01*
X74573Y-36152D02*
X74595Y-36144D01*
X74528Y-36160D02*
X74573Y-36152D01*
X74505Y-36160D02*
X74528Y-36160D01*
X72179Y-36219D02*
X74505Y-36160D01*
X79009Y-33739D02*
X80112Y-33831D01*
X78884Y-33752D02*
X78847Y-33772D01*
X78967Y-33735D02*
X78884Y-33752D01*
X79009Y-33739D02*
X78967Y-33735D01*
X76440Y-35039D02*
X78847Y-33772D01*
X76430Y-35044D02*
X76440Y-35039D01*
X76408Y-35054D02*
X76430Y-35044D01*
X76397Y-35058D02*
X76408Y-35054D01*
X76397Y-35058D02*
X76397Y-35058D01*
X76188Y-35165D02*
X76129Y-35218D01*
X76323Y-35084D02*
X76188Y-35165D01*
X76397Y-35058D02*
X76323Y-35084D01*
X76062Y-35278D02*
X76129Y-35218D01*
X76045Y-35294D02*
X76062Y-35278D01*
X76008Y-35319D02*
X76045Y-35294D01*
X75988Y-35329D02*
X76008Y-35319D01*
X74959Y-35847D02*
X75988Y-35329D01*
X74925Y-35863D02*
X74959Y-35847D01*
X74852Y-35879D02*
X74925Y-35863D01*
X74814Y-35878D02*
X74852Y-35879D01*
X74498Y-35865D02*
X74814Y-35878D01*
G54D32*
X79665Y-42836D02*
X79685Y-43228D01*
X79665Y-42836D02*
X81033Y-42655D01*
X71889Y-41023D02*
X71113Y-40884D01*
X87165Y-38740D02*
X88503Y-38818D01*
X86929Y-38582D02*
X87165Y-38740D01*
X88503Y-38818D02*
X88503Y-39842D01*
X88503Y-39842D02*
X87240Y-41220D01*
X88503Y-41023D02*
X87240Y-41220D01*
X88503Y-42125D02*
X88503Y-41023D01*
X88503Y-43228D02*
X88503Y-42125D01*
X87401Y-43228D02*
X88503Y-43228D01*
X83858Y-43228D02*
X82677Y-43228D01*
X83858Y-43228D02*
X85039Y-43228D01*
X82071Y-43015D02*
X82677Y-43228D01*
X86609Y-36457D02*
X86535Y-35905D01*
X86229Y-37164D02*
X86609Y-36457D01*
X85590Y-37322D02*
X86229Y-37164D01*
X85748Y-35590D02*
X86535Y-35905D01*
X88976Y-27716D02*
X89842Y-27007D01*
X87795Y-26594D02*
X87007Y-24645D01*
X87795Y-26594D02*
X88976Y-27716D01*
X90000Y-29448D02*
X90078Y-30708D01*
X90078Y-30708D02*
X91044Y-31020D01*
X88818Y-31574D02*
X90078Y-30708D01*
X86692Y-30236D02*
X86850Y-32125D01*
X85433Y-33779D02*
X85433Y-32519D01*
X85433Y-33779D02*
X86535Y-33779D01*
X85433Y-33779D02*
X84566Y-34015D01*
X81807Y-32549D02*
X82125Y-31811D01*
X82125Y-31811D02*
X82598Y-30787D01*
X83307Y-29212D02*
X83385Y-27952D01*
X83307Y-29212D02*
X82598Y-30787D01*
X81278Y-29347D02*
X81968Y-28897D01*
X83307Y-25590D02*
X83700Y-26535D01*
X83307Y-25590D02*
X84251Y-25590D01*
X84251Y-24566D02*
X84011Y-23622D01*
X83307Y-24566D02*
X84251Y-24566D01*
X83307Y-24566D02*
X83307Y-25590D01*
X82283Y-24566D02*
X82071Y-23676D01*
X70787Y-28188D02*
X72519Y-26771D01*
X64409Y-34251D02*
X64409Y-32992D01*
X64421Y-35367D02*
X64409Y-34251D01*
X64421Y-35367D02*
X64409Y-36062D01*
X65826Y-35196D02*
X64421Y-35367D01*
X74566Y-32204D02*
X73149Y-32204D01*
X75511Y-33779D02*
X74251Y-33858D01*
X75511Y-33779D02*
X75838Y-35030D01*
X70511Y-34976D02*
X70314Y-35173D01*
X70610Y-34976D02*
X70511Y-34976D01*
X71732Y-34960D02*
X70610Y-34976D01*
X73385Y-35748D02*
X71732Y-34960D01*
X78740Y-38031D02*
X78082Y-39469D01*
X73622Y-43228D02*
X75118Y-43228D01*
X75555Y-43015D02*
X75771Y-43015D01*
X75456Y-43015D02*
X75555Y-43015D01*
X75118Y-43228D02*
X75456Y-43015D01*
X77086Y-43228D02*
X78346Y-43228D01*
X78814Y-43015D02*
X79031Y-43015D01*
X78716Y-43015D02*
X78814Y-43015D01*
X78346Y-43228D02*
X78716Y-43015D01*
X81674Y-38151D02*
X82580Y-38306D01*
X81854Y-43153D02*
X82071Y-43015D01*
X81756Y-43153D02*
X81854Y-43153D01*
X81717Y-43160D02*
X81705Y-43167D01*
X81742Y-43153D02*
X81717Y-43160D01*
X81756Y-43153D02*
X81742Y-43153D01*
X81481Y-43302D02*
X81705Y-43167D01*
X78757Y-31807D02*
X76918Y-31041D01*
X83608Y-35998D02*
X83006Y-37120D01*
X76086Y-43015D02*
X77086Y-43228D01*
X75988Y-43015D02*
X76086Y-43015D01*
X75771Y-43015D02*
X75988Y-43015D01*
X79838Y-26555D02*
X75355Y-26743D01*
X79842Y-26555D02*
X79838Y-26555D01*
X79940Y-26555D02*
X79842Y-26555D01*
X80059Y-26437D02*
X79940Y-26555D01*
X66574Y-26259D02*
X70866Y-24960D01*
X65590Y-26828D02*
X65590Y-30415D01*
X82495Y-39539D02*
X82698Y-40145D01*
X79619Y-41927D02*
X78997Y-42300D01*
X79824Y-41723D02*
X79854Y-41628D01*
X79703Y-41877D02*
X79824Y-41723D01*
X79619Y-41927D02*
X79703Y-41877D01*
X80115Y-40780D02*
X79854Y-41628D01*
X80120Y-40758D02*
X80120Y-40751D01*
X80117Y-40773D02*
X80120Y-40758D01*
X80115Y-40780D02*
X80117Y-40773D01*
X80120Y-40653D02*
X80120Y-40751D01*
X80238Y-40535D02*
X80120Y-40653D01*
X76461Y-31927D02*
X76918Y-31041D01*
X66574Y-30984D02*
X65590Y-30415D01*
G54D31*
X87832Y-37708D02*
X87832Y-37972D01*
X87832Y-37669D02*
X87832Y-37708D01*
X87834Y-37558D02*
X87832Y-37669D01*
G54D32*
X70397Y-30707D02*
X66574Y-30984D01*
X75555Y-23676D02*
X75771Y-23676D01*
X75456Y-23676D02*
X75555Y-23676D01*
X73046Y-23676D02*
X75456Y-23676D01*
X72948Y-23676D02*
X73046Y-23676D01*
X72731Y-23676D02*
X72948Y-23676D01*
X75115Y-29043D02*
X75005Y-28632D01*
X75127Y-29082D02*
X75133Y-29095D01*
X75118Y-29056D02*
X75127Y-29082D01*
X75115Y-29043D02*
X75118Y-29056D01*
X75728Y-30496D02*
X75133Y-29095D01*
X81854Y-23676D02*
X82071Y-23676D01*
X81756Y-23676D02*
X81854Y-23676D01*
X79346Y-23676D02*
X81756Y-23676D01*
X79247Y-23676D02*
X79346Y-23676D01*
X79031Y-23676D02*
X79247Y-23676D01*
X64606Y-30984D02*
X65590Y-30415D01*
X82057Y-30124D02*
X81278Y-29347D01*
G54D31*
X87875Y-34794D02*
X87608Y-34594D01*
X87893Y-34807D02*
X87875Y-34794D01*
X87924Y-34838D02*
X87893Y-34807D01*
X87937Y-34856D02*
X87924Y-34838D01*
X87973Y-34903D02*
X87937Y-34856D01*
X87997Y-34934D02*
X87973Y-34903D01*
X88021Y-35008D02*
X87997Y-34934D01*
X88021Y-35046D02*
X88021Y-35008D01*
X88021Y-35086D02*
X88021Y-35046D01*
X88031Y-35196D02*
X88021Y-35086D01*
G54D32*
X81133Y-32580D02*
X81807Y-32549D01*
X81073Y-32582D02*
X81133Y-32580D01*
X80958Y-32552D02*
X81073Y-32582D01*
X80908Y-32521D02*
X80958Y-32552D01*
X80095Y-32017D02*
X80908Y-32521D01*
X79980Y-31967D02*
X79938Y-31961D01*
X80059Y-31995D02*
X79980Y-31967D01*
X80095Y-32017D02*
X80059Y-31995D01*
X78757Y-31807D02*
X79938Y-31961D01*
X78814Y-23814D02*
X79031Y-23676D01*
X78716Y-23814D02*
X78814Y-23814D01*
X78701Y-23815D02*
X78696Y-23816D01*
X78711Y-23814D02*
X78701Y-23815D01*
X78716Y-23814D02*
X78711Y-23814D01*
X77258Y-24111D02*
X78696Y-23816D01*
X79359Y-42877D02*
X79665Y-42836D01*
X79355Y-42877D02*
X79359Y-42877D01*
X79349Y-42878D02*
X79355Y-42877D01*
X79346Y-42878D02*
X79349Y-42878D01*
X79247Y-42878D02*
X79346Y-42878D01*
X79031Y-43015D02*
X79247Y-42878D01*
X76504Y-33325D02*
X76461Y-31927D01*
X76505Y-33374D02*
X76504Y-33325D01*
X76484Y-33470D02*
X76505Y-33374D01*
X76462Y-33514D02*
X76484Y-33470D01*
X75933Y-34566D02*
X76462Y-33514D01*
X75901Y-34649D02*
X75896Y-34678D01*
X75919Y-34592D02*
X75901Y-34649D01*
X75933Y-34566D02*
X75919Y-34592D01*
X75838Y-35030D02*
X75896Y-34678D01*
X84505Y-36555D02*
X83608Y-35998D01*
X64606Y-26259D02*
X65590Y-26828D01*
X80789Y-39983D02*
X80671Y-40102D01*
X80887Y-39983D02*
X80789Y-39983D01*
X80907Y-39982D02*
X80914Y-39980D01*
X80894Y-39983D02*
X80907Y-39982D01*
X80887Y-39983D02*
X80894Y-39983D01*
X82495Y-39539D02*
X80914Y-39980D01*
X72515Y-42878D02*
X72731Y-43015D01*
X72416Y-42878D02*
X72515Y-42878D01*
X72391Y-42878D02*
X72416Y-42878D01*
X72347Y-42853D02*
X72391Y-42878D01*
X72333Y-42832D02*
X72347Y-42853D01*
X71918Y-42170D02*
X72333Y-42832D01*
X91044Y-31020D02*
X91043Y-28885D01*
X73046Y-43015D02*
X73622Y-43228D01*
X72948Y-43015D02*
X73046Y-43015D01*
X72731Y-43015D02*
X72948Y-43015D01*
X81278Y-29347D02*
X79832Y-27884D01*
X78997Y-42878D02*
X79031Y-43015D01*
X78997Y-42780D02*
X78997Y-42878D01*
X78997Y-42300D02*
X78997Y-42780D01*
X72515Y-23814D02*
X72731Y-23676D01*
X72416Y-23814D02*
X72515Y-23814D01*
X72370Y-23824D02*
X72357Y-23834D01*
X72400Y-23814D02*
X72370Y-23824D01*
X72416Y-23814D02*
X72400Y-23814D01*
X70866Y-24960D02*
X72357Y-23834D01*
X82386Y-23622D02*
X84011Y-23622D01*
X82287Y-23622D02*
X82386Y-23622D01*
X82071Y-23676D02*
X82287Y-23622D01*
X71113Y-40884D02*
X68263Y-40986D01*
X75988Y-23814D02*
X75771Y-23676D01*
X76086Y-23814D02*
X75988Y-23814D01*
X76093Y-23814D02*
X76086Y-23814D01*
X76105Y-23816D02*
X76093Y-23814D01*
X76111Y-23817D02*
X76105Y-23816D01*
X77258Y-24111D02*
X76111Y-23817D01*
X66574Y-26259D02*
X65590Y-26828D01*
X80789Y-40751D02*
X80671Y-40535D01*
X80793Y-40781D02*
X80797Y-40791D01*
X80789Y-40761D02*
X80793Y-40781D01*
X80789Y-40751D02*
X80789Y-40761D01*
X81098Y-41474D02*
X80797Y-40791D01*
X79940Y-26555D02*
X80059Y-26437D01*
X79940Y-26653D02*
X79940Y-26555D01*
X79940Y-26655D02*
X79940Y-26653D01*
X79940Y-26659D02*
X79940Y-26655D01*
X79940Y-26662D02*
X79940Y-26659D01*
X79832Y-27884D02*
X79940Y-26662D01*
G54D33*
X91300Y-34562D02*
X92204Y-33188D01*
X91118Y-35203D02*
X91131Y-35298D01*
X91127Y-35008D02*
X91118Y-35203D01*
X91171Y-34820D02*
X91127Y-35008D01*
X91247Y-34642D02*
X91171Y-34820D01*
X91300Y-34562D02*
X91247Y-34642D01*
X91756Y-40048D02*
X91131Y-35298D01*
X91763Y-40091D02*
X91766Y-40105D01*
X91758Y-40063D02*
X91763Y-40091D01*
X91756Y-40048D02*
X91758Y-40063D01*
X92204Y-42204D02*
X91766Y-40105D01*
G54D31*
X87588Y-37495D02*
X87244Y-37495D01*
X87627Y-37495D02*
X87588Y-37495D01*
X87637Y-37558D02*
X87627Y-37495D01*
X79896Y-24994D02*
X80738Y-24926D01*
G54D37*
X94133Y-26338D02*
X92165Y-26338D01*
G54D31*
X84747Y-32354D02*
X83714Y-34315D01*
X84762Y-32319D02*
X84766Y-32307D01*
X84753Y-32343D02*
X84762Y-32319D01*
X84747Y-32354D02*
X84753Y-32343D01*
X85194Y-30975D02*
X84766Y-32307D01*
X82938Y-35504D02*
X80630Y-35707D01*
X84364Y-29611D02*
X84662Y-29168D01*
X84304Y-29766D02*
X84309Y-29822D01*
X84333Y-29657D02*
X84304Y-29766D01*
X84364Y-29611D02*
X84333Y-29657D01*
X84485Y-32217D02*
X84309Y-29822D01*
X84752Y-36780D02*
X85147Y-36346D01*
X84726Y-36809D02*
X84752Y-36780D01*
X84660Y-36854D02*
X84726Y-36809D01*
X84623Y-36868D02*
X84660Y-36854D01*
X83124Y-37433D02*
X84623Y-36868D01*
X83055Y-37459D02*
X83124Y-37433D01*
X82906Y-37447D02*
X83055Y-37459D01*
X82842Y-37411D02*
X82906Y-37447D01*
X82708Y-37335D02*
X82842Y-37411D01*
X82676Y-37319D02*
X82665Y-37315D01*
X82697Y-37330D02*
X82676Y-37319D01*
X82708Y-37335D02*
X82697Y-37330D01*
X81063Y-36689D02*
X82665Y-37315D01*
X83849Y-29644D02*
X85011Y-23622D01*
X83849Y-29644D02*
X83845Y-29665D01*
X83280Y-33084D02*
X83845Y-29665D01*
X84026Y-29592D02*
X86011Y-23622D01*
X84001Y-29685D02*
X83997Y-29717D01*
X84016Y-29622D02*
X84001Y-29685D01*
X84026Y-29592D02*
X84016Y-29622D01*
X83573Y-33121D02*
X83997Y-29717D01*
X83570Y-33149D02*
X83573Y-33121D01*
X83552Y-33203D02*
X83570Y-33149D01*
X83538Y-33228D02*
X83552Y-33203D01*
X83381Y-33509D02*
X83538Y-33228D01*
X86755Y-23877D02*
X87011Y-23622D01*
X86755Y-23917D02*
X86755Y-23877D01*
X86755Y-23921D02*
X86755Y-23917D01*
X86754Y-23929D02*
X86755Y-23921D01*
X86752Y-23933D02*
X86754Y-23929D01*
X84393Y-29044D02*
X86752Y-23933D01*
X84386Y-29061D02*
X84384Y-29067D01*
X84391Y-29050D02*
X84386Y-29061D01*
X84393Y-29044D02*
X84391Y-29050D01*
X84180Y-29629D02*
X84384Y-29067D01*
X84157Y-29708D02*
X84154Y-29736D01*
X84170Y-29655D02*
X84157Y-29708D01*
X84180Y-29629D02*
X84170Y-29655D01*
X83730Y-33140D02*
X84154Y-29736D01*
X83729Y-33145D02*
X83730Y-33140D01*
X83674Y-33549D02*
X83729Y-33145D01*
X83673Y-33558D02*
X83674Y-33549D01*
X83669Y-33577D02*
X83673Y-33558D01*
X83666Y-33587D02*
X83669Y-33577D01*
X83583Y-33895D02*
X83666Y-33587D01*
G54D32*
X90964Y-28500D02*
X84642Y-29797D01*
X91014Y-28490D02*
X90964Y-28500D01*
X91115Y-28495D02*
X91014Y-28490D01*
X91163Y-28510D02*
X91115Y-28495D01*
X92185Y-28838D02*
X91163Y-28510D01*
G54D10*
G36*
X68035Y-36420D02*
X67450Y-36194D01*
X67450Y-36136D01*
X67383Y-35973D01*
X67259Y-35849D01*
X67096Y-35781D01*
X66920Y-35781D01*
X66757Y-35848D01*
X66742Y-35863D01*
X66742Y-35562D01*
X66773Y-35633D01*
X66947Y-35692D01*
X67131Y-35679D01*
X67242Y-35633D01*
X67273Y-35562D01*
X67007Y-35296D01*
X67002Y-35301D01*
X66930Y-35229D01*
X66936Y-35224D01*
X66930Y-35218D01*
X67002Y-35147D01*
X67007Y-35152D01*
X67013Y-35147D01*
X67085Y-35218D01*
X67079Y-35224D01*
X67345Y-35490D01*
X67417Y-35458D01*
X67444Y-35376D01*
X68035Y-36420D01*
X68035Y-36420D01*
G37*
G54D36*
X68035Y-36420D02*
X67450Y-36194D01*
X67450Y-36136D01*
X67383Y-35973D01*
X67259Y-35849D01*
X67096Y-35781D01*
X66920Y-35781D01*
X66757Y-35848D01*
X66742Y-35863D01*
X66742Y-35562D01*
X66773Y-35633D01*
X66947Y-35692D01*
X67131Y-35679D01*
X67242Y-35633D01*
X67273Y-35562D01*
X67007Y-35296D01*
X67002Y-35301D01*
X66930Y-35229D01*
X66936Y-35224D01*
X66930Y-35218D01*
X67002Y-35147D01*
X67007Y-35152D01*
X67013Y-35147D01*
X67085Y-35218D01*
X67079Y-35224D01*
X67345Y-35490D01*
X67417Y-35458D01*
X67444Y-35376D01*
X68035Y-36420D01*
G54D10*
G36*
X84837Y-23214D02*
X84761Y-23246D01*
X84636Y-23370D01*
X84568Y-23533D01*
X84568Y-23709D01*
X84636Y-23872D01*
X84749Y-23985D01*
X84479Y-25385D01*
X84479Y-23682D01*
X84467Y-23498D01*
X84421Y-23387D01*
X84349Y-23356D01*
X84083Y-23622D01*
X84349Y-23887D01*
X84421Y-23856D01*
X84479Y-23682D01*
X84479Y-25385D01*
X84277Y-26433D01*
X84277Y-23959D01*
X84011Y-23693D01*
X83939Y-23765D01*
X83939Y-23622D01*
X83674Y-23356D01*
X83602Y-23387D01*
X83543Y-23561D01*
X83556Y-23745D01*
X83602Y-23856D01*
X83674Y-23887D01*
X83939Y-23622D01*
X83939Y-23765D01*
X83745Y-23959D01*
X83777Y-24031D01*
X83951Y-24089D01*
X84135Y-24077D01*
X84246Y-24031D01*
X84277Y-23959D01*
X84277Y-26433D01*
X83666Y-29609D01*
X83666Y-29610D01*
X83665Y-29611D01*
X83661Y-29632D01*
X83661Y-29634D01*
X83661Y-29635D01*
X83151Y-32718D01*
X83135Y-32681D01*
X83044Y-32589D01*
X82925Y-32540D01*
X82796Y-32540D01*
X82676Y-32589D01*
X82630Y-32635D01*
X81818Y-32696D01*
X81818Y-32696D01*
X81813Y-32696D01*
X81802Y-32696D01*
X81800Y-32696D01*
X81797Y-32695D01*
X81084Y-32648D01*
X81084Y-32648D01*
X81036Y-32645D01*
X80945Y-32619D01*
X80905Y-32599D01*
X80904Y-32597D01*
X80188Y-32230D01*
X80163Y-32168D01*
X80071Y-32077D01*
X79952Y-32027D01*
X79823Y-32027D01*
X79703Y-32076D01*
X79644Y-32136D01*
X77756Y-32387D01*
X77754Y-32385D01*
X77635Y-32336D01*
X77506Y-32336D01*
X77386Y-32385D01*
X77295Y-32476D01*
X77245Y-32596D01*
X77245Y-32719D01*
X76435Y-34031D01*
X76435Y-33273D01*
X76386Y-33153D01*
X76294Y-33062D01*
X76175Y-33012D01*
X76142Y-33012D01*
X75464Y-31814D01*
X75495Y-31739D01*
X75495Y-31610D01*
X75446Y-31491D01*
X75355Y-31399D01*
X75235Y-31350D01*
X75106Y-31350D01*
X74987Y-31399D01*
X74895Y-31490D01*
X74846Y-31610D01*
X74846Y-31739D01*
X74895Y-31858D01*
X74986Y-31950D01*
X75106Y-31999D01*
X75139Y-31999D01*
X75817Y-33196D01*
X75785Y-33272D01*
X75785Y-33401D01*
X75835Y-33521D01*
X75926Y-33612D01*
X76045Y-33662D01*
X76174Y-33662D01*
X76294Y-33612D01*
X76385Y-33521D01*
X76435Y-33402D01*
X76435Y-33273D01*
X76435Y-34031D01*
X76188Y-34431D01*
X76101Y-34467D01*
X76009Y-34558D01*
X75960Y-34678D01*
X75960Y-34807D01*
X76009Y-34926D01*
X76089Y-35007D01*
X76079Y-35017D01*
X76063Y-35026D01*
X76004Y-35078D01*
X76004Y-35079D01*
X75937Y-35139D01*
X75937Y-35139D01*
X75929Y-35146D01*
X75913Y-35157D01*
X75904Y-35162D01*
X75904Y-35162D01*
X75151Y-35541D01*
X75151Y-35518D01*
X75102Y-35399D01*
X75010Y-35307D01*
X74891Y-35258D01*
X74799Y-35258D01*
X72747Y-32830D01*
X72755Y-32810D01*
X72755Y-32681D01*
X72706Y-32561D01*
X72615Y-32470D01*
X72495Y-32420D01*
X72366Y-32420D01*
X72247Y-32469D01*
X72155Y-32561D01*
X72106Y-32680D01*
X72105Y-32809D01*
X72155Y-32929D01*
X72246Y-33020D01*
X72365Y-33070D01*
X72460Y-33070D01*
X74510Y-35496D01*
X74501Y-35518D01*
X74501Y-35540D01*
X74433Y-35540D01*
X74314Y-35590D01*
X74222Y-35681D01*
X74173Y-35800D01*
X74173Y-35929D01*
X74195Y-35983D01*
X72445Y-36025D01*
X72364Y-35944D01*
X72244Y-35894D01*
X72115Y-35894D01*
X71996Y-35943D01*
X71904Y-36035D01*
X71855Y-36154D01*
X71855Y-36283D01*
X71877Y-36337D01*
X70777Y-36365D01*
X70777Y-35501D01*
X70777Y-34844D01*
X70757Y-34797D01*
X70757Y-34085D01*
X70757Y-33085D01*
X70690Y-32922D01*
X70566Y-32797D01*
X70403Y-32730D01*
X70227Y-32730D01*
X70064Y-32797D01*
X69939Y-32922D01*
X69872Y-33084D01*
X69871Y-33260D01*
X69939Y-33423D01*
X70063Y-33548D01*
X70226Y-33616D01*
X70402Y-33616D01*
X70565Y-33548D01*
X70690Y-33424D01*
X70757Y-33261D01*
X70757Y-33085D01*
X70757Y-34085D01*
X70690Y-33922D01*
X70566Y-33797D01*
X70403Y-33730D01*
X70227Y-33730D01*
X70064Y-33797D01*
X69939Y-33922D01*
X69872Y-34084D01*
X69871Y-34260D01*
X69939Y-34423D01*
X70063Y-34548D01*
X70226Y-34616D01*
X70402Y-34616D01*
X70565Y-34548D01*
X70690Y-34424D01*
X70757Y-34261D01*
X70757Y-34085D01*
X70757Y-34797D01*
X70752Y-34783D01*
X70705Y-34736D01*
X70643Y-34710D01*
X70577Y-34710D01*
X70407Y-34710D01*
X70365Y-34752D01*
X70365Y-35122D01*
X70735Y-35122D01*
X70777Y-35080D01*
X70777Y-34844D01*
X70777Y-35501D01*
X70777Y-35265D01*
X70735Y-35224D01*
X70365Y-35224D01*
X70365Y-35593D01*
X70407Y-35635D01*
X70577Y-35635D01*
X70643Y-35635D01*
X70705Y-35610D01*
X70752Y-35563D01*
X70777Y-35501D01*
X70777Y-36365D01*
X70264Y-36379D01*
X70264Y-35593D01*
X70264Y-35224D01*
X70264Y-35122D01*
X70264Y-34752D01*
X70222Y-34710D01*
X70052Y-34710D01*
X69986Y-34710D01*
X69924Y-34736D01*
X69877Y-34783D01*
X69852Y-34844D01*
X69852Y-35080D01*
X69894Y-35122D01*
X70264Y-35122D01*
X70264Y-35224D01*
X69894Y-35224D01*
X69852Y-35265D01*
X69852Y-35501D01*
X69877Y-35563D01*
X69924Y-35610D01*
X69986Y-35635D01*
X70052Y-35635D01*
X70222Y-35635D01*
X70264Y-35593D01*
X70264Y-36379D01*
X69207Y-36406D01*
X69207Y-34205D01*
X69195Y-34022D01*
X69183Y-33992D01*
X69183Y-33057D01*
X69115Y-32895D01*
X68991Y-32770D01*
X68828Y-32702D01*
X68652Y-32702D01*
X68489Y-32769D01*
X68364Y-32894D01*
X68297Y-33057D01*
X68297Y-33233D01*
X68364Y-33396D01*
X68488Y-33520D01*
X68651Y-33588D01*
X68827Y-33588D01*
X68990Y-33521D01*
X69115Y-33396D01*
X69182Y-33234D01*
X69183Y-33057D01*
X69183Y-33992D01*
X69149Y-33911D01*
X69077Y-33879D01*
X69006Y-33951D01*
X69006Y-33807D01*
X68974Y-33736D01*
X68800Y-33677D01*
X68616Y-33690D01*
X68505Y-33736D01*
X68474Y-33807D01*
X68740Y-34073D01*
X69006Y-33807D01*
X69006Y-33951D01*
X68811Y-34145D01*
X69077Y-34411D01*
X69149Y-34380D01*
X69207Y-34205D01*
X69207Y-36406D01*
X69183Y-36407D01*
X69183Y-35057D01*
X69115Y-34895D01*
X69006Y-34785D01*
X69006Y-34483D01*
X68740Y-34217D01*
X68668Y-34289D01*
X68668Y-34145D01*
X68402Y-33879D01*
X68330Y-33911D01*
X68272Y-34085D01*
X68284Y-34269D01*
X68330Y-34380D01*
X68402Y-34411D01*
X68668Y-34145D01*
X68668Y-34289D01*
X68474Y-34483D01*
X68505Y-34554D01*
X68680Y-34613D01*
X68863Y-34600D01*
X68974Y-34554D01*
X69006Y-34483D01*
X69006Y-34785D01*
X68991Y-34770D01*
X68828Y-34702D01*
X68652Y-34702D01*
X68489Y-34769D01*
X68364Y-34894D01*
X68297Y-35057D01*
X68297Y-35233D01*
X68364Y-35396D01*
X68488Y-35520D01*
X68651Y-35588D01*
X68827Y-35588D01*
X68990Y-35521D01*
X69115Y-35396D01*
X69182Y-35234D01*
X69183Y-35057D01*
X69183Y-36407D01*
X69183Y-36407D01*
X69183Y-35821D01*
X69160Y-35766D01*
X69119Y-35725D01*
X69064Y-35702D01*
X69006Y-35702D01*
X68415Y-35702D01*
X68361Y-35725D01*
X68319Y-35766D01*
X68297Y-35820D01*
X68297Y-35879D01*
X68297Y-36123D01*
X67371Y-34487D01*
X67383Y-34475D01*
X67450Y-34312D01*
X67450Y-34136D01*
X67383Y-33973D01*
X67259Y-33849D01*
X67096Y-33781D01*
X66920Y-33781D01*
X66757Y-33848D01*
X66742Y-33863D01*
X66742Y-33667D01*
X67332Y-33667D01*
X67386Y-33644D01*
X67428Y-33603D01*
X67450Y-33549D01*
X67450Y-33490D01*
X67450Y-32899D01*
X67428Y-32845D01*
X67402Y-32820D01*
X75813Y-31124D01*
X75854Y-31124D01*
X75931Y-31108D01*
X75931Y-31108D01*
X76019Y-31071D01*
X76149Y-30984D01*
X76217Y-30916D01*
X76217Y-30916D01*
X76261Y-30850D01*
X76261Y-30850D01*
X76261Y-30850D01*
X76367Y-30689D01*
X77749Y-30776D01*
X77791Y-30818D01*
X77910Y-30867D01*
X78039Y-30867D01*
X78159Y-30818D01*
X78250Y-30727D01*
X78300Y-30608D01*
X78300Y-30578D01*
X80790Y-32202D01*
X80790Y-32251D01*
X80840Y-32370D01*
X80931Y-32462D01*
X81050Y-32511D01*
X81179Y-32511D01*
X81299Y-32462D01*
X81390Y-32371D01*
X81440Y-32251D01*
X81440Y-32122D01*
X81391Y-32003D01*
X81345Y-31957D01*
X81364Y-31938D01*
X81413Y-31819D01*
X81413Y-31690D01*
X81406Y-31673D01*
X82452Y-30466D01*
X82453Y-30464D01*
X82492Y-30419D01*
X82508Y-30390D01*
X82526Y-30361D01*
X82566Y-30251D01*
X82566Y-30251D01*
X82566Y-30251D01*
X82568Y-30246D01*
X82573Y-30217D01*
X82580Y-30180D01*
X82579Y-30122D01*
X82580Y-30118D01*
X82553Y-27574D01*
X82553Y-23879D01*
X82553Y-23474D01*
X82553Y-23407D01*
X82527Y-23346D01*
X82480Y-23298D01*
X82419Y-23273D01*
X82163Y-23273D01*
X82121Y-23315D01*
X82121Y-23626D01*
X82511Y-23626D01*
X82553Y-23584D01*
X82553Y-23474D01*
X82553Y-23879D01*
X82553Y-23769D01*
X82511Y-23727D01*
X82121Y-23727D01*
X82121Y-24038D01*
X82163Y-24080D01*
X82419Y-24080D01*
X82480Y-24054D01*
X82527Y-24007D01*
X82553Y-23946D01*
X82553Y-23879D01*
X82553Y-27574D01*
X82533Y-25692D01*
X82533Y-25692D01*
X82533Y-25663D01*
X82533Y-25191D01*
X82511Y-25137D01*
X82469Y-25095D01*
X82415Y-25073D01*
X82356Y-25073D01*
X82020Y-25073D01*
X82020Y-24038D01*
X82020Y-23727D01*
X82020Y-23626D01*
X82020Y-23315D01*
X81978Y-23273D01*
X81723Y-23273D01*
X81661Y-23298D01*
X81614Y-23346D01*
X81588Y-23407D01*
X81588Y-23474D01*
X81588Y-23584D01*
X81630Y-23626D01*
X82020Y-23626D01*
X82020Y-23727D01*
X81630Y-23727D01*
X81588Y-23769D01*
X81588Y-23879D01*
X81588Y-23946D01*
X81614Y-24007D01*
X81661Y-24054D01*
X81723Y-24080D01*
X81978Y-24080D01*
X82020Y-24038D01*
X82020Y-25073D01*
X81927Y-25073D01*
X81915Y-25062D01*
X81898Y-25043D01*
X81887Y-25038D01*
X81878Y-25030D01*
X81873Y-25027D01*
X81870Y-25024D01*
X80980Y-24508D01*
X80980Y-24508D01*
X80941Y-24486D01*
X80915Y-24477D01*
X80888Y-24465D01*
X80800Y-24445D01*
X80772Y-24444D01*
X80744Y-24441D01*
X80699Y-24445D01*
X80696Y-24446D01*
X79857Y-24513D01*
X79857Y-24513D01*
X79801Y-24518D01*
X79762Y-24529D01*
X79734Y-24536D01*
X79731Y-24537D01*
X79731Y-24537D01*
X79731Y-24538D01*
X79633Y-24586D01*
X79603Y-24608D01*
X79577Y-24628D01*
X79575Y-24630D01*
X79575Y-24630D01*
X79575Y-24630D01*
X79539Y-24670D01*
X79538Y-24672D01*
X79513Y-24699D01*
X79513Y-23879D01*
X79513Y-23474D01*
X79513Y-23407D01*
X79487Y-23346D01*
X79440Y-23298D01*
X79379Y-23273D01*
X79123Y-23273D01*
X79081Y-23315D01*
X79081Y-23626D01*
X79471Y-23626D01*
X79513Y-23584D01*
X79513Y-23474D01*
X79513Y-23879D01*
X79513Y-23769D01*
X79471Y-23727D01*
X79081Y-23727D01*
X79081Y-24038D01*
X79123Y-24080D01*
X79379Y-24080D01*
X79440Y-24054D01*
X79487Y-24007D01*
X79513Y-23946D01*
X79513Y-23879D01*
X79513Y-24699D01*
X79497Y-24716D01*
X79497Y-24301D01*
X79475Y-24247D01*
X79433Y-24205D01*
X79379Y-24183D01*
X79320Y-24183D01*
X78980Y-24183D01*
X78980Y-24038D01*
X78980Y-23727D01*
X78980Y-23626D01*
X78980Y-23315D01*
X78938Y-23273D01*
X78683Y-23273D01*
X78621Y-23298D01*
X78574Y-23346D01*
X78548Y-23407D01*
X78548Y-23474D01*
X78548Y-23584D01*
X78590Y-23626D01*
X78980Y-23626D01*
X78980Y-23727D01*
X78590Y-23727D01*
X78548Y-23769D01*
X78548Y-23879D01*
X78548Y-23946D01*
X78574Y-24007D01*
X78621Y-24054D01*
X78683Y-24080D01*
X78938Y-24080D01*
X78980Y-24038D01*
X78980Y-24183D01*
X78690Y-24183D01*
X78636Y-24205D01*
X78595Y-24247D01*
X78572Y-24301D01*
X78572Y-24360D01*
X78572Y-24832D01*
X78594Y-24886D01*
X78636Y-24928D01*
X78690Y-24950D01*
X78749Y-24950D01*
X79285Y-24950D01*
X79178Y-25068D01*
X79178Y-25069D01*
X79178Y-25069D01*
X79174Y-25073D01*
X78686Y-25073D01*
X78632Y-25095D01*
X78591Y-25137D01*
X78568Y-25191D01*
X78568Y-25250D01*
X78568Y-25722D01*
X78590Y-25776D01*
X78632Y-25818D01*
X78686Y-25840D01*
X78745Y-25840D01*
X79375Y-25840D01*
X79429Y-25818D01*
X79471Y-25776D01*
X79493Y-25722D01*
X79493Y-25663D01*
X79493Y-25277D01*
X79609Y-25150D01*
X79621Y-25178D01*
X79712Y-25269D01*
X79831Y-25319D01*
X79961Y-25319D01*
X80080Y-25269D01*
X80172Y-25178D01*
X80180Y-25159D01*
X80487Y-25134D01*
X80554Y-25201D01*
X80673Y-25250D01*
X80802Y-25250D01*
X80922Y-25201D01*
X81013Y-25110D01*
X81063Y-24990D01*
X81063Y-24988D01*
X81608Y-25305D01*
X81608Y-25620D01*
X81607Y-25620D01*
X81450Y-25620D01*
X81409Y-25661D01*
X81409Y-25953D01*
X81700Y-25953D01*
X81742Y-25911D01*
X81742Y-25840D01*
X81785Y-25840D01*
X82161Y-25840D01*
X82206Y-30119D01*
X82205Y-30122D01*
X82205Y-30149D01*
X82187Y-30200D01*
X82169Y-30221D01*
X82168Y-30222D01*
X81742Y-30714D01*
X81742Y-26620D01*
X81742Y-26253D01*
X81742Y-26220D01*
X81742Y-26187D01*
X81742Y-26096D01*
X81700Y-26054D01*
X81611Y-26054D01*
X81607Y-26053D01*
X81450Y-26053D01*
X81449Y-26054D01*
X81409Y-26054D01*
X81409Y-26094D01*
X81409Y-26345D01*
X81409Y-26386D01*
X81449Y-26386D01*
X81450Y-26387D01*
X81607Y-26387D01*
X81611Y-26386D01*
X81700Y-26386D01*
X81742Y-26344D01*
X81742Y-26253D01*
X81742Y-26620D01*
X81742Y-26529D01*
X81700Y-26487D01*
X81409Y-26487D01*
X81409Y-26779D01*
X81450Y-26820D01*
X81607Y-26820D01*
X81669Y-26795D01*
X81716Y-26748D01*
X81742Y-26686D01*
X81742Y-26620D01*
X81742Y-30714D01*
X81309Y-31214D01*
X81309Y-26620D01*
X81309Y-26253D01*
X81309Y-26220D01*
X81309Y-26187D01*
X81309Y-25820D01*
X81309Y-25753D01*
X81307Y-25750D01*
X81307Y-25661D01*
X81265Y-25620D01*
X81174Y-25620D01*
X81174Y-25620D01*
X81141Y-25620D01*
X81108Y-25620D01*
X81108Y-25620D01*
X81017Y-25620D01*
X80975Y-25661D01*
X80975Y-25750D01*
X80974Y-25753D01*
X80974Y-25820D01*
X80974Y-25911D01*
X80975Y-25912D01*
X80975Y-25953D01*
X81016Y-25953D01*
X81267Y-25953D01*
X81307Y-25953D01*
X81307Y-25912D01*
X81309Y-25911D01*
X81309Y-25820D01*
X81309Y-26187D01*
X81309Y-26096D01*
X81307Y-26094D01*
X81307Y-26054D01*
X81267Y-26054D01*
X81265Y-26053D01*
X81174Y-26053D01*
X81174Y-26053D01*
X81141Y-26053D01*
X81108Y-26053D01*
X81108Y-26053D01*
X81017Y-26053D01*
X81016Y-26054D01*
X80975Y-26054D01*
X80975Y-26094D01*
X80974Y-26096D01*
X80974Y-26187D01*
X80974Y-26220D01*
X80974Y-26253D01*
X80974Y-26344D01*
X80975Y-26345D01*
X80975Y-26386D01*
X81016Y-26386D01*
X81017Y-26387D01*
X81108Y-26387D01*
X81108Y-26387D01*
X81141Y-26387D01*
X81174Y-26387D01*
X81174Y-26387D01*
X81265Y-26387D01*
X81267Y-26386D01*
X81307Y-26386D01*
X81307Y-26345D01*
X81309Y-26344D01*
X81309Y-26253D01*
X81309Y-26620D01*
X81309Y-26529D01*
X81307Y-26528D01*
X81307Y-26487D01*
X81267Y-26487D01*
X81016Y-26487D01*
X80975Y-26487D01*
X80975Y-26528D01*
X80974Y-26529D01*
X80974Y-26620D01*
X80974Y-26686D01*
X80975Y-26690D01*
X80975Y-26779D01*
X81017Y-26820D01*
X81108Y-26820D01*
X81108Y-26820D01*
X81141Y-26820D01*
X81174Y-26820D01*
X81174Y-26820D01*
X81265Y-26820D01*
X81307Y-26779D01*
X81307Y-26690D01*
X81309Y-26686D01*
X81309Y-26620D01*
X81309Y-31214D01*
X81122Y-31429D01*
X81024Y-31429D01*
X80905Y-31479D01*
X80876Y-31508D01*
X80876Y-26620D01*
X80876Y-26253D01*
X80875Y-26220D01*
X80876Y-26187D01*
X80876Y-25820D01*
X80875Y-25753D01*
X80874Y-25750D01*
X80874Y-25661D01*
X80832Y-25620D01*
X80741Y-25620D01*
X80741Y-25620D01*
X80708Y-25620D01*
X80675Y-25620D01*
X80675Y-25620D01*
X80584Y-25620D01*
X80542Y-25661D01*
X80542Y-25750D01*
X80541Y-25753D01*
X80541Y-25820D01*
X80541Y-25911D01*
X80542Y-25912D01*
X80542Y-25953D01*
X80583Y-25953D01*
X80834Y-25953D01*
X80874Y-25953D01*
X80874Y-25912D01*
X80875Y-25911D01*
X80876Y-25820D01*
X80876Y-26187D01*
X80875Y-26096D01*
X80874Y-26094D01*
X80874Y-26054D01*
X80834Y-26054D01*
X80832Y-26053D01*
X80741Y-26053D01*
X80741Y-26053D01*
X80708Y-26053D01*
X80675Y-26053D01*
X80675Y-26053D01*
X80584Y-26053D01*
X80583Y-26054D01*
X80542Y-26054D01*
X80542Y-26094D01*
X80541Y-26096D01*
X80541Y-26187D01*
X80541Y-26220D01*
X80541Y-26253D01*
X80541Y-26344D01*
X80542Y-26345D01*
X80542Y-26386D01*
X80583Y-26386D01*
X80584Y-26387D01*
X80675Y-26387D01*
X80675Y-26387D01*
X80708Y-26387D01*
X80741Y-26387D01*
X80741Y-26387D01*
X80832Y-26387D01*
X80834Y-26386D01*
X80874Y-26386D01*
X80874Y-26345D01*
X80875Y-26344D01*
X80876Y-26253D01*
X80876Y-26620D01*
X80875Y-26529D01*
X80874Y-26528D01*
X80874Y-26487D01*
X80834Y-26487D01*
X80583Y-26487D01*
X80542Y-26487D01*
X80542Y-26528D01*
X80541Y-26529D01*
X80541Y-26620D01*
X80541Y-26686D01*
X80542Y-26690D01*
X80542Y-26779D01*
X80584Y-26820D01*
X80675Y-26820D01*
X80675Y-26820D01*
X80708Y-26820D01*
X80741Y-26820D01*
X80741Y-26820D01*
X80832Y-26820D01*
X80874Y-26779D01*
X80874Y-26690D01*
X80875Y-26686D01*
X80876Y-26620D01*
X80876Y-31508D01*
X80813Y-31570D01*
X80764Y-31689D01*
X80764Y-31738D01*
X80442Y-31528D01*
X80442Y-26620D01*
X80442Y-26253D01*
X80442Y-26220D01*
X80442Y-26187D01*
X80442Y-25820D01*
X80442Y-25753D01*
X80441Y-25750D01*
X80441Y-25661D01*
X80399Y-25620D01*
X80308Y-25620D01*
X80308Y-25620D01*
X80275Y-25620D01*
X80242Y-25620D01*
X80242Y-25620D01*
X80151Y-25620D01*
X80109Y-25661D01*
X80109Y-25750D01*
X80108Y-25753D01*
X80108Y-25820D01*
X80108Y-25911D01*
X80109Y-25912D01*
X80109Y-25953D01*
X80150Y-25953D01*
X80401Y-25953D01*
X80441Y-25953D01*
X80441Y-25912D01*
X80442Y-25911D01*
X80442Y-25820D01*
X80442Y-26187D01*
X80442Y-26096D01*
X80441Y-26094D01*
X80441Y-26054D01*
X80401Y-26054D01*
X80399Y-26053D01*
X80308Y-26053D01*
X80308Y-26053D01*
X80275Y-26053D01*
X80242Y-26053D01*
X80242Y-26053D01*
X80151Y-26053D01*
X80150Y-26054D01*
X80109Y-26054D01*
X80109Y-26094D01*
X80108Y-26096D01*
X80108Y-26187D01*
X80108Y-26220D01*
X80108Y-26253D01*
X80108Y-26344D01*
X80109Y-26345D01*
X80109Y-26386D01*
X80150Y-26386D01*
X80151Y-26387D01*
X80242Y-26387D01*
X80242Y-26387D01*
X80275Y-26387D01*
X80308Y-26387D01*
X80308Y-26387D01*
X80399Y-26387D01*
X80401Y-26386D01*
X80441Y-26386D01*
X80441Y-26345D01*
X80442Y-26344D01*
X80442Y-26253D01*
X80442Y-26620D01*
X80442Y-26529D01*
X80441Y-26528D01*
X80441Y-26487D01*
X80401Y-26487D01*
X80150Y-26487D01*
X80109Y-26487D01*
X80109Y-26528D01*
X80108Y-26529D01*
X80108Y-26620D01*
X80108Y-26686D01*
X80109Y-26690D01*
X80109Y-26779D01*
X80151Y-26820D01*
X80242Y-26820D01*
X80242Y-26820D01*
X80275Y-26820D01*
X80308Y-26820D01*
X80308Y-26820D01*
X80399Y-26820D01*
X80441Y-26779D01*
X80441Y-26690D01*
X80442Y-26686D01*
X80442Y-26620D01*
X80442Y-31528D01*
X80008Y-31245D01*
X80008Y-26779D01*
X80008Y-26487D01*
X80008Y-26386D01*
X80008Y-26345D01*
X80008Y-26094D01*
X80008Y-26054D01*
X80008Y-25953D01*
X80008Y-25661D01*
X79966Y-25620D01*
X79809Y-25620D01*
X79747Y-25645D01*
X79700Y-25692D01*
X79675Y-25753D01*
X79675Y-25820D01*
X79675Y-25911D01*
X79717Y-25953D01*
X80008Y-25953D01*
X80008Y-26054D01*
X79968Y-26054D01*
X79966Y-26053D01*
X79809Y-26053D01*
X79805Y-26054D01*
X79717Y-26054D01*
X79675Y-26096D01*
X79675Y-26187D01*
X79675Y-26220D01*
X79675Y-26253D01*
X79675Y-26344D01*
X79717Y-26386D01*
X79805Y-26386D01*
X79809Y-26387D01*
X79966Y-26387D01*
X79968Y-26386D01*
X80008Y-26386D01*
X80008Y-26487D01*
X79717Y-26487D01*
X79675Y-26529D01*
X79675Y-26620D01*
X79675Y-26686D01*
X79700Y-26748D01*
X79747Y-26795D01*
X79809Y-26820D01*
X79966Y-26820D01*
X80008Y-26779D01*
X80008Y-31245D01*
X78260Y-30105D01*
X78258Y-30105D01*
X78257Y-30104D01*
X78256Y-30103D01*
X78246Y-30099D01*
X76254Y-28810D01*
X76254Y-23879D01*
X76254Y-23474D01*
X76254Y-23407D01*
X76228Y-23346D01*
X76181Y-23298D01*
X76120Y-23273D01*
X75864Y-23273D01*
X75822Y-23315D01*
X75822Y-23626D01*
X76212Y-23626D01*
X76254Y-23584D01*
X76254Y-23474D01*
X76254Y-23879D01*
X76254Y-23769D01*
X76212Y-23727D01*
X75822Y-23727D01*
X75822Y-24038D01*
X75864Y-24080D01*
X76120Y-24080D01*
X76181Y-24054D01*
X76228Y-24007D01*
X76254Y-23946D01*
X76254Y-23879D01*
X76254Y-28810D01*
X75778Y-28503D01*
X75777Y-28502D01*
X75776Y-28502D01*
X75773Y-28499D01*
X75773Y-28499D01*
X75283Y-28191D01*
X75283Y-28191D01*
X75268Y-28182D01*
X75259Y-28178D01*
X75252Y-28172D01*
X75221Y-28157D01*
X75212Y-28155D01*
X75204Y-28150D01*
X75188Y-28144D01*
X75184Y-28143D01*
X74404Y-27850D01*
X74362Y-27746D01*
X74270Y-27655D01*
X74151Y-27605D01*
X74022Y-27605D01*
X73902Y-27655D01*
X73855Y-27702D01*
X73194Y-25669D01*
X73194Y-25663D01*
X73194Y-25643D01*
X75309Y-25643D01*
X75309Y-25722D01*
X75331Y-25776D01*
X75373Y-25818D01*
X75427Y-25840D01*
X75486Y-25840D01*
X76116Y-25840D01*
X76170Y-25818D01*
X76212Y-25776D01*
X76234Y-25722D01*
X76234Y-25663D01*
X76234Y-25191D01*
X76212Y-25137D01*
X76170Y-25095D01*
X76116Y-25073D01*
X76057Y-25073D01*
X75721Y-25073D01*
X75721Y-24038D01*
X75721Y-23727D01*
X75721Y-23626D01*
X75721Y-23315D01*
X75679Y-23273D01*
X75423Y-23273D01*
X75362Y-23298D01*
X75315Y-23346D01*
X75289Y-23407D01*
X75289Y-23474D01*
X75289Y-23584D01*
X75331Y-23626D01*
X75721Y-23626D01*
X75721Y-23727D01*
X75331Y-23727D01*
X75289Y-23769D01*
X75289Y-23879D01*
X75289Y-23946D01*
X75315Y-24007D01*
X75362Y-24054D01*
X75423Y-24080D01*
X75679Y-24080D01*
X75721Y-24038D01*
X75721Y-25073D01*
X75427Y-25073D01*
X75373Y-25095D01*
X75331Y-25137D01*
X75309Y-25191D01*
X75309Y-25250D01*
X75309Y-25269D01*
X73214Y-25269D01*
X73214Y-23879D01*
X73214Y-23474D01*
X73214Y-23407D01*
X73188Y-23346D01*
X73141Y-23298D01*
X73080Y-23273D01*
X72824Y-23273D01*
X72782Y-23315D01*
X72782Y-23626D01*
X73172Y-23626D01*
X73214Y-23584D01*
X73214Y-23474D01*
X73214Y-23879D01*
X73214Y-23769D01*
X73172Y-23727D01*
X72782Y-23727D01*
X72782Y-24038D01*
X72824Y-24080D01*
X73080Y-24080D01*
X73141Y-24054D01*
X73188Y-24007D01*
X73214Y-23946D01*
X73214Y-23879D01*
X73214Y-25269D01*
X73198Y-25269D01*
X73198Y-24773D01*
X73198Y-24301D01*
X73176Y-24247D01*
X73134Y-24205D01*
X73080Y-24183D01*
X73021Y-24183D01*
X72681Y-24183D01*
X72681Y-24038D01*
X72681Y-23727D01*
X72681Y-23626D01*
X72681Y-23315D01*
X72639Y-23273D01*
X72383Y-23273D01*
X72322Y-23298D01*
X72275Y-23346D01*
X72249Y-23407D01*
X72249Y-23474D01*
X72249Y-23584D01*
X72291Y-23626D01*
X72681Y-23626D01*
X72681Y-23727D01*
X72291Y-23727D01*
X72249Y-23769D01*
X72249Y-23879D01*
X72249Y-23946D01*
X72275Y-24007D01*
X72322Y-24054D01*
X72383Y-24080D01*
X72639Y-24080D01*
X72681Y-24038D01*
X72681Y-24183D01*
X72391Y-24183D01*
X72337Y-24205D01*
X72295Y-24247D01*
X72273Y-24301D01*
X72273Y-24360D01*
X72273Y-24832D01*
X72295Y-24886D01*
X72337Y-24928D01*
X72391Y-24950D01*
X72450Y-24950D01*
X73080Y-24950D01*
X73134Y-24928D01*
X73176Y-24886D01*
X73198Y-24832D01*
X73198Y-24773D01*
X73198Y-25269D01*
X73194Y-25269D01*
X73194Y-25191D01*
X73172Y-25137D01*
X73130Y-25095D01*
X73076Y-25073D01*
X73017Y-25073D01*
X72387Y-25073D01*
X72333Y-25095D01*
X72291Y-25137D01*
X72269Y-25191D01*
X72269Y-25250D01*
X72269Y-25722D01*
X72291Y-25776D01*
X72333Y-25818D01*
X72387Y-25840D01*
X72446Y-25840D01*
X72856Y-25840D01*
X74071Y-29578D01*
X74054Y-29595D01*
X74004Y-29714D01*
X74004Y-29843D01*
X74054Y-29963D01*
X74145Y-30054D01*
X74264Y-30104D01*
X74393Y-30104D01*
X74513Y-30054D01*
X74604Y-29963D01*
X74654Y-29844D01*
X74654Y-29715D01*
X74605Y-29595D01*
X74513Y-29504D01*
X74429Y-29469D01*
X74034Y-28255D01*
X74150Y-28255D01*
X74270Y-28206D01*
X74275Y-28201D01*
X75056Y-28495D01*
X75060Y-28495D01*
X75063Y-28496D01*
X75077Y-28503D01*
X75083Y-28507D01*
X75083Y-28507D01*
X75325Y-28660D01*
X75311Y-28665D01*
X75220Y-28757D01*
X75170Y-28876D01*
X75170Y-29005D01*
X75220Y-29125D01*
X75311Y-29216D01*
X75369Y-29240D01*
X75957Y-30418D01*
X75851Y-30578D01*
X75851Y-30578D01*
X75834Y-30603D01*
X75789Y-30633D01*
X75755Y-30633D01*
X72215Y-31347D01*
X72215Y-24695D01*
X72010Y-24199D01*
X72007Y-24194D01*
X71843Y-24054D01*
X71772Y-24126D01*
X71772Y-23982D01*
X71632Y-23819D01*
X71137Y-23612D01*
X70601Y-23611D01*
X70105Y-23815D01*
X70099Y-23819D01*
X69960Y-23982D01*
X70866Y-24888D01*
X71772Y-23982D01*
X71772Y-24126D01*
X70937Y-24960D01*
X71843Y-25866D01*
X72007Y-25727D01*
X72213Y-25231D01*
X72215Y-24695D01*
X72215Y-31347D01*
X71772Y-31437D01*
X71772Y-25938D01*
X70866Y-25032D01*
X70794Y-25104D01*
X70794Y-24960D01*
X69888Y-24054D01*
X69724Y-24194D01*
X69518Y-24689D01*
X69517Y-25225D01*
X69721Y-25721D01*
X69724Y-25727D01*
X69888Y-25866D01*
X70794Y-24960D01*
X70794Y-25104D01*
X69960Y-25938D01*
X70099Y-26101D01*
X70594Y-26308D01*
X71131Y-26309D01*
X71627Y-26105D01*
X71632Y-26101D01*
X71772Y-25938D01*
X71772Y-31437D01*
X70521Y-31689D01*
X70521Y-30384D01*
X70521Y-29951D01*
X70521Y-29518D01*
X70521Y-29084D01*
X70499Y-29030D01*
X70457Y-28989D01*
X70403Y-28966D01*
X70344Y-28966D01*
X69911Y-28966D01*
X69478Y-28966D01*
X69045Y-28966D01*
X68612Y-28966D01*
X68179Y-28966D01*
X68125Y-28988D01*
X68083Y-29030D01*
X68061Y-29084D01*
X68060Y-29143D01*
X68060Y-29576D01*
X68060Y-30009D01*
X68060Y-30442D01*
X68083Y-30496D01*
X68124Y-30538D01*
X68179Y-30560D01*
X68237Y-30561D01*
X68670Y-30561D01*
X69104Y-30561D01*
X69537Y-30561D01*
X69970Y-30561D01*
X70403Y-30561D01*
X70457Y-30538D01*
X70499Y-30497D01*
X70521Y-30442D01*
X70521Y-30384D01*
X70521Y-31689D01*
X67238Y-32351D01*
X67238Y-31091D01*
X67238Y-26366D01*
X67229Y-26104D01*
X67214Y-26070D01*
X67214Y-24164D01*
X67117Y-23929D01*
X66937Y-23749D01*
X66702Y-23651D01*
X66448Y-23651D01*
X66212Y-23748D01*
X66032Y-23928D01*
X65935Y-24163D01*
X65934Y-24418D01*
X66032Y-24653D01*
X66211Y-24833D01*
X66446Y-24930D01*
X66701Y-24931D01*
X66936Y-24834D01*
X67116Y-24654D01*
X67214Y-24419D01*
X67214Y-24164D01*
X67214Y-26070D01*
X67147Y-25906D01*
X67055Y-25851D01*
X66983Y-25923D01*
X66983Y-25779D01*
X66927Y-25687D01*
X66681Y-25596D01*
X66419Y-25605D01*
X66221Y-25687D01*
X66166Y-25779D01*
X66574Y-26188D01*
X66983Y-25779D01*
X66983Y-25923D01*
X66646Y-26259D01*
X67055Y-26668D01*
X67147Y-26612D01*
X67238Y-26366D01*
X67238Y-31091D01*
X67229Y-30829D01*
X67214Y-30794D01*
X67214Y-28889D01*
X67117Y-28653D01*
X66983Y-28519D01*
X66983Y-26740D01*
X66574Y-26331D01*
X66502Y-26403D01*
X66502Y-26259D01*
X66094Y-25851D01*
X66002Y-25906D01*
X65911Y-26152D01*
X65920Y-26414D01*
X66002Y-26612D01*
X66094Y-26668D01*
X66502Y-26259D01*
X66502Y-26403D01*
X66166Y-26740D01*
X66221Y-26832D01*
X66467Y-26923D01*
X66729Y-26914D01*
X66927Y-26832D01*
X66983Y-26740D01*
X66983Y-28519D01*
X66937Y-28473D01*
X66702Y-28376D01*
X66448Y-28375D01*
X66212Y-28473D01*
X66032Y-28652D01*
X65935Y-28887D01*
X65934Y-29142D01*
X66032Y-29377D01*
X66211Y-29557D01*
X66446Y-29655D01*
X66701Y-29655D01*
X66936Y-29558D01*
X67116Y-29378D01*
X67214Y-29143D01*
X67214Y-28889D01*
X67214Y-30794D01*
X67147Y-30631D01*
X67055Y-30575D01*
X66983Y-30647D01*
X66983Y-30503D01*
X66927Y-30411D01*
X66681Y-30320D01*
X66419Y-30330D01*
X66221Y-30411D01*
X66166Y-30503D01*
X66574Y-30912D01*
X66983Y-30503D01*
X66983Y-30647D01*
X66646Y-30984D01*
X67055Y-31392D01*
X67147Y-31337D01*
X67238Y-31091D01*
X67238Y-32351D01*
X66983Y-32402D01*
X66983Y-31464D01*
X66574Y-31056D01*
X66502Y-31127D01*
X66502Y-30984D01*
X66094Y-30575D01*
X66002Y-30631D01*
X65911Y-30877D01*
X65920Y-31139D01*
X66002Y-31337D01*
X66094Y-31392D01*
X66502Y-30984D01*
X66502Y-31127D01*
X66166Y-31464D01*
X66221Y-31556D01*
X66467Y-31648D01*
X66729Y-31638D01*
X66927Y-31556D01*
X66983Y-31464D01*
X66983Y-32402D01*
X66621Y-32475D01*
X66621Y-32475D01*
X66585Y-32482D01*
X66546Y-32499D01*
X66506Y-32513D01*
X66442Y-32551D01*
X66411Y-32580D01*
X66378Y-32607D01*
X66330Y-32665D01*
X66311Y-32702D01*
X66289Y-32738D01*
X66264Y-32809D01*
X66258Y-32850D01*
X66250Y-32891D01*
X66250Y-32928D01*
X66250Y-32928D01*
X66250Y-32929D01*
X66250Y-36224D01*
X66250Y-36254D01*
X66252Y-36269D01*
X66251Y-36283D01*
X66258Y-36343D01*
X66263Y-36357D01*
X66263Y-36371D01*
X66270Y-36401D01*
X66270Y-36401D01*
X66944Y-39207D01*
X66905Y-39246D01*
X66840Y-39401D01*
X66840Y-39570D01*
X66880Y-39665D01*
X66621Y-40122D01*
X66621Y-40123D01*
X66589Y-40178D01*
X66580Y-40208D01*
X66565Y-40237D01*
X66533Y-40360D01*
X66531Y-40391D01*
X66525Y-40422D01*
X66525Y-40486D01*
X66525Y-40487D01*
X66525Y-40487D01*
X66527Y-41483D01*
X66526Y-41487D01*
X66526Y-41564D01*
X66534Y-41601D01*
X66538Y-41638D01*
X66585Y-41784D01*
X66603Y-41818D01*
X66619Y-41852D01*
X66664Y-41915D01*
X66664Y-41915D01*
X66664Y-41915D01*
X67738Y-43415D01*
X65222Y-43415D01*
X65151Y-43385D01*
X65259Y-43341D01*
X65506Y-43095D01*
X65639Y-42773D01*
X65640Y-42424D01*
X65506Y-42102D01*
X65260Y-41855D01*
X64938Y-41722D01*
X64590Y-41721D01*
X64268Y-41855D01*
X64120Y-42002D01*
X64120Y-38469D01*
X64266Y-38616D01*
X64588Y-38750D01*
X64937Y-38750D01*
X65259Y-38617D01*
X65506Y-38371D01*
X65639Y-38049D01*
X65640Y-37700D01*
X65506Y-37378D01*
X65270Y-37141D01*
X65270Y-31091D01*
X65270Y-26366D01*
X65260Y-26104D01*
X65178Y-25906D01*
X65086Y-25851D01*
X65014Y-25923D01*
X65014Y-25779D01*
X64959Y-25687D01*
X64713Y-25596D01*
X64451Y-25605D01*
X64253Y-25687D01*
X64197Y-25779D01*
X64606Y-26188D01*
X65014Y-25779D01*
X65014Y-25923D01*
X64678Y-26259D01*
X65086Y-26668D01*
X65178Y-26612D01*
X65270Y-26366D01*
X65270Y-31091D01*
X65260Y-30829D01*
X65178Y-30631D01*
X65086Y-30575D01*
X65014Y-30647D01*
X65014Y-30503D01*
X64959Y-30411D01*
X64713Y-30320D01*
X64451Y-30330D01*
X64253Y-30411D01*
X64197Y-30503D01*
X64606Y-30912D01*
X65014Y-30503D01*
X65014Y-30647D01*
X64678Y-30984D01*
X65086Y-31392D01*
X65178Y-31337D01*
X65270Y-31091D01*
X65270Y-37141D01*
X65260Y-37131D01*
X65014Y-37029D01*
X65014Y-31464D01*
X64606Y-31056D01*
X64197Y-31464D01*
X64253Y-31556D01*
X64499Y-31648D01*
X64761Y-31638D01*
X64959Y-31556D01*
X65014Y-31464D01*
X65014Y-37029D01*
X64938Y-36998D01*
X64590Y-36997D01*
X64268Y-37131D01*
X64120Y-37278D01*
X64120Y-31389D01*
X64125Y-31392D01*
X64534Y-30984D01*
X64125Y-30575D01*
X64120Y-30579D01*
X64120Y-29434D01*
X64243Y-29557D01*
X64478Y-29655D01*
X64732Y-29655D01*
X64968Y-29558D01*
X65148Y-29378D01*
X65245Y-29143D01*
X65246Y-28889D01*
X65148Y-28653D01*
X65014Y-28519D01*
X65014Y-26740D01*
X64606Y-26331D01*
X64197Y-26740D01*
X64253Y-26832D01*
X64499Y-26923D01*
X64761Y-26914D01*
X64959Y-26832D01*
X65014Y-26740D01*
X65014Y-28519D01*
X64969Y-28473D01*
X64734Y-28376D01*
X64479Y-28375D01*
X64244Y-28473D01*
X64120Y-28596D01*
X64120Y-26664D01*
X64125Y-26668D01*
X64534Y-26259D01*
X64125Y-25851D01*
X64120Y-25854D01*
X64120Y-24710D01*
X64243Y-24833D01*
X64478Y-24930D01*
X64732Y-24931D01*
X64968Y-24834D01*
X65148Y-24654D01*
X65245Y-24419D01*
X65246Y-24164D01*
X65148Y-23929D01*
X64969Y-23749D01*
X64734Y-23651D01*
X64479Y-23651D01*
X64244Y-23748D01*
X64120Y-23872D01*
X64120Y-23214D01*
X83776Y-23214D01*
X83745Y-23284D01*
X84011Y-23550D01*
X84277Y-23284D01*
X84247Y-23214D01*
X84837Y-23214D01*
X84837Y-23214D01*
G37*
G54D36*
X84837Y-23214D02*
X84761Y-23246D01*
X84636Y-23370D01*
X84568Y-23533D01*
X84568Y-23709D01*
X84636Y-23872D01*
X84749Y-23985D01*
X84479Y-25385D01*
X84479Y-23682D01*
X84467Y-23498D01*
X84421Y-23387D01*
X84349Y-23356D01*
X84083Y-23622D01*
X84349Y-23887D01*
X84421Y-23856D01*
X84479Y-23682D01*
X84479Y-25385D01*
X84277Y-26433D01*
X84277Y-23959D01*
X84011Y-23693D01*
X83939Y-23765D01*
X83939Y-23622D01*
X83674Y-23356D01*
X83602Y-23387D01*
X83543Y-23561D01*
X83556Y-23745D01*
X83602Y-23856D01*
X83674Y-23887D01*
X83939Y-23622D01*
X83939Y-23765D01*
X83745Y-23959D01*
X83777Y-24031D01*
X83951Y-24089D01*
X84135Y-24077D01*
X84246Y-24031D01*
X84277Y-23959D01*
X84277Y-26433D01*
X83666Y-29609D01*
X83666Y-29610D01*
X83665Y-29611D01*
X83661Y-29632D01*
X83661Y-29634D01*
X83661Y-29635D01*
X83151Y-32718D01*
X83135Y-32681D01*
X83044Y-32589D01*
X82925Y-32540D01*
X82796Y-32540D01*
X82676Y-32589D01*
X82630Y-32635D01*
X81818Y-32696D01*
X81818Y-32696D01*
X81813Y-32696D01*
X81802Y-32696D01*
X81800Y-32696D01*
X81797Y-32695D01*
X81084Y-32648D01*
X81084Y-32648D01*
X81036Y-32645D01*
X80945Y-32619D01*
X80905Y-32599D01*
X80904Y-32597D01*
X80188Y-32230D01*
X80163Y-32168D01*
X80071Y-32077D01*
X79952Y-32027D01*
X79823Y-32027D01*
X79703Y-32076D01*
X79644Y-32136D01*
X77756Y-32387D01*
X77754Y-32385D01*
X77635Y-32336D01*
X77506Y-32336D01*
X77386Y-32385D01*
X77295Y-32476D01*
X77245Y-32596D01*
X77245Y-32719D01*
X76435Y-34031D01*
X76435Y-33273D01*
X76386Y-33153D01*
X76294Y-33062D01*
X76175Y-33012D01*
X76142Y-33012D01*
X75464Y-31814D01*
X75495Y-31739D01*
X75495Y-31610D01*
X75446Y-31491D01*
X75355Y-31399D01*
X75235Y-31350D01*
X75106Y-31350D01*
X74987Y-31399D01*
X74895Y-31490D01*
X74846Y-31610D01*
X74846Y-31739D01*
X74895Y-31858D01*
X74986Y-31950D01*
X75106Y-31999D01*
X75139Y-31999D01*
X75817Y-33196D01*
X75785Y-33272D01*
X75785Y-33401D01*
X75835Y-33521D01*
X75926Y-33612D01*
X76045Y-33662D01*
X76174Y-33662D01*
X76294Y-33612D01*
X76385Y-33521D01*
X76435Y-33402D01*
X76435Y-33273D01*
X76435Y-34031D01*
X76188Y-34431D01*
X76101Y-34467D01*
X76009Y-34558D01*
X75960Y-34678D01*
X75960Y-34807D01*
X76009Y-34926D01*
X76089Y-35007D01*
X76079Y-35017D01*
X76063Y-35026D01*
X76004Y-35078D01*
X76004Y-35079D01*
X75937Y-35139D01*
X75937Y-35139D01*
X75929Y-35146D01*
X75913Y-35157D01*
X75904Y-35162D01*
X75904Y-35162D01*
X75151Y-35541D01*
X75151Y-35518D01*
X75102Y-35399D01*
X75010Y-35307D01*
X74891Y-35258D01*
X74799Y-35258D01*
X72747Y-32830D01*
X72755Y-32810D01*
X72755Y-32681D01*
X72706Y-32561D01*
X72615Y-32470D01*
X72495Y-32420D01*
X72366Y-32420D01*
X72247Y-32469D01*
X72155Y-32561D01*
X72106Y-32680D01*
X72105Y-32809D01*
X72155Y-32929D01*
X72246Y-33020D01*
X72365Y-33070D01*
X72460Y-33070D01*
X74510Y-35496D01*
X74501Y-35518D01*
X74501Y-35540D01*
X74433Y-35540D01*
X74314Y-35590D01*
X74222Y-35681D01*
X74173Y-35800D01*
X74173Y-35929D01*
X74195Y-35983D01*
X72445Y-36025D01*
X72364Y-35944D01*
X72244Y-35894D01*
X72115Y-35894D01*
X71996Y-35943D01*
X71904Y-36035D01*
X71855Y-36154D01*
X71855Y-36283D01*
X71877Y-36337D01*
X70777Y-36365D01*
X70777Y-35501D01*
X70777Y-34844D01*
X70757Y-34797D01*
X70757Y-34085D01*
X70757Y-33085D01*
X70690Y-32922D01*
X70566Y-32797D01*
X70403Y-32730D01*
X70227Y-32730D01*
X70064Y-32797D01*
X69939Y-32922D01*
X69872Y-33084D01*
X69871Y-33260D01*
X69939Y-33423D01*
X70063Y-33548D01*
X70226Y-33616D01*
X70402Y-33616D01*
X70565Y-33548D01*
X70690Y-33424D01*
X70757Y-33261D01*
X70757Y-33085D01*
X70757Y-34085D01*
X70690Y-33922D01*
X70566Y-33797D01*
X70403Y-33730D01*
X70227Y-33730D01*
X70064Y-33797D01*
X69939Y-33922D01*
X69872Y-34084D01*
X69871Y-34260D01*
X69939Y-34423D01*
X70063Y-34548D01*
X70226Y-34616D01*
X70402Y-34616D01*
X70565Y-34548D01*
X70690Y-34424D01*
X70757Y-34261D01*
X70757Y-34085D01*
X70757Y-34797D01*
X70752Y-34783D01*
X70705Y-34736D01*
X70643Y-34710D01*
X70577Y-34710D01*
X70407Y-34710D01*
X70365Y-34752D01*
X70365Y-35122D01*
X70735Y-35122D01*
X70777Y-35080D01*
X70777Y-34844D01*
X70777Y-35501D01*
X70777Y-35265D01*
X70735Y-35224D01*
X70365Y-35224D01*
X70365Y-35593D01*
X70407Y-35635D01*
X70577Y-35635D01*
X70643Y-35635D01*
X70705Y-35610D01*
X70752Y-35563D01*
X70777Y-35501D01*
X70777Y-36365D01*
X70264Y-36379D01*
X70264Y-35593D01*
X70264Y-35224D01*
X70264Y-35122D01*
X70264Y-34752D01*
X70222Y-34710D01*
X70052Y-34710D01*
X69986Y-34710D01*
X69924Y-34736D01*
X69877Y-34783D01*
X69852Y-34844D01*
X69852Y-35080D01*
X69894Y-35122D01*
X70264Y-35122D01*
X70264Y-35224D01*
X69894Y-35224D01*
X69852Y-35265D01*
X69852Y-35501D01*
X69877Y-35563D01*
X69924Y-35610D01*
X69986Y-35635D01*
X70052Y-35635D01*
X70222Y-35635D01*
X70264Y-35593D01*
X70264Y-36379D01*
X69207Y-36406D01*
X69207Y-34205D01*
X69195Y-34022D01*
X69183Y-33992D01*
X69183Y-33057D01*
X69115Y-32895D01*
X68991Y-32770D01*
X68828Y-32702D01*
X68652Y-32702D01*
X68489Y-32769D01*
X68364Y-32894D01*
X68297Y-33057D01*
X68297Y-33233D01*
X68364Y-33396D01*
X68488Y-33520D01*
X68651Y-33588D01*
X68827Y-33588D01*
X68990Y-33521D01*
X69115Y-33396D01*
X69182Y-33234D01*
X69183Y-33057D01*
X69183Y-33992D01*
X69149Y-33911D01*
X69077Y-33879D01*
X69006Y-33951D01*
X69006Y-33807D01*
X68974Y-33736D01*
X68800Y-33677D01*
X68616Y-33690D01*
X68505Y-33736D01*
X68474Y-33807D01*
X68740Y-34073D01*
X69006Y-33807D01*
X69006Y-33951D01*
X68811Y-34145D01*
X69077Y-34411D01*
X69149Y-34380D01*
X69207Y-34205D01*
X69207Y-36406D01*
X69183Y-36407D01*
X69183Y-35057D01*
X69115Y-34895D01*
X69006Y-34785D01*
X69006Y-34483D01*
X68740Y-34217D01*
X68668Y-34289D01*
X68668Y-34145D01*
X68402Y-33879D01*
X68330Y-33911D01*
X68272Y-34085D01*
X68284Y-34269D01*
X68330Y-34380D01*
X68402Y-34411D01*
X68668Y-34145D01*
X68668Y-34289D01*
X68474Y-34483D01*
X68505Y-34554D01*
X68680Y-34613D01*
X68863Y-34600D01*
X68974Y-34554D01*
X69006Y-34483D01*
X69006Y-34785D01*
X68991Y-34770D01*
X68828Y-34702D01*
X68652Y-34702D01*
X68489Y-34769D01*
X68364Y-34894D01*
X68297Y-35057D01*
X68297Y-35233D01*
X68364Y-35396D01*
X68488Y-35520D01*
X68651Y-35588D01*
X68827Y-35588D01*
X68990Y-35521D01*
X69115Y-35396D01*
X69182Y-35234D01*
X69183Y-35057D01*
X69183Y-36407D01*
X69183Y-36407D01*
X69183Y-35821D01*
X69160Y-35766D01*
X69119Y-35725D01*
X69064Y-35702D01*
X69006Y-35702D01*
X68415Y-35702D01*
X68361Y-35725D01*
X68319Y-35766D01*
X68297Y-35820D01*
X68297Y-35879D01*
X68297Y-36123D01*
X67371Y-34487D01*
X67383Y-34475D01*
X67450Y-34312D01*
X67450Y-34136D01*
X67383Y-33973D01*
X67259Y-33849D01*
X67096Y-33781D01*
X66920Y-33781D01*
X66757Y-33848D01*
X66742Y-33863D01*
X66742Y-33667D01*
X67332Y-33667D01*
X67386Y-33644D01*
X67428Y-33603D01*
X67450Y-33549D01*
X67450Y-33490D01*
X67450Y-32899D01*
X67428Y-32845D01*
X67402Y-32820D01*
X75813Y-31124D01*
X75854Y-31124D01*
X75931Y-31108D01*
X75931Y-31108D01*
X76019Y-31071D01*
X76149Y-30984D01*
X76217Y-30916D01*
X76217Y-30916D01*
X76261Y-30850D01*
X76261Y-30850D01*
X76261Y-30850D01*
X76367Y-30689D01*
X77749Y-30776D01*
X77791Y-30818D01*
X77910Y-30867D01*
X78039Y-30867D01*
X78159Y-30818D01*
X78250Y-30727D01*
X78300Y-30608D01*
X78300Y-30578D01*
X80790Y-32202D01*
X80790Y-32251D01*
X80840Y-32370D01*
X80931Y-32462D01*
X81050Y-32511D01*
X81179Y-32511D01*
X81299Y-32462D01*
X81390Y-32371D01*
X81440Y-32251D01*
X81440Y-32122D01*
X81391Y-32003D01*
X81345Y-31957D01*
X81364Y-31938D01*
X81413Y-31819D01*
X81413Y-31690D01*
X81406Y-31673D01*
X82452Y-30466D01*
X82453Y-30464D01*
X82492Y-30419D01*
X82508Y-30390D01*
X82526Y-30361D01*
X82566Y-30251D01*
X82566Y-30251D01*
X82566Y-30251D01*
X82568Y-30246D01*
X82573Y-30217D01*
X82580Y-30180D01*
X82579Y-30122D01*
X82580Y-30118D01*
X82553Y-27574D01*
X82553Y-23879D01*
X82553Y-23474D01*
X82553Y-23407D01*
X82527Y-23346D01*
X82480Y-23298D01*
X82419Y-23273D01*
X82163Y-23273D01*
X82121Y-23315D01*
X82121Y-23626D01*
X82511Y-23626D01*
X82553Y-23584D01*
X82553Y-23474D01*
X82553Y-23879D01*
X82553Y-23769D01*
X82511Y-23727D01*
X82121Y-23727D01*
X82121Y-24038D01*
X82163Y-24080D01*
X82419Y-24080D01*
X82480Y-24054D01*
X82527Y-24007D01*
X82553Y-23946D01*
X82553Y-23879D01*
X82553Y-27574D01*
X82533Y-25692D01*
X82533Y-25692D01*
X82533Y-25663D01*
X82533Y-25191D01*
X82511Y-25137D01*
X82469Y-25095D01*
X82415Y-25073D01*
X82356Y-25073D01*
X82020Y-25073D01*
X82020Y-24038D01*
X82020Y-23727D01*
X82020Y-23626D01*
X82020Y-23315D01*
X81978Y-23273D01*
X81723Y-23273D01*
X81661Y-23298D01*
X81614Y-23346D01*
X81588Y-23407D01*
X81588Y-23474D01*
X81588Y-23584D01*
X81630Y-23626D01*
X82020Y-23626D01*
X82020Y-23727D01*
X81630Y-23727D01*
X81588Y-23769D01*
X81588Y-23879D01*
X81588Y-23946D01*
X81614Y-24007D01*
X81661Y-24054D01*
X81723Y-24080D01*
X81978Y-24080D01*
X82020Y-24038D01*
X82020Y-25073D01*
X81927Y-25073D01*
X81915Y-25062D01*
X81898Y-25043D01*
X81887Y-25038D01*
X81878Y-25030D01*
X81873Y-25027D01*
X81870Y-25024D01*
X80980Y-24508D01*
X80980Y-24508D01*
X80941Y-24486D01*
X80915Y-24477D01*
X80888Y-24465D01*
X80800Y-24445D01*
X80772Y-24444D01*
X80744Y-24441D01*
X80699Y-24445D01*
X80696Y-24446D01*
X79857Y-24513D01*
X79857Y-24513D01*
X79801Y-24518D01*
X79762Y-24529D01*
X79734Y-24536D01*
X79731Y-24537D01*
X79731Y-24537D01*
X79731Y-24538D01*
X79633Y-24586D01*
X79603Y-24608D01*
X79577Y-24628D01*
X79575Y-24630D01*
X79575Y-24630D01*
X79575Y-24630D01*
X79539Y-24670D01*
X79538Y-24672D01*
X79513Y-24699D01*
X79513Y-23879D01*
X79513Y-23474D01*
X79513Y-23407D01*
X79487Y-23346D01*
X79440Y-23298D01*
X79379Y-23273D01*
X79123Y-23273D01*
X79081Y-23315D01*
X79081Y-23626D01*
X79471Y-23626D01*
X79513Y-23584D01*
X79513Y-23474D01*
X79513Y-23879D01*
X79513Y-23769D01*
X79471Y-23727D01*
X79081Y-23727D01*
X79081Y-24038D01*
X79123Y-24080D01*
X79379Y-24080D01*
X79440Y-24054D01*
X79487Y-24007D01*
X79513Y-23946D01*
X79513Y-23879D01*
X79513Y-24699D01*
X79497Y-24716D01*
X79497Y-24301D01*
X79475Y-24247D01*
X79433Y-24205D01*
X79379Y-24183D01*
X79320Y-24183D01*
X78980Y-24183D01*
X78980Y-24038D01*
X78980Y-23727D01*
X78980Y-23626D01*
X78980Y-23315D01*
X78938Y-23273D01*
X78683Y-23273D01*
X78621Y-23298D01*
X78574Y-23346D01*
X78548Y-23407D01*
X78548Y-23474D01*
X78548Y-23584D01*
X78590Y-23626D01*
X78980Y-23626D01*
X78980Y-23727D01*
X78590Y-23727D01*
X78548Y-23769D01*
X78548Y-23879D01*
X78548Y-23946D01*
X78574Y-24007D01*
X78621Y-24054D01*
X78683Y-24080D01*
X78938Y-24080D01*
X78980Y-24038D01*
X78980Y-24183D01*
X78690Y-24183D01*
X78636Y-24205D01*
X78595Y-24247D01*
X78572Y-24301D01*
X78572Y-24360D01*
X78572Y-24832D01*
X78594Y-24886D01*
X78636Y-24928D01*
X78690Y-24950D01*
X78749Y-24950D01*
X79285Y-24950D01*
X79178Y-25068D01*
X79178Y-25069D01*
X79178Y-25069D01*
X79174Y-25073D01*
X78686Y-25073D01*
X78632Y-25095D01*
X78591Y-25137D01*
X78568Y-25191D01*
X78568Y-25250D01*
X78568Y-25722D01*
X78590Y-25776D01*
X78632Y-25818D01*
X78686Y-25840D01*
X78745Y-25840D01*
X79375Y-25840D01*
X79429Y-25818D01*
X79471Y-25776D01*
X79493Y-25722D01*
X79493Y-25663D01*
X79493Y-25277D01*
X79609Y-25150D01*
X79621Y-25178D01*
X79712Y-25269D01*
X79831Y-25319D01*
X79961Y-25319D01*
X80080Y-25269D01*
X80172Y-25178D01*
X80180Y-25159D01*
X80487Y-25134D01*
X80554Y-25201D01*
X80673Y-25250D01*
X80802Y-25250D01*
X80922Y-25201D01*
X81013Y-25110D01*
X81063Y-24990D01*
X81063Y-24988D01*
X81608Y-25305D01*
X81608Y-25620D01*
X81607Y-25620D01*
X81450Y-25620D01*
X81409Y-25661D01*
X81409Y-25953D01*
X81700Y-25953D01*
X81742Y-25911D01*
X81742Y-25840D01*
X81785Y-25840D01*
X82161Y-25840D01*
X82206Y-30119D01*
X82205Y-30122D01*
X82205Y-30149D01*
X82187Y-30200D01*
X82169Y-30221D01*
X82168Y-30222D01*
X81742Y-30714D01*
X81742Y-26620D01*
X81742Y-26253D01*
X81742Y-26220D01*
X81742Y-26187D01*
X81742Y-26096D01*
X81700Y-26054D01*
X81611Y-26054D01*
X81607Y-26053D01*
X81450Y-26053D01*
X81449Y-26054D01*
X81409Y-26054D01*
X81409Y-26094D01*
X81409Y-26345D01*
X81409Y-26386D01*
X81449Y-26386D01*
X81450Y-26387D01*
X81607Y-26387D01*
X81611Y-26386D01*
X81700Y-26386D01*
X81742Y-26344D01*
X81742Y-26253D01*
X81742Y-26620D01*
X81742Y-26529D01*
X81700Y-26487D01*
X81409Y-26487D01*
X81409Y-26779D01*
X81450Y-26820D01*
X81607Y-26820D01*
X81669Y-26795D01*
X81716Y-26748D01*
X81742Y-26686D01*
X81742Y-26620D01*
X81742Y-30714D01*
X81309Y-31214D01*
X81309Y-26620D01*
X81309Y-26253D01*
X81309Y-26220D01*
X81309Y-26187D01*
X81309Y-25820D01*
X81309Y-25753D01*
X81307Y-25750D01*
X81307Y-25661D01*
X81265Y-25620D01*
X81174Y-25620D01*
X81174Y-25620D01*
X81141Y-25620D01*
X81108Y-25620D01*
X81108Y-25620D01*
X81017Y-25620D01*
X80975Y-25661D01*
X80975Y-25750D01*
X80974Y-25753D01*
X80974Y-25820D01*
X80974Y-25911D01*
X80975Y-25912D01*
X80975Y-25953D01*
X81016Y-25953D01*
X81267Y-25953D01*
X81307Y-25953D01*
X81307Y-25912D01*
X81309Y-25911D01*
X81309Y-25820D01*
X81309Y-26187D01*
X81309Y-26096D01*
X81307Y-26094D01*
X81307Y-26054D01*
X81267Y-26054D01*
X81265Y-26053D01*
X81174Y-26053D01*
X81174Y-26053D01*
X81141Y-26053D01*
X81108Y-26053D01*
X81108Y-26053D01*
X81017Y-26053D01*
X81016Y-26054D01*
X80975Y-26054D01*
X80975Y-26094D01*
X80974Y-26096D01*
X80974Y-26187D01*
X80974Y-26220D01*
X80974Y-26253D01*
X80974Y-26344D01*
X80975Y-26345D01*
X80975Y-26386D01*
X81016Y-26386D01*
X81017Y-26387D01*
X81108Y-26387D01*
X81108Y-26387D01*
X81141Y-26387D01*
X81174Y-26387D01*
X81174Y-26387D01*
X81265Y-26387D01*
X81267Y-26386D01*
X81307Y-26386D01*
X81307Y-26345D01*
X81309Y-26344D01*
X81309Y-26253D01*
X81309Y-26620D01*
X81309Y-26529D01*
X81307Y-26528D01*
X81307Y-26487D01*
X81267Y-26487D01*
X81016Y-26487D01*
X80975Y-26487D01*
X80975Y-26528D01*
X80974Y-26529D01*
X80974Y-26620D01*
X80974Y-26686D01*
X80975Y-26690D01*
X80975Y-26779D01*
X81017Y-26820D01*
X81108Y-26820D01*
X81108Y-26820D01*
X81141Y-26820D01*
X81174Y-26820D01*
X81174Y-26820D01*
X81265Y-26820D01*
X81307Y-26779D01*
X81307Y-26690D01*
X81309Y-26686D01*
X81309Y-26620D01*
X81309Y-31214D01*
X81122Y-31429D01*
X81024Y-31429D01*
X80905Y-31479D01*
X80876Y-31508D01*
X80876Y-26620D01*
X80876Y-26253D01*
X80875Y-26220D01*
X80876Y-26187D01*
X80876Y-25820D01*
X80875Y-25753D01*
X80874Y-25750D01*
X80874Y-25661D01*
X80832Y-25620D01*
X80741Y-25620D01*
X80741Y-25620D01*
X80708Y-25620D01*
X80675Y-25620D01*
X80675Y-25620D01*
X80584Y-25620D01*
X80542Y-25661D01*
X80542Y-25750D01*
X80541Y-25753D01*
X80541Y-25820D01*
X80541Y-25911D01*
X80542Y-25912D01*
X80542Y-25953D01*
X80583Y-25953D01*
X80834Y-25953D01*
X80874Y-25953D01*
X80874Y-25912D01*
X80875Y-25911D01*
X80876Y-25820D01*
X80876Y-26187D01*
X80875Y-26096D01*
X80874Y-26094D01*
X80874Y-26054D01*
X80834Y-26054D01*
X80832Y-26053D01*
X80741Y-26053D01*
X80741Y-26053D01*
X80708Y-26053D01*
X80675Y-26053D01*
X80675Y-26053D01*
X80584Y-26053D01*
X80583Y-26054D01*
X80542Y-26054D01*
X80542Y-26094D01*
X80541Y-26096D01*
X80541Y-26187D01*
X80541Y-26220D01*
X80541Y-26253D01*
X80541Y-26344D01*
X80542Y-26345D01*
X80542Y-26386D01*
X80583Y-26386D01*
X80584Y-26387D01*
X80675Y-26387D01*
X80675Y-26387D01*
X80708Y-26387D01*
X80741Y-26387D01*
X80741Y-26387D01*
X80832Y-26387D01*
X80834Y-26386D01*
X80874Y-26386D01*
X80874Y-26345D01*
X80875Y-26344D01*
X80876Y-26253D01*
X80876Y-26620D01*
X80875Y-26529D01*
X80874Y-26528D01*
X80874Y-26487D01*
X80834Y-26487D01*
X80583Y-26487D01*
X80542Y-26487D01*
X80542Y-26528D01*
X80541Y-26529D01*
X80541Y-26620D01*
X80541Y-26686D01*
X80542Y-26690D01*
X80542Y-26779D01*
X80584Y-26820D01*
X80675Y-26820D01*
X80675Y-26820D01*
X80708Y-26820D01*
X80741Y-26820D01*
X80741Y-26820D01*
X80832Y-26820D01*
X80874Y-26779D01*
X80874Y-26690D01*
X80875Y-26686D01*
X80876Y-26620D01*
X80876Y-31508D01*
X80813Y-31570D01*
X80764Y-31689D01*
X80764Y-31738D01*
X80442Y-31528D01*
X80442Y-26620D01*
X80442Y-26253D01*
X80442Y-26220D01*
X80442Y-26187D01*
X80442Y-25820D01*
X80442Y-25753D01*
X80441Y-25750D01*
X80441Y-25661D01*
X80399Y-25620D01*
X80308Y-25620D01*
X80308Y-25620D01*
X80275Y-25620D01*
X80242Y-25620D01*
X80242Y-25620D01*
X80151Y-25620D01*
X80109Y-25661D01*
X80109Y-25750D01*
X80108Y-25753D01*
X80108Y-25820D01*
X80108Y-25911D01*
X80109Y-25912D01*
X80109Y-25953D01*
X80150Y-25953D01*
X80401Y-25953D01*
X80441Y-25953D01*
X80441Y-25912D01*
X80442Y-25911D01*
X80442Y-25820D01*
X80442Y-26187D01*
X80442Y-26096D01*
X80441Y-26094D01*
X80441Y-26054D01*
X80401Y-26054D01*
X80399Y-26053D01*
X80308Y-26053D01*
X80308Y-26053D01*
X80275Y-26053D01*
X80242Y-26053D01*
X80242Y-26053D01*
X80151Y-26053D01*
X80150Y-26054D01*
X80109Y-26054D01*
X80109Y-26094D01*
X80108Y-26096D01*
X80108Y-26187D01*
X80108Y-26220D01*
X80108Y-26253D01*
X80108Y-26344D01*
X80109Y-26345D01*
X80109Y-26386D01*
X80150Y-26386D01*
X80151Y-26387D01*
X80242Y-26387D01*
X80242Y-26387D01*
X80275Y-26387D01*
X80308Y-26387D01*
X80308Y-26387D01*
X80399Y-26387D01*
X80401Y-26386D01*
X80441Y-26386D01*
X80441Y-26345D01*
X80442Y-26344D01*
X80442Y-26253D01*
X80442Y-26620D01*
X80442Y-26529D01*
X80441Y-26528D01*
X80441Y-26487D01*
X80401Y-26487D01*
X80150Y-26487D01*
X80109Y-26487D01*
X80109Y-26528D01*
X80108Y-26529D01*
X80108Y-26620D01*
X80108Y-26686D01*
X80109Y-26690D01*
X80109Y-26779D01*
X80151Y-26820D01*
X80242Y-26820D01*
X80242Y-26820D01*
X80275Y-26820D01*
X80308Y-26820D01*
X80308Y-26820D01*
X80399Y-26820D01*
X80441Y-26779D01*
X80441Y-26690D01*
X80442Y-26686D01*
X80442Y-26620D01*
X80442Y-31528D01*
X80008Y-31245D01*
X80008Y-26779D01*
X80008Y-26487D01*
X80008Y-26386D01*
X80008Y-26345D01*
X80008Y-26094D01*
X80008Y-26054D01*
X80008Y-25953D01*
X80008Y-25661D01*
X79966Y-25620D01*
X79809Y-25620D01*
X79747Y-25645D01*
X79700Y-25692D01*
X79675Y-25753D01*
X79675Y-25820D01*
X79675Y-25911D01*
X79717Y-25953D01*
X80008Y-25953D01*
X80008Y-26054D01*
X79968Y-26054D01*
X79966Y-26053D01*
X79809Y-26053D01*
X79805Y-26054D01*
X79717Y-26054D01*
X79675Y-26096D01*
X79675Y-26187D01*
X79675Y-26220D01*
X79675Y-26253D01*
X79675Y-26344D01*
X79717Y-26386D01*
X79805Y-26386D01*
X79809Y-26387D01*
X79966Y-26387D01*
X79968Y-26386D01*
X80008Y-26386D01*
X80008Y-26487D01*
X79717Y-26487D01*
X79675Y-26529D01*
X79675Y-26620D01*
X79675Y-26686D01*
X79700Y-26748D01*
X79747Y-26795D01*
X79809Y-26820D01*
X79966Y-26820D01*
X80008Y-26779D01*
X80008Y-31245D01*
X78260Y-30105D01*
X78258Y-30105D01*
X78257Y-30104D01*
X78256Y-30103D01*
X78246Y-30099D01*
X76254Y-28810D01*
X76254Y-23879D01*
X76254Y-23474D01*
X76254Y-23407D01*
X76228Y-23346D01*
X76181Y-23298D01*
X76120Y-23273D01*
X75864Y-23273D01*
X75822Y-23315D01*
X75822Y-23626D01*
X76212Y-23626D01*
X76254Y-23584D01*
X76254Y-23474D01*
X76254Y-23879D01*
X76254Y-23769D01*
X76212Y-23727D01*
X75822Y-23727D01*
X75822Y-24038D01*
X75864Y-24080D01*
X76120Y-24080D01*
X76181Y-24054D01*
X76228Y-24007D01*
X76254Y-23946D01*
X76254Y-23879D01*
X76254Y-28810D01*
X75778Y-28503D01*
X75777Y-28502D01*
X75776Y-28502D01*
X75773Y-28499D01*
X75773Y-28499D01*
X75283Y-28191D01*
X75283Y-28191D01*
X75268Y-28182D01*
X75259Y-28178D01*
X75252Y-28172D01*
X75221Y-28157D01*
X75212Y-28155D01*
X75204Y-28150D01*
X75188Y-28144D01*
X75184Y-28143D01*
X74404Y-27850D01*
X74362Y-27746D01*
X74270Y-27655D01*
X74151Y-27605D01*
X74022Y-27605D01*
X73902Y-27655D01*
X73855Y-27702D01*
X73194Y-25669D01*
X73194Y-25663D01*
X73194Y-25643D01*
X75309Y-25643D01*
X75309Y-25722D01*
X75331Y-25776D01*
X75373Y-25818D01*
X75427Y-25840D01*
X75486Y-25840D01*
X76116Y-25840D01*
X76170Y-25818D01*
X76212Y-25776D01*
X76234Y-25722D01*
X76234Y-25663D01*
X76234Y-25191D01*
X76212Y-25137D01*
X76170Y-25095D01*
X76116Y-25073D01*
X76057Y-25073D01*
X75721Y-25073D01*
X75721Y-24038D01*
X75721Y-23727D01*
X75721Y-23626D01*
X75721Y-23315D01*
X75679Y-23273D01*
X75423Y-23273D01*
X75362Y-23298D01*
X75315Y-23346D01*
X75289Y-23407D01*
X75289Y-23474D01*
X75289Y-23584D01*
X75331Y-23626D01*
X75721Y-23626D01*
X75721Y-23727D01*
X75331Y-23727D01*
X75289Y-23769D01*
X75289Y-23879D01*
X75289Y-23946D01*
X75315Y-24007D01*
X75362Y-24054D01*
X75423Y-24080D01*
X75679Y-24080D01*
X75721Y-24038D01*
X75721Y-25073D01*
X75427Y-25073D01*
X75373Y-25095D01*
X75331Y-25137D01*
X75309Y-25191D01*
X75309Y-25250D01*
X75309Y-25269D01*
X73214Y-25269D01*
X73214Y-23879D01*
X73214Y-23474D01*
X73214Y-23407D01*
X73188Y-23346D01*
X73141Y-23298D01*
X73080Y-23273D01*
X72824Y-23273D01*
X72782Y-23315D01*
X72782Y-23626D01*
X73172Y-23626D01*
X73214Y-23584D01*
X73214Y-23474D01*
X73214Y-23879D01*
X73214Y-23769D01*
X73172Y-23727D01*
X72782Y-23727D01*
X72782Y-24038D01*
X72824Y-24080D01*
X73080Y-24080D01*
X73141Y-24054D01*
X73188Y-24007D01*
X73214Y-23946D01*
X73214Y-23879D01*
X73214Y-25269D01*
X73198Y-25269D01*
X73198Y-24773D01*
X73198Y-24301D01*
X73176Y-24247D01*
X73134Y-24205D01*
X73080Y-24183D01*
X73021Y-24183D01*
X72681Y-24183D01*
X72681Y-24038D01*
X72681Y-23727D01*
X72681Y-23626D01*
X72681Y-23315D01*
X72639Y-23273D01*
X72383Y-23273D01*
X72322Y-23298D01*
X72275Y-23346D01*
X72249Y-23407D01*
X72249Y-23474D01*
X72249Y-23584D01*
X72291Y-23626D01*
X72681Y-23626D01*
X72681Y-23727D01*
X72291Y-23727D01*
X72249Y-23769D01*
X72249Y-23879D01*
X72249Y-23946D01*
X72275Y-24007D01*
X72322Y-24054D01*
X72383Y-24080D01*
X72639Y-24080D01*
X72681Y-24038D01*
X72681Y-24183D01*
X72391Y-24183D01*
X72337Y-24205D01*
X72295Y-24247D01*
X72273Y-24301D01*
X72273Y-24360D01*
X72273Y-24832D01*
X72295Y-24886D01*
X72337Y-24928D01*
X72391Y-24950D01*
X72450Y-24950D01*
X73080Y-24950D01*
X73134Y-24928D01*
X73176Y-24886D01*
X73198Y-24832D01*
X73198Y-24773D01*
X73198Y-25269D01*
X73194Y-25269D01*
X73194Y-25191D01*
X73172Y-25137D01*
X73130Y-25095D01*
X73076Y-25073D01*
X73017Y-25073D01*
X72387Y-25073D01*
X72333Y-25095D01*
X72291Y-25137D01*
X72269Y-25191D01*
X72269Y-25250D01*
X72269Y-25722D01*
X72291Y-25776D01*
X72333Y-25818D01*
X72387Y-25840D01*
X72446Y-25840D01*
X72856Y-25840D01*
X74071Y-29578D01*
X74054Y-29595D01*
X74004Y-29714D01*
X74004Y-29843D01*
X74054Y-29963D01*
X74145Y-30054D01*
X74264Y-30104D01*
X74393Y-30104D01*
X74513Y-30054D01*
X74604Y-29963D01*
X74654Y-29844D01*
X74654Y-29715D01*
X74605Y-29595D01*
X74513Y-29504D01*
X74429Y-29469D01*
X74034Y-28255D01*
X74150Y-28255D01*
X74270Y-28206D01*
X74275Y-28201D01*
X75056Y-28495D01*
X75060Y-28495D01*
X75063Y-28496D01*
X75077Y-28503D01*
X75083Y-28507D01*
X75083Y-28507D01*
X75325Y-28660D01*
X75311Y-28665D01*
X75220Y-28757D01*
X75170Y-28876D01*
X75170Y-29005D01*
X75220Y-29125D01*
X75311Y-29216D01*
X75369Y-29240D01*
X75957Y-30418D01*
X75851Y-30578D01*
X75851Y-30578D01*
X75834Y-30603D01*
X75789Y-30633D01*
X75755Y-30633D01*
X72215Y-31347D01*
X72215Y-24695D01*
X72010Y-24199D01*
X72007Y-24194D01*
X71843Y-24054D01*
X71772Y-24126D01*
X71772Y-23982D01*
X71632Y-23819D01*
X71137Y-23612D01*
X70601Y-23611D01*
X70105Y-23815D01*
X70099Y-23819D01*
X69960Y-23982D01*
X70866Y-24888D01*
X71772Y-23982D01*
X71772Y-24126D01*
X70937Y-24960D01*
X71843Y-25866D01*
X72007Y-25727D01*
X72213Y-25231D01*
X72215Y-24695D01*
X72215Y-31347D01*
X71772Y-31437D01*
X71772Y-25938D01*
X70866Y-25032D01*
X70794Y-25104D01*
X70794Y-24960D01*
X69888Y-24054D01*
X69724Y-24194D01*
X69518Y-24689D01*
X69517Y-25225D01*
X69721Y-25721D01*
X69724Y-25727D01*
X69888Y-25866D01*
X70794Y-24960D01*
X70794Y-25104D01*
X69960Y-25938D01*
X70099Y-26101D01*
X70594Y-26308D01*
X71131Y-26309D01*
X71627Y-26105D01*
X71632Y-26101D01*
X71772Y-25938D01*
X71772Y-31437D01*
X70521Y-31689D01*
X70521Y-30384D01*
X70521Y-29951D01*
X70521Y-29518D01*
X70521Y-29084D01*
X70499Y-29030D01*
X70457Y-28989D01*
X70403Y-28966D01*
X70344Y-28966D01*
X69911Y-28966D01*
X69478Y-28966D01*
X69045Y-28966D01*
X68612Y-28966D01*
X68179Y-28966D01*
X68125Y-28988D01*
X68083Y-29030D01*
X68061Y-29084D01*
X68060Y-29143D01*
X68060Y-29576D01*
X68060Y-30009D01*
X68060Y-30442D01*
X68083Y-30496D01*
X68124Y-30538D01*
X68179Y-30560D01*
X68237Y-30561D01*
X68670Y-30561D01*
X69104Y-30561D01*
X69537Y-30561D01*
X69970Y-30561D01*
X70403Y-30561D01*
X70457Y-30538D01*
X70499Y-30497D01*
X70521Y-30442D01*
X70521Y-30384D01*
X70521Y-31689D01*
X67238Y-32351D01*
X67238Y-31091D01*
X67238Y-26366D01*
X67229Y-26104D01*
X67214Y-26070D01*
X67214Y-24164D01*
X67117Y-23929D01*
X66937Y-23749D01*
X66702Y-23651D01*
X66448Y-23651D01*
X66212Y-23748D01*
X66032Y-23928D01*
X65935Y-24163D01*
X65934Y-24418D01*
X66032Y-24653D01*
X66211Y-24833D01*
X66446Y-24930D01*
X66701Y-24931D01*
X66936Y-24834D01*
X67116Y-24654D01*
X67214Y-24419D01*
X67214Y-24164D01*
X67214Y-26070D01*
X67147Y-25906D01*
X67055Y-25851D01*
X66983Y-25923D01*
X66983Y-25779D01*
X66927Y-25687D01*
X66681Y-25596D01*
X66419Y-25605D01*
X66221Y-25687D01*
X66166Y-25779D01*
X66574Y-26188D01*
X66983Y-25779D01*
X66983Y-25923D01*
X66646Y-26259D01*
X67055Y-26668D01*
X67147Y-26612D01*
X67238Y-26366D01*
X67238Y-31091D01*
X67229Y-30829D01*
X67214Y-30794D01*
X67214Y-28889D01*
X67117Y-28653D01*
X66983Y-28519D01*
X66983Y-26740D01*
X66574Y-26331D01*
X66502Y-26403D01*
X66502Y-26259D01*
X66094Y-25851D01*
X66002Y-25906D01*
X65911Y-26152D01*
X65920Y-26414D01*
X66002Y-26612D01*
X66094Y-26668D01*
X66502Y-26259D01*
X66502Y-26403D01*
X66166Y-26740D01*
X66221Y-26832D01*
X66467Y-26923D01*
X66729Y-26914D01*
X66927Y-26832D01*
X66983Y-26740D01*
X66983Y-28519D01*
X66937Y-28473D01*
X66702Y-28376D01*
X66448Y-28375D01*
X66212Y-28473D01*
X66032Y-28652D01*
X65935Y-28887D01*
X65934Y-29142D01*
X66032Y-29377D01*
X66211Y-29557D01*
X66446Y-29655D01*
X66701Y-29655D01*
X66936Y-29558D01*
X67116Y-29378D01*
X67214Y-29143D01*
X67214Y-28889D01*
X67214Y-30794D01*
X67147Y-30631D01*
X67055Y-30575D01*
X66983Y-30647D01*
X66983Y-30503D01*
X66927Y-30411D01*
X66681Y-30320D01*
X66419Y-30330D01*
X66221Y-30411D01*
X66166Y-30503D01*
X66574Y-30912D01*
X66983Y-30503D01*
X66983Y-30647D01*
X66646Y-30984D01*
X67055Y-31392D01*
X67147Y-31337D01*
X67238Y-31091D01*
X67238Y-32351D01*
X66983Y-32402D01*
X66983Y-31464D01*
X66574Y-31056D01*
X66502Y-31127D01*
X66502Y-30984D01*
X66094Y-30575D01*
X66002Y-30631D01*
X65911Y-30877D01*
X65920Y-31139D01*
X66002Y-31337D01*
X66094Y-31392D01*
X66502Y-30984D01*
X66502Y-31127D01*
X66166Y-31464D01*
X66221Y-31556D01*
X66467Y-31648D01*
X66729Y-31638D01*
X66927Y-31556D01*
X66983Y-31464D01*
X66983Y-32402D01*
X66621Y-32475D01*
X66621Y-32475D01*
X66585Y-32482D01*
X66546Y-32499D01*
X66506Y-32513D01*
X66442Y-32551D01*
X66411Y-32580D01*
X66378Y-32607D01*
X66330Y-32665D01*
X66311Y-32702D01*
X66289Y-32738D01*
X66264Y-32809D01*
X66258Y-32850D01*
X66250Y-32891D01*
X66250Y-32928D01*
X66250Y-32928D01*
X66250Y-32929D01*
X66250Y-36224D01*
X66250Y-36254D01*
X66252Y-36269D01*
X66251Y-36283D01*
X66258Y-36343D01*
X66263Y-36357D01*
X66263Y-36371D01*
X66270Y-36401D01*
X66270Y-36401D01*
X66944Y-39207D01*
X66905Y-39246D01*
X66840Y-39401D01*
X66840Y-39570D01*
X66880Y-39665D01*
X66621Y-40122D01*
X66621Y-40123D01*
X66589Y-40178D01*
X66580Y-40208D01*
X66565Y-40237D01*
X66533Y-40360D01*
X66531Y-40391D01*
X66525Y-40422D01*
X66525Y-40486D01*
X66525Y-40487D01*
X66525Y-40487D01*
X66527Y-41483D01*
X66526Y-41487D01*
X66526Y-41564D01*
X66534Y-41601D01*
X66538Y-41638D01*
X66585Y-41784D01*
X66603Y-41818D01*
X66619Y-41852D01*
X66664Y-41915D01*
X66664Y-41915D01*
X66664Y-41915D01*
X67738Y-43415D01*
X65222Y-43415D01*
X65151Y-43385D01*
X65259Y-43341D01*
X65506Y-43095D01*
X65639Y-42773D01*
X65640Y-42424D01*
X65506Y-42102D01*
X65260Y-41855D01*
X64938Y-41722D01*
X64590Y-41721D01*
X64268Y-41855D01*
X64120Y-42002D01*
X64120Y-38469D01*
X64266Y-38616D01*
X64588Y-38750D01*
X64937Y-38750D01*
X65259Y-38617D01*
X65506Y-38371D01*
X65639Y-38049D01*
X65640Y-37700D01*
X65506Y-37378D01*
X65270Y-37141D01*
X65270Y-31091D01*
X65270Y-26366D01*
X65260Y-26104D01*
X65178Y-25906D01*
X65086Y-25851D01*
X65014Y-25923D01*
X65014Y-25779D01*
X64959Y-25687D01*
X64713Y-25596D01*
X64451Y-25605D01*
X64253Y-25687D01*
X64197Y-25779D01*
X64606Y-26188D01*
X65014Y-25779D01*
X65014Y-25923D01*
X64678Y-26259D01*
X65086Y-26668D01*
X65178Y-26612D01*
X65270Y-26366D01*
X65270Y-31091D01*
X65260Y-30829D01*
X65178Y-30631D01*
X65086Y-30575D01*
X65014Y-30647D01*
X65014Y-30503D01*
X64959Y-30411D01*
X64713Y-30320D01*
X64451Y-30330D01*
X64253Y-30411D01*
X64197Y-30503D01*
X64606Y-30912D01*
X65014Y-30503D01*
X65014Y-30647D01*
X64678Y-30984D01*
X65086Y-31392D01*
X65178Y-31337D01*
X65270Y-31091D01*
X65270Y-37141D01*
X65260Y-37131D01*
X65014Y-37029D01*
X65014Y-31464D01*
X64606Y-31056D01*
X64197Y-31464D01*
X64253Y-31556D01*
X64499Y-31648D01*
X64761Y-31638D01*
X64959Y-31556D01*
X65014Y-31464D01*
X65014Y-37029D01*
X64938Y-36998D01*
X64590Y-36997D01*
X64268Y-37131D01*
X64120Y-37278D01*
X64120Y-31389D01*
X64125Y-31392D01*
X64534Y-30984D01*
X64125Y-30575D01*
X64120Y-30579D01*
X64120Y-29434D01*
X64243Y-29557D01*
X64478Y-29655D01*
X64732Y-29655D01*
X64968Y-29558D01*
X65148Y-29378D01*
X65245Y-29143D01*
X65246Y-28889D01*
X65148Y-28653D01*
X65014Y-28519D01*
X65014Y-26740D01*
X64606Y-26331D01*
X64197Y-26740D01*
X64253Y-26832D01*
X64499Y-26923D01*
X64761Y-26914D01*
X64959Y-26832D01*
X65014Y-26740D01*
X65014Y-28519D01*
X64969Y-28473D01*
X64734Y-28376D01*
X64479Y-28375D01*
X64244Y-28473D01*
X64120Y-28596D01*
X64120Y-26664D01*
X64125Y-26668D01*
X64534Y-26259D01*
X64125Y-25851D01*
X64120Y-25854D01*
X64120Y-24710D01*
X64243Y-24833D01*
X64478Y-24930D01*
X64732Y-24931D01*
X64968Y-24834D01*
X65148Y-24654D01*
X65245Y-24419D01*
X65246Y-24164D01*
X65148Y-23929D01*
X64969Y-23749D01*
X64734Y-23651D01*
X64479Y-23651D01*
X64244Y-23748D01*
X64120Y-23872D01*
X64120Y-23214D01*
X83776Y-23214D01*
X83745Y-23284D01*
X84011Y-23550D01*
X84277Y-23284D01*
X84247Y-23214D01*
X84837Y-23214D01*
G54D10*
G36*
X84897Y-36136D02*
X84872Y-36162D01*
X84822Y-36281D01*
X84822Y-36410D01*
X84826Y-36421D01*
X84614Y-36654D01*
X84614Y-36654D01*
X84602Y-36667D01*
X84573Y-36687D01*
X84563Y-36691D01*
X84556Y-36692D01*
X83058Y-37258D01*
X83058Y-37258D01*
X83028Y-37269D01*
X82962Y-37264D01*
X82934Y-37248D01*
X82934Y-37248D01*
X82799Y-37172D01*
X82799Y-37172D01*
X82789Y-37167D01*
X82783Y-37165D01*
X82778Y-37161D01*
X82756Y-37150D01*
X82749Y-37149D01*
X82743Y-37145D01*
X82739Y-37143D01*
X82733Y-37140D01*
X81383Y-36613D01*
X81339Y-36505D01*
X81247Y-36414D01*
X81128Y-36364D01*
X80999Y-36364D01*
X80879Y-36414D01*
X80788Y-36505D01*
X80776Y-36535D01*
X80511Y-36245D01*
X80515Y-36235D01*
X80515Y-36106D01*
X80467Y-35991D01*
X80566Y-36032D01*
X80695Y-36032D01*
X80814Y-35983D01*
X80906Y-35892D01*
X80914Y-35870D01*
X82690Y-35715D01*
X82754Y-35779D01*
X82873Y-35829D01*
X83003Y-35829D01*
X83122Y-35780D01*
X83214Y-35688D01*
X83263Y-35569D01*
X83263Y-35512D01*
X84897Y-36136D01*
X84897Y-36136D01*
G37*
G54D36*
X84897Y-36136D02*
X84872Y-36162D01*
X84822Y-36281D01*
X84822Y-36410D01*
X84826Y-36421D01*
X84614Y-36654D01*
X84614Y-36654D01*
X84602Y-36667D01*
X84573Y-36687D01*
X84563Y-36691D01*
X84556Y-36692D01*
X83058Y-37258D01*
X83058Y-37258D01*
X83028Y-37269D01*
X82962Y-37264D01*
X82934Y-37248D01*
X82934Y-37248D01*
X82799Y-37172D01*
X82799Y-37172D01*
X82789Y-37167D01*
X82783Y-37165D01*
X82778Y-37161D01*
X82756Y-37150D01*
X82749Y-37149D01*
X82743Y-37145D01*
X82739Y-37143D01*
X82733Y-37140D01*
X81383Y-36613D01*
X81339Y-36505D01*
X81247Y-36414D01*
X81128Y-36364D01*
X80999Y-36364D01*
X80879Y-36414D01*
X80788Y-36505D01*
X80776Y-36535D01*
X80511Y-36245D01*
X80515Y-36235D01*
X80515Y-36106D01*
X80467Y-35991D01*
X80566Y-36032D01*
X80695Y-36032D01*
X80814Y-35983D01*
X80906Y-35892D01*
X80914Y-35870D01*
X82690Y-35715D01*
X82754Y-35779D01*
X82873Y-35829D01*
X83003Y-35829D01*
X83122Y-35780D01*
X83214Y-35688D01*
X83263Y-35569D01*
X83263Y-35512D01*
X84897Y-36136D01*
G54D10*
G36*
X87980Y-34894D02*
X87965Y-34879D01*
X87949Y-34879D01*
X87944Y-34881D01*
X87930Y-34862D01*
X87929Y-34862D01*
X87913Y-34840D01*
X87908Y-34835D01*
X87904Y-34830D01*
X87881Y-34811D01*
X87858Y-34791D01*
X87852Y-34789D01*
X87846Y-34785D01*
X87796Y-34760D01*
X87790Y-34759D01*
X87784Y-34755D01*
X87755Y-34749D01*
X87726Y-34741D01*
X87719Y-34742D01*
X87712Y-34741D01*
X87684Y-34741D01*
X87684Y-34741D01*
X87611Y-34742D01*
X87603Y-34741D01*
X87588Y-34738D01*
X85400Y-34738D01*
X87589Y-34450D01*
X87602Y-34446D01*
X87609Y-34445D01*
X87650Y-34451D01*
X87689Y-34469D01*
X87720Y-34496D01*
X87731Y-34513D01*
X87732Y-34513D01*
X87980Y-34894D01*
X87980Y-34894D01*
G37*
G54D36*
X87980Y-34894D02*
X87965Y-34879D01*
X87949Y-34879D01*
X87944Y-34881D01*
X87930Y-34862D01*
X87929Y-34862D01*
X87913Y-34840D01*
X87908Y-34835D01*
X87904Y-34830D01*
X87881Y-34811D01*
X87858Y-34791D01*
X87852Y-34789D01*
X87846Y-34785D01*
X87796Y-34760D01*
X87790Y-34759D01*
X87784Y-34755D01*
X87755Y-34749D01*
X87726Y-34741D01*
X87719Y-34742D01*
X87712Y-34741D01*
X87684Y-34741D01*
X87684Y-34741D01*
X87611Y-34742D01*
X87603Y-34741D01*
X87588Y-34738D01*
X85400Y-34738D01*
X87589Y-34450D01*
X87602Y-34446D01*
X87609Y-34445D01*
X87650Y-34451D01*
X87689Y-34469D01*
X87720Y-34496D01*
X87731Y-34513D01*
X87732Y-34513D01*
X87980Y-34894D01*
G54D10*
G36*
X88027Y-37856D02*
X87972Y-38019D01*
X87972Y-38019D01*
X87972Y-38019D01*
X87964Y-38044D01*
X87930Y-38086D01*
X87884Y-38113D01*
X87831Y-38122D01*
X87805Y-38117D01*
X87805Y-38117D01*
X87780Y-38112D01*
X87708Y-38061D01*
X87687Y-38052D01*
X87686Y-38052D01*
X87685Y-38051D01*
X87641Y-38032D01*
X87624Y-38031D01*
X87595Y-38022D01*
X83429Y-37518D01*
X84682Y-37044D01*
X84689Y-37043D01*
X84726Y-37029D01*
X84745Y-37017D01*
X84765Y-37008D01*
X84831Y-36964D01*
X84846Y-36948D01*
X84864Y-36935D01*
X84891Y-36906D01*
X84891Y-36906D01*
X85105Y-36671D01*
X85211Y-36671D01*
X85331Y-36621D01*
X85422Y-36530D01*
X85469Y-36417D01*
X85635Y-36519D01*
X85635Y-36563D01*
X85684Y-36683D01*
X85776Y-36774D01*
X85895Y-36824D01*
X86024Y-36824D01*
X86144Y-36774D01*
X86235Y-36683D01*
X86285Y-36564D01*
X86285Y-36435D01*
X86235Y-36315D01*
X86144Y-36224D01*
X86025Y-36174D01*
X85896Y-36174D01*
X85832Y-36200D01*
X85400Y-35935D01*
X85400Y-35935D01*
X85399Y-35935D01*
X85388Y-35927D01*
X85379Y-35924D01*
X85372Y-35919D01*
X85348Y-35907D01*
X85340Y-35905D01*
X85332Y-35900D01*
X85319Y-35895D01*
X85311Y-35894D01*
X83676Y-35269D01*
X83677Y-35269D01*
X83678Y-35269D01*
X83710Y-35270D01*
X83712Y-35270D01*
X83714Y-35270D01*
X87440Y-35270D01*
X87440Y-35344D01*
X86998Y-35344D01*
X86998Y-37282D01*
X86969Y-37311D01*
X86919Y-37430D01*
X86919Y-37560D01*
X86968Y-37679D01*
X87060Y-37770D01*
X87179Y-37820D01*
X87308Y-37820D01*
X87428Y-37771D01*
X87446Y-37752D01*
X87463Y-37792D01*
X87504Y-37834D01*
X87559Y-37856D01*
X87617Y-37856D01*
X87704Y-37856D01*
X87752Y-37876D01*
X87768Y-37876D01*
X87809Y-37834D01*
X87809Y-37794D01*
X87811Y-37792D01*
X87834Y-37738D01*
X87834Y-37679D01*
X87834Y-37500D01*
X87834Y-37500D01*
X87834Y-37738D01*
X87857Y-37792D01*
X87858Y-37794D01*
X87858Y-37834D01*
X87900Y-37876D01*
X87916Y-37876D01*
X87964Y-37856D01*
X88011Y-37856D01*
X88027Y-37856D01*
X88027Y-37856D01*
G37*
G54D36*
X88027Y-37856D02*
X87972Y-38019D01*
X87972Y-38019D01*
X87972Y-38019D01*
X87964Y-38044D01*
X87930Y-38086D01*
X87884Y-38113D01*
X87831Y-38122D01*
X87805Y-38117D01*
X87805Y-38117D01*
X87780Y-38112D01*
X87708Y-38061D01*
X87687Y-38052D01*
X87686Y-38052D01*
X87685Y-38051D01*
X87641Y-38032D01*
X87624Y-38031D01*
X87595Y-38022D01*
X83429Y-37518D01*
X84682Y-37044D01*
X84689Y-37043D01*
X84726Y-37029D01*
X84745Y-37017D01*
X84765Y-37008D01*
X84831Y-36964D01*
X84846Y-36948D01*
X84864Y-36935D01*
X84891Y-36906D01*
X84891Y-36906D01*
X85105Y-36671D01*
X85211Y-36671D01*
X85331Y-36621D01*
X85422Y-36530D01*
X85469Y-36417D01*
X85635Y-36519D01*
X85635Y-36563D01*
X85684Y-36683D01*
X85776Y-36774D01*
X85895Y-36824D01*
X86024Y-36824D01*
X86144Y-36774D01*
X86235Y-36683D01*
X86285Y-36564D01*
X86285Y-36435D01*
X86235Y-36315D01*
X86144Y-36224D01*
X86025Y-36174D01*
X85896Y-36174D01*
X85832Y-36200D01*
X85400Y-35935D01*
X85400Y-35935D01*
X85399Y-35935D01*
X85388Y-35927D01*
X85379Y-35924D01*
X85372Y-35919D01*
X85348Y-35907D01*
X85340Y-35905D01*
X85332Y-35900D01*
X85319Y-35895D01*
X85311Y-35894D01*
X83676Y-35269D01*
X83677Y-35269D01*
X83678Y-35269D01*
X83710Y-35270D01*
X83712Y-35270D01*
X83714Y-35270D01*
X87440Y-35270D01*
X87440Y-35344D01*
X86998Y-35344D01*
X86998Y-37282D01*
X86969Y-37311D01*
X86919Y-37430D01*
X86919Y-37560D01*
X86968Y-37679D01*
X87060Y-37770D01*
X87179Y-37820D01*
X87308Y-37820D01*
X87428Y-37771D01*
X87446Y-37752D01*
X87463Y-37792D01*
X87504Y-37834D01*
X87559Y-37856D01*
X87617Y-37856D01*
X87704Y-37856D01*
X87752Y-37876D01*
X87768Y-37876D01*
X87809Y-37834D01*
X87809Y-37794D01*
X87811Y-37792D01*
X87834Y-37738D01*
X87834Y-37679D01*
X87834Y-37500D01*
X87834Y-37500D01*
X87834Y-37738D01*
X87857Y-37792D01*
X87858Y-37794D01*
X87858Y-37834D01*
X87900Y-37876D01*
X87916Y-37876D01*
X87964Y-37856D01*
X88011Y-37856D01*
X88027Y-37856D01*
G54D10*
G36*
X88031Y-35255D02*
X88031Y-35255D01*
X88031Y-35138D01*
X88031Y-35138D01*
X88031Y-35255D01*
X88031Y-35255D01*
G37*
G54D36*
X88031Y-35255D02*
X88031Y-35255D01*
X88031Y-35138D01*
X88031Y-35138D01*
X88031Y-35255D01*
G54D10*
G36*
X89163Y-43415D02*
X87708Y-43415D01*
X87708Y-41280D01*
X87695Y-41096D01*
X87683Y-41067D01*
X87683Y-40486D01*
X87683Y-39895D01*
X87660Y-39841D01*
X87619Y-39799D01*
X87565Y-39777D01*
X87506Y-39777D01*
X86915Y-39777D01*
X86861Y-39799D01*
X86819Y-39841D01*
X86797Y-39895D01*
X86796Y-39954D01*
X86796Y-40545D01*
X86819Y-40599D01*
X86860Y-40641D01*
X86915Y-40663D01*
X86973Y-40663D01*
X87564Y-40663D01*
X87619Y-40641D01*
X87660Y-40599D01*
X87683Y-40545D01*
X87683Y-40486D01*
X87683Y-41067D01*
X87649Y-40985D01*
X87578Y-40954D01*
X87506Y-41026D01*
X87506Y-40882D01*
X87474Y-40811D01*
X87300Y-40752D01*
X87116Y-40765D01*
X87005Y-40811D01*
X86974Y-40882D01*
X87240Y-41148D01*
X87506Y-40882D01*
X87506Y-41026D01*
X87311Y-41220D01*
X87578Y-41486D01*
X87649Y-41455D01*
X87708Y-41280D01*
X87708Y-43415D01*
X87683Y-43415D01*
X87683Y-42132D01*
X87616Y-41969D01*
X87506Y-41859D01*
X87506Y-41558D01*
X87240Y-41292D01*
X87168Y-41364D01*
X87168Y-41220D01*
X86902Y-40954D01*
X86830Y-40985D01*
X86772Y-41160D01*
X86784Y-41344D01*
X86830Y-41455D01*
X86902Y-41486D01*
X87168Y-41220D01*
X87168Y-41364D01*
X86974Y-41558D01*
X87005Y-41629D01*
X87180Y-41688D01*
X87363Y-41675D01*
X87474Y-41629D01*
X87506Y-41558D01*
X87506Y-41859D01*
X87491Y-41845D01*
X87328Y-41777D01*
X87152Y-41777D01*
X86989Y-41844D01*
X86864Y-41969D01*
X86797Y-42131D01*
X86796Y-42308D01*
X86864Y-42471D01*
X86988Y-42595D01*
X87151Y-42663D01*
X87327Y-42663D01*
X87490Y-42596D01*
X87615Y-42471D01*
X87683Y-42309D01*
X87683Y-42132D01*
X87683Y-43415D01*
X82428Y-43415D01*
X82480Y-43393D01*
X82527Y-43346D01*
X82553Y-43285D01*
X82553Y-43218D01*
X82553Y-42813D01*
X82553Y-42746D01*
X82529Y-42689D01*
X82529Y-42332D01*
X82529Y-41860D01*
X82507Y-41806D01*
X82465Y-41764D01*
X82411Y-41742D01*
X82352Y-41742D01*
X81722Y-41742D01*
X81668Y-41764D01*
X81627Y-41806D01*
X81604Y-41860D01*
X81604Y-41919D01*
X81604Y-42391D01*
X81626Y-42445D01*
X81668Y-42487D01*
X81722Y-42509D01*
X81781Y-42509D01*
X82411Y-42509D01*
X82465Y-42487D01*
X82507Y-42445D01*
X82529Y-42391D01*
X82529Y-42332D01*
X82529Y-42689D01*
X82527Y-42685D01*
X82480Y-42638D01*
X82419Y-42612D01*
X82163Y-42612D01*
X82121Y-42654D01*
X82121Y-42965D01*
X82511Y-42965D01*
X82553Y-42923D01*
X82553Y-42813D01*
X82553Y-43218D01*
X82553Y-43108D01*
X82511Y-43066D01*
X82121Y-43066D01*
X82121Y-43074D01*
X82020Y-43074D01*
X82020Y-43066D01*
X82020Y-42965D01*
X82020Y-42654D01*
X81978Y-42612D01*
X81723Y-42612D01*
X81661Y-42638D01*
X81614Y-42685D01*
X81588Y-42746D01*
X81588Y-42813D01*
X81588Y-42923D01*
X81630Y-42965D01*
X82020Y-42965D01*
X82020Y-43066D01*
X81630Y-43066D01*
X81588Y-43108D01*
X81588Y-43218D01*
X81588Y-43285D01*
X81614Y-43346D01*
X81661Y-43393D01*
X81713Y-43415D01*
X81055Y-43415D01*
X81055Y-40784D01*
X81055Y-40351D01*
X81055Y-40318D01*
X81055Y-40285D01*
X81055Y-39852D01*
X81029Y-39790D01*
X80982Y-39743D01*
X80921Y-39718D01*
X80854Y-39718D01*
X80763Y-39718D01*
X80722Y-39760D01*
X80722Y-40051D01*
X81013Y-40051D01*
X81055Y-40009D01*
X81055Y-39852D01*
X81055Y-40285D01*
X81055Y-40285D01*
X81055Y-40194D01*
X81013Y-40152D01*
X80925Y-40152D01*
X80921Y-40151D01*
X80854Y-40151D01*
X80763Y-40151D01*
X80762Y-40152D01*
X80722Y-40152D01*
X80722Y-40193D01*
X80722Y-40444D01*
X80722Y-40484D01*
X80762Y-40484D01*
X80763Y-40485D01*
X80854Y-40485D01*
X80921Y-40485D01*
X80925Y-40484D01*
X81013Y-40484D01*
X81055Y-40442D01*
X81055Y-40351D01*
X81055Y-40351D01*
X81055Y-40784D01*
X81055Y-40627D01*
X81013Y-40585D01*
X80722Y-40585D01*
X80722Y-40877D01*
X80763Y-40918D01*
X80854Y-40919D01*
X80921Y-40918D01*
X80982Y-40893D01*
X81029Y-40846D01*
X81055Y-40784D01*
X81055Y-43415D01*
X80622Y-43415D01*
X80622Y-40784D01*
X80622Y-40351D01*
X80622Y-40318D01*
X80622Y-40285D01*
X80622Y-39852D01*
X80620Y-39848D01*
X80620Y-39760D01*
X80578Y-39718D01*
X80487Y-39718D01*
X80454Y-39718D01*
X80421Y-39718D01*
X80330Y-39718D01*
X80289Y-39760D01*
X80289Y-39848D01*
X80287Y-39852D01*
X80287Y-40009D01*
X80289Y-40011D01*
X80289Y-40051D01*
X80329Y-40051D01*
X80580Y-40051D01*
X80620Y-40051D01*
X80620Y-40011D01*
X80622Y-40009D01*
X80622Y-39852D01*
X80622Y-40285D01*
X80622Y-40285D01*
X80622Y-40194D01*
X80620Y-40193D01*
X80620Y-40152D01*
X80580Y-40152D01*
X80578Y-40151D01*
X80487Y-40151D01*
X80454Y-40151D01*
X80421Y-40151D01*
X80330Y-40151D01*
X80329Y-40152D01*
X80289Y-40152D01*
X80289Y-40193D01*
X80287Y-40194D01*
X80287Y-40285D01*
X80287Y-40285D01*
X80287Y-40318D01*
X80287Y-40351D01*
X80287Y-40351D01*
X80287Y-40442D01*
X80289Y-40444D01*
X80289Y-40484D01*
X80329Y-40484D01*
X80330Y-40485D01*
X80421Y-40485D01*
X80454Y-40485D01*
X80487Y-40485D01*
X80578Y-40485D01*
X80580Y-40484D01*
X80620Y-40484D01*
X80620Y-40444D01*
X80622Y-40442D01*
X80622Y-40351D01*
X80622Y-40351D01*
X80622Y-40784D01*
X80622Y-40627D01*
X80620Y-40626D01*
X80620Y-40585D01*
X80580Y-40585D01*
X80329Y-40585D01*
X80289Y-40585D01*
X80289Y-40626D01*
X80287Y-40627D01*
X80287Y-40784D01*
X80289Y-40788D01*
X80289Y-40877D01*
X80330Y-40918D01*
X80421Y-40919D01*
X80454Y-40918D01*
X80487Y-40919D01*
X80578Y-40918D01*
X80620Y-40877D01*
X80620Y-40788D01*
X80622Y-40784D01*
X80622Y-43415D01*
X80187Y-43415D01*
X80187Y-40877D01*
X80187Y-40585D01*
X80187Y-40484D01*
X80187Y-40444D01*
X80187Y-40193D01*
X80187Y-40152D01*
X80187Y-40051D01*
X80187Y-39760D01*
X80145Y-39718D01*
X80054Y-39718D01*
X79988Y-39718D01*
X79926Y-39743D01*
X79879Y-39790D01*
X79854Y-39852D01*
X79854Y-40009D01*
X79896Y-40051D01*
X80187Y-40051D01*
X80187Y-40152D01*
X80147Y-40152D01*
X80145Y-40151D01*
X80054Y-40151D01*
X79988Y-40151D01*
X79984Y-40152D01*
X79896Y-40152D01*
X79854Y-40194D01*
X79854Y-40285D01*
X79854Y-40285D01*
X79854Y-40318D01*
X79854Y-40351D01*
X79854Y-40351D01*
X79854Y-40442D01*
X79896Y-40484D01*
X79984Y-40484D01*
X79988Y-40485D01*
X80054Y-40485D01*
X80145Y-40485D01*
X80147Y-40484D01*
X80187Y-40484D01*
X80187Y-40585D01*
X79896Y-40585D01*
X79854Y-40627D01*
X79854Y-40784D01*
X79879Y-40846D01*
X79926Y-40893D01*
X79988Y-40918D01*
X80054Y-40919D01*
X80145Y-40918D01*
X80187Y-40877D01*
X80187Y-43415D01*
X79388Y-43415D01*
X79440Y-43393D01*
X79487Y-43346D01*
X79513Y-43285D01*
X79513Y-43218D01*
X79513Y-42813D01*
X79513Y-42746D01*
X79487Y-42685D01*
X79440Y-42638D01*
X79379Y-42612D01*
X79123Y-42612D01*
X79081Y-42654D01*
X79081Y-42965D01*
X79471Y-42965D01*
X79513Y-42923D01*
X79513Y-42813D01*
X79513Y-43218D01*
X79513Y-43108D01*
X79471Y-43066D01*
X79081Y-43066D01*
X79081Y-43074D01*
X78980Y-43074D01*
X78980Y-43066D01*
X78980Y-42965D01*
X78980Y-42654D01*
X78938Y-42612D01*
X78683Y-42612D01*
X78621Y-42638D01*
X78574Y-42685D01*
X78548Y-42746D01*
X78548Y-42813D01*
X78548Y-42923D01*
X78590Y-42965D01*
X78980Y-42965D01*
X78980Y-43066D01*
X78590Y-43066D01*
X78548Y-43108D01*
X78548Y-43218D01*
X78548Y-43285D01*
X78574Y-43346D01*
X78621Y-43393D01*
X78673Y-43415D01*
X76129Y-43415D01*
X76181Y-43393D01*
X76228Y-43346D01*
X76254Y-43285D01*
X76254Y-43218D01*
X76254Y-42813D01*
X76254Y-42746D01*
X76230Y-42689D01*
X76230Y-42332D01*
X76230Y-41860D01*
X76208Y-41806D01*
X76166Y-41764D01*
X76112Y-41742D01*
X76053Y-41742D01*
X75423Y-41742D01*
X75369Y-41764D01*
X75327Y-41806D01*
X75305Y-41860D01*
X75305Y-41919D01*
X75305Y-42391D01*
X75327Y-42445D01*
X75369Y-42487D01*
X75423Y-42509D01*
X75482Y-42509D01*
X76112Y-42509D01*
X76166Y-42487D01*
X76208Y-42445D01*
X76230Y-42391D01*
X76230Y-42332D01*
X76230Y-42689D01*
X76228Y-42685D01*
X76181Y-42638D01*
X76120Y-42612D01*
X75864Y-42612D01*
X75822Y-42654D01*
X75822Y-42965D01*
X76212Y-42965D01*
X76254Y-42923D01*
X76254Y-42813D01*
X76254Y-43218D01*
X76254Y-43108D01*
X76212Y-43066D01*
X75822Y-43066D01*
X75822Y-43074D01*
X75721Y-43074D01*
X75721Y-43066D01*
X75721Y-42965D01*
X75721Y-42654D01*
X75679Y-42612D01*
X75423Y-42612D01*
X75362Y-42638D01*
X75315Y-42685D01*
X75289Y-42746D01*
X75289Y-42813D01*
X75289Y-42923D01*
X75331Y-42965D01*
X75721Y-42965D01*
X75721Y-43066D01*
X75331Y-43066D01*
X75289Y-43108D01*
X75289Y-43218D01*
X75289Y-43285D01*
X75315Y-43346D01*
X75362Y-43393D01*
X75414Y-43415D01*
X73089Y-43415D01*
X73141Y-43393D01*
X73188Y-43346D01*
X73214Y-43285D01*
X73214Y-43218D01*
X73214Y-42813D01*
X73214Y-42746D01*
X73188Y-42685D01*
X73141Y-42638D01*
X73080Y-42612D01*
X72824Y-42612D01*
X72782Y-42654D01*
X72782Y-42965D01*
X73172Y-42965D01*
X73214Y-42923D01*
X73214Y-42813D01*
X73214Y-43218D01*
X73214Y-43108D01*
X73172Y-43066D01*
X72782Y-43066D01*
X72782Y-43074D01*
X72681Y-43074D01*
X72681Y-43066D01*
X72681Y-42965D01*
X72681Y-42654D01*
X72639Y-42612D01*
X72383Y-42612D01*
X72322Y-42638D01*
X72275Y-42685D01*
X72249Y-42746D01*
X72249Y-42813D01*
X72249Y-42923D01*
X72291Y-42965D01*
X72681Y-42965D01*
X72681Y-43066D01*
X72291Y-43066D01*
X72249Y-43108D01*
X72249Y-43218D01*
X72249Y-43285D01*
X72275Y-43346D01*
X72322Y-43393D01*
X72374Y-43415D01*
X71033Y-43415D01*
X71033Y-41652D01*
X70972Y-41504D01*
X70858Y-41390D01*
X70710Y-41329D01*
X70549Y-41328D01*
X70401Y-41390D01*
X70287Y-41503D01*
X70226Y-41652D01*
X70226Y-41812D01*
X70287Y-41961D01*
X70400Y-42074D01*
X70549Y-42136D01*
X70709Y-42136D01*
X70858Y-42075D01*
X70971Y-41961D01*
X71033Y-41813D01*
X71033Y-41652D01*
X71033Y-43415D01*
X71033Y-43415D01*
X71033Y-43021D01*
X71011Y-42967D01*
X70969Y-42925D01*
X70915Y-42903D01*
X70856Y-42903D01*
X70344Y-42903D01*
X70290Y-42925D01*
X70248Y-42966D01*
X70226Y-43021D01*
X70226Y-43079D01*
X70226Y-43229D01*
X68711Y-43378D01*
X68711Y-41041D01*
X68698Y-40865D01*
X68687Y-40839D01*
X68687Y-38902D01*
X68623Y-38746D01*
X68504Y-38627D01*
X68349Y-38563D01*
X68180Y-38563D01*
X68025Y-38627D01*
X67906Y-38746D01*
X67841Y-38901D01*
X67841Y-39070D01*
X67905Y-39225D01*
X68024Y-39344D01*
X68180Y-39409D01*
X68348Y-39409D01*
X68504Y-39345D01*
X68623Y-39226D01*
X68687Y-39070D01*
X68687Y-38902D01*
X68687Y-40839D01*
X68686Y-40837D01*
X68686Y-39902D01*
X68622Y-39746D01*
X68503Y-39627D01*
X68348Y-39563D01*
X68179Y-39563D01*
X68024Y-39627D01*
X67905Y-39746D01*
X67840Y-39901D01*
X67840Y-40070D01*
X67904Y-40225D01*
X68023Y-40344D01*
X68179Y-40409D01*
X68347Y-40409D01*
X68503Y-40345D01*
X68622Y-40226D01*
X68686Y-40070D01*
X68686Y-39902D01*
X68686Y-40837D01*
X68656Y-40763D01*
X68587Y-40734D01*
X68515Y-40806D01*
X68515Y-40662D01*
X68486Y-40593D01*
X68319Y-40538D01*
X68143Y-40551D01*
X68041Y-40593D01*
X68012Y-40662D01*
X68263Y-40914D01*
X68515Y-40662D01*
X68515Y-40806D01*
X68335Y-40986D01*
X68587Y-41237D01*
X68656Y-41208D01*
X68711Y-41041D01*
X68711Y-43378D01*
X68515Y-43397D01*
X68515Y-41309D01*
X68263Y-41058D01*
X68191Y-41129D01*
X68191Y-40986D01*
X67940Y-40734D01*
X67870Y-40763D01*
X67815Y-40930D01*
X67828Y-41106D01*
X67870Y-41208D01*
X67940Y-41237D01*
X68191Y-40986D01*
X68191Y-41129D01*
X68012Y-41309D01*
X68041Y-41379D01*
X68208Y-41434D01*
X68384Y-41421D01*
X68486Y-41379D01*
X68515Y-41309D01*
X68515Y-43397D01*
X68342Y-43414D01*
X67265Y-41909D01*
X67348Y-41909D01*
X67504Y-41845D01*
X67623Y-41726D01*
X67687Y-41570D01*
X67687Y-41402D01*
X67623Y-41246D01*
X67504Y-41127D01*
X67349Y-41063D01*
X67180Y-41063D01*
X67025Y-41127D01*
X67018Y-41133D01*
X67018Y-40839D01*
X67023Y-40844D01*
X67179Y-40909D01*
X67347Y-40909D01*
X67503Y-40845D01*
X67622Y-40726D01*
X67686Y-40570D01*
X67686Y-40402D01*
X67622Y-40246D01*
X67503Y-40127D01*
X67348Y-40063D01*
X67220Y-40063D01*
X67307Y-39909D01*
X67347Y-39909D01*
X67503Y-39845D01*
X67622Y-39726D01*
X67686Y-39570D01*
X67686Y-39402D01*
X67622Y-39246D01*
X67503Y-39127D01*
X67423Y-39094D01*
X66832Y-36631D01*
X66919Y-36667D01*
X67095Y-36667D01*
X67258Y-36600D01*
X67315Y-36543D01*
X68264Y-36909D01*
X68264Y-36909D01*
X68291Y-36919D01*
X68308Y-36922D01*
X68324Y-36929D01*
X68381Y-36939D01*
X68398Y-36939D01*
X68415Y-36943D01*
X68444Y-36943D01*
X69035Y-36943D01*
X69036Y-36942D01*
X69038Y-36943D01*
X69046Y-36942D01*
X69047Y-36942D01*
X69048Y-36942D01*
X72196Y-36860D01*
X72203Y-36858D01*
X72228Y-36857D01*
X72230Y-36856D01*
X72233Y-36857D01*
X74565Y-36661D01*
X74569Y-36660D01*
X74603Y-36657D01*
X74614Y-36654D01*
X74626Y-36653D01*
X74703Y-36637D01*
X74713Y-36632D01*
X74725Y-36631D01*
X74762Y-36618D01*
X74762Y-36618D01*
X74762Y-36618D01*
X75141Y-36484D01*
X75142Y-36484D01*
X75165Y-36476D01*
X75171Y-36473D01*
X75177Y-36472D01*
X75222Y-36452D01*
X75227Y-36449D01*
X75233Y-36447D01*
X75255Y-36436D01*
X75255Y-36436D01*
X75255Y-36436D01*
X76285Y-35918D01*
X76285Y-35918D01*
X76333Y-35894D01*
X76343Y-35886D01*
X76346Y-35885D01*
X76394Y-36002D01*
X76485Y-36093D01*
X76548Y-36119D01*
X76890Y-36783D01*
X76884Y-36798D01*
X76884Y-36927D01*
X76933Y-37046D01*
X77025Y-37138D01*
X77035Y-37142D01*
X73545Y-39264D01*
X73480Y-39237D01*
X73351Y-39237D01*
X73231Y-39287D01*
X73140Y-39378D01*
X73090Y-39497D01*
X73090Y-39626D01*
X73139Y-39746D01*
X73231Y-39837D01*
X73350Y-39887D01*
X73479Y-39887D01*
X73599Y-39838D01*
X73690Y-39746D01*
X73740Y-39627D01*
X73740Y-39583D01*
X77480Y-37309D01*
X77484Y-37306D01*
X77506Y-37292D01*
X77519Y-37280D01*
X77534Y-37271D01*
X77581Y-37229D01*
X77591Y-37215D01*
X77605Y-37204D01*
X77624Y-37179D01*
X77624Y-37179D01*
X79217Y-35087D01*
X79294Y-35087D01*
X79413Y-35038D01*
X79449Y-35002D01*
X79512Y-35065D01*
X79615Y-35107D01*
X75912Y-40852D01*
X75427Y-40852D01*
X75373Y-40874D01*
X75331Y-40916D01*
X75309Y-40970D01*
X75309Y-41029D01*
X75309Y-41048D01*
X73194Y-41048D01*
X73194Y-40970D01*
X73172Y-40916D01*
X73130Y-40874D01*
X73076Y-40852D01*
X73017Y-40852D01*
X72387Y-40852D01*
X72333Y-40874D01*
X72291Y-40916D01*
X72269Y-40970D01*
X72269Y-41029D01*
X72269Y-41501D01*
X72291Y-41555D01*
X72333Y-41597D01*
X72387Y-41619D01*
X72446Y-41619D01*
X73076Y-41619D01*
X73130Y-41597D01*
X73172Y-41555D01*
X73194Y-41501D01*
X73194Y-41442D01*
X73194Y-41422D01*
X75309Y-41422D01*
X75309Y-41501D01*
X75331Y-41555D01*
X75373Y-41597D01*
X75427Y-41619D01*
X75486Y-41619D01*
X76116Y-41619D01*
X76170Y-41597D01*
X76212Y-41555D01*
X76234Y-41501D01*
X76234Y-41442D01*
X76234Y-41043D01*
X79730Y-35618D01*
X79110Y-36771D01*
X79110Y-36771D01*
X79076Y-36834D01*
X79073Y-36841D01*
X79069Y-36847D01*
X79063Y-36875D01*
X79054Y-36903D01*
X79055Y-36911D01*
X79053Y-36918D01*
X79050Y-37061D01*
X79052Y-37068D01*
X79051Y-37076D01*
X79058Y-37104D01*
X79063Y-37133D01*
X79067Y-37139D01*
X79069Y-37146D01*
X79100Y-37210D01*
X79100Y-37210D01*
X79524Y-38084D01*
X78737Y-39246D01*
X78737Y-39246D01*
X78709Y-39287D01*
X78698Y-39313D01*
X78685Y-39338D01*
X78656Y-39434D01*
X78653Y-39461D01*
X78647Y-39489D01*
X78647Y-39539D01*
X78647Y-40868D01*
X78632Y-40874D01*
X78591Y-40916D01*
X78568Y-40970D01*
X78568Y-41029D01*
X78568Y-41501D01*
X78590Y-41555D01*
X78632Y-41597D01*
X78686Y-41619D01*
X78702Y-41619D01*
X78668Y-41702D01*
X78668Y-41831D01*
X78717Y-41950D01*
X78808Y-42042D01*
X78928Y-42091D01*
X79057Y-42092D01*
X79176Y-42042D01*
X79255Y-41963D01*
X79440Y-41925D01*
X79442Y-41924D01*
X79477Y-41917D01*
X79516Y-41900D01*
X79555Y-41886D01*
X79618Y-41847D01*
X79649Y-41819D01*
X79681Y-41792D01*
X79728Y-41734D01*
X79748Y-41697D01*
X79769Y-41661D01*
X79794Y-41591D01*
X79800Y-41550D01*
X79808Y-41509D01*
X79808Y-41471D01*
X79808Y-41000D01*
X79808Y-40985D01*
X79805Y-40969D01*
X79806Y-40953D01*
X79802Y-40924D01*
X79797Y-40908D01*
X79796Y-40891D01*
X79793Y-40882D01*
X79793Y-40877D01*
X79463Y-39679D01*
X79494Y-39604D01*
X79494Y-39554D01*
X80216Y-38793D01*
X80251Y-38793D01*
X80268Y-38786D01*
X81553Y-39440D01*
X81559Y-39442D01*
X81647Y-39486D01*
X81647Y-39487D01*
X81647Y-39487D01*
X81649Y-39488D01*
X81689Y-39499D01*
X81739Y-39513D01*
X81953Y-39532D01*
X82015Y-39525D01*
X82046Y-39522D01*
X82047Y-39522D01*
X82048Y-39522D01*
X82048Y-39521D01*
X82148Y-39491D01*
X82148Y-39491D01*
X82451Y-39398D01*
X82452Y-39398D01*
X82479Y-39390D01*
X82536Y-39395D01*
X82588Y-39421D01*
X82625Y-39465D01*
X82635Y-39493D01*
X82635Y-39493D01*
X82838Y-40096D01*
X82838Y-40098D01*
X82847Y-40124D01*
X82844Y-40182D01*
X82832Y-40207D01*
X82831Y-40207D01*
X82766Y-40347D01*
X82687Y-40267D01*
X82568Y-40218D01*
X82438Y-40218D01*
X82319Y-40267D01*
X82227Y-40358D01*
X82178Y-40478D01*
X82178Y-40607D01*
X82227Y-40726D01*
X82318Y-40818D01*
X82328Y-40822D01*
X82337Y-40852D01*
X81726Y-40852D01*
X81672Y-40874D01*
X81631Y-40916D01*
X81608Y-40970D01*
X81608Y-41029D01*
X81608Y-41501D01*
X81630Y-41555D01*
X81672Y-41597D01*
X81726Y-41619D01*
X81785Y-41619D01*
X82379Y-41619D01*
X82626Y-41642D01*
X82627Y-41642D01*
X82679Y-41647D01*
X82707Y-41644D01*
X82737Y-41643D01*
X82839Y-41620D01*
X82865Y-41608D01*
X82893Y-41598D01*
X82984Y-41545D01*
X83006Y-41524D01*
X83029Y-41507D01*
X83099Y-41428D01*
X83114Y-41402D01*
X83130Y-41379D01*
X83151Y-41331D01*
X83151Y-41329D01*
X83152Y-41328D01*
X83152Y-41327D01*
X83153Y-41326D01*
X83166Y-41293D01*
X83167Y-41290D01*
X83168Y-41288D01*
X83481Y-40437D01*
X83483Y-40434D01*
X83521Y-40330D01*
X83526Y-40300D01*
X83533Y-40268D01*
X83536Y-40046D01*
X83530Y-40013D01*
X83526Y-39983D01*
X83492Y-39880D01*
X83491Y-39878D01*
X83288Y-39273D01*
X83288Y-39273D01*
X83261Y-39193D01*
X83249Y-39172D01*
X83240Y-39150D01*
X83148Y-39010D01*
X83131Y-38992D01*
X83117Y-38974D01*
X82992Y-38861D01*
X82972Y-38849D01*
X82952Y-38834D01*
X82802Y-38757D01*
X82779Y-38750D01*
X82757Y-38741D01*
X82594Y-38704D01*
X82569Y-38704D01*
X82546Y-38700D01*
X82379Y-38707D01*
X82355Y-38712D01*
X82331Y-38715D01*
X82251Y-38739D01*
X82250Y-38739D01*
X82240Y-38742D01*
X82240Y-38664D01*
X82190Y-38545D01*
X82099Y-38453D01*
X81980Y-38404D01*
X81851Y-38403D01*
X81804Y-38423D01*
X81591Y-38273D01*
X81588Y-38271D01*
X81587Y-38270D01*
X79980Y-37094D01*
X80043Y-37068D01*
X81042Y-37635D01*
X81042Y-37668D01*
X81091Y-37787D01*
X81183Y-37879D01*
X81302Y-37928D01*
X81431Y-37928D01*
X81550Y-37879D01*
X81642Y-37788D01*
X81686Y-37682D01*
X82250Y-38057D01*
X82254Y-38061D01*
X82287Y-38083D01*
X82307Y-38091D01*
X82326Y-38102D01*
X82399Y-38130D01*
X82420Y-38133D01*
X82441Y-38140D01*
X82480Y-38145D01*
X82480Y-38145D01*
X82598Y-38159D01*
X82598Y-38159D01*
X82598Y-38159D01*
X82603Y-38160D01*
X82615Y-38162D01*
X82620Y-38163D01*
X82620Y-38163D01*
X85295Y-38921D01*
X85326Y-38996D01*
X85418Y-39087D01*
X85537Y-39137D01*
X85666Y-39137D01*
X85786Y-39087D01*
X85877Y-38996D01*
X85927Y-38877D01*
X85927Y-38748D01*
X85877Y-38628D01*
X85786Y-38537D01*
X85667Y-38487D01*
X85538Y-38487D01*
X85418Y-38536D01*
X85395Y-38560D01*
X83489Y-38021D01*
X87536Y-38510D01*
X87632Y-38503D01*
X87645Y-38496D01*
X87711Y-38480D01*
X87736Y-38485D01*
X87737Y-38485D01*
X87796Y-38496D01*
X87828Y-38495D01*
X87862Y-38496D01*
X87981Y-38475D01*
X88011Y-38464D01*
X88044Y-38452D01*
X88148Y-38391D01*
X88172Y-38370D01*
X88199Y-38348D01*
X88275Y-38254D01*
X88290Y-38226D01*
X88307Y-38196D01*
X88326Y-38139D01*
X88327Y-38139D01*
X88374Y-37998D01*
X88401Y-37990D01*
X88420Y-37980D01*
X88442Y-37972D01*
X88453Y-37963D01*
X88465Y-37956D01*
X88480Y-37939D01*
X88496Y-37924D01*
X88520Y-37893D01*
X88520Y-37893D01*
X88556Y-37846D01*
X88556Y-37846D01*
X88560Y-37841D01*
X88569Y-37822D01*
X88599Y-37792D01*
X88622Y-37738D01*
X88622Y-37679D01*
X88622Y-37411D01*
X89163Y-37411D01*
X89163Y-43415D01*
X89163Y-43415D01*
G37*
G54D36*
X89163Y-43415D02*
X87708Y-43415D01*
X87708Y-41280D01*
X87695Y-41096D01*
X87683Y-41067D01*
X87683Y-40486D01*
X87683Y-39895D01*
X87660Y-39841D01*
X87619Y-39799D01*
X87565Y-39777D01*
X87506Y-39777D01*
X86915Y-39777D01*
X86861Y-39799D01*
X86819Y-39841D01*
X86797Y-39895D01*
X86796Y-39954D01*
X86796Y-40545D01*
X86819Y-40599D01*
X86860Y-40641D01*
X86915Y-40663D01*
X86973Y-40663D01*
X87564Y-40663D01*
X87619Y-40641D01*
X87660Y-40599D01*
X87683Y-40545D01*
X87683Y-40486D01*
X87683Y-41067D01*
X87649Y-40985D01*
X87578Y-40954D01*
X87506Y-41026D01*
X87506Y-40882D01*
X87474Y-40811D01*
X87300Y-40752D01*
X87116Y-40765D01*
X87005Y-40811D01*
X86974Y-40882D01*
X87240Y-41148D01*
X87506Y-40882D01*
X87506Y-41026D01*
X87311Y-41220D01*
X87578Y-41486D01*
X87649Y-41455D01*
X87708Y-41280D01*
X87708Y-43415D01*
X87683Y-43415D01*
X87683Y-42132D01*
X87616Y-41969D01*
X87506Y-41859D01*
X87506Y-41558D01*
X87240Y-41292D01*
X87168Y-41364D01*
X87168Y-41220D01*
X86902Y-40954D01*
X86830Y-40985D01*
X86772Y-41160D01*
X86784Y-41344D01*
X86830Y-41455D01*
X86902Y-41486D01*
X87168Y-41220D01*
X87168Y-41364D01*
X86974Y-41558D01*
X87005Y-41629D01*
X87180Y-41688D01*
X87363Y-41675D01*
X87474Y-41629D01*
X87506Y-41558D01*
X87506Y-41859D01*
X87491Y-41845D01*
X87328Y-41777D01*
X87152Y-41777D01*
X86989Y-41844D01*
X86864Y-41969D01*
X86797Y-42131D01*
X86796Y-42308D01*
X86864Y-42471D01*
X86988Y-42595D01*
X87151Y-42663D01*
X87327Y-42663D01*
X87490Y-42596D01*
X87615Y-42471D01*
X87683Y-42309D01*
X87683Y-42132D01*
X87683Y-43415D01*
X82428Y-43415D01*
X82480Y-43393D01*
X82527Y-43346D01*
X82553Y-43285D01*
X82553Y-43218D01*
X82553Y-42813D01*
X82553Y-42746D01*
X82529Y-42689D01*
X82529Y-42332D01*
X82529Y-41860D01*
X82507Y-41806D01*
X82465Y-41764D01*
X82411Y-41742D01*
X82352Y-41742D01*
X81722Y-41742D01*
X81668Y-41764D01*
X81627Y-41806D01*
X81604Y-41860D01*
X81604Y-41919D01*
X81604Y-42391D01*
X81626Y-42445D01*
X81668Y-42487D01*
X81722Y-42509D01*
X81781Y-42509D01*
X82411Y-42509D01*
X82465Y-42487D01*
X82507Y-42445D01*
X82529Y-42391D01*
X82529Y-42332D01*
X82529Y-42689D01*
X82527Y-42685D01*
X82480Y-42638D01*
X82419Y-42612D01*
X82163Y-42612D01*
X82121Y-42654D01*
X82121Y-42965D01*
X82511Y-42965D01*
X82553Y-42923D01*
X82553Y-42813D01*
X82553Y-43218D01*
X82553Y-43108D01*
X82511Y-43066D01*
X82121Y-43066D01*
X82121Y-43074D01*
X82020Y-43074D01*
X82020Y-43066D01*
X82020Y-42965D01*
X82020Y-42654D01*
X81978Y-42612D01*
X81723Y-42612D01*
X81661Y-42638D01*
X81614Y-42685D01*
X81588Y-42746D01*
X81588Y-42813D01*
X81588Y-42923D01*
X81630Y-42965D01*
X82020Y-42965D01*
X82020Y-43066D01*
X81630Y-43066D01*
X81588Y-43108D01*
X81588Y-43218D01*
X81588Y-43285D01*
X81614Y-43346D01*
X81661Y-43393D01*
X81713Y-43415D01*
X81055Y-43415D01*
X81055Y-40784D01*
X81055Y-40351D01*
X81055Y-40318D01*
X81055Y-40285D01*
X81055Y-39852D01*
X81029Y-39790D01*
X80982Y-39743D01*
X80921Y-39718D01*
X80854Y-39718D01*
X80763Y-39718D01*
X80722Y-39760D01*
X80722Y-40051D01*
X81013Y-40051D01*
X81055Y-40009D01*
X81055Y-39852D01*
X81055Y-40285D01*
X81055Y-40285D01*
X81055Y-40194D01*
X81013Y-40152D01*
X80925Y-40152D01*
X80921Y-40151D01*
X80854Y-40151D01*
X80763Y-40151D01*
X80762Y-40152D01*
X80722Y-40152D01*
X80722Y-40193D01*
X80722Y-40444D01*
X80722Y-40484D01*
X80762Y-40484D01*
X80763Y-40485D01*
X80854Y-40485D01*
X80921Y-40485D01*
X80925Y-40484D01*
X81013Y-40484D01*
X81055Y-40442D01*
X81055Y-40351D01*
X81055Y-40351D01*
X81055Y-40784D01*
X81055Y-40627D01*
X81013Y-40585D01*
X80722Y-40585D01*
X80722Y-40877D01*
X80763Y-40918D01*
X80854Y-40919D01*
X80921Y-40918D01*
X80982Y-40893D01*
X81029Y-40846D01*
X81055Y-40784D01*
X81055Y-43415D01*
X80622Y-43415D01*
X80622Y-40784D01*
X80622Y-40351D01*
X80622Y-40318D01*
X80622Y-40285D01*
X80622Y-39852D01*
X80620Y-39848D01*
X80620Y-39760D01*
X80578Y-39718D01*
X80487Y-39718D01*
X80454Y-39718D01*
X80421Y-39718D01*
X80330Y-39718D01*
X80289Y-39760D01*
X80289Y-39848D01*
X80287Y-39852D01*
X80287Y-40009D01*
X80289Y-40011D01*
X80289Y-40051D01*
X80329Y-40051D01*
X80580Y-40051D01*
X80620Y-40051D01*
X80620Y-40011D01*
X80622Y-40009D01*
X80622Y-39852D01*
X80622Y-40285D01*
X80622Y-40285D01*
X80622Y-40194D01*
X80620Y-40193D01*
X80620Y-40152D01*
X80580Y-40152D01*
X80578Y-40151D01*
X80487Y-40151D01*
X80454Y-40151D01*
X80421Y-40151D01*
X80330Y-40151D01*
X80329Y-40152D01*
X80289Y-40152D01*
X80289Y-40193D01*
X80287Y-40194D01*
X80287Y-40285D01*
X80287Y-40285D01*
X80287Y-40318D01*
X80287Y-40351D01*
X80287Y-40351D01*
X80287Y-40442D01*
X80289Y-40444D01*
X80289Y-40484D01*
X80329Y-40484D01*
X80330Y-40485D01*
X80421Y-40485D01*
X80454Y-40485D01*
X80487Y-40485D01*
X80578Y-40485D01*
X80580Y-40484D01*
X80620Y-40484D01*
X80620Y-40444D01*
X80622Y-40442D01*
X80622Y-40351D01*
X80622Y-40351D01*
X80622Y-40784D01*
X80622Y-40627D01*
X80620Y-40626D01*
X80620Y-40585D01*
X80580Y-40585D01*
X80329Y-40585D01*
X80289Y-40585D01*
X80289Y-40626D01*
X80287Y-40627D01*
X80287Y-40784D01*
X80289Y-40788D01*
X80289Y-40877D01*
X80330Y-40918D01*
X80421Y-40919D01*
X80454Y-40918D01*
X80487Y-40919D01*
X80578Y-40918D01*
X80620Y-40877D01*
X80620Y-40788D01*
X80622Y-40784D01*
X80622Y-43415D01*
X80187Y-43415D01*
X80187Y-40877D01*
X80187Y-40585D01*
X80187Y-40484D01*
X80187Y-40444D01*
X80187Y-40193D01*
X80187Y-40152D01*
X80187Y-40051D01*
X80187Y-39760D01*
X80145Y-39718D01*
X80054Y-39718D01*
X79988Y-39718D01*
X79926Y-39743D01*
X79879Y-39790D01*
X79854Y-39852D01*
X79854Y-40009D01*
X79896Y-40051D01*
X80187Y-40051D01*
X80187Y-40152D01*
X80147Y-40152D01*
X80145Y-40151D01*
X80054Y-40151D01*
X79988Y-40151D01*
X79984Y-40152D01*
X79896Y-40152D01*
X79854Y-40194D01*
X79854Y-40285D01*
X79854Y-40285D01*
X79854Y-40318D01*
X79854Y-40351D01*
X79854Y-40351D01*
X79854Y-40442D01*
X79896Y-40484D01*
X79984Y-40484D01*
X79988Y-40485D01*
X80054Y-40485D01*
X80145Y-40485D01*
X80147Y-40484D01*
X80187Y-40484D01*
X80187Y-40585D01*
X79896Y-40585D01*
X79854Y-40627D01*
X79854Y-40784D01*
X79879Y-40846D01*
X79926Y-40893D01*
X79988Y-40918D01*
X80054Y-40919D01*
X80145Y-40918D01*
X80187Y-40877D01*
X80187Y-43415D01*
X79388Y-43415D01*
X79440Y-43393D01*
X79487Y-43346D01*
X79513Y-43285D01*
X79513Y-43218D01*
X79513Y-42813D01*
X79513Y-42746D01*
X79487Y-42685D01*
X79440Y-42638D01*
X79379Y-42612D01*
X79123Y-42612D01*
X79081Y-42654D01*
X79081Y-42965D01*
X79471Y-42965D01*
X79513Y-42923D01*
X79513Y-42813D01*
X79513Y-43218D01*
X79513Y-43108D01*
X79471Y-43066D01*
X79081Y-43066D01*
X79081Y-43074D01*
X78980Y-43074D01*
X78980Y-43066D01*
X78980Y-42965D01*
X78980Y-42654D01*
X78938Y-42612D01*
X78683Y-42612D01*
X78621Y-42638D01*
X78574Y-42685D01*
X78548Y-42746D01*
X78548Y-42813D01*
X78548Y-42923D01*
X78590Y-42965D01*
X78980Y-42965D01*
X78980Y-43066D01*
X78590Y-43066D01*
X78548Y-43108D01*
X78548Y-43218D01*
X78548Y-43285D01*
X78574Y-43346D01*
X78621Y-43393D01*
X78673Y-43415D01*
X76129Y-43415D01*
X76181Y-43393D01*
X76228Y-43346D01*
X76254Y-43285D01*
X76254Y-43218D01*
X76254Y-42813D01*
X76254Y-42746D01*
X76230Y-42689D01*
X76230Y-42332D01*
X76230Y-41860D01*
X76208Y-41806D01*
X76166Y-41764D01*
X76112Y-41742D01*
X76053Y-41742D01*
X75423Y-41742D01*
X75369Y-41764D01*
X75327Y-41806D01*
X75305Y-41860D01*
X75305Y-41919D01*
X75305Y-42391D01*
X75327Y-42445D01*
X75369Y-42487D01*
X75423Y-42509D01*
X75482Y-42509D01*
X76112Y-42509D01*
X76166Y-42487D01*
X76208Y-42445D01*
X76230Y-42391D01*
X76230Y-42332D01*
X76230Y-42689D01*
X76228Y-42685D01*
X76181Y-42638D01*
X76120Y-42612D01*
X75864Y-42612D01*
X75822Y-42654D01*
X75822Y-42965D01*
X76212Y-42965D01*
X76254Y-42923D01*
X76254Y-42813D01*
X76254Y-43218D01*
X76254Y-43108D01*
X76212Y-43066D01*
X75822Y-43066D01*
X75822Y-43074D01*
X75721Y-43074D01*
X75721Y-43066D01*
X75721Y-42965D01*
X75721Y-42654D01*
X75679Y-42612D01*
X75423Y-42612D01*
X75362Y-42638D01*
X75315Y-42685D01*
X75289Y-42746D01*
X75289Y-42813D01*
X75289Y-42923D01*
X75331Y-42965D01*
X75721Y-42965D01*
X75721Y-43066D01*
X75331Y-43066D01*
X75289Y-43108D01*
X75289Y-43218D01*
X75289Y-43285D01*
X75315Y-43346D01*
X75362Y-43393D01*
X75414Y-43415D01*
X73089Y-43415D01*
X73141Y-43393D01*
X73188Y-43346D01*
X73214Y-43285D01*
X73214Y-43218D01*
X73214Y-42813D01*
X73214Y-42746D01*
X73188Y-42685D01*
X73141Y-42638D01*
X73080Y-42612D01*
X72824Y-42612D01*
X72782Y-42654D01*
X72782Y-42965D01*
X73172Y-42965D01*
X73214Y-42923D01*
X73214Y-42813D01*
X73214Y-43218D01*
X73214Y-43108D01*
X73172Y-43066D01*
X72782Y-43066D01*
X72782Y-43074D01*
X72681Y-43074D01*
X72681Y-43066D01*
X72681Y-42965D01*
X72681Y-42654D01*
X72639Y-42612D01*
X72383Y-42612D01*
X72322Y-42638D01*
X72275Y-42685D01*
X72249Y-42746D01*
X72249Y-42813D01*
X72249Y-42923D01*
X72291Y-42965D01*
X72681Y-42965D01*
X72681Y-43066D01*
X72291Y-43066D01*
X72249Y-43108D01*
X72249Y-43218D01*
X72249Y-43285D01*
X72275Y-43346D01*
X72322Y-43393D01*
X72374Y-43415D01*
X71033Y-43415D01*
X71033Y-41652D01*
X70972Y-41504D01*
X70858Y-41390D01*
X70710Y-41329D01*
X70549Y-41328D01*
X70401Y-41390D01*
X70287Y-41503D01*
X70226Y-41652D01*
X70226Y-41812D01*
X70287Y-41961D01*
X70400Y-42074D01*
X70549Y-42136D01*
X70709Y-42136D01*
X70858Y-42075D01*
X70971Y-41961D01*
X71033Y-41813D01*
X71033Y-41652D01*
X71033Y-43415D01*
X71033Y-43415D01*
X71033Y-43021D01*
X71011Y-42967D01*
X70969Y-42925D01*
X70915Y-42903D01*
X70856Y-42903D01*
X70344Y-42903D01*
X70290Y-42925D01*
X70248Y-42966D01*
X70226Y-43021D01*
X70226Y-43079D01*
X70226Y-43229D01*
X68711Y-43378D01*
X68711Y-41041D01*
X68698Y-40865D01*
X68687Y-40839D01*
X68687Y-38902D01*
X68623Y-38746D01*
X68504Y-38627D01*
X68349Y-38563D01*
X68180Y-38563D01*
X68025Y-38627D01*
X67906Y-38746D01*
X67841Y-38901D01*
X67841Y-39070D01*
X67905Y-39225D01*
X68024Y-39344D01*
X68180Y-39409D01*
X68348Y-39409D01*
X68504Y-39345D01*
X68623Y-39226D01*
X68687Y-39070D01*
X68687Y-38902D01*
X68687Y-40839D01*
X68686Y-40837D01*
X68686Y-39902D01*
X68622Y-39746D01*
X68503Y-39627D01*
X68348Y-39563D01*
X68179Y-39563D01*
X68024Y-39627D01*
X67905Y-39746D01*
X67840Y-39901D01*
X67840Y-40070D01*
X67904Y-40225D01*
X68023Y-40344D01*
X68179Y-40409D01*
X68347Y-40409D01*
X68503Y-40345D01*
X68622Y-40226D01*
X68686Y-40070D01*
X68686Y-39902D01*
X68686Y-40837D01*
X68656Y-40763D01*
X68587Y-40734D01*
X68515Y-40806D01*
X68515Y-40662D01*
X68486Y-40593D01*
X68319Y-40538D01*
X68143Y-40551D01*
X68041Y-40593D01*
X68012Y-40662D01*
X68263Y-40914D01*
X68515Y-40662D01*
X68515Y-40806D01*
X68335Y-40986D01*
X68587Y-41237D01*
X68656Y-41208D01*
X68711Y-41041D01*
X68711Y-43378D01*
X68515Y-43397D01*
X68515Y-41309D01*
X68263Y-41058D01*
X68191Y-41129D01*
X68191Y-40986D01*
X67940Y-40734D01*
X67870Y-40763D01*
X67815Y-40930D01*
X67828Y-41106D01*
X67870Y-41208D01*
X67940Y-41237D01*
X68191Y-40986D01*
X68191Y-41129D01*
X68012Y-41309D01*
X68041Y-41379D01*
X68208Y-41434D01*
X68384Y-41421D01*
X68486Y-41379D01*
X68515Y-41309D01*
X68515Y-43397D01*
X68342Y-43414D01*
X67265Y-41909D01*
X67348Y-41909D01*
X67504Y-41845D01*
X67623Y-41726D01*
X67687Y-41570D01*
X67687Y-41402D01*
X67623Y-41246D01*
X67504Y-41127D01*
X67349Y-41063D01*
X67180Y-41063D01*
X67025Y-41127D01*
X67018Y-41133D01*
X67018Y-40839D01*
X67023Y-40844D01*
X67179Y-40909D01*
X67347Y-40909D01*
X67503Y-40845D01*
X67622Y-40726D01*
X67686Y-40570D01*
X67686Y-40402D01*
X67622Y-40246D01*
X67503Y-40127D01*
X67348Y-40063D01*
X67220Y-40063D01*
X67307Y-39909D01*
X67347Y-39909D01*
X67503Y-39845D01*
X67622Y-39726D01*
X67686Y-39570D01*
X67686Y-39402D01*
X67622Y-39246D01*
X67503Y-39127D01*
X67423Y-39094D01*
X66832Y-36631D01*
X66919Y-36667D01*
X67095Y-36667D01*
X67258Y-36600D01*
X67315Y-36543D01*
X68264Y-36909D01*
X68264Y-36909D01*
X68291Y-36919D01*
X68308Y-36922D01*
X68324Y-36929D01*
X68381Y-36939D01*
X68398Y-36939D01*
X68415Y-36943D01*
X68444Y-36943D01*
X69035Y-36943D01*
X69036Y-36942D01*
X69038Y-36943D01*
X69046Y-36942D01*
X69047Y-36942D01*
X69048Y-36942D01*
X72196Y-36860D01*
X72203Y-36858D01*
X72228Y-36857D01*
X72230Y-36856D01*
X72233Y-36857D01*
X74565Y-36661D01*
X74569Y-36660D01*
X74603Y-36657D01*
X74614Y-36654D01*
X74626Y-36653D01*
X74703Y-36637D01*
X74713Y-36632D01*
X74725Y-36631D01*
X74762Y-36618D01*
X74762Y-36618D01*
X74762Y-36618D01*
X75141Y-36484D01*
X75142Y-36484D01*
X75165Y-36476D01*
X75171Y-36473D01*
X75177Y-36472D01*
X75222Y-36452D01*
X75227Y-36449D01*
X75233Y-36447D01*
X75255Y-36436D01*
X75255Y-36436D01*
X75255Y-36436D01*
X76285Y-35918D01*
X76285Y-35918D01*
X76333Y-35894D01*
X76343Y-35886D01*
X76346Y-35885D01*
X76394Y-36002D01*
X76485Y-36093D01*
X76548Y-36119D01*
X76890Y-36783D01*
X76884Y-36798D01*
X76884Y-36927D01*
X76933Y-37046D01*
X77025Y-37138D01*
X77035Y-37142D01*
X73545Y-39264D01*
X73480Y-39237D01*
X73351Y-39237D01*
X73231Y-39287D01*
X73140Y-39378D01*
X73090Y-39497D01*
X73090Y-39626D01*
X73139Y-39746D01*
X73231Y-39837D01*
X73350Y-39887D01*
X73479Y-39887D01*
X73599Y-39838D01*
X73690Y-39746D01*
X73740Y-39627D01*
X73740Y-39583D01*
X77480Y-37309D01*
X77484Y-37306D01*
X77506Y-37292D01*
X77519Y-37280D01*
X77534Y-37271D01*
X77581Y-37229D01*
X77591Y-37215D01*
X77605Y-37204D01*
X77624Y-37179D01*
X77624Y-37179D01*
X79217Y-35087D01*
X79294Y-35087D01*
X79413Y-35038D01*
X79449Y-35002D01*
X79512Y-35065D01*
X79615Y-35107D01*
X75912Y-40852D01*
X75427Y-40852D01*
X75373Y-40874D01*
X75331Y-40916D01*
X75309Y-40970D01*
X75309Y-41029D01*
X75309Y-41048D01*
X73194Y-41048D01*
X73194Y-40970D01*
X73172Y-40916D01*
X73130Y-40874D01*
X73076Y-40852D01*
X73017Y-40852D01*
X72387Y-40852D01*
X72333Y-40874D01*
X72291Y-40916D01*
X72269Y-40970D01*
X72269Y-41029D01*
X72269Y-41501D01*
X72291Y-41555D01*
X72333Y-41597D01*
X72387Y-41619D01*
X72446Y-41619D01*
X73076Y-41619D01*
X73130Y-41597D01*
X73172Y-41555D01*
X73194Y-41501D01*
X73194Y-41442D01*
X73194Y-41422D01*
X75309Y-41422D01*
X75309Y-41501D01*
X75331Y-41555D01*
X75373Y-41597D01*
X75427Y-41619D01*
X75486Y-41619D01*
X76116Y-41619D01*
X76170Y-41597D01*
X76212Y-41555D01*
X76234Y-41501D01*
X76234Y-41442D01*
X76234Y-41043D01*
X79730Y-35618D01*
X79110Y-36771D01*
X79110Y-36771D01*
X79076Y-36834D01*
X79073Y-36841D01*
X79069Y-36847D01*
X79063Y-36875D01*
X79054Y-36903D01*
X79055Y-36911D01*
X79053Y-36918D01*
X79050Y-37061D01*
X79052Y-37068D01*
X79051Y-37076D01*
X79058Y-37104D01*
X79063Y-37133D01*
X79067Y-37139D01*
X79069Y-37146D01*
X79100Y-37210D01*
X79100Y-37210D01*
X79524Y-38084D01*
X78737Y-39246D01*
X78737Y-39246D01*
X78709Y-39287D01*
X78698Y-39313D01*
X78685Y-39338D01*
X78656Y-39434D01*
X78653Y-39461D01*
X78647Y-39489D01*
X78647Y-39539D01*
X78647Y-40868D01*
X78632Y-40874D01*
X78591Y-40916D01*
X78568Y-40970D01*
X78568Y-41029D01*
X78568Y-41501D01*
X78590Y-41555D01*
X78632Y-41597D01*
X78686Y-41619D01*
X78702Y-41619D01*
X78668Y-41702D01*
X78668Y-41831D01*
X78717Y-41950D01*
X78808Y-42042D01*
X78928Y-42091D01*
X79057Y-42092D01*
X79176Y-42042D01*
X79255Y-41963D01*
X79440Y-41925D01*
X79442Y-41924D01*
X79477Y-41917D01*
X79516Y-41900D01*
X79555Y-41886D01*
X79618Y-41847D01*
X79649Y-41819D01*
X79681Y-41792D01*
X79728Y-41734D01*
X79748Y-41697D01*
X79769Y-41661D01*
X79794Y-41591D01*
X79800Y-41550D01*
X79808Y-41509D01*
X79808Y-41471D01*
X79808Y-41000D01*
X79808Y-40985D01*
X79805Y-40969D01*
X79806Y-40953D01*
X79802Y-40924D01*
X79797Y-40908D01*
X79796Y-40891D01*
X79793Y-40882D01*
X79793Y-40877D01*
X79463Y-39679D01*
X79494Y-39604D01*
X79494Y-39554D01*
X80216Y-38793D01*
X80251Y-38793D01*
X80268Y-38786D01*
X81553Y-39440D01*
X81559Y-39442D01*
X81647Y-39486D01*
X81647Y-39487D01*
X81647Y-39487D01*
X81649Y-39488D01*
X81689Y-39499D01*
X81739Y-39513D01*
X81953Y-39532D01*
X82015Y-39525D01*
X82046Y-39522D01*
X82047Y-39522D01*
X82048Y-39522D01*
X82048Y-39521D01*
X82148Y-39491D01*
X82148Y-39491D01*
X82451Y-39398D01*
X82452Y-39398D01*
X82479Y-39390D01*
X82536Y-39395D01*
X82588Y-39421D01*
X82625Y-39465D01*
X82635Y-39493D01*
X82635Y-39493D01*
X82838Y-40096D01*
X82838Y-40098D01*
X82847Y-40124D01*
X82844Y-40182D01*
X82832Y-40207D01*
X82831Y-40207D01*
X82766Y-40347D01*
X82687Y-40267D01*
X82568Y-40218D01*
X82438Y-40218D01*
X82319Y-40267D01*
X82227Y-40358D01*
X82178Y-40478D01*
X82178Y-40607D01*
X82227Y-40726D01*
X82318Y-40818D01*
X82328Y-40822D01*
X82337Y-40852D01*
X81726Y-40852D01*
X81672Y-40874D01*
X81631Y-40916D01*
X81608Y-40970D01*
X81608Y-41029D01*
X81608Y-41501D01*
X81630Y-41555D01*
X81672Y-41597D01*
X81726Y-41619D01*
X81785Y-41619D01*
X82379Y-41619D01*
X82626Y-41642D01*
X82627Y-41642D01*
X82679Y-41647D01*
X82707Y-41644D01*
X82737Y-41643D01*
X82839Y-41620D01*
X82865Y-41608D01*
X82893Y-41598D01*
X82984Y-41545D01*
X83006Y-41524D01*
X83029Y-41507D01*
X83099Y-41428D01*
X83114Y-41402D01*
X83130Y-41379D01*
X83151Y-41331D01*
X83151Y-41329D01*
X83152Y-41328D01*
X83152Y-41327D01*
X83153Y-41326D01*
X83166Y-41293D01*
X83167Y-41290D01*
X83168Y-41288D01*
X83481Y-40437D01*
X83483Y-40434D01*
X83521Y-40330D01*
X83526Y-40300D01*
X83533Y-40268D01*
X83536Y-40046D01*
X83530Y-40013D01*
X83526Y-39983D01*
X83492Y-39880D01*
X83491Y-39878D01*
X83288Y-39273D01*
X83288Y-39273D01*
X83261Y-39193D01*
X83249Y-39172D01*
X83240Y-39150D01*
X83148Y-39010D01*
X83131Y-38992D01*
X83117Y-38974D01*
X82992Y-38861D01*
X82972Y-38849D01*
X82952Y-38834D01*
X82802Y-38757D01*
X82779Y-38750D01*
X82757Y-38741D01*
X82594Y-38704D01*
X82569Y-38704D01*
X82546Y-38700D01*
X82379Y-38707D01*
X82355Y-38712D01*
X82331Y-38715D01*
X82251Y-38739D01*
X82250Y-38739D01*
X82240Y-38742D01*
X82240Y-38664D01*
X82190Y-38545D01*
X82099Y-38453D01*
X81980Y-38404D01*
X81851Y-38403D01*
X81804Y-38423D01*
X81591Y-38273D01*
X81588Y-38271D01*
X81587Y-38270D01*
X79980Y-37094D01*
X80043Y-37068D01*
X81042Y-37635D01*
X81042Y-37668D01*
X81091Y-37787D01*
X81183Y-37879D01*
X81302Y-37928D01*
X81431Y-37928D01*
X81550Y-37879D01*
X81642Y-37788D01*
X81686Y-37682D01*
X82250Y-38057D01*
X82254Y-38061D01*
X82287Y-38083D01*
X82307Y-38091D01*
X82326Y-38102D01*
X82399Y-38130D01*
X82420Y-38133D01*
X82441Y-38140D01*
X82480Y-38145D01*
X82480Y-38145D01*
X82598Y-38159D01*
X82598Y-38159D01*
X82598Y-38159D01*
X82603Y-38160D01*
X82615Y-38162D01*
X82620Y-38163D01*
X82620Y-38163D01*
X85295Y-38921D01*
X85326Y-38996D01*
X85418Y-39087D01*
X85537Y-39137D01*
X85666Y-39137D01*
X85786Y-39087D01*
X85877Y-38996D01*
X85927Y-38877D01*
X85927Y-38748D01*
X85877Y-38628D01*
X85786Y-38537D01*
X85667Y-38487D01*
X85538Y-38487D01*
X85418Y-38536D01*
X85395Y-38560D01*
X83489Y-38021D01*
X87536Y-38510D01*
X87632Y-38503D01*
X87645Y-38496D01*
X87711Y-38480D01*
X87736Y-38485D01*
X87737Y-38485D01*
X87796Y-38496D01*
X87828Y-38495D01*
X87862Y-38496D01*
X87981Y-38475D01*
X88011Y-38464D01*
X88044Y-38452D01*
X88148Y-38391D01*
X88172Y-38370D01*
X88199Y-38348D01*
X88275Y-38254D01*
X88290Y-38226D01*
X88307Y-38196D01*
X88326Y-38139D01*
X88327Y-38139D01*
X88374Y-37998D01*
X88401Y-37990D01*
X88420Y-37980D01*
X88442Y-37972D01*
X88453Y-37963D01*
X88465Y-37956D01*
X88480Y-37939D01*
X88496Y-37924D01*
X88520Y-37893D01*
X88520Y-37893D01*
X88556Y-37846D01*
X88556Y-37846D01*
X88560Y-37841D01*
X88569Y-37822D01*
X88599Y-37792D01*
X88622Y-37738D01*
X88622Y-37679D01*
X88622Y-37411D01*
X89163Y-37411D01*
X89163Y-43415D01*
G54D10*
G36*
X94659Y-31958D02*
X90826Y-31958D01*
X90590Y-31958D01*
X89675Y-31958D01*
X89675Y-34242D01*
X89163Y-34242D01*
X89163Y-35344D01*
X88713Y-35344D01*
X88713Y-33258D01*
X88707Y-32894D01*
X88579Y-32583D01*
X88460Y-32497D01*
X88388Y-32568D01*
X88388Y-32425D01*
X88376Y-32408D01*
X88376Y-31302D01*
X88287Y-31088D01*
X88124Y-30925D01*
X87911Y-30836D01*
X87680Y-30836D01*
X87466Y-30924D01*
X87303Y-31087D01*
X87214Y-31301D01*
X87214Y-31532D01*
X87302Y-31745D01*
X87465Y-31909D01*
X87679Y-31997D01*
X87910Y-31998D01*
X88123Y-31909D01*
X88287Y-31746D01*
X88375Y-31533D01*
X88376Y-31302D01*
X88376Y-32408D01*
X88301Y-32306D01*
X87963Y-32172D01*
X87599Y-32178D01*
X87288Y-32306D01*
X87201Y-32425D01*
X87795Y-33018D01*
X88388Y-32425D01*
X88388Y-32568D01*
X87867Y-33090D01*
X88460Y-33683D01*
X88579Y-33597D01*
X88713Y-33258D01*
X88713Y-35344D01*
X88622Y-35344D01*
X88622Y-35317D01*
X88622Y-35017D01*
X88602Y-34970D01*
X88602Y-34941D01*
X88596Y-34908D01*
X88592Y-34880D01*
X88524Y-34682D01*
X88509Y-34656D01*
X88495Y-34628D01*
X88430Y-34545D01*
X88430Y-34544D01*
X88144Y-34177D01*
X88144Y-34177D01*
X88104Y-34126D01*
X88085Y-34109D01*
X88070Y-34092D01*
X87967Y-34014D01*
X87945Y-34003D01*
X87991Y-34003D01*
X88301Y-33874D01*
X88388Y-33755D01*
X87795Y-33162D01*
X87723Y-33234D01*
X87723Y-33090D01*
X87130Y-32497D01*
X87011Y-32583D01*
X86877Y-32922D01*
X86882Y-33286D01*
X87011Y-33597D01*
X87130Y-33683D01*
X87723Y-33090D01*
X87723Y-33234D01*
X87201Y-33755D01*
X87288Y-33874D01*
X87439Y-33934D01*
X84038Y-34381D01*
X84039Y-34380D01*
X84039Y-34250D01*
X84004Y-34166D01*
X84913Y-32442D01*
X84915Y-32436D01*
X84918Y-32430D01*
X84920Y-32422D01*
X84925Y-32415D01*
X84935Y-32391D01*
X84937Y-32383D01*
X84941Y-32376D01*
X84944Y-32364D01*
X84944Y-32364D01*
X85290Y-31287D01*
X85378Y-31251D01*
X85470Y-31160D01*
X85519Y-31040D01*
X85519Y-30911D01*
X85470Y-30792D01*
X85379Y-30700D01*
X85259Y-30651D01*
X85130Y-30650D01*
X85011Y-30700D01*
X84919Y-30791D01*
X84870Y-30910D01*
X84869Y-31040D01*
X84919Y-31159D01*
X84934Y-31174D01*
X84683Y-31955D01*
X84669Y-31942D01*
X84651Y-31934D01*
X84516Y-30097D01*
X84577Y-30122D01*
X84707Y-30122D01*
X84826Y-30073D01*
X84904Y-29995D01*
X87316Y-29500D01*
X87303Y-29513D01*
X87214Y-29726D01*
X87214Y-29957D01*
X87302Y-30171D01*
X87465Y-30334D01*
X87679Y-30423D01*
X87910Y-30423D01*
X88123Y-30335D01*
X88287Y-30171D01*
X88375Y-29958D01*
X88376Y-29727D01*
X88287Y-29514D01*
X88124Y-29350D01*
X88098Y-29339D01*
X91012Y-28741D01*
X91013Y-28741D01*
X91032Y-28737D01*
X91070Y-28739D01*
X91088Y-28745D01*
X91088Y-28745D01*
X91903Y-29006D01*
X91909Y-29022D01*
X92000Y-29113D01*
X92120Y-29163D01*
X92249Y-29163D01*
X92368Y-29114D01*
X92460Y-29022D01*
X92509Y-28903D01*
X92509Y-28774D01*
X92460Y-28654D01*
X92369Y-28563D01*
X92249Y-28513D01*
X92120Y-28513D01*
X92057Y-28539D01*
X91238Y-28276D01*
X91238Y-28276D01*
X91190Y-28261D01*
X91159Y-28257D01*
X91128Y-28249D01*
X91027Y-28244D01*
X90996Y-28248D01*
X90965Y-28248D01*
X90915Y-28259D01*
X90914Y-28259D01*
X90561Y-28331D01*
X90561Y-24695D01*
X90357Y-24199D01*
X90353Y-24194D01*
X90190Y-24054D01*
X90118Y-24126D01*
X90118Y-23982D01*
X89979Y-23819D01*
X89483Y-23612D01*
X88947Y-23611D01*
X88451Y-23815D01*
X88446Y-23819D01*
X88306Y-23982D01*
X89212Y-24888D01*
X90118Y-23982D01*
X90118Y-24126D01*
X89284Y-24960D01*
X90190Y-25866D01*
X90353Y-25727D01*
X90560Y-25231D01*
X90561Y-24695D01*
X90561Y-28331D01*
X90118Y-28422D01*
X90118Y-25938D01*
X89212Y-25032D01*
X89207Y-25038D01*
X89135Y-24966D01*
X89140Y-24960D01*
X88234Y-24054D01*
X88071Y-24194D01*
X87864Y-24689D01*
X87863Y-25225D01*
X88065Y-25717D01*
X87963Y-25676D01*
X87599Y-25682D01*
X87288Y-25810D01*
X87201Y-25929D01*
X87795Y-26522D01*
X87800Y-26517D01*
X87872Y-26588D01*
X87867Y-26594D01*
X88460Y-27187D01*
X88579Y-27101D01*
X88713Y-26762D01*
X88707Y-26398D01*
X88613Y-26171D01*
X88941Y-26308D01*
X89477Y-26309D01*
X89973Y-26105D01*
X89979Y-26101D01*
X90118Y-25938D01*
X90118Y-28422D01*
X88388Y-28777D01*
X88388Y-27259D01*
X87795Y-26666D01*
X87723Y-26738D01*
X87723Y-26594D01*
X87130Y-26001D01*
X87011Y-26087D01*
X86877Y-26426D01*
X86882Y-26790D01*
X87011Y-27101D01*
X87130Y-27187D01*
X87723Y-26594D01*
X87723Y-26738D01*
X87201Y-27259D01*
X87288Y-27378D01*
X87627Y-27512D01*
X87991Y-27506D01*
X88301Y-27378D01*
X88388Y-27259D01*
X88388Y-28777D01*
X88376Y-28780D01*
X88376Y-28152D01*
X88287Y-27939D01*
X88124Y-27775D01*
X87911Y-27687D01*
X87680Y-27686D01*
X87466Y-27775D01*
X87303Y-27938D01*
X87214Y-28151D01*
X87214Y-28382D01*
X87302Y-28596D01*
X87465Y-28759D01*
X87679Y-28848D01*
X87910Y-28848D01*
X88123Y-28760D01*
X88287Y-28597D01*
X88375Y-28383D01*
X88376Y-28152D01*
X88376Y-28780D01*
X84804Y-29513D01*
X84741Y-29486D01*
X84845Y-29443D01*
X84937Y-29352D01*
X84986Y-29233D01*
X84986Y-29103D01*
X84937Y-28984D01*
X84846Y-28893D01*
X84726Y-28843D01*
X84692Y-28843D01*
X86900Y-24064D01*
X87336Y-24064D01*
X87390Y-24042D01*
X87432Y-24001D01*
X87454Y-23946D01*
X87454Y-23888D01*
X87454Y-23297D01*
X87432Y-23243D01*
X87403Y-23214D01*
X94659Y-23214D01*
X94659Y-23988D01*
X94614Y-23961D01*
X94542Y-24033D01*
X94542Y-23889D01*
X94486Y-23797D01*
X94240Y-23706D01*
X93978Y-23715D01*
X93780Y-23797D01*
X93725Y-23889D01*
X94133Y-24298D01*
X94542Y-23889D01*
X94542Y-24033D01*
X94205Y-24370D01*
X94614Y-24778D01*
X94659Y-24751D01*
X94659Y-25959D01*
X94542Y-25842D01*
X94542Y-24850D01*
X94133Y-24441D01*
X94062Y-24513D01*
X94062Y-24370D01*
X93653Y-23961D01*
X93561Y-24017D01*
X93470Y-24262D01*
X93479Y-24525D01*
X93561Y-24723D01*
X93653Y-24778D01*
X94062Y-24370D01*
X94062Y-24513D01*
X93725Y-24850D01*
X93780Y-24942D01*
X94026Y-25033D01*
X94288Y-25024D01*
X94486Y-24942D01*
X94542Y-24850D01*
X94542Y-25842D01*
X94496Y-25796D01*
X94261Y-25698D01*
X94007Y-25698D01*
X93771Y-25795D01*
X93591Y-25975D01*
X93584Y-25994D01*
X92829Y-25994D01*
X92829Y-24477D01*
X92819Y-24215D01*
X92737Y-24017D01*
X92645Y-23961D01*
X92573Y-24033D01*
X92573Y-23889D01*
X92518Y-23797D01*
X92272Y-23706D01*
X92010Y-23715D01*
X91812Y-23797D01*
X91756Y-23889D01*
X92165Y-24298D01*
X92573Y-23889D01*
X92573Y-24033D01*
X92237Y-24370D01*
X92645Y-24778D01*
X92737Y-24723D01*
X92829Y-24477D01*
X92829Y-25994D01*
X92715Y-25994D01*
X92708Y-25976D01*
X92573Y-25842D01*
X92573Y-24850D01*
X92165Y-24441D01*
X92093Y-24513D01*
X92093Y-24370D01*
X91685Y-23961D01*
X91593Y-24017D01*
X91501Y-24262D01*
X91511Y-24525D01*
X91593Y-24723D01*
X91685Y-24778D01*
X92093Y-24370D01*
X92093Y-24513D01*
X91756Y-24850D01*
X91812Y-24942D01*
X92058Y-25033D01*
X92320Y-25024D01*
X92518Y-24942D01*
X92573Y-24850D01*
X92573Y-25842D01*
X92528Y-25796D01*
X92293Y-25698D01*
X92038Y-25698D01*
X91803Y-25795D01*
X91623Y-25975D01*
X91525Y-26210D01*
X91525Y-26465D01*
X91622Y-26700D01*
X91802Y-26880D01*
X92037Y-26978D01*
X92292Y-26978D01*
X92527Y-26881D01*
X92707Y-26701D01*
X92715Y-26683D01*
X93583Y-26683D01*
X93591Y-26700D01*
X93770Y-26880D01*
X94006Y-26978D01*
X94260Y-26978D01*
X94495Y-26881D01*
X94659Y-26718D01*
X94659Y-28100D01*
X92627Y-28100D01*
X92627Y-31269D01*
X94659Y-31269D01*
X94659Y-31958D01*
X94659Y-31958D01*
G37*
G54D36*
X94659Y-31958D02*
X90826Y-31958D01*
X90590Y-31958D01*
X89675Y-31958D01*
X89675Y-34242D01*
X89163Y-34242D01*
X89163Y-35344D01*
X88713Y-35344D01*
X88713Y-33258D01*
X88707Y-32894D01*
X88579Y-32583D01*
X88460Y-32497D01*
X88388Y-32568D01*
X88388Y-32425D01*
X88376Y-32408D01*
X88376Y-31302D01*
X88287Y-31088D01*
X88124Y-30925D01*
X87911Y-30836D01*
X87680Y-30836D01*
X87466Y-30924D01*
X87303Y-31087D01*
X87214Y-31301D01*
X87214Y-31532D01*
X87302Y-31745D01*
X87465Y-31909D01*
X87679Y-31997D01*
X87910Y-31998D01*
X88123Y-31909D01*
X88287Y-31746D01*
X88375Y-31533D01*
X88376Y-31302D01*
X88376Y-32408D01*
X88301Y-32306D01*
X87963Y-32172D01*
X87599Y-32178D01*
X87288Y-32306D01*
X87201Y-32425D01*
X87795Y-33018D01*
X88388Y-32425D01*
X88388Y-32568D01*
X87867Y-33090D01*
X88460Y-33683D01*
X88579Y-33597D01*
X88713Y-33258D01*
X88713Y-35344D01*
X88622Y-35344D01*
X88622Y-35317D01*
X88622Y-35017D01*
X88602Y-34970D01*
X88602Y-34941D01*
X88596Y-34908D01*
X88592Y-34880D01*
X88524Y-34682D01*
X88509Y-34656D01*
X88495Y-34628D01*
X88430Y-34545D01*
X88430Y-34544D01*
X88144Y-34177D01*
X88144Y-34177D01*
X88104Y-34126D01*
X88085Y-34109D01*
X88070Y-34092D01*
X87967Y-34014D01*
X87945Y-34003D01*
X87991Y-34003D01*
X88301Y-33874D01*
X88388Y-33755D01*
X87795Y-33162D01*
X87723Y-33234D01*
X87723Y-33090D01*
X87130Y-32497D01*
X87011Y-32583D01*
X86877Y-32922D01*
X86882Y-33286D01*
X87011Y-33597D01*
X87130Y-33683D01*
X87723Y-33090D01*
X87723Y-33234D01*
X87201Y-33755D01*
X87288Y-33874D01*
X87439Y-33934D01*
X84038Y-34381D01*
X84039Y-34380D01*
X84039Y-34250D01*
X84004Y-34166D01*
X84913Y-32442D01*
X84915Y-32436D01*
X84918Y-32430D01*
X84920Y-32422D01*
X84925Y-32415D01*
X84935Y-32391D01*
X84937Y-32383D01*
X84941Y-32376D01*
X84944Y-32364D01*
X84944Y-32364D01*
X85290Y-31287D01*
X85378Y-31251D01*
X85470Y-31160D01*
X85519Y-31040D01*
X85519Y-30911D01*
X85470Y-30792D01*
X85379Y-30700D01*
X85259Y-30651D01*
X85130Y-30650D01*
X85011Y-30700D01*
X84919Y-30791D01*
X84870Y-30910D01*
X84869Y-31040D01*
X84919Y-31159D01*
X84934Y-31174D01*
X84683Y-31955D01*
X84669Y-31942D01*
X84651Y-31934D01*
X84516Y-30097D01*
X84577Y-30122D01*
X84707Y-30122D01*
X84826Y-30073D01*
X84904Y-29995D01*
X87316Y-29500D01*
X87303Y-29513D01*
X87214Y-29726D01*
X87214Y-29957D01*
X87302Y-30171D01*
X87465Y-30334D01*
X87679Y-30423D01*
X87910Y-30423D01*
X88123Y-30335D01*
X88287Y-30171D01*
X88375Y-29958D01*
X88376Y-29727D01*
X88287Y-29514D01*
X88124Y-29350D01*
X88098Y-29339D01*
X91012Y-28741D01*
X91013Y-28741D01*
X91032Y-28737D01*
X91070Y-28739D01*
X91088Y-28745D01*
X91088Y-28745D01*
X91903Y-29006D01*
X91909Y-29022D01*
X92000Y-29113D01*
X92120Y-29163D01*
X92249Y-29163D01*
X92368Y-29114D01*
X92460Y-29022D01*
X92509Y-28903D01*
X92509Y-28774D01*
X92460Y-28654D01*
X92369Y-28563D01*
X92249Y-28513D01*
X92120Y-28513D01*
X92057Y-28539D01*
X91238Y-28276D01*
X91238Y-28276D01*
X91190Y-28261D01*
X91159Y-28257D01*
X91128Y-28249D01*
X91027Y-28244D01*
X90996Y-28248D01*
X90965Y-28248D01*
X90915Y-28259D01*
X90914Y-28259D01*
X90561Y-28331D01*
X90561Y-24695D01*
X90357Y-24199D01*
X90353Y-24194D01*
X90190Y-24054D01*
X90118Y-24126D01*
X90118Y-23982D01*
X89979Y-23819D01*
X89483Y-23612D01*
X88947Y-23611D01*
X88451Y-23815D01*
X88446Y-23819D01*
X88306Y-23982D01*
X89212Y-24888D01*
X90118Y-23982D01*
X90118Y-24126D01*
X89284Y-24960D01*
X90190Y-25866D01*
X90353Y-25727D01*
X90560Y-25231D01*
X90561Y-24695D01*
X90561Y-28331D01*
X90118Y-28422D01*
X90118Y-25938D01*
X89212Y-25032D01*
X89207Y-25038D01*
X89135Y-24966D01*
X89140Y-24960D01*
X88234Y-24054D01*
X88071Y-24194D01*
X87864Y-24689D01*
X87863Y-25225D01*
X88065Y-25717D01*
X87963Y-25676D01*
X87599Y-25682D01*
X87288Y-25810D01*
X87201Y-25929D01*
X87795Y-26522D01*
X87800Y-26517D01*
X87872Y-26588D01*
X87867Y-26594D01*
X88460Y-27187D01*
X88579Y-27101D01*
X88713Y-26762D01*
X88707Y-26398D01*
X88613Y-26171D01*
X88941Y-26308D01*
X89477Y-26309D01*
X89973Y-26105D01*
X89979Y-26101D01*
X90118Y-25938D01*
X90118Y-28422D01*
X88388Y-28777D01*
X88388Y-27259D01*
X87795Y-26666D01*
X87723Y-26738D01*
X87723Y-26594D01*
X87130Y-26001D01*
X87011Y-26087D01*
X86877Y-26426D01*
X86882Y-26790D01*
X87011Y-27101D01*
X87130Y-27187D01*
X87723Y-26594D01*
X87723Y-26738D01*
X87201Y-27259D01*
X87288Y-27378D01*
X87627Y-27512D01*
X87991Y-27506D01*
X88301Y-27378D01*
X88388Y-27259D01*
X88388Y-28777D01*
X88376Y-28780D01*
X88376Y-28152D01*
X88287Y-27939D01*
X88124Y-27775D01*
X87911Y-27687D01*
X87680Y-27686D01*
X87466Y-27775D01*
X87303Y-27938D01*
X87214Y-28151D01*
X87214Y-28382D01*
X87302Y-28596D01*
X87465Y-28759D01*
X87679Y-28848D01*
X87910Y-28848D01*
X88123Y-28760D01*
X88287Y-28597D01*
X88375Y-28383D01*
X88376Y-28152D01*
X88376Y-28780D01*
X84804Y-29513D01*
X84741Y-29486D01*
X84845Y-29443D01*
X84937Y-29352D01*
X84986Y-29233D01*
X84986Y-29103D01*
X84937Y-28984D01*
X84846Y-28893D01*
X84726Y-28843D01*
X84692Y-28843D01*
X86900Y-24064D01*
X87336Y-24064D01*
X87390Y-24042D01*
X87432Y-24001D01*
X87454Y-23946D01*
X87454Y-23888D01*
X87454Y-23297D01*
X87432Y-23243D01*
X87403Y-23214D01*
X94659Y-23214D01*
X94659Y-23988D01*
X94614Y-23961D01*
X94542Y-24033D01*
X94542Y-23889D01*
X94486Y-23797D01*
X94240Y-23706D01*
X93978Y-23715D01*
X93780Y-23797D01*
X93725Y-23889D01*
X94133Y-24298D01*
X94542Y-23889D01*
X94542Y-24033D01*
X94205Y-24370D01*
X94614Y-24778D01*
X94659Y-24751D01*
X94659Y-25959D01*
X94542Y-25842D01*
X94542Y-24850D01*
X94133Y-24441D01*
X94062Y-24513D01*
X94062Y-24370D01*
X93653Y-23961D01*
X93561Y-24017D01*
X93470Y-24262D01*
X93479Y-24525D01*
X93561Y-24723D01*
X93653Y-24778D01*
X94062Y-24370D01*
X94062Y-24513D01*
X93725Y-24850D01*
X93780Y-24942D01*
X94026Y-25033D01*
X94288Y-25024D01*
X94486Y-24942D01*
X94542Y-24850D01*
X94542Y-25842D01*
X94496Y-25796D01*
X94261Y-25698D01*
X94007Y-25698D01*
X93771Y-25795D01*
X93591Y-25975D01*
X93584Y-25994D01*
X92829Y-25994D01*
X92829Y-24477D01*
X92819Y-24215D01*
X92737Y-24017D01*
X92645Y-23961D01*
X92573Y-24033D01*
X92573Y-23889D01*
X92518Y-23797D01*
X92272Y-23706D01*
X92010Y-23715D01*
X91812Y-23797D01*
X91756Y-23889D01*
X92165Y-24298D01*
X92573Y-23889D01*
X92573Y-24033D01*
X92237Y-24370D01*
X92645Y-24778D01*
X92737Y-24723D01*
X92829Y-24477D01*
X92829Y-25994D01*
X92715Y-25994D01*
X92708Y-25976D01*
X92573Y-25842D01*
X92573Y-24850D01*
X92165Y-24441D01*
X92093Y-24513D01*
X92093Y-24370D01*
X91685Y-23961D01*
X91593Y-24017D01*
X91501Y-24262D01*
X91511Y-24525D01*
X91593Y-24723D01*
X91685Y-24778D01*
X92093Y-24370D01*
X92093Y-24513D01*
X91756Y-24850D01*
X91812Y-24942D01*
X92058Y-25033D01*
X92320Y-25024D01*
X92518Y-24942D01*
X92573Y-24850D01*
X92573Y-25842D01*
X92528Y-25796D01*
X92293Y-25698D01*
X92038Y-25698D01*
X91803Y-25795D01*
X91623Y-25975D01*
X91525Y-26210D01*
X91525Y-26465D01*
X91622Y-26700D01*
X91802Y-26880D01*
X92037Y-26978D01*
X92292Y-26978D01*
X92527Y-26881D01*
X92707Y-26701D01*
X92715Y-26683D01*
X93583Y-26683D01*
X93591Y-26700D01*
X93770Y-26880D01*
X94006Y-26978D01*
X94260Y-26978D01*
X94495Y-26881D01*
X94659Y-26718D01*
X94659Y-28100D01*
X92627Y-28100D01*
X92627Y-31269D01*
X94659Y-31269D01*
X94659Y-31958D01*
M02*
